<svg xmlns="http://www.w3.org/2000/svg" style="background: transparent; background-color: transparent;" xmlns:xlink="http://www.w3.org/1999/xlink" version="1.1" width="1490px" height="775px" viewBox="-0.5 -0.5 1490 775" content="&lt;mxfile&gt;&lt;diagram name=&quot;Arquitectura Lab-13&quot; id=&quot;lab13-arch&quot;&gt;7Vptc9q6Ev41nknvTDI2BgIfwUBvp825ndLM+cgIWzi6sS0fSU5If/3ZlWzjF5FASzr3zpy+AJZsrbT7aJ/dlR0/SPcfBckf7nhEE2fgRnvHXziDwXjowic2vJiGkTswDbFgkWnyDg1r9oOWjeVzccEiKls3Ks4TxfJ2Y8izjIaq1UaE4M/t23Y8aUvNSUx7DeuQJP3WP1mkHsrWkeseOv5NWfxQip5WHSmpbi4b5AOJ+HOjyV86fiA4V+ZXug9ogrqr9GKeWx3prScmaKZOeUAxBYvSDz2RpCjX94Vsrz0f2pzlwJm4znQIvz/freEzuPuM7YM5fM4SRmR99Zm+wOdXnrDwxege10djQWMSMifwnbmPTRHIcwVPqH40GDjzW7yd7QSoAi0pSCafqJAEJ7qcr2sJa79UmnqpLKHoHtY5f1BpAg0e/CQJizP4HYIGqIAGGEoxsN2s7EhZFOHj8+cHpug6JyGO9QxAhbYdz1SJN29SXZfivPI64AkXWrwPf1eo2Hlf76UpUDrdN5pKO3ykPKVKoKbK3mpTvFRoMpfPDYANK9g8NMDllzeSEtRxPfLB7vCjNL0dBo+pnPN9Dwfa5B2NC15kEY1Kfdh02DDGjiVJQ12r1XK+RHVJJfgjbfQsFv5wGNQ91a4adEwytJjkTYMrjrOSMEmWxd/xYgGOpG75QneoSdB3z7zzWy/wgncx78TtmffWtVh3XDX+innD9PGT3o8d+/aMKx+pCnE6qB9eqIRlYKXKibqvbIAYdi+jh76MZ7QPgI6ZOzdHRD5oZLkNK4IvoslXLpliHK255Urx9KiZe2hoorGBJK+DJBRJZG4WumN7nMc85wxHWT7BYLIcBDx2jg+k+xi57YY8y+HNI33ZpCQDt5/CrRtJxRPDLXEJ4Ew6fsHvI2dsBc5FcPNlm1hgM05Uqb8WfsZ/FbzquJZa0zO4wRvme62Lqh9+xeW3HmhrHaV/P+h6A65q86ip5tCfEpa17k7M92p7kOReBYUE5AAoBu6dtlVkWOtDPQ1R3U4zsk0oytkIroiGHgjE2QE/FchgVyQrkKEC1HGBkASGm3kIScuAEABRHGXzzDIkfJx9458eGGkw0qMskFbrRRg1V+s4mQAT7dd+nv4sdDfzvDFi5xKw9kajDq77hDd6L2ATjFxsjFchjNShzesYO1i4fGKVkK3nX5u73TKEgvhp0vih20leZIrgD/ifkDqA+oRQuLq//7SwwCggOalCKAASEzRshlbNcA1xK6qhTdSWYXjFtwCESq7iob5Jh+ehGShiMTfxmywALFzcXDgGwD9nxABekxm6bnx4BuA7fD98X3yP2267jvibbtsG78kF4A1+q4rDj7ju2jF2ovYmgiyxO8WP79+W6zqERwdvc7dd5FpaViBnhaKmntlp7Zl9wyQI9BCGgDZ1xKnr+Y6dKS4T9i1M51+4fWBfFDkV/bwD+FnENAuZzUnDN0kRvdlW5pbrtd7TVCqqtwNRmu0NBYC0SFOLzlq01BkkpCluJRKl7MAfYUKe9P4V1SyBam7O0djcmbk2jc1QDoPdA4mU0OnVlRa9yQWDJeck2RCRyQ8n6DKGVbZ0px0ECxNeafKJReR8FQaCgtrKxBH1ttRMCyj8VvMsNq9D2O+F7liU1HlzY1fSq/L++A/apqCRRu4yC8VLjqjKGHwsaHXZhH0lBNxFZo1LQuMwAPj+aDSZw6bsBSra0yZUC42I4tKpM9wmsxsR5pGzEOA5s6ENAfeyIIJpcTuWkaQEQZ7/BAQKqenCbCOeIa7P1X6t76Cpbbz4SDMYV9EFUUS7oF8zbMojtmPhgfCqTabtTBMGu4CIhLxGZe5PUFmw0Clqj8qC8WAymFip7Ez2OjF5tZDZJZPXDpn5p5LZYHoBNqNba6hmKkNXTzwpUnrYXx8uHa34S9dm4uVqHLhuz8TdioXvHK9Y/JrJLfWK5Xjk6TldwOS3kzcLFuPJO5o84FG/MAmsxgsR0lZkjjE7PLCpkHBwxo2bwAuTdtetPUp51euol5w6ndytncQdZMS5/1q+8JYonT6/Kspzzx+1xxjUuGidCzcHN1nuiZHdeSLLDH7DoqbAVuZ1g/nTDTDViVO4XZzCngHBkMXdJvwvncKbqMbAxhSrKzfiVPXrIiOGwvHLlB1iTV16pJw3M6xLk8uxPOmI53nf1OiSrmUy6ab+fd8yqsoDLd8yuIBvkb6NTfBswb3aFuEjVbX11+vltTn22HHx4/Lk4q0my6nNxGVc+Svl8IuTi++Pp96Fzjq65OJPfye7SP9/oxp+O8OCQ8/+//fVcLOLNs9MPWz49r8wiryQ4/DasBkOLbB5p5Kh9INd/HY9BWlM+ptSBXgQQMVGsohuSqbFIjCgb8fiQpQJ7ykUJyUFaoy5AKWmb0QeBM+3Z1gOeSX+QK5NiQSDNsj4BCa2EGzVUC4ahzMF9MOYx8MJXMDV9XTqDEba75rqCnhde4HmrTnMKw9elrT0AcRAk32GSKL7PDE19pCpVjL+ivIX8OwfPINJ3ecJJ5GsUuWyZGAiCgwDvt5/Rx+iyz37a5L+uDYQuEYIXB8gYObVNJRF5J+CZzEI/Vwed7hHxR5Ozw1xmXpvxKRihyKzrUL9WwKWI2z2W7PhS7JXN36xuaH3i1+IEEH6uNzKnjNqhqkdw9IsmuGLL8gFCZGShW1btg1/zvH80dL8oG+Et+vrNGq9edM3gaAJeM2n9os4NnWWj35F0moEHoM2g/QsYvLL8qmDUXoDdanI63KMIiKmqjeQtm69njMMXr380rB3Ha3+Y/EzLN49YPlZiw9v383iCYUkM3o72PhKlGic/tVsT7MnmnBdqmhQziEYOHZo0zosLLKwphbs0lXlqpitjx4VwfMP2mElkx+3smZdhV7OkdJdJKkmcHXf2scuk5VLQ8+VaFxZ2E7cVxhUKg75truUimuMRIWuCiX61DZJSAqPyJL4TAqHWMqpSJkyL6D1jkcNawt6reWK9pot5fkvxLGU4I+98dY44q1O2+yvKdSnRXiw4BZSnyqZC3wvEBXF0pzpQY3GCrydNA9/nPqMGFZCobEIVaGNgiVzbU6qx63tiXfngoMajx0oQ2Shqtf2ysiCVxpODoN8mt05ujJi5mZZtquHMJWVRkEvr7qjMgDs11Pe822/bi5tcWYj/ecyMUTHmdx6/RDCG04tucwlzocH/+S+fda6TO5bFqErjPQAYYHNyemuNxj3091BHyK3k7MhApeHl44NYx3e3PaXfwM=&lt;/diagram&gt;&lt;/mxfile&gt;"><defs/><g><g><rect x="30" y="0" width="1420" height="35" fill="none" stroke="none" pointer-events="all"/></g><g><g transform="translate(-0.5 -0.5)"><switch><foreignObject style="overflow: visible; text-align: left;" pointer-events="none" width="100%" height="100%" requiredFeatures="http://www.w3.org/TR/SVG11/feature#Extensibility"><div xmlns="http://www.w3.org/1999/xhtml" style="display: flex; align-items: unsafe center; justify-content: unsafe center; width: 1418px; height: 1px; padding-top: 18px; margin-left: 31px;"><div style="box-sizing: border-box; font-size: 0; text-align: center; color: #232F3E; "><div style="display: inline-block; font-size: 18px; font-family: &quot;Helvetica&quot;; color: light-dark(#232F3E, #bdc7d4); line-height: 1.2; pointer-events: all; font-weight: bold; white-space: normal; word-wrap: normal; ">Lab-13 — KMS CMK + Alias + Key Policy con segregación de roles · cifrado transversal EBS + S3</div></div></div></foreignObject><text x="740" y="23" fill="#232F3E" font-family="&quot;Helvetica&quot;" font-size="18px" text-anchor="middle" font-weight="bold">Lab-13 — KMS CMK + Alias + Key Policy con segregación de roles · cifrado transversal EBS + S3</text></switch></g></g><g><rect x="30" y="65" width="700" height="600" rx="90" ry="90" fill="#ffebee" stroke="#dd344c" stroke-width="2" pointer-events="all" style="fill: light-dark(rgb(255, 235, 238), rgb(44, 27, 30)); stroke: light-dark(rgb(221, 52, 76), rgb(255, 127, 147));"/></g><g><g transform="translate(-0.5 -0.5)"><switch><foreignObject style="overflow: visible; text-align: left;" pointer-events="none" width="100%" height="100%" requiredFeatures="http://www.w3.org/TR/SVG11/feature#Extensibility"><div xmlns="http://www.w3.org/1999/xhtml" style="display: flex; align-items: unsafe flex-start; justify-content: unsafe center; width: 683px; height: 1px; padding-top: 82px; margin-left: 46px;"><div style="box-sizing: border-box; font-size: 0; text-align: center; color: #B71C1C; "><div style="display: inline-block; font-size: 14px; font-family: &quot;Helvetica&quot;; color: light-dark(#B71C1C, #ff9c9c); line-height: 1.2; pointer-events: all; font-weight: bold; white-space: normal; word-wrap: normal; ">KMS</div></div></div></foreignObject><text x="388" y="96" fill="#B71C1C" font-family="&quot;Helvetica&quot;" font-size="14px" text-anchor="middle" font-weight="bold">KMS</text></switch></g></g><g><rect x="70" y="115" width="60" height="60" fill="none" stroke="none" pointer-events="all"/><path d="M 113.84 159.17 L 121.92 159.17 L 121.92 156.86 L 113.84 156.86 Z M 103.46 159.17 L 111.54 159.17 L 111.54 156.86 L 103.46 156.86 Z M 93.07 159.17 L 101.15 159.17 L 101.15 156.86 L 93.07 156.86 Z M 105.77 149.94 C 105.77 148.67 106.8 147.63 108.08 147.63 C 109.35 147.63 110.38 148.67 110.38 149.94 C 110.38 151.21 109.35 152.25 108.08 152.25 C 106.8 152.25 105.77 151.21 105.77 149.94 Z M 112.69 149.94 C 112.69 147.39 110.62 145.32 108.08 145.32 C 105.53 145.32 103.46 147.39 103.46 149.94 C 103.46 152.48 105.53 154.55 108.08 154.55 C 110.62 154.55 112.69 152.48 112.69 149.94 Z M 96.54 147.63 C 97.81 147.63 98.84 148.67 98.84 149.94 C 98.84 151.21 97.81 152.25 96.54 152.25 C 95.26 152.25 94.23 151.21 94.23 149.94 C 94.23 148.67 95.26 147.63 96.54 147.63 Z M 96.54 154.55 C 99.08 154.55 101.15 152.48 101.15 149.94 C 101.15 147.39 99.08 145.32 96.54 145.32 C 93.99 145.32 91.92 147.39 91.92 149.94 C 91.92 152.48 93.99 154.55 96.54 154.55 Z M 130 137.25 L 130 163.79 C 130 164.42 129.48 164.94 128.85 164.94 L 93.07 164.94 L 93.07 162.63 L 127.69 162.63 L 127.69 138.4 L 102.31 138.4 L 102.31 136.09 L 128.85 136.09 C 129.48 136.09 130 136.61 130 137.25 Z M 89.26 143.07 C 88.78 143.22 88.46 143.67 88.46 144.17 L 88.46 168.45 L 85.69 170.82 L 82.69 167.39 L 82.69 164.36 C 82.69 164.06 82.57 163.76 82.35 163.55 L 79.71 160.9 L 82.35 158.26 C 82.57 158.04 82.69 157.75 82.69 157.44 L 82.69 155.13 C 82.69 154.83 82.57 154.53 82.35 154.32 L 79.71 151.67 L 82.35 149.02 C 82.57 148.81 82.69 148.51 82.69 148.21 L 82.69 144.18 C 82.69 143.68 82.36 143.23 81.88 143.08 C 75.95 141.2 72.44 135.1 73.73 128.88 C 74.65 124.41 78.09 120.82 82.5 119.74 C 86.25 118.82 90.09 119.62 93.05 121.94 C 96 124.25 97.69 127.73 97.69 131.48 C 97.69 136.73 94.23 141.5 89.26 143.07 Z M 100 131.48 C 100 127.02 97.98 122.88 94.47 120.12 C 90.96 117.36 86.4 116.41 81.95 117.5 C 76.68 118.78 72.57 123.07 71.47 128.42 L 71.47 128.42 C 70 135.51 73.81 142.48 80.38 145 L 80.38 147.73 L 77.26 150.85 C 76.81 151.31 76.81 152.03 77.26 152.49 L 80.38 155.61 L 80.38 156.96 L 77.26 160.09 C 76.81 160.54 76.81 161.27 77.26 161.72 L 80.38 164.84 L 80.38 167.82 C 80.38 168.1 80.48 168.37 80.67 168.59 L 84.71 173.2 C 84.93 173.46 85.25 173.59 85.57 173.59 C 85.84 173.59 86.11 173.5 86.32 173.32 L 90.36 169.85 C 90.62 169.64 90.77 169.32 90.77 168.98 L 90.77 144.99 C 96.24 142.87 100 137.44 100 131.48 Z M 85.57 134.21 C 83.98 134.21 82.69 132.92 82.69 131.33 C 82.69 129.74 83.98 128.44 85.57 128.44 C 87.16 128.44 88.46 129.74 88.46 131.33 C 88.46 132.92 87.16 134.21 85.57 134.21 Z M 85.57 126.13 C 82.71 126.13 80.38 128.46 80.38 131.33 C 80.38 134.19 82.71 136.52 85.57 136.52 C 88.44 136.52 90.77 134.19 90.77 131.33 C 90.77 128.46 88.44 126.13 85.57 126.13 Z" fill="#dd344c" stroke="none" pointer-events="all" style="fill: light-dark(rgb(221, 52, 76), rgb(255, 127, 147));"/></g><g><rect x="145" y="120" width="560" height="60" fill="none" stroke="none" pointer-events="all"/></g><g><g transform="translate(-0.5 -0.5)"><switch><foreignObject style="overflow: visible; text-align: left;" pointer-events="none" width="100%" height="100%" requiredFeatures="http://www.w3.org/TR/SVG11/feature#Extensibility"><div xmlns="http://www.w3.org/1999/xhtml" style="display: flex; align-items: unsafe center; justify-content: unsafe flex-start; width: 558px; height: 1px; padding-top: 150px; margin-left: 147px;"><div style="box-sizing: border-box; font-size: 0; text-align: left; color: #A1162F; "><div style="display: inline-block; font-size: 11px; font-family: &quot;Helvetica&quot;; color: light-dark(#A1162F, #ffa4b9); line-height: 1.2; pointer-events: all; white-space: normal; word-wrap: normal; "><font style="font-size: 14px;"><b style="">aws_kms_key "main"</b> (Customer Managed Key)<br />enable_key_rotation = true (anual, automática)<br />deletion_window     = 7 días</font></div></div></div></foreignObject><text x="147" y="153" fill="#A1162F" font-family="&quot;Helvetica&quot;" font-size="11px">aws_kms_key "main" (Customer Managed Key)...</text></switch></g></g><g><rect x="50" y="205" width="660" height="80" rx="12" ry="12" fill="#ffffff" stroke="#dd344c" stroke-dasharray="3 3" pointer-events="all" style="fill: light-dark(rgb(255, 255, 255), rgb(18, 18, 18)); stroke: light-dark(rgb(221, 52, 76), rgb(255, 127, 147));"/></g><g><g transform="translate(-0.5 -0.5)"><switch><foreignObject style="overflow: visible; text-align: left;" pointer-events="none" width="100%" height="100%" requiredFeatures="http://www.w3.org/TR/SVG11/feature#Extensibility"><div xmlns="http://www.w3.org/1999/xhtml" style="display: flex; align-items: unsafe center; justify-content: unsafe flex-start; width: 644px; height: 1px; padding-top: 245px; margin-left: 66px;"><div style="box-sizing: border-box; font-size: 0; text-align: left; color: #A1162F; "><div style="display: inline-block; font-size: 14px; font-family: &quot;Helvetica&quot;; color: light-dark(#A1162F, #ffa4b9); line-height: 1.2; pointer-events: all; white-space: normal; word-wrap: normal; ">aws_kms_alias "main"<br />alias/lab13-main  ──  apunta a la Key ID (UUID)<br />Capa de indirección — rotar la CMK no obliga a tocar el código consumidor.</div></div></div></foreignObject><text x="66" y="249" fill="#A1162F" font-family="&quot;Helvetica&quot;" font-size="14px">aws_kms_alias "main"...</text></switch></g></g><g><rect x="50" y="305" width="660" height="290" fill="#ffcdd2" stroke="#c62828" pointer-events="all" style="fill: light-dark(rgb(255, 205, 210), rgb(85, 42, 46)); stroke: light-dark(rgb(198, 40, 40), rgb(255, 145, 145));"/></g><g><g transform="translate(-0.5 -0.5)"><switch><foreignObject style="overflow: visible; text-align: left;" pointer-events="none" width="100%" height="100%" requiredFeatures="http://www.w3.org/TR/SVG11/feature#Extensibility"><div xmlns="http://www.w3.org/1999/xhtml" style="display: flex; align-items: unsafe flex-start; justify-content: unsafe flex-start; width: 644px; height: 1px; padding-top: 322px; margin-left: 66px;"><div style="box-sizing: border-box; font-size: 0; text-align: left; color: #B71C1C; "><div style="display: inline-block; font-size: 14px; font-family: &quot;Helvetica&quot;; color: light-dark(#B71C1C, #ff9c9c); line-height: 1.2; pointer-events: all; white-space: normal; word-wrap: normal; "><b>Key Policy — segregación en TRES roles:</b><br /><br />🔑 <b>Root account</b> → kms:* (recuperación de emergencia)<br />  Sin este statement, perder al último admin = clave irrecuperable.<br /><br />🛠 <b>Administradores (admin_principal_arns)</b> → gestión del ciclo de vida<br />  CreateAlias, EnableKeyRotation, ScheduleKeyDeletion...<br />  NO pueden Encrypt ni Decrypt — <span style="color: light-dark(rgb(85, 139, 47), rgb(103, 149, 70));">no leen datos cifrados</span>.<br /><br />👤 <b>Usuarios finales (app_principal_arns)</b> → uso operacional<br />  Encrypt, Decrypt, GenerateDataKey<br />  NO pueden modificar la clave ni eliminarla.</div></div></div></foreignObject><text x="66" y="336" fill="#B71C1C" font-family="&quot;Helvetica&quot;" font-size="14px">Key Policy — segregación en TRES roles:...</text></switch></g></g><g><rect x="770" y="65" width="680" height="290" rx="43.5" ry="43.5" fill="#fff3e0" stroke="#ef6c00" stroke-width="2" pointer-events="all" style="fill: light-dark(rgb(255, 243, 224), rgb(36, 26, 9)); stroke: light-dark(rgb(239, 108, 0), rgb(222, 110, 17));"/></g><g><g transform="translate(-0.5 -0.5)"><switch><foreignObject style="overflow: visible; text-align: left;" pointer-events="none" width="100%" height="100%" requiredFeatures="http://www.w3.org/TR/SVG11/feature#Extensibility"><div xmlns="http://www.w3.org/1999/xhtml" style="display: flex; align-items: unsafe flex-start; justify-content: unsafe flex-start; width: 663px; height: 1px; padding-top: 82px; margin-left: 787px;"><div style="box-sizing: border-box; font-size: 0; text-align: left; color: #E65100; "><div style="display: inline-block; font-size: 13px; font-family: &quot;Helvetica&quot;; color: light-dark(#E65100, #fb7b35); line-height: 1.2; pointer-events: all; font-weight: bold; white-space: normal; word-wrap: normal; ">EBS (volume cifrado)</div></div></div></foreignObject><text x="787" y="95" fill="#E65100" font-family="&quot;Helvetica&quot;" font-size="13px" font-weight="bold">EBS (volume cifrado)</text></switch></g></g><g><rect x="875" y="115" width="555" height="220" fill="#ffffff" stroke="#ef6c00" pointer-events="all" style="fill: light-dark(rgb(255, 255, 255), rgb(18, 18, 18)); stroke: light-dark(rgb(239, 108, 0), rgb(222, 110, 17));"/></g><g><g transform="translate(-0.5 -0.5)"><switch><foreignObject style="overflow: visible; text-align: left;" pointer-events="none" width="100%" height="100%" requiredFeatures="http://www.w3.org/TR/SVG11/feature#Extensibility"><div xmlns="http://www.w3.org/1999/xhtml" style="display: flex; align-items: unsafe center; justify-content: unsafe flex-start; width: 539px; height: 1px; padding-top: 225px; margin-left: 891px;"><div style="box-sizing: border-box; font-size: 0; text-align: left; color: #E65100; "><div style="display: inline-block; font-size: 14px; font-family: &quot;Helvetica&quot;; color: light-dark(#E65100, #fb7b35); line-height: 1.2; pointer-events: all; white-space: normal; word-wrap: normal; ">resource "aws_ebs_volume" "data" {<br />  type        = "gp3"<br />  size        = 10<br />  <b>encrypted   = true</b><br />  <b>kms_key_id  = aws_kms_alias.main.arn</b><br />}<br /><br />Cada bloque del volumen se cifra con una data key generada por la CMK.</div></div></div></foreignObject><text x="891" y="229" fill="#E65100" font-family="&quot;Helvetica&quot;" font-size="14px">resource "aws_ebs_volume" "data" {...</text></switch></g></g><g><rect x="770" y="375" width="680" height="290" rx="43.5" ry="43.5" fill="#f1f8e9" stroke="#558b2f" stroke-width="2" pointer-events="all" style="fill: light-dark(rgb(241, 248, 233), rgb(22, 28, 15)); stroke: light-dark(rgb(85, 139, 47), rgb(103, 149, 70));"/></g><g><g transform="translate(-0.5 -0.5)"><switch><foreignObject style="overflow: visible; text-align: left;" pointer-events="none" width="100%" height="100%" requiredFeatures="http://www.w3.org/TR/SVG11/feature#Extensibility"><div xmlns="http://www.w3.org/1999/xhtml" style="display: flex; align-items: unsafe flex-start; justify-content: unsafe flex-start; width: 663px; height: 1px; padding-top: 392px; margin-left: 787px;"><div style="box-sizing: border-box; font-size: 0; text-align: left; color: #33691E; "><div style="display: inline-block; font-size: 14px; font-family: &quot;Helvetica&quot;; color: light-dark(#33691E, #82b070); line-height: 1.2; pointer-events: all; font-weight: bold; white-space: normal; word-wrap: normal; ">S3 (bucket con SSE-KMS forzado)</div></div></div></foreignObject><text x="787" y="406" fill="#33691E" font-family="&quot;Helvetica&quot;" font-size="14px" font-weight="bold">S3 (bucket con SSE-KMS forzado)</text></switch></g></g><g><rect x="800" y="425" width="60" height="60" fill="none" stroke="none" pointer-events="all"/><path d="M 825.08 465.56 L 815.65 465.56 C 814.9 465.56 814.28 466.18 814.28 466.93 L 814.28 476.47 C 814.28 477.23 814.9 477.84 815.65 477.84 L 825.08 477.84 C 825.84 477.84 826.45 477.23 826.45 476.47 L 826.45 466.93 C 826.45 466.18 825.84 465.56 825.08 465.56 Z M 817.02 475.11 L 817.02 468.3 L 823.72 468.3 L 823.72 475.11 Z M 837.6 473.13 C 841.31 473.13 844.33 470.1 844.33 466.37 C 844.33 462.63 841.31 459.6 837.6 459.6 C 833.88 459.6 830.86 462.63 830.86 466.37 C 830.86 470.1 833.88 473.13 837.6 473.13 Z M 837.6 462.33 C 839.8 462.33 841.6 464.14 841.6 466.37 C 841.6 468.59 839.8 470.4 837.6 470.4 C 835.39 470.4 833.59 468.59 833.59 466.37 C 833.59 464.14 835.39 462.33 837.6 462.33 Z M 825.07 460.44 C 825.31 460.02 825.3 459.49 825.05 459.07 L 819.08 449.13 C 818.59 448.3 817.23 448.3 816.74 449.13 L 810.77 459.07 C 810.52 459.49 810.51 460.02 810.76 460.45 C 811 460.88 811.45 461.14 811.94 461.14 L 823.88 461.14 C 824.37 461.14 824.82 460.88 825.07 460.44 Z M 814.36 458.4 L 817.91 452.49 L 821.46 458.4 Z M 858.7 458.03 C 858.41 456.47 856.61 454.81 852.94 452.71 L 855.27 435.35 L 855.27 435.34 L 855.27 435.34 L 855.34 434.81 C 855.35 434.75 855.35 434.69 855.35 434.63 C 855.35 428.96 841.07 425 828.26 425 C 815.44 425 801.16 428.96 801.16 434.63 C 801.16 434.69 801.16 434.75 801.17 434.81 L 801.24 435.34 L 801.24 435.34 L 801.24 435.35 L 807 478.12 C 807.18 483.13 820.1 485 828.26 485 C 832.77 485 837.29 484.53 841 483.67 C 842.49 483.33 843.83 482.92 844.98 482.47 C 847.93 481.3 849.45 479.84 849.51 478.12 L 851.88 460.52 C 853.18 460.8 854.35 460.96 855.33 460.96 C 856.65 460.96 857.64 460.68 858.18 460.05 C 858.65 459.48 858.84 458.76 858.7 458.03 Z M 828.26 427.73 C 842.44 427.73 852.43 432.13 852.62 434.56 L 852.58 434.85 C 852.56 434.93 852.5 435.02 852.46 435.1 C 852.42 435.17 852.39 435.24 852.34 435.31 C 852.28 435.4 852.19 435.49 852.11 435.58 C 852.04 435.65 851.99 435.72 851.91 435.79 C 851.81 435.88 851.69 435.97 851.57 436.06 C 851.47 436.14 851.39 436.21 851.28 436.28 C 851.15 436.37 850.99 436.46 850.84 436.55 C 850.72 436.63 850.6 436.7 850.46 436.78 C 850.3 436.86 850.11 436.95 849.94 437.04 C 849.78 437.11 849.63 437.19 849.46 437.27 C 849.27 437.35 849.05 437.43 848.85 437.52 C 848.66 437.59 848.48 437.67 848.28 437.75 C 848.06 437.83 847.82 437.91 847.58 437.99 C 847.37 438.06 847.16 438.14 846.94 438.21 C 846.69 438.29 846.42 438.36 846.16 438.44 C 845.92 438.51 845.68 438.58 845.43 438.65 C 845.16 438.73 844.87 438.79 844.58 438.86 C 844.31 438.93 844.05 439 843.76 439.07 C 843.47 439.13 843.15 439.19 842.84 439.26 C 842.54 439.32 842.26 439.38 841.95 439.44 C 841.62 439.51 841.27 439.56 840.92 439.62 C 840.61 439.67 840.31 439.73 839.99 439.78 C 839.63 439.84 839.24 439.89 838.87 439.94 C 838.54 439.98 838.23 440.03 837.89 440.07 C 837.5 440.12 837.09 440.16 836.68 440.2 C 836.34 440.24 836.01 440.28 835.66 440.31 C 835.22 440.35 834.76 440.38 834.3 440.41 C 833.97 440.43 833.65 440.46 833.31 440.49 C 832.79 440.52 832.25 440.54 831.72 440.56 C 831.42 440.57 831.14 440.59 830.84 440.6 C 830 440.62 829.13 440.63 828.26 440.63 C 827.38 440.63 826.51 440.62 825.67 440.6 C 825.38 440.59 825.11 440.57 824.82 440.56 C 824.28 440.54 823.73 440.52 823.2 440.49 C 822.88 440.47 822.57 440.44 822.26 440.42 C 821.79 440.38 821.31 440.35 820.85 440.31 C 820.52 440.28 820.2 440.24 819.88 440.21 C 819.46 440.16 819.03 440.12 818.62 440.07 C 818.3 440.03 818.01 439.99 817.7 439.95 C 817.31 439.89 816.9 439.84 816.52 439.78 C 816.22 439.73 815.94 439.68 815.65 439.63 C 815.29 439.57 814.91 439.51 814.56 439.44 C 814.27 439.39 814 439.33 813.72 439.27 C 813.39 439.2 813.06 439.14 812.75 439.07 C 812.48 439 812.23 438.94 811.97 438.87 C 811.67 438.8 811.36 438.73 811.08 438.65 C 810.84 438.59 810.62 438.52 810.39 438.45 C 810.11 438.37 809.83 438.29 809.57 438.21 C 809.36 438.14 809.16 438.07 808.95 438 C 808.71 437.91 808.46 437.83 808.23 437.75 C 808.04 437.67 807.87 437.6 807.69 437.53 C 807.47 437.44 807.25 437.35 807.05 437.27 C 806.89 437.19 806.74 437.12 806.59 437.04 C 806.41 436.95 806.22 436.86 806.06 436.78 C 805.92 436.7 805.8 436.63 805.68 436.55 C 805.53 436.46 805.37 436.37 805.23 436.28 C 805.13 436.21 805.04 436.14 804.95 436.06 C 804.83 435.97 804.7 435.88 804.61 435.79 C 804.53 435.72 804.47 435.65 804.4 435.58 C 804.32 435.49 804.23 435.4 804.17 435.31 C 804.12 435.24 804.09 435.17 804.06 435.1 C 804.01 435.02 803.96 434.93 803.93 434.85 L 803.9 434.56 C 804.09 432.13 814.08 427.73 828.26 427.73 Z M 846.79 477.83 C 846.79 477.89 846.78 477.95 846.78 478.01 C 846.78 478.22 846.27 479.02 843.97 479.93 C 842.95 480.33 841.74 480.69 840.38 481.01 C 836.87 481.82 832.57 482.27 828.26 482.27 C 816.73 482.27 809.73 479.31 809.73 478.01 C 809.73 477.95 809.73 477.89 809.72 477.83 L 804.5 439.02 C 804.83 439.22 805.19 439.4 805.57 439.58 C 805.67 439.63 805.77 439.67 805.87 439.72 C 806.21 439.88 806.56 440.03 806.93 440.17 C 807.08 440.23 807.22 440.29 807.37 440.35 C 807.76 440.49 808.16 440.63 808.57 440.76 C 808.68 440.8 808.78 440.84 808.89 440.87 C 809.41 441.04 809.96 441.19 810.51 441.34 C 810.65 441.38 810.8 441.41 810.95 441.45 C 811.38 441.56 811.83 441.67 812.29 441.77 C 812.47 441.81 812.65 441.85 812.84 441.89 C 813.34 442 813.86 442.1 814.39 442.2 C 814.49 442.21 814.59 442.24 814.7 442.25 C 815.33 442.36 815.97 442.47 816.62 442.56 C 816.79 442.59 816.97 442.61 817.15 442.63 C 817.65 442.7 818.15 442.76 818.66 442.82 C 818.86 442.85 819.06 442.87 819.26 442.89 C 819.87 442.96 820.49 443.02 821.1 443.07 C 821.18 443.08 821.25 443.08 821.32 443.09 C 822.01 443.14 822.7 443.19 823.39 443.23 C 823.59 443.24 823.78 443.25 823.97 443.26 C 824.5 443.28 825.02 443.31 825.55 443.32 C 825.76 443.33 825.96 443.34 826.17 443.34 C 826.86 443.36 827.56 443.37 828.26 443.37 C 828.95 443.37 829.65 443.36 830.35 443.34 C 830.55 443.34 830.76 443.33 830.96 443.32 C 831.49 443.31 832.01 443.28 832.54 443.26 C 832.73 443.25 832.93 443.24 833.12 443.23 C 833.81 443.19 834.51 443.14 835.2 443.09 C 835.27 443.08 835.33 443.08 835.4 443.07 C 836.02 443.02 836.64 442.96 837.25 442.89 C 837.45 442.87 837.65 442.85 837.85 442.82 C 838.36 442.76 838.87 442.7 839.37 442.63 C 839.54 442.61 839.72 442.59 839.89 442.56 C 840.54 442.47 841.19 442.36 841.82 442.25 C 841.92 442.24 842.01 442.22 842.11 442.2 C 842.64 442.1 843.17 442 843.68 441.89 C 843.86 441.85 844.04 441.81 844.22 441.77 C 844.68 441.67 845.14 441.56 845.58 441.45 C 845.72 441.41 845.86 441.38 846 441.34 C 846.56 441.19 847.1 441.04 847.63 440.87 C 847.73 440.84 847.83 440.8 847.94 440.77 C 848.35 440.63 848.76 440.49 849.15 440.34 C 849.29 440.29 849.44 440.23 849.58 440.18 C 849.95 440.03 850.31 439.87 850.65 439.72 C 850.75 439.67 850.85 439.63 850.94 439.59 C 851.32 439.4 851.68 439.22 852.02 439.02 L 849.58 457.12 C 844.63 455.53 837.68 452.65 831.1 449.52 C 831.02 448.01 829.78 446.81 828.26 446.81 C 826.68 446.81 825.4 448.09 825.4 449.66 C 825.4 451.24 826.68 452.52 828.26 452.52 C 828.88 452.52 829.45 452.32 829.91 451.99 C 835.81 454.82 843.34 458.15 849.21 459.85 Z M 828.13 449.66 C 828.13 449.6 828.19 449.54 828.26 449.54 C 828.28 449.54 828.29 449.55 828.31 449.56 L 828.21 449.75 C 828.17 449.74 828.13 449.72 828.13 449.66 Z M 852.24 457.9 L 852.54 455.65 C 854.95 457.11 855.7 457.96 855.92 458.33 C 855.28 458.52 853.98 458.34 852.24 457.9 Z" fill="#7aa116" stroke="none" pointer-events="all" style="fill: light-dark(rgb(122, 161, 22), rgb(97, 130, 11));"/></g><g><rect x="875" y="425" width="555" height="220" fill="#ffffff" stroke="#558b2f" pointer-events="all" style="fill: light-dark(rgb(255, 255, 255), rgb(18, 18, 18)); stroke: light-dark(rgb(85, 139, 47), rgb(103, 149, 70));"/></g><g><g transform="translate(-0.5 -0.5)"><switch><foreignObject style="overflow: visible; text-align: left;" pointer-events="none" width="100%" height="100%" requiredFeatures="http://www.w3.org/TR/SVG11/feature#Extensibility"><div xmlns="http://www.w3.org/1999/xhtml" style="display: flex; align-items: unsafe flex-start; justify-content: unsafe flex-start; width: 539px; height: 1px; padding-top: 442px; margin-left: 891px;"><div style="box-sizing: border-box; font-size: 0; text-align: left; color: #33691E; "><div style="display: inline-block; font-size: 14px; font-family: &quot;Helvetica&quot;; color: light-dark(#33691E, #82b070); line-height: 1.2; pointer-events: all; white-space: normal; word-wrap: normal; "><b>aws_s3_bucket_server_side_encryption_configuration</b><br />sse_algorithm     = "aws:kms"<br />kms_master_key_id = aws_kms_alias.main.arn<br /><b>bucket_key_enabled = true</b>  (-99% coste KMS)<br /><br /><b>Bucket Policy: 2 deny explícitos</b><br />DenyNonKMSUploads — bloquea PUT sin x-amz-server-side-encryption: aws:kms<br />DenyWrongKMSKey   — bloquea cifrado con CMK distinta a alias/lab13-main</div></div></div></foreignObject><text x="891" y="456" fill="#33691E" font-family="&quot;Helvetica&quot;" font-size="14px">aws_s3_bucket_server_side_encryption_configuration...</text></switch></g></g><g><path d="M 710 205 L 793.15 149.57" fill="none" stroke="#dd344c" stroke-width="2" stroke-miterlimit="10" stroke-dasharray="6 6" pointer-events="stroke" style="stroke: light-dark(rgb(221, 52, 76), rgb(255, 127, 147));"/><path d="M 798.14 146.24 L 793.7 154.01 L 793.15 149.57 L 789.26 147.35 Z" fill="#dd344c" stroke="#dd344c" stroke-width="2" stroke-miterlimit="10" pointer-events="all" style="fill: light-dark(rgb(221, 52, 76), rgb(255, 127, 147)); stroke: light-dark(rgb(221, 52, 76), rgb(255, 127, 147));"/></g><g><g transform="translate(-0.5 -0.5)"><switch><foreignObject style="overflow: visible; text-align: left;" pointer-events="none" width="100%" height="100%" requiredFeatures="http://www.w3.org/TR/SVG11/feature#Extensibility"><div xmlns="http://www.w3.org/1999/xhtml" style="display: flex; align-items: unsafe center; justify-content: unsafe center; width: 1px; height: 1px; padding-top: 175px; margin-left: 755px;"><div style="box-sizing: border-box; font-size: 0; text-align: center; color: #A1162F; background-color: #ffffff; "><div style="display: inline-block; font-size: 12px; font-family: &quot;Helvetica&quot;; color: light-dark(#A1162F, #ffa4b9); line-height: 1.2; pointer-events: all; background-color: light-dark(#ffffff, var(--ge-dark-color, #121212)); white-space: nowrap; ">data key</div></div></div></foreignObject><text x="755" y="179" fill="#A1162F" font-family="&quot;Helvetica&quot;" font-size="12px" text-anchor="middle">data key</text></switch></g></g><g><path d="M 710 265 L 796.47 447.56" fill="none" stroke="#dd344c" stroke-width="2" stroke-miterlimit="10" stroke-dasharray="6 6" pointer-events="stroke" style="stroke: light-dark(rgb(221, 52, 76), rgb(255, 127, 147));"/><path d="M 799.04 452.98 L 792 447.46 L 796.47 447.56 L 799.23 444.04 Z" fill="#dd344c" stroke="#dd344c" stroke-width="2" stroke-miterlimit="10" pointer-events="all" style="fill: light-dark(rgb(221, 52, 76), rgb(255, 127, 147)); stroke: light-dark(rgb(221, 52, 76), rgb(255, 127, 147));"/></g><g><g transform="translate(-0.5 -0.5)"><switch><foreignObject style="overflow: visible; text-align: left;" pointer-events="none" width="100%" height="100%" requiredFeatures="http://www.w3.org/TR/SVG11/feature#Extensibility"><div xmlns="http://www.w3.org/1999/xhtml" style="display: flex; align-items: unsafe center; justify-content: unsafe center; width: 1px; height: 1px; padding-top: 360px; margin-left: 755px;"><div style="box-sizing: border-box; font-size: 0; text-align: center; color: #A1162F; background-color: #ffffff; "><div style="display: inline-block; font-size: 12px; font-family: &quot;Helvetica&quot;; color: light-dark(#A1162F, #ffa4b9); line-height: 1.2; pointer-events: all; background-color: light-dark(#ffffff, var(--ge-dark-color, #121212)); white-space: nowrap; ">bucket key</div></div></div></foreignObject><text x="755" y="363" fill="#A1162F" font-family="&quot;Helvetica&quot;" font-size="12px" text-anchor="middle">bucket key</text></switch></g></g><g><rect x="0" y="695" width="1490" height="80" fill="none" stroke="none" pointer-events="all"/></g><g><g transform="translate(-0.5 -0.5)"><switch><foreignObject style="overflow: visible; text-align: left;" pointer-events="none" width="100%" height="100%" requiredFeatures="http://www.w3.org/TR/SVG11/feature#Extensibility"><div xmlns="http://www.w3.org/1999/xhtml" style="display: flex; align-items: unsafe center; justify-content: unsafe center; width: 1488px; height: 1px; padding-top: 735px; margin-left: 1px;"><div style="box-sizing: border-box; font-size: 0; text-align: center; color: #555555; "><div style="display: inline-block; font-size: 14px; font-family: &quot;Helvetica&quot;; color: light-dark(#555555, #a4a4a4); line-height: 1.2; pointer-events: all; font-style: italic; white-space: normal; word-wrap: normal; "><b>Patrón "envelope encryption":</b> la CMK nunca cifra los datos directamente — genera data keys (EBS) o bucket keys (S3) que sí cifran cada bloque/objeto. Esto reduce las llamadas a KMS y permite rotar la CMK sin re-cifrar los datos.<br />La <b>segregación de la Key Policy</b> (admin / user / root) impide que un administrador de infraestructura pueda leer datos de producción — controles distintos a los de IAM porque la Key Policy es una resource policy de KMS.</div></div></div></foreignObject><text x="745" y="739" fill="#555555" font-family="&quot;Helvetica&quot;" font-size="14px" text-anchor="middle" font-style="italic">Patrón "envelope encryption": la CMK nunca cifra los datos directamente — genera data keys (EBS) o bucket keys (S3) que sí cifran cada bloque/objeto. Esto reduce las llamadas a KMS y permite rotar la CMK sin re-cif...</text></switch></g></g><g><rect x="800" y="111" width="62" height="78" fill="none" stroke="none" pointer-events="all"/><path d="M 860.14 131.41 L 801.97 131.41 C 801 131.41 800.22 132.19 800.22 133.16 L 800.22 186.74 C 800.22 187.71 801 188.49 801.97 188.49 L 860.14 188.49 C 861.11 188.49 861.89 187.71 861.89 186.74 L 861.89 133.16 C 861.89 132.19 861.11 131.41 860.14 131.41 Z M 803.72 184.99 L 803.72 134.91 L 858.39 134.91 L 858.39 184.99 Z M 801.86 128.79 L 860.14 128.79 C 860.8 128.79 861.41 128.42 861.7 127.82 C 862 127.23 861.94 126.52 861.54 125.99 L 851.18 112.21 C 850.85 111.77 850.33 111.51 849.78 111.51 L 812.22 111.51 C 811.67 111.51 811.15 111.77 810.82 112.21 L 800.46 125.99 C 800.06 126.52 800 127.23 800.3 127.82 C 800.59 128.42 801.2 128.79 801.86 128.79 Z M 813.09 115.01 L 848.9 115.01 L 856.63 125.29 L 805.37 125.29 Z" fill="#7aa116" stroke="none" pointer-events="all" style="fill: light-dark(rgb(122, 161, 22), rgb(97, 130, 11));"/></g></g><switch><g requiredFeatures="http://www.w3.org/TR/SVG11/feature#Extensibility"/><a transform="translate(0,-5)" xlink:href="https://www.drawio.com/doc/faq/svg-export-text-problems" target="_blank"><text text-anchor="middle" font-size="10px" x="50%" y="100%">Text is not SVG - cannot display</text></a></switch></svg>