<svg xmlns="http://www.w3.org/2000/svg" style="background: transparent; background-color: transparent;" xmlns:xlink="http://www.w3.org/1999/xlink" version="1.1" width="1430px" height="1155px" viewBox="-0.5 -0.5 1430 1155" content="&lt;mxfile&gt;&lt;diagram name=&quot;Arquitectura Lab-24&quot; id=&quot;lab24-arch&quot;&gt;7VxZc9s4Ev41rIofrOKp41FnkqpM4o1z7M6LCiIhCRWKZADKluZhfvt2AyTFA5SVmHKyW6M4MgGCjQbw4UM30LThTHeH15wk2z/igIaGbQYHw5kZtj10HfjGjKPK8ExbZWw4C1SWdcq4Z3/RLNPMcvcsoKJSMI3jMGVJNdOPo4j6aSWPcB4/Vout47Baa0I2tJFx75OwmfuVBek2y/VM83TjDWWbbVb1yMtu7EheOMsQWxLEj6UsZ244Ux7HqbraHaY0xL7L+0U9t2i5WyjGaZRe8kDKUmiUfOiBhPusfe/I6tZ2Ic+Y28bQNEZ4/RWGMqFcditPYk5S9hAbzlhm7JJYMJ8ZU8eYOBEOLcXmqnSwD2OBasnkeBUyX6YVKj7SDRMpP6rxyqSFjEQ+itgSHviAnyDrr/SYD0JKD9DEyTbdhZBhwSUJ2SaCax8aD4o6kwfKUwbDNs5u7FgQ4OOTxy1L6X1CfJT1CA2DvHUcpRnUrGGezqqzsvQ0DmMuq3fg3wL7dNLs8mwUsHZ6KGVlQ/CaxjuqGpzddTM0HHMgqeRjCVtujphtCVdOVpBkeN4Ukk9DDhfZqOsRgFibxIcGBgy7H6ZZsysd3/++j/Mbt0J2GGLAcpOD7I38Plxt8PdHBLNtAgnsEWpmDVaoPsxH0JKwqJeusxJT25gM1PVbHM01+Qu1YAiNNYxpQCD5fY8CJYro9z1L4hx4CYfa/DRWmBL7Hc2bAxWpFinlGqji8T5CtKkx1+GkBLg1C8MSJBaLxXCO+QDn+Bst3xmNh7ZX3MlJw67BztHA7klQpzFqJUBJFm0+YWIGPNnA62DsDU2zG7z2q3gdmk28OgMNXu0887mAnRLMuhZidyeo5rdyyqNLHojyE6YxmOQVr/gJVn2yw2GJViLRpEW8534+Gc7/YANKivSwe6R+OGcKtW5rav2oQsFqSaMNi87qVFNldxTfw2pfnPtx8onfN0aYE8atM9hnAX1GG5aAZMHkWlLXedgzn9lNLBIprk1LPyRCaKoIVr3U3fR2zOfxM+uKyO4CkNTqh1U6WJ2teDDTaqNy8oy+IglcsscWTlK5ZD/g19+OKbkYvvaCcBLJ0RQXLPiMgzkGjQIqKxHyqq7E5SRt/gxJw+cHSDpf+3OSNkukHNJ1es7OyFj5nSw2s3K+vxIt5zycmxGOjpd1doSVE/pzePlR2Yc6W6KVsBYKwq8etbZlyQzYEYBMxALMhPstq35IUrKO+Y7cdLuu24vhYqaDjOUO5pNxAzKO8XLreqFCBwAaVAHkujoA9TUA8oYdAOgh8cFIbMdPheWgsG7pKZmN8AMdyyUgbsHEvD2hUD68kGan+feJZUyvZ3YKnDlCRw8cr+9NTa1BGBCxLeoro8juCEXDJojMmTsYW1dhIXfUBFHf1WCoYKbnY+gtuP38evbhl7sp3jZ7ttkzETILq9/EH9o74z/FmaW2yEn2uEQuxX4V0VQU8H116B2yCmy31+vdnHAOdhR4T9jVmdP89vVXjVzOHtBmrQiWUi2N2IbM9+NP8I2CzVcC4BPSm2YdAXDuiohyJbIG+3wNIA+/Ab/Sk8P/0s8DEZf0mM8pNqxW+XIDszU5YyWlfK8xLFuEgSzIhTxFPWcE0AgLLYNILLexSNFsE3otztpwZeG/xgRqoaU6E5WZp8UEalu9ahaRe10usvIduXyjUWMS9fMyFYuouwXtwx4nxbW4qGG3A2gTWaNJI58EAM0AbG8U0m5vn5Cs1sgeaN7Tzq3MJbn8MQ3/lQrXCGoJjh9frsLY/yZeYiLMhwtvPtJNBHs+mDn2C/sC1sSb2x35AnXkD+wLkd8F8MVGZ8WBvbUU1N9zlh5LTJ0jurGxorPoOD4vlMWPNRaOQ6fbePPJfK5DxbRvD+3hj1ltRbp7q20ysKbWtCOrzariRWu2aZnS6QQwVzbZoBs5FYoHzdQH5C0cx+xLHIkgcy2qRPrDNHWGVmmpdrl1+bSFcx/LDbLHmH8LYxIoQsc+2K84DaR9IdUC4OHlHvLU4QmeeBGe2VQhfk1mvV9rVrTMm+uyaaezo3ZC49nNIxrP08yOQRcnNIFo8YuvueN9ER23Odhqc+fkYKuNzdzN7vfMH8fjP973ZUi1q0jtaw5nvJEGqZ243zDub6oHtlexeRemMVqgKzmydcz9ZvxxNv0wm8+M6lHj+YPC9x9yHkXlYmBZKnzOVoxfbD2LNOZkQ5dgefNjkmIfaBw8nf+HnvHUGOGegc/WnMiNTknonCaxNHjiFYCKQA0sbttBCI9L4vuw0rCyz7omodBVW6oz2oOvgDUeoAOE7I7zHjlYXzRlcbSEDkxhwSmftlzUSvnchqoVK+VErcQwHRHL0AgGy1lKNCvlivjfwA/hNIUCUgMKPRIUtQ80DgeJcFR2REBzlnsBXwkRApbWQK/0K1COlKMZyD6Nd+ooBOf3zcsspz9ohv7Ecnqhl37t1dWrcpbOV/F0W4aW2w1nTbeERVdlrDpFsUjjpAPwygekJ09e+TqlwzVIfbmb3lxMTMFK58VXuOknPf+sCAsu3vB6ojbNhgGUqjmOeX1SluFNmq5lD4a1B0Pszf7ZSOh0cg4HGtNXOznNbibnW7kZ3ZiZtdET32jqb7PBg5kTwoSeFuF/mnOzIn5rA6sto6d7EXhQzRGGjztpjnBWuLAazdLAvSMrGt7FgsnV0Zmt4hRXkTYWbhiTZbid2VCQ0BGJauiaHVCPSRIzlDJ/AGEiEyK2JMEHdocNRmX2YNK4OE26wUl9w2moOTz0vCZMvG48JETJu9UVg4IaFP5xdo/UXI32uICL7+VJyu34T3j6j+P9v97B7+HJIzoVnEeBHMbcEsyJ0pCbAGWqfIra2kMln+KapwIldQfSY9sZdBQYaQ2eBlWxY9k1qmBBASvzN+Gf2cxx3en/H/9knbxUNjrvBjbF5uUv4KISal6Wj+5VxcgqWV9eREclTwi9nA2NKJfRtfWCT/hEvyUXjS2rjwPXBai8HB1nQGVpg2M6QBXhHOOov5aPO87REY2CMb7ogPMZ4xSZX+3zqrF7aSgcxjHRA0v/jc/1XLefpf8j06NRnp4dMsEycSwl7sBZh8bjRFd54Psfc3HDPEPJM608fZInU8dyqi6xdaRpUHupIyV8Q7My9eC1LEA3cwyKCPkmODgNMVitKlk30tmjd9mKnkdS16JlHK9mNCtFsqdOeHlSkFu3vlVrG4Ik8Ir2XIrFL4n/MRCWBocdsZveYb2MYZ6J/RaPrR6rr7N8crerhGrTtKuodvv9l4N15eigldnMniPDlUrwucWIJvv5+B7Uj6Hrr6xciu9h3b2ob1e34PskKC8Yr9eCdjMH7jfXmwG6M8cXmgFnjrmfmAFP7wrW4HoGk1DCrmLS+80x6Xn2L8bk/eZjcMVgo7aNuP8VVJ5sF69kuVhnrZYOiLdqThTBMWewb7qWW7ULrE6gbzUC4kY/aW80JPWtX0rIIQXPJbge9Bvu1h1J+ckZ0r/A0LY9f/7lBSN7oTb6mVdo8RkWHTEGBIvHofTQZuhRibwqQTcwhQMSqJrkixb15jVf/Sm9iattU/mkNZLHl9lhojhV80A4w1BZ0YPE/OxxbEMjKTM7n9UqAJ6sjHvJb6OyZ09mEQf56WghsfyUwoR80UmeueCeRoQdi/Hfn/LYByUkVOMWtSjwORL7BIChqoapsce3oFrqLcJ1Tt73tPxSdHO05CsxAYOWID6slq3IaT40qjxo+wAdkvv0OCbjfcCgqxRoSNFJnD4w1bmf3xu1k6hC6Hs1gIi9WGiakB/b28ZkCEWnscC3wMxsS1PCZ2QM8RY6Qebn+xlOehnp9Epttho2jrMKS1fX87d3xXW2AXJTw6I8Vt4zVD7lchLIoUoyfPtq88J8pT/S5ghQylFDkpAN4RIICRrnPL65OK7qmi+r1zfkNAdCnvx0sw/iVHnfMgeafRDt6+o/cyKEwUTFX0NQ68LpT0o48/8C&lt;/diagram&gt;&lt;/mxfile&gt;"><defs/><g><g><rect x="10" y="0" width="1420" height="35" fill="none" stroke="none" pointer-events="all"/></g><g><g transform="translate(-0.5 -0.5)"><switch><foreignObject style="overflow: visible; text-align: left;" pointer-events="none" width="100%" height="100%" requiredFeatures="http://www.w3.org/TR/SVG11/feature#Extensibility"><div xmlns="http://www.w3.org/1999/xhtml" style="display: flex; align-items: unsafe center; justify-content: unsafe center; width: 1418px; height: 1px; padding-top: 18px; margin-left: 11px;"><div style="box-sizing: border-box; font-size: 0; text-align: center; color: #232F3E; "><div style="display: inline-block; font-size: 18px; font-family: &quot;Helvetica&quot;; color: light-dark(#232F3E, #bdc7d4); line-height: 1.2; pointer-events: all; font-weight: bold; white-space: normal; word-wrap: normal; ">Lab-24 — Wrapper corporativo: composición de módulos públicos del Registry con compliance hardcoded</div></div></div></foreignObject><text x="720" y="23" fill="#232F3E" font-family="&quot;Helvetica&quot;" font-size="18px" text-anchor="middle" font-weight="bold">Lab-24 — Wrapper corporativo: composición de módulos públicos del Registry con compliance hardcoded</text></switch></g></g><g><rect x="30" y="65" width="1370" height="270" rx="40.5" ry="40.5" fill="#fff8e1" stroke="#f9a825" stroke-width="2" pointer-events="all" style="fill: light-dark(rgb(255, 248, 225), rgb(30, 24, 4)); stroke: light-dark(rgb(249, 168, 37), rgb(149, 79, 0));"/></g><g><g transform="translate(-0.5 -0.5)"><switch><foreignObject style="overflow: visible; text-align: left;" pointer-events="none" width="100%" height="100%" requiredFeatures="http://www.w3.org/TR/SVG11/feature#Extensibility"><div xmlns="http://www.w3.org/1999/xhtml" style="display: flex; align-items: unsafe flex-start; justify-content: unsafe center; width: 1368px; height: 1px; padding-top: 82px; margin-left: 31px;"><div style="box-sizing: border-box; font-size: 0; text-align: center; color: #7A5800; "><div style="display: inline-block; font-size: 13px; font-family: &quot;Helvetica&quot;; color: light-dark(#7A5800, #bda054); line-height: 1.2; pointer-events: all; font-weight: bold; white-space: normal; word-wrap: normal; "><font style="font-size: 14px;">Root Module  —  aws/main.tf  ·  Interfaz simplificada que el equipo de producto consume</font></div></div></div></foreignObject><text x="715" y="95" fill="#7A5800" font-family="&quot;Helvetica&quot;" font-size="13px" text-anchor="middle" font-weight="bold">Root Module  —  aws/main.tf  ·  Interfaz simplificada que el equipo de producto consume</text></switch></g></g><g><rect x="50" y="115" width="1320" height="160" fill="#ffffff" stroke="#f9a825" pointer-events="all" style="fill: light-dark(rgb(255, 255, 255), rgb(18, 18, 18)); stroke: light-dark(rgb(249, 168, 37), rgb(149, 79, 0));"/></g><g><g transform="translate(-0.5 -0.5)"><switch><foreignObject style="overflow: visible; text-align: left;" pointer-events="none" width="100%" height="100%" requiredFeatures="http://www.w3.org/TR/SVG11/feature#Extensibility"><div xmlns="http://www.w3.org/1999/xhtml" style="display: flex; align-items: unsafe center; justify-content: unsafe flex-start; width: 1306px; height: 1px; padding-top: 195px; margin-left: 64px;"><div style="box-sizing: border-box; font-size: 0; text-align: left; color: #7A5800; "><div style="display: inline-block; font-size: 10px; font-family: &quot;Helvetica&quot;; color: light-dark(#7A5800, #bda054); line-height: 1.2; pointer-events: all; white-space: normal; word-wrap: normal; "><font style="font-size: 14px;">module "corporate_rds" {<br />  source            = "./modules/corporate-rds"<br />  db_engine         = "mysql"          # ← lo que el equipo decide<br />  db_engine_version = "8.0"<br />  db_instance_class = "db.t4g.micro"<br />  db_name           = "appdb"<br />}<br /><b>6 parámetros vs ~30 si usaran los módulos públicos directamente</b></font></div></div></div></foreignObject><text x="64" y="198" fill="#7A5800" font-family="&quot;Helvetica&quot;" font-size="10px">module "corporate_rds" {...</text></switch></g></g><g><rect x="40" y="425" width="1360" height="580" rx="87" ry="87" fill="#f2f8fd" stroke="#147eba" stroke-width="3" pointer-events="all" style="fill: light-dark(rgb(242, 248, 253), rgb(21, 26, 30)); stroke: light-dark(rgb(20, 126, 186), rgb(69, 160, 212));"/></g><g><g transform="translate(-0.5 -0.5)"><switch><foreignObject style="overflow: visible; text-align: left;" pointer-events="none" width="100%" height="100%" requiredFeatures="http://www.w3.org/TR/SVG11/feature#Extensibility"><div xmlns="http://www.w3.org/1999/xhtml" style="display: flex; align-items: unsafe flex-start; justify-content: unsafe center; width: 1358px; height: 1px; padding-top: 442px; margin-left: 41px;"><div style="box-sizing: border-box; font-size: 0; text-align: center; color: #147EBA; "><div style="display: inline-block; font-size: 13px; font-family: &quot;Helvetica&quot;; color: light-dark(#147EBA, #45a0d4); line-height: 1.2; pointer-events: all; font-weight: bold; white-space: normal; word-wrap: normal; ">modules/corporate-rds/  (wrapper corporativo · mantenido por el equipo de plataforma)</div></div></div></foreignObject><text x="720" y="455" fill="#147EBA" font-family="&quot;Helvetica&quot;" font-size="13px" text-anchor="middle" font-weight="bold">modules/corporate-rds/  (wrapper corporativo · mantenido por el equipo de plataforma)</text></switch></g></g><g><rect x="50" y="475" width="640" height="320" rx="48" ry="48" fill="#e3f2fd" stroke="#1565c0" stroke-width="2" stroke-dasharray="6 6" pointer-events="all" style="fill: light-dark(rgb(227, 242, 253), rgb(20, 33, 42)); stroke: light-dark(rgb(21, 101, 192), rgb(99, 168, 246));"/></g><g><g transform="translate(-0.5 -0.5)"><switch><foreignObject style="overflow: visible; text-align: left;" pointer-events="none" width="100%" height="100%" requiredFeatures="http://www.w3.org/TR/SVG11/feature#Extensibility"><div xmlns="http://www.w3.org/1999/xhtml" style="display: flex; align-items: unsafe flex-start; justify-content: unsafe center; width: 638px; height: 1px; padding-top: 490px; margin-left: 51px;"><div style="box-sizing: border-box; font-size: 0; text-align: center; color: #0D47A1; "><div style="display: inline-block; font-size: 12px; font-family: &quot;Helvetica&quot;; color: light-dark(#0D47A1, #88baff); line-height: 1.2; pointer-events: all; font-weight: bold; white-space: normal; word-wrap: normal; ">module "vpc"   ·   terraform-aws-modules/vpc/aws ~&gt; 5.0</div></div></div></foreignObject><text x="370" y="502" fill="#0D47A1" font-family="&quot;Helvetica&quot;" font-size="12px" text-anchor="middle" font-weight="bold">module "vpc"   ·   terraform-aws-modules/vpc/aws ~&gt; 5.0</text></switch></g></g><g><rect x="70" y="515" width="600" height="180" fill="#ffffff" stroke="#1565c0" pointer-events="all" style="fill: light-dark(rgb(255, 255, 255), rgb(18, 18, 18)); stroke: light-dark(rgb(21, 101, 192), rgb(99, 168, 246));"/></g><g><g transform="translate(-0.5 -0.5)"><switch><foreignObject style="overflow: visible; text-align: left;" pointer-events="none" width="100%" height="100%" requiredFeatures="http://www.w3.org/TR/SVG11/feature#Extensibility"><div xmlns="http://www.w3.org/1999/xhtml" style="display: flex; align-items: unsafe flex-start; justify-content: unsafe flex-start; width: 584px; height: 1px; padding-top: 532px; margin-left: 86px;"><div style="box-sizing: border-box; font-size: 0; text-align: left; color: #0D47A1; "><div style="display: inline-block; font-size: 11px; font-family: &quot;Helvetica&quot;; color: light-dark(#0D47A1, #88baff); line-height: 1.2; pointer-events: all; white-space: normal; word-wrap: normal; "><font style="font-size: 14px;">VPC 10.20.0.0/16  ·  3 AZs<br /><br />public_subnets   (x.x.0.0/24...)   ─ con IGW<br />private_subnets  (x.x.10.0/24...)  ─ con NAT GW (single)<br />database_subnets (x.x.20.0/24...)  ─ sin salida a Internet<br /><br />create_database_subnet_group       = true<br />create_database_subnet_route_table = true<br />enable_dns_hostnames               = true</font></div></div></div></foreignObject><text x="86" y="543" fill="#0D47A1" font-family="&quot;Helvetica&quot;" font-size="11px">VPC 10.20.0.0/16  ·  3 AZs...</text></switch></g></g><g><rect x="70" y="705" width="600" height="80" fill="#e8f5e9" stroke="#2e7d32" pointer-events="all" style="fill: light-dark(rgb(232, 245, 233), rgb(21, 33, 22)); stroke: light-dark(rgb(46, 125, 50), rgb(100, 168, 104));"/></g><g><g transform="translate(-0.5 -0.5)"><switch><foreignObject style="overflow: visible; text-align: left;" pointer-events="none" width="100%" height="100%" requiredFeatures="http://www.w3.org/TR/SVG11/feature#Extensibility"><div xmlns="http://www.w3.org/1999/xhtml" style="display: flex; align-items: unsafe center; justify-content: unsafe flex-start; width: 586px; height: 1px; padding-top: 745px; margin-left: 84px;"><div style="box-sizing: border-box; font-size: 0; text-align: left; color: #1B5E20; "><div style="display: inline-block; font-size: 10px; font-family: &quot;Helvetica&quot;; color: light-dark(#1B5E20, #82bc86); line-height: 1.2; pointer-events: all; white-space: normal; word-wrap: normal; "><font style="font-size: 14px;"><b>outputs encadenados:</b><br />module.vpc.database_subnet_group_name<br />module.vpc.database_subnets<br />module.vpc.private_subnets_cidr_blocks</font></div></div></div></foreignObject><text x="84" y="748" fill="#1B5E20" font-family="&quot;Helvetica&quot;" font-size="10px">outputs encadenados:...</text></switch></g></g><g><rect x="780" y="475" width="600" height="130" rx="19.5" ry="19.5" fill="#ffebee" stroke="#c62828" stroke-width="2" stroke-dasharray="6 6" pointer-events="all" style="fill: light-dark(rgb(255, 235, 238), rgb(44, 27, 30)); stroke: light-dark(rgb(198, 40, 40), rgb(255, 145, 145));"/></g><g><g transform="translate(-0.5 -0.5)"><switch><foreignObject style="overflow: visible; text-align: left;" pointer-events="none" width="100%" height="100%" requiredFeatures="http://www.w3.org/TR/SVG11/feature#Extensibility"><div xmlns="http://www.w3.org/1999/xhtml" style="display: flex; align-items: unsafe flex-start; justify-content: unsafe center; width: 598px; height: 1px; padding-top: 490px; margin-left: 781px;"><div style="box-sizing: border-box; font-size: 0; text-align: center; color: #B71C1C; "><div style="display: inline-block; font-size: 11px; font-family: &quot;Helvetica&quot;; color: light-dark(#B71C1C, #ff9c9c); line-height: 1.2; pointer-events: all; font-weight: bold; white-space: normal; word-wrap: normal; ">aws_security_group "rds"   ·   recurso del wrapper</div></div></div></foreignObject><text x="1080" y="501" fill="#B71C1C" font-family="&quot;Helvetica&quot;" font-size="11px" text-anchor="middle" font-weight="bold">aws_security_group "rds"   ·   recurso del wrapper</text></switch></g></g><g><rect x="810" y="510" width="550" height="75" fill="#ffffff" stroke="#c62828" pointer-events="all" style="fill: light-dark(rgb(255, 255, 255), rgb(18, 18, 18)); stroke: light-dark(rgb(198, 40, 40), rgb(255, 145, 145));"/></g><g><g transform="translate(-0.5 -0.5)"><switch><foreignObject style="overflow: visible; text-align: left;" pointer-events="none" width="100%" height="100%" requiredFeatures="http://www.w3.org/TR/SVG11/feature#Extensibility"><div xmlns="http://www.w3.org/1999/xhtml" style="display: flex; align-items: unsafe center; justify-content: unsafe flex-start; width: 536px; height: 1px; padding-top: 548px; margin-left: 824px;"><div style="box-sizing: border-box; font-size: 0; text-align: left; color: #B71C1C; "><div style="display: inline-block; font-size: 10px; font-family: &quot;Helvetica&quot;; color: light-dark(#B71C1C, #ff9c9c); line-height: 1.2; pointer-events: all; white-space: normal; word-wrap: normal; "><font style="font-size: 14px;">ingress: tcp/3306 desde <b>module.vpc.private_subnets_cidr_blocks</b><br />egress: all<br /><br />Solo workloads en subredes privadas pueden conectar a la BD.</font></div></div></div></foreignObject><text x="824" y="551" fill="#B71C1C" font-family="&quot;Helvetica&quot;" font-size="10px">ingress: tcp/3306 desde module.vpc.private_subnets_cidr_blocks...</text></switch></g></g><g><rect x="790" y="665" width="590" height="320" rx="48" ry="48" fill="#e3f2fd" stroke="#1565c0" stroke-width="2" stroke-dasharray="6 6" pointer-events="all" style="fill: light-dark(rgb(227, 242, 253), rgb(20, 33, 42)); stroke: light-dark(rgb(21, 101, 192), rgb(99, 168, 246));"/></g><g><g transform="translate(-0.5 -0.5)"><switch><foreignObject style="overflow: visible; text-align: left;" pointer-events="none" width="100%" height="100%" requiredFeatures="http://www.w3.org/TR/SVG11/feature#Extensibility"><div xmlns="http://www.w3.org/1999/xhtml" style="display: flex; align-items: unsafe flex-start; justify-content: unsafe center; width: 588px; height: 1px; padding-top: 680px; margin-left: 791px;"><div style="box-sizing: border-box; font-size: 0; text-align: center; color: #0D47A1; "><div style="display: inline-block; font-size: 12px; font-family: &quot;Helvetica&quot;; color: light-dark(#0D47A1, #88baff); line-height: 1.2; pointer-events: all; font-weight: bold; white-space: normal; word-wrap: normal; "><font style="font-size: 14px;">module "rds"   ·   terraform-aws-modules/rds/aws ~&gt; 6.0</font></div></div></div></foreignObject><text x="1085" y="692" fill="#0D47A1" font-family="&quot;Helvetica&quot;" font-size="12px" text-anchor="middle" font-weight="bold">module "rds"   ·   terraform-aws-modules/rds/aws ~&gt; 6.0</text></switch></g></g><g><rect x="820" y="705" width="540" height="140" fill="#ffebee" stroke="#c62828" pointer-events="all" style="fill: light-dark(rgb(255, 235, 238), rgb(44, 27, 30)); stroke: light-dark(rgb(198, 40, 40), rgb(255, 145, 145));"/></g><g><g transform="translate(-0.5 -0.5)"><switch><foreignObject style="overflow: visible; text-align: left;" pointer-events="none" width="100%" height="100%" requiredFeatures="http://www.w3.org/TR/SVG11/feature#Extensibility"><div xmlns="http://www.w3.org/1999/xhtml" style="display: flex; align-items: unsafe flex-start; justify-content: unsafe flex-start; width: 526px; height: 1px; padding-top: 722px; margin-left: 834px;"><div style="box-sizing: border-box; font-size: 0; text-align: left; color: #B71C1C; "><div style="display: inline-block; font-size: 10px; font-family: &quot;Helvetica&quot;; color: light-dark(#B71C1C, #ff9c9c); line-height: 1.2; pointer-events: all; white-space: normal; word-wrap: normal; "><font style="font-size: 14px;">🔒 <b>HARDCODED — el equipo de producto NO puede sobreescribir:</b><br />storage_encrypted   = true       ✓ cifrado en reposo obligatorio<br />publicly_accessible = false      ✓ nunca expuesto a Internet<br />deletion_protection = true       ✓ protege contra destroy accidental<br />backup_retention_period = 7<br />manage_master_user_password = true   (rotación automática)</font></div></div></div></foreignObject><text x="834" y="732" fill="#B71C1C" font-family="&quot;Helvetica&quot;" font-size="10px">🔒 HARDCODED — el equipo de producto NO puede sobreescribir:...</text></switch></g></g><g><rect x="820" y="860" width="540" height="100" fill="#e8f5e9" stroke="#2e7d32" pointer-events="all" style="fill: light-dark(rgb(232, 245, 233), rgb(21, 33, 22)); stroke: light-dark(rgb(46, 125, 50), rgb(100, 168, 104));"/></g><g><g transform="translate(-0.5 -0.5)"><switch><foreignObject style="overflow: visible; text-align: left;" pointer-events="none" width="100%" height="100%" requiredFeatures="http://www.w3.org/TR/SVG11/feature#Extensibility"><div xmlns="http://www.w3.org/1999/xhtml" style="display: flex; align-items: unsafe center; justify-content: unsafe flex-start; width: 526px; height: 1px; padding-top: 910px; margin-left: 834px;"><div style="box-sizing: border-box; font-size: 0; text-align: left; color: #1B5E20; "><div style="display: inline-block; font-size: 10px; font-family: &quot;Helvetica&quot;; color: light-dark(#1B5E20, #82bc86); line-height: 1.2; pointer-events: all; white-space: normal; word-wrap: normal; "><font style="font-size: 14px;"><b>inputs encadenados (← outputs del módulo VPC):</b><br />db_subnet_group_name   = module.vpc.database_subnet_group_name<br />subnet_ids             = module.vpc.database_subnets<br />vpc_security_group_ids = [aws_security_group.rds.id]</font></div></div></div></foreignObject><text x="834" y="913" fill="#1B5E20" font-family="&quot;Helvetica&quot;" font-size="10px">inputs encadenados (← outputs del módulo VPC):...</text></switch></g></g><g><rect x="70" y="825" width="55" height="55" fill="none" stroke="none" pointer-events="all"/><path d="M 73.35 826.96 L 82.48 836.09 L 81.09 837.48 L 71.96 828.35 L 71.96 835.8 L 70 835.8 L 70 825.98 C 70 825.44 70.44 825 70.98 825 L 80.8 825 L 80.8 826.96 Z M 125 825.98 L 125 835.8 L 123.04 835.8 L 123.04 828.35 L 113.91 837.48 L 112.52 836.09 L 121.65 826.96 L 114.2 826.96 L 114.2 825 L 124.02 825 C 124.56 825 125 825.44 125 825.98 Z M 123.04 869.2 L 125 869.2 L 125 879.02 C 125 879.56 124.56 880 124.02 880 L 114.2 880 L 114.2 878.04 L 121.65 878.04 L 112.52 868.91 L 113.91 867.52 L 123.04 876.65 Z M 122.54 851.73 C 122.54 848.47 118.78 845.25 112.48 843.11 L 113.11 841.25 C 120.35 843.7 124.51 847.52 124.51 851.73 C 124.51 855.93 120.35 859.75 113.11 862.2 L 112.48 860.34 C 118.78 858.21 122.54 854.99 122.54 851.73 Z M 72.51 851.73 C 72.51 854.85 76.03 857.99 81.93 860.11 L 81.27 861.96 C 74.45 859.5 70.55 855.77 70.55 851.73 C 70.55 847.68 74.45 843.95 81.27 841.49 L 81.93 843.34 C 76.03 845.47 72.51 848.6 72.51 851.73 Z M 82.48 868.91 L 73.35 878.04 L 80.8 878.04 L 80.8 880 L 70.98 880 C 70.44 880 70 879.56 70 879.02 L 70 869.2 L 71.96 869.2 L 71.96 876.65 L 81.09 867.52 Z M 97.5 843.94 C 90.48 843.94 86.7 842.13 86.7 841.39 C 86.7 840.65 90.48 838.83 97.5 838.83 C 104.52 838.83 108.3 840.65 108.3 841.39 C 108.3 842.13 104.52 843.94 97.5 843.94 Z M 97.53 851.55 C 90.81 851.55 86.7 849.71 86.7 848.71 L 86.7 843.94 C 89.12 845.27 93.41 845.91 97.5 845.91 C 101.59 845.91 105.88 845.27 108.3 843.94 L 108.3 848.71 C 108.3 849.71 104.21 851.55 97.53 851.55 Z M 97.53 859.05 C 90.81 859.05 86.7 857.21 86.7 856.21 L 86.7 851.38 C 89.08 852.79 93.32 853.51 97.53 853.51 C 101.72 853.51 105.92 852.79 108.3 851.39 L 108.3 856.21 C 108.3 857.21 104.21 859.05 97.53 859.05 Z M 97.5 865.78 C 90.51 865.78 86.7 863.9 86.7 862.93 L 86.7 858.88 C 89.08 860.29 93.32 861.01 97.53 861.01 C 101.72 861.01 105.92 860.29 108.3 858.89 L 108.3 862.93 C 108.3 863.9 104.49 865.78 97.5 865.78 Z M 97.5 836.87 C 91.35 836.87 84.73 838.28 84.73 841.39 L 84.73 862.93 C 84.73 866.09 91.16 867.74 97.5 867.74 C 103.84 867.74 110.27 866.09 110.27 862.93 L 110.27 841.39 C 110.27 838.28 103.65 836.87 97.5 836.87 Z" fill="#3334b9" stroke="none" pointer-events="all" style="fill: light-dark(rgb(51, 52, 185), rgb(175, 176, 255));"/></g><g><rect x="140" y="825" width="280" height="55" fill="none" stroke="none" pointer-events="all"/></g><g><g transform="translate(-0.5 -0.5)"><switch><foreignObject style="overflow: visible; text-align: left;" pointer-events="none" width="100%" height="100%" requiredFeatures="http://www.w3.org/TR/SVG11/feature#Extensibility"><div xmlns="http://www.w3.org/1999/xhtml" style="display: flex; align-items: unsafe center; justify-content: unsafe flex-start; width: 278px; height: 1px; padding-top: 853px; margin-left: 142px;"><div style="box-sizing: border-box; font-size: 0; text-align: left; color: #1A237E; "><div style="display: inline-block; font-size: 10px; font-family: &quot;Helvetica&quot;; color: light-dark(#1A237E, #bfc7ff); line-height: 1.2; pointer-events: all; white-space: normal; word-wrap: normal; "><font style="font-size: 14px;"><b>RDS db.t4g.micro</b><br />Single-AZ MySQL 8.0<br />Endpoint en database subnets</font></div></div></div></foreignObject><text x="142" y="856" fill="#1A237E" font-family="&quot;Helvetica&quot;" font-size="10px">RDS db.t4g.micro...</text></switch></g></g><g><rect x="460" y="825" width="55" height="55" fill="none" stroke="none" pointer-events="all"/><path d="M 486.28 855.8 C 486.28 856.47 486.83 857.02 487.5 857.02 C 488.17 857.02 488.72 856.47 488.72 855.8 C 488.72 855.13 488.17 854.58 487.5 854.58 C 486.83 854.58 486.28 855.13 486.28 855.8 Z M 484.32 855.8 C 484.32 854.04 485.74 852.62 487.5 852.62 C 489.26 852.62 490.68 854.04 490.68 855.8 C 490.68 857.21 489.76 858.39 488.48 858.81 L 488.48 861.34 L 486.52 861.34 L 486.52 858.81 C 485.24 858.39 484.32 857.21 484.32 855.8 Z M 496.34 850.54 L 478.66 850.54 L 478.66 863.3 L 496.34 863.3 L 496.34 860.36 L 493.39 860.36 L 493.39 858.39 L 496.34 858.39 L 496.34 855.45 L 493.39 855.45 L 493.39 853.48 L 496.34 853.48 Z M 481.61 848.57 L 493.39 848.57 L 493.39 843.66 C 493.39 841.09 490.59 838.75 487.5 838.75 L 487.5 838.75 C 486 838.75 484.48 839.31 483.34 840.3 C 482.24 841.24 481.61 842.47 481.61 843.66 Z M 495.36 843.66 L 495.36 848.57 L 497.32 848.57 C 497.86 848.57 498.3 849.01 498.3 849.55 L 498.3 864.29 C 498.3 864.83 497.86 865.27 497.32 865.27 L 477.68 865.27 C 477.14 865.27 476.7 864.83 476.7 864.29 L 476.7 849.55 C 476.7 849.01 477.14 848.57 477.68 848.57 L 479.64 848.57 L 479.64 843.66 C 479.64 841.89 480.52 840.13 482.06 838.81 C 483.55 837.52 485.54 836.79 487.5 836.79 L 487.5 836.79 C 491.69 836.79 495.36 840 495.36 843.66 Z M 467.08 867.28 L 468.67 866.13 C 465.98 862.42 464.5 858.06 464.32 853.48 L 466.88 853.48 L 466.88 851.52 L 464.32 851.52 C 464.52 846.97 466 842.64 468.67 838.94 L 467.08 837.79 C 464.16 841.82 462.55 846.55 462.36 851.52 L 460 851.52 L 460 853.48 L 462.35 853.48 C 462.54 858.48 464.15 863.23 467.08 867.28 Z M 501.09 871.37 C 497.39 874.04 493.05 875.53 488.48 875.72 L 488.48 873.13 L 486.52 873.13 L 486.52 875.72 C 481.95 875.53 477.61 874.05 473.91 871.37 L 472.76 872.96 C 476.79 875.88 481.54 877.49 486.52 877.68 L 486.52 880 L 488.48 880 L 488.48 877.68 C 493.46 877.49 498.2 875.88 502.24 872.96 Z M 473.91 833.71 C 477.61 831.03 481.95 829.55 486.52 829.36 L 486.52 831.88 L 488.48 831.88 L 488.48 829.36 C 493.05 829.55 497.39 831.03 501.09 833.71 L 502.24 832.12 C 498.2 829.19 493.46 827.58 488.48 827.39 L 488.48 825 L 486.52 825 L 486.52 827.39 C 481.54 827.58 476.79 829.19 472.76 832.12 Z M 512.64 851.52 C 512.45 846.55 510.83 841.82 507.92 837.79 L 506.33 838.94 C 509 842.64 510.48 846.97 510.68 851.52 L 508.13 851.52 L 508.13 853.48 L 510.68 853.48 C 510.5 858.06 509.01 862.42 506.33 866.13 L 507.92 867.28 C 510.85 863.23 512.46 858.48 512.64 853.48 L 515 853.48 L 515 851.52 Z M 503.59 837.83 L 511.29 830.13 L 509.9 828.74 L 502.2 836.44 Z M 471.4 867.24 L 463.7 874.94 L 465.09 876.33 L 472.79 868.63 Z M 476.37 839.98 L 461.79 825.41 L 460.4 826.79 L 474.98 841.37 Z M 501.44 865.05 L 514.59 878.21 L 513.2 879.59 L 500.05 866.44 Z" fill="#dd344c" stroke="none" pointer-events="all" style="fill: light-dark(rgb(221, 52, 76), rgb(255, 127, 147));"/></g><g><rect x="525" y="825" width="160" height="55" fill="none" stroke="none" pointer-events="all"/></g><g><g transform="translate(-0.5 -0.5)"><switch><foreignObject style="overflow: visible; text-align: left;" pointer-events="none" width="100%" height="100%" requiredFeatures="http://www.w3.org/TR/SVG11/feature#Extensibility"><div xmlns="http://www.w3.org/1999/xhtml" style="display: flex; align-items: unsafe center; justify-content: unsafe flex-start; width: 158px; height: 1px; padding-top: 853px; margin-left: 527px;"><div style="box-sizing: border-box; font-size: 0; text-align: left; color: #A1162F; "><div style="display: inline-block; font-size: 10px; font-family: &quot;Helvetica&quot;; color: light-dark(#A1162F, #ffa4b9); line-height: 1.2; pointer-events: all; white-space: normal; word-wrap: normal; "><font style="font-size: 14px;"><b>Secrets Manager</b><br />password autogenerada<br />rotación automática</font></div></div></div></foreignObject><text x="527" y="856" fill="#A1162F" font-family="&quot;Helvetica&quot;" font-size="10px">Secrets Manager...</text></switch></g></g><g><path d="M 641.02 333.92 L 648.42 420.73" fill="none" stroke="#f9a825" stroke-width="3" stroke-miterlimit="10" pointer-events="stroke" style="stroke: light-dark(rgb(249, 168, 37), rgb(149, 79, 0));"/><path d="M 649 427.46 L 643.75 418.87 L 648.42 420.73 L 652.71 418.11 Z" fill="#f9a825" stroke="#f9a825" stroke-width="3" stroke-miterlimit="10" pointer-events="all" style="fill: light-dark(rgb(249, 168, 37), rgb(149, 79, 0)); stroke: light-dark(rgb(249, 168, 37), rgb(149, 79, 0));"/></g><g><path d="M 670 720 L 784.68 809.07" fill="none" stroke="#2e7d32" stroke-width="2" stroke-miterlimit="10" pointer-events="stroke" style="stroke: light-dark(rgb(46, 125, 50), rgb(100, 168, 104));"/><path d="M 789.41 812.75 L 780.64 811 L 784.68 809.07 L 785.55 804.68 Z" fill="#2e7d32" stroke="#2e7d32" stroke-width="2" stroke-miterlimit="10" pointer-events="all" style="fill: light-dark(rgb(46, 125, 50), rgb(100, 168, 104)); stroke: light-dark(rgb(46, 125, 50), rgb(100, 168, 104));"/></g><g><g transform="translate(-0.5 -0.5)"><switch><foreignObject style="overflow: visible; text-align: left;" pointer-events="none" width="100%" height="100%" requiredFeatures="http://www.w3.org/TR/SVG11/feature#Extensibility"><div xmlns="http://www.w3.org/1999/xhtml" style="display: flex; align-items: unsafe center; justify-content: unsafe center; width: 1px; height: 1px; padding-top: 795px; margin-left: 740px;"><div style="box-sizing: border-box; font-size: 0; text-align: center; color: #1B5E20; background-color: #ffffff; "><div style="display: inline-block; font-size: 10px; font-family: &quot;Helvetica&quot;; color: light-dark(#1B5E20, #82bc86); line-height: 1.2; pointer-events: all; background-color: light-dark(#ffffff, var(--ge-dark-color, #121212)); white-space: nowrap; "><font style="font-size: 14px;">db_subnet_group_name</font></div></div></div></foreignObject><text x="740" y="798" fill="#1B5E20" font-family="&quot;Helvetica&quot;" font-size="10px" text-anchor="middle">db_subnet_group_name</text></switch></g></g><g><path d="M 670 720 L 766.05 544.23" fill="none" stroke="#c62828" stroke-width="2" stroke-miterlimit="10" pointer-events="stroke" style="stroke: light-dark(rgb(198, 40, 40), rgb(255, 145, 145));"/><path d="M 768.93 538.96 L 768.6 547.9 L 766.05 544.23 L 761.58 544.06 Z" fill="#c62828" stroke="#c62828" stroke-width="2" stroke-miterlimit="10" pointer-events="all" style="fill: light-dark(rgb(198, 40, 40), rgb(255, 145, 145)); stroke: light-dark(rgb(198, 40, 40), rgb(255, 145, 145));"/></g><g><g transform="translate(-0.5 -0.5)"><switch><foreignObject style="overflow: visible; text-align: left;" pointer-events="none" width="100%" height="100%" requiredFeatures="http://www.w3.org/TR/SVG11/feature#Extensibility"><div xmlns="http://www.w3.org/1999/xhtml" style="display: flex; align-items: unsafe center; justify-content: unsafe center; width: 1px; height: 1px; padding-top: 635px; margin-left: 780px;"><div style="box-sizing: border-box; font-size: 0; text-align: center; color: #B71C1C; background-color: #ffffff; "><div style="display: inline-block; font-size: 10px; font-family: &quot;Helvetica&quot;; color: light-dark(#B71C1C, #ff9c9c); line-height: 1.2; pointer-events: all; background-color: light-dark(#ffffff, var(--ge-dark-color, #121212)); white-space: nowrap; "><font style="font-size: 14px;">private_subnets_cidr</font></div></div></div></foreignObject><text x="780" y="638" fill="#B71C1C" font-family="&quot;Helvetica&quot;" font-size="10px" text-anchor="middle">private_subnets_cidr</text></switch></g></g><g><path d="M 1080 605 L 1081.18 656.77" fill="none" stroke="#c62828" stroke-width="2" stroke-miterlimit="10" pointer-events="stroke" style="stroke: light-dark(rgb(198, 40, 40), rgb(255, 145, 145));"/><path d="M 1081.31 662.76 L 1077.13 654.86 L 1081.18 656.77 L 1085.13 654.68 Z" fill="#c62828" stroke="#c62828" stroke-width="2" stroke-miterlimit="10" pointer-events="all" style="fill: light-dark(rgb(198, 40, 40), rgb(255, 145, 145)); stroke: light-dark(rgb(198, 40, 40), rgb(255, 145, 145));"/></g><g><g transform="translate(-0.5 -0.5)"><switch><foreignObject style="overflow: visible; text-align: left;" pointer-events="none" width="100%" height="100%" requiredFeatures="http://www.w3.org/TR/SVG11/feature#Extensibility"><div xmlns="http://www.w3.org/1999/xhtml" style="display: flex; align-items: unsafe center; justify-content: unsafe center; width: 1px; height: 1px; padding-top: 635px; margin-left: 1112px;"><div style="box-sizing: border-box; font-size: 0; text-align: center; color: #B71C1C; background-color: #ffffff; "><div style="display: inline-block; font-size: 10px; font-family: &quot;Helvetica&quot;; color: light-dark(#B71C1C, #ff9c9c); line-height: 1.2; pointer-events: all; background-color: light-dark(#ffffff, var(--ge-dark-color, #121212)); white-space: nowrap; "><font style="font-size: 14px;">vpc_security_group_ids</font></div></div></div></foreignObject><text x="1112" y="638" fill="#B71C1C" font-family="&quot;Helvetica&quot;" font-size="10px" text-anchor="middle">vpc_security_group_ids</text></switch></g></g><g><rect x="0" y="1055" width="1420" height="100" fill="none" stroke="none" pointer-events="all"/></g><g><g transform="translate(-0.5 -0.5)"><switch><foreignObject style="overflow: visible; text-align: left;" pointer-events="none" width="100%" height="100%" requiredFeatures="http://www.w3.org/TR/SVG11/feature#Extensibility"><div xmlns="http://www.w3.org/1999/xhtml" style="display: flex; align-items: unsafe center; justify-content: unsafe center; width: 1418px; height: 1px; padding-top: 1105px; margin-left: 1px;"><div style="box-sizing: border-box; font-size: 0; text-align: center; color: #555555; "><div style="display: inline-block; font-size: 11px; font-family: &quot;Helvetica&quot;; color: light-dark(#555555, #a4a4a4); line-height: 1.2; pointer-events: all; font-style: italic; white-space: normal; word-wrap: normal; "><font style="font-size: 14px;"><b>Patrón wrapper corporativo:</b> el equipo de plataforma compone módulos públicos del Registry e inyecta políticas de seguridad como <b>parámetros hardcoded</b> — no expuestos como variables. El equipo de producto <b>no puede</b> pasar <code>storage_encrypted = false</code>: si lo intenta, Terraform falla con <code>Unsupported argument</code>.<br />Compliance <b>por diseño</b>, no por convención. Auditoría = revisar UN módulo, no N proyectos.<br />💸 Coste base ≈ 50 USD/mes (RDS + NAT + EIP + Secrets) — destruir tras la práctica (deletion_protection requiere apagarlo primero).</font></div></div></div></foreignObject><text x="710" y="1108" fill="#555555" font-family="&quot;Helvetica&quot;" font-size="11px" text-anchor="middle" font-style="italic">Patrón wrapper corporativo: el equipo de plataforma compone módulos públicos del Registry e inyecta políticas de seguridad como parámetros hardcoded — no expuestos como variables. El equipo de producto no puede pasar storage_encrypted = false: si lo intenta,...</text></switch></g></g></g><switch><g requiredFeatures="http://www.w3.org/TR/SVG11/feature#Extensibility"/><a transform="translate(0,-5)" xlink:href="https://www.drawio.com/doc/faq/svg-export-text-problems" target="_blank"><text text-anchor="middle" font-size="10px" x="50%" y="100%">Text is not SVG - cannot display</text></a></switch></svg>