<svg xmlns="http://www.w3.org/2000/svg" style="background: transparent; background-color: transparent;" xmlns:xlink="http://www.w3.org/1999/xlink" version="1.1" width="1272px" height="680px" viewBox="-0.5 -0.5 1272 680" content="&lt;mxfile&gt;&lt;diagram name=&quot;Arquitectura Lab-33&quot; id=&quot;lab33-arch&quot;&gt;3Ztbc6M4FoB/DVXph7gwGF8ebYyzXZ1spTZTvbVPLhkUWxNAbiESZ379niME5uaJnUAmM+lKB4SQQOfTuUgHw3ajw40g+90dD2hoWGZwMOylYVmzyRD+x4LXrMCxRlnBVrAgKxoeCx7YH1QXmro0ZQFNKhUl56Fk+2qhz+OY+rJSRoTgL9Vqjzys9ronW9ooePBJ2Cz9LwvkTpfapnm88C/Ktjvd9WSqL0Qkr6wLkh0J+EupyPYM2xWcy+woOrg0xLHLxyW7b3XiavFggsbynBskk/BS6qZnEqb6/W7J5tq2oczwLAOefQbiMZdEEvhzS57gBvMBL29CFgfwAoY9z4tgyPGQblOQHAng+BV+XeaHHAWOt/6EC4Y1JtHesBfxJsE/ejTkaz7Ekh7gBRY7GYVQMIRDErJtDMc+vBoVUPBMhWQglLm+ELEgwNsXLzsm6cOe+NjWCxAIZY88lhqkoZOf6+6G+tzlIReqexv+rXDEFs0B1WOMvdNDqUgP8A3lEZUC31pfHWlZa9hz0b+UyCkKdyVqbEcTq2ndFi0fBQoHWqbt8n3e+wt+aAgYhj+U+q0r4z7+lfL8wnWixgtFOxztD2ow8utwtMW/P+9dhTVDqWNFc2DNBuYAjlfDcd4NnGQ9ZTc1hC14Ggc00KJoE1+Jg0cWhiVJrazVdLWE8kQK/kRLV4ajibeYF1fymWrVaLBaaHiTNcnxqRJ4SBZvf8OT5fRYcEsfZbnptofqHqxpEyxn1MKVk6upj4C1F+z5Id3EVPYHV5JuBEUVgp0RVBqm4VrGYlKANlSgofW4FDTzctBWoBHMNtC81dg1zQZo2EZAkl0Bdpm6j1BWQ8obO0PVfQdIjatIDVuUVYFPmanhtAOmRI8sYdsljq4SpbFEqmwa/poDU+st81ve60bktyv/hcbBnjP1ICx+BccC7wtJqZ1QdUIf2QGvsETmNg9t46cgCj8XIlqm0rzIzvbI4bTG4bjJ4Wjcqts+jiG8aggv3hmK4BOpMcJCsd1cWQ4YdjSb5YNvrdQaK3C+VsZsYczRurohQ6HA0ff5XRNSPyXhr5ThsyPqsc/2ikhFoOLUT+F+RarvU1Ws5wEFLpjvM8O1jYUdf4bhnixG1sJtg9VxLW/ehLVuuAt4LzHcp+Atpk738AKV58E77gBecPia/nxDbskTlf5O6xieSvDjQQB5sGT+iT+8FSRACPNrMY9pU7ZTd9SmiHTlwiiaJQFBzEHDe54wyTgKasOl5NFJo9gQdBm0P4FEabhkn70o6Gl8joXS6lR4z9BYohuByGyPN0SHLcawA/KSjAaFBeiEkzoo9qTF2jotSq6bwIDebsL+DG6hnlpbORVJ3BBJXwiOkXc0thXjuWl0cNR/PBqQiPzBYxDWoAgxVS1Bt8hVXqbqDxK72cgDLfRhvMVjZfoJLhnME54Kn/5UUwy8gVyrblL/iSr/gofMfz1Xeb4jxM3Yfyu+bYlnHc92FsNe1NvIPtM2jzvANuJBGtJeQ9qsiwSeJKF+Kuh1Id7yakhR+MhBRI8gpIArAoRCwyf7JA3JpxpU0LhLb9JmUFcL17SOMfLXiISd5ci0Jx2FLeM3Q+Gx01co/BQlf73FXS7t0ajpTf3tLe4TfV1HJCZbGkHVdULFM8Pp0Ak1szOi3Z7sL0Dzpcyve/cDNZy1UGEsI6j/BgMwoquASBKqRd9zbDCNySakaxSb4JIotKBd7NyUIkXDWazhBDSkWGH9wmJcBc/rTYKPm9BQKZ73rxG32ND5cDi2OgoRJjlDBXotMcKsTWN1wF5uu/5qnTWZ45D+83RWNr5Atdyt+eZ3aCXpSGFNq9TAz6DJzbhFZXXhe2Wv9aW0Fgz3OrHXOdDnKKhqWLAXHOVTjQuuc5V3Xa1MfB/cM7lmQbX+l9RWjjNddKatxnXuWlz+vrRVkrQtaHQFnF5gGxkz7OLhwbv+cfdQNlKXIqknPxrAzBYGNfvXBqmZRxfj7DlwGEmiVuquZzMDjYMZhhDbBmiY1Xq1eszPWFJ2lypQaAQV7tiaWtNGUPGujY5Tq3KLydAduv14e7bZVJ1OG8Rd7MPuyaZ/iOfGHFnap5uQ+Wtc4k2S9Sbk/lMZaIxefWhZcBXlmlfEDwvXL1/B0KcgHS5ocaqXieW3zyHPW3jeP5I8pyXO6Is8eMwEfCWIxfsH0Mm0V7lL0zsqwYpWNcH0SqpW2BSNahuNxAmPXohCDgdwwwV4klzpPN9nAe5eKGr7x8/DzIL2vAJn7Lhv76V9CD9zOZrMO1qva+A3+0TFF7JH6r/6LUlGndNnG/Mx2sljj6ZIw0rEKZEwlgelJYN7czt3v3v/yaogbv/G+BQX7+ZLdV40QQ97JvK4Vle+q1auu5xkD0o132fWk4NmTMs041nRDoGPnwol6c8AfLpyvFkb4JY3WdpWv4APF45ndZW0UAN8NDpTv3axW5z5e/fabvbP+Ay3SbSTebTW7/VWlzR+PeGS+imJ1Zp2y96HmjqzbFO6lBVxae//O9F11uN9voU9z+KuWr/5XnZ9tu2piJjaJC/SM8DU7Fll//uKBBHufK/c79+yPXjwk36lNN8bT7ia6sB0jEfZLvnxTb9otlFns7PTlKLa7CzW3N+cnR2YHyKEq9I5fp61Lw4SnmN+MI5ZSJKE+VUhVSV6SeLCyYGkQSXXuDmMgoZgbp5p5a62MdG33uvJeMjDnEk1dp/WhjWb2Pqu48i+2VCxW503JInYoiasNaREVLzPuVJDeS1OrVNeqFStUzlhWdZWkRV23qxuZQRidSE/gs6Zyaoti65vZ5T2jphdXR4qHMxLEaurioaB7hSxH1HSN2E+e8TAZhXQRB9+gLHzYaptBpZhOpmQ2kLW2xseNbLAIVYCKntG+t0UAVm53i/tHMPJsKqgGjmp52I4yS1DfbmzewxDiIDjoD+/0cPOoiwJIUjVNxiXOmm1LIhWh61IeIBjjMHgTAVGKsUwoI80Tkj2pGoaKLfyuNaafTOSz0XzB0UYrnyeKC8uqxNl4VXMIl5x2FTShXq/Oa564ankEtMe3WOwlXVIYsmuy0sMWKMcLeLT32DSRpZBSdSaBNlxmIk6Qkvj1nwf85fa2EyycVajXPJCc3cSlEBQJBRl6U6lJKercpU2r/XbAA7dUopno+Hv6OWpjHyz+NiGZysrheOrPdlaOrOgPttg9blaNISogNFg0GMi08U7G/nOXFsiifrpxlmtfVIxbvFV2z/WGb4jkwROj196Zcrj+Lmc7f0f&lt;/diagram&gt;&lt;/mxfile&gt;"><defs/><g><g><rect x="1" y="0" width="1220" height="35" fill="none" stroke="none" pointer-events="all"/></g><g><g transform="translate(-0.5 -0.5)"><switch><foreignObject style="overflow: visible; text-align: left;" pointer-events="none" width="100%" height="100%" requiredFeatures="http://www.w3.org/TR/SVG11/feature#Extensibility"><div xmlns="http://www.w3.org/1999/xhtml" style="display: flex; align-items: unsafe center; justify-content: unsafe center; width: 1218px; height: 1px; padding-top: 18px; margin-left: 2px;"><div style="box-sizing: border-box; font-size: 0; text-align: center; color: #232F3E; "><div style="display: inline-block; font-size: 15px; font-family: &quot;Helvetica&quot;; color: light-dark(#232F3E, #bdc7d4); line-height: 1.2; pointer-events: all; font-weight: bold; white-space: normal; word-wrap: normal; ">Lab-33 — Data Lake S3 blindado: S3 con Seguridad y Ciclo de Vida </div></div></div></foreignObject><text x="611" y="22" fill="#232F3E" font-family="&quot;Helvetica&quot;" font-size="15px" text-anchor="middle" font-weight="bold">Lab-33 — Data Lake S3 blindado: S3 con Seguridad y Ciclo de Vida </text></switch></g></g><g><rect x="1" y="60" width="540" height="500" rx="75" ry="75" fill="#f2f8fd" stroke="#147eba" stroke-width="2" pointer-events="all" style="fill: light-dark(rgb(242, 248, 253), rgb(21, 26, 30)); stroke: light-dark(rgb(20, 126, 186), rgb(69, 160, 212));"/></g><g><g transform="translate(-0.5 -0.5)"><switch><foreignObject style="overflow: visible; text-align: left;" pointer-events="none" width="100%" height="100%" requiredFeatures="http://www.w3.org/TR/SVG11/feature#Extensibility"><div xmlns="http://www.w3.org/1999/xhtml" style="display: flex; align-items: unsafe flex-start; justify-content: unsafe center; width: 526px; height: 1px; padding-top: 75px; margin-left: 14px;"><div style="box-sizing: border-box; font-size: 0; text-align: center; color: #147EBA; "><div style="display: inline-block; font-size: 12px; font-family: &quot;Helvetica&quot;; color: light-dark(#147EBA, #45a0d4); line-height: 1.2; pointer-events: all; font-weight: bold; white-space: normal; word-wrap: normal; "><font style="font-size: 14px;">VPC main  10.29.0.0/16</font></div></div></div></foreignObject><text x="277" y="87" fill="#147EBA" font-family="&quot;Helvetica&quot;" font-size="12px" text-anchor="middle" font-weight="bold">VPC main  10.29.0.0/16</text></switch></g></g><g><rect x="21" y="100" width="500" height="180" fill="#fff3e0" stroke="#ef6c00" stroke-dasharray="3 3" pointer-events="all" style="fill: light-dark(rgb(255, 243, 224), rgb(36, 26, 9)); stroke: light-dark(rgb(239, 108, 0), rgb(222, 110, 17));"/></g><g><g transform="translate(-0.5 -0.5)"><switch><foreignObject style="overflow: visible; text-align: left;" pointer-events="none" width="100%" height="100%" requiredFeatures="http://www.w3.org/TR/SVG11/feature#Extensibility"><div xmlns="http://www.w3.org/1999/xhtml" style="display: flex; align-items: unsafe flex-start; justify-content: unsafe center; width: 498px; height: 1px; padding-top: 115px; margin-left: 22px;"><div style="box-sizing: border-box; font-size: 0; text-align: center; color: #E65100; "><div style="display: inline-block; font-size: 11px; font-family: &quot;Helvetica&quot;; color: light-dark(#E65100, #fb7b35); line-height: 1.2; pointer-events: all; white-space: normal; word-wrap: normal; "><font style="font-size: 14px;">subred privada · 10.29.1.0/24</font></div></div></div></foreignObject><text x="271" y="126" fill="#E65100" font-family="&quot;Helvetica&quot;" font-size="11px" text-anchor="middle">subred privada · 10.29.1.0/24</text></switch></g></g><g><rect x="41" y="140" width="460" height="50" fill="#ffffff" stroke="#ef6c00" pointer-events="all" style="fill: light-dark(rgb(255, 255, 255), rgb(18, 18, 18)); stroke: light-dark(rgb(239, 108, 0), rgb(222, 110, 17));"/></g><g><g transform="translate(-0.5 -0.5)"><switch><foreignObject style="overflow: visible; text-align: left;" pointer-events="none" width="100%" height="100%" requiredFeatures="http://www.w3.org/TR/SVG11/feature#Extensibility"><div xmlns="http://www.w3.org/1999/xhtml" style="display: flex; align-items: unsafe center; justify-content: unsafe center; width: 458px; height: 1px; padding-top: 165px; margin-left: 42px;"><div style="box-sizing: border-box; font-size: 0; text-align: center; color: #E65100; "><div style="display: inline-block; font-size: 10px; font-family: &quot;Helvetica&quot;; color: light-dark(#E65100, #fb7b35); line-height: 1.2; pointer-events: all; white-space: normal; word-wrap: normal; "><font style="font-size: 14px;">rt privada (sin ruta a 0.0.0.0/0)<br />el endpoint inyecta la ruta al prefix list de S3</font></div></div></div></foreignObject><text x="271" y="168" fill="#E65100" font-family="&quot;Helvetica&quot;" font-size="10px" text-anchor="middle">rt privada (sin ruta a 0.0.0.0/0)...</text></switch></g></g><g><rect x="41" y="205" width="460" height="60" rx="9" ry="9" fill="#7b42bc" stroke="#5c2ea0" stroke-width="2" pointer-events="all" style="fill: light-dark(rgb(123, 66, 188), rgb(193, 144, 249)); stroke: light-dark(rgb(92, 46, 160), rgb(207, 167, 255));"/></g><g><g transform="translate(-0.5 -0.5)"><switch><foreignObject style="overflow: visible; text-align: left;" pointer-events="none" width="100%" height="100%" requiredFeatures="http://www.w3.org/TR/SVG11/feature#Extensibility"><div xmlns="http://www.w3.org/1999/xhtml" style="display: flex; align-items: unsafe center; justify-content: unsafe center; width: 458px; height: 1px; padding-top: 235px; margin-left: 42px;"><div style="box-sizing: border-box; font-size: 0; text-align: center; color: #FFFFFF; "><div style="display: inline-block; font-size: 11px; font-family: &quot;Helvetica&quot;; color: light-dark(#FFFFFF, #121212); line-height: 1.2; pointer-events: all; font-weight: bold; white-space: normal; word-wrap: normal; "><font style="font-size: 14px; color: light-dark(rgb(255, 255, 255), rgb(18, 18, 18));">🛠 Cliente IAM<br />cualquier principal de la cuenta accede sin restricción</font></div></div></div></foreignObject><text x="271" y="238" fill="#FFFFFF" font-family="&quot;Helvetica&quot;" font-size="11px" text-anchor="middle" font-weight="bold">🛠 Cliente IAM...</text></switch></g></g><g><rect x="241" y="350" width="55" height="55" fill="none" stroke="none" pointer-events="all"/><path d="M 270.89 378.69 L 273.27 378.69 L 273.27 376.31 L 270.89 376.31 Z M 267.31 378.69 L 269.69 378.69 L 269.69 376.31 L 267.31 376.31 Z M 263.73 378.69 L 266.11 378.69 L 266.11 376.31 L 263.73 376.31 Z M 285.15 386.25 L 276.91 393.5 L 276.91 361.66 L 285.15 368.91 Z M 277.18 358.66 C 276.92 358.55 275.82 358.22 275.05 358.65 L 274.41 359.01 L 274.41 396.16 L 275.05 396.52 C 275.34 396.68 275.67 396.73 275.99 396.73 C 276.53 396.73 277.02 396.58 277.18 396.51 L 277.37 396.43 L 286.71 388.21 C 287.29 387.87 287.65 387.27 287.65 386.61 L 287.65 368.56 C 287.65 367.9 287.29 367.29 286.71 366.96 L 277.37 358.74 Z M 260.09 393.5 L 251.85 386.25 L 251.85 368.91 L 260.09 361.66 Z M 259.82 358.66 L 259.63 358.74 L 250.29 366.96 C 249.71 367.29 249.35 367.9 249.35 368.56 L 249.35 386.61 C 249.35 387.26 249.71 387.87 250.29 388.21 L 259.63 396.43 L 259.82 396.51 C 259.98 396.58 260.47 396.73 261.01 396.73 C 261.33 396.73 261.66 396.68 261.94 396.52 L 262.59 396.16 L 262.59 359 L 261.94 358.65 C 261.18 358.23 260.07 358.55 259.82 358.66 Z M 293.5 387.86 L 278.86 402.5 L 258.14 402.5 L 243.5 387.86 L 243.5 367.14 L 258.14 352.5 L 278.86 352.5 L 293.5 367.14 Z M 279.89 350 L 257.11 350 L 241 366.11 L 241 388.89 L 257.11 405 L 279.89 405 L 296 388.89 L 296 366.11 Z" fill="#8c4fff" stroke="none" pointer-events="all" style="fill: light-dark(rgb(140, 79, 255), rgb(177, 125, 255));"/></g><g><rect x="41" y="410" width="460" height="65" fill="none" stroke="none" pointer-events="all"/></g><g><g transform="translate(-0.5 -0.5)"><switch><foreignObject style="overflow: visible; text-align: left;" pointer-events="none" width="100%" height="100%" requiredFeatures="http://www.w3.org/TR/SVG11/feature#Extensibility"><div xmlns="http://www.w3.org/1999/xhtml" style="display: flex; align-items: unsafe flex-start; justify-content: unsafe center; width: 458px; height: 1px; padding-top: 417px; margin-left: 42px;"><div style="box-sizing: border-box; font-size: 0; text-align: center; color: #5E35B1; "><div style="display: inline-block; font-size: 11px; font-family: &quot;Helvetica&quot;; color: light-dark(#5E35B1, #c5a1ff); line-height: 1.2; pointer-events: all; white-space: normal; word-wrap: normal; "><font style="font-size: 14px;"><b style="">VPC Gateway Endpoint S3</b><br />com.amazonaws.&lt;region&gt;.s3<br />Se restringe el aws:sourceVpce en la bucket policy</font></div></div></div></foreignObject><text x="271" y="428" fill="#5E35B1" font-family="&quot;Helvetica&quot;" font-size="11px" text-anchor="middle">VPC Gateway Endpoint S3...</text></switch></g></g><g><rect x="621" y="60" width="650" height="500" rx="75" ry="75" fill="#fffde7" stroke="#fbc02d" stroke-width="2" pointer-events="all" style="fill: light-dark(rgb(255, 253, 231), rgb(24, 22, 4)); stroke: light-dark(rgb(251, 192, 45), rgb(120, 69, 0));"/></g><g><g transform="translate(-0.5 -0.5)"><switch><foreignObject style="overflow: visible; text-align: left;" pointer-events="none" width="100%" height="100%" requiredFeatures="http://www.w3.org/TR/SVG11/feature#Extensibility"><div xmlns="http://www.w3.org/1999/xhtml" style="display: flex; align-items: unsafe flex-start; justify-content: unsafe center; width: 636px; height: 1px; padding-top: 75px; margin-left: 634px;"><div style="box-sizing: border-box; font-size: 0; text-align: center; color: #5D4037; "><div style="display: inline-block; font-size: 12px; font-family: &quot;Helvetica&quot;; color: light-dark(#5D4037, #c6ada5); line-height: 1.2; pointer-events: all; font-weight: bold; white-space: normal; word-wrap: normal; "><font style="font-size: 14px;">modules/secure-bucket — bucket fortificado por encapsulación</font></div></div></div></foreignObject><text x="952" y="87" fill="#5D4037" font-family="&quot;Helvetica&quot;" font-size="12px" text-anchor="middle" font-weight="bold">modules/secure-bucket — bucket fortificado por encapsulación</text></switch></g></g><g><rect x="651" y="100" width="55" height="55" fill="none" stroke="none" pointer-events="all"/><path d="M 691.19 140.49 L 698.6 140.49 L 698.6 138.37 L 691.19 138.37 Z M 681.67 140.49 L 689.08 140.49 L 689.08 138.37 L 681.67 138.37 Z M 672.15 140.49 L 679.56 140.49 L 679.56 138.37 L 672.15 138.37 Z M 683.79 132.03 C 683.79 130.86 684.74 129.91 685.9 129.91 C 687.07 129.91 688.02 130.86 688.02 132.03 C 688.02 133.19 687.07 134.14 685.9 134.14 C 684.74 134.14 683.79 133.19 683.79 132.03 Z M 690.13 132.03 C 690.13 129.69 688.24 127.8 685.9 127.8 C 683.57 127.8 681.67 129.69 681.67 132.03 C 681.67 134.36 683.57 136.26 685.9 136.26 C 688.24 136.26 690.13 134.36 690.13 132.03 Z M 675.32 129.91 C 676.49 129.91 677.44 130.86 677.44 132.03 C 677.44 133.19 676.49 134.14 675.32 134.14 C 674.16 134.14 673.21 133.19 673.21 132.03 C 673.21 130.86 674.16 129.91 675.32 129.91 Z M 675.32 136.26 C 677.66 136.26 679.56 134.36 679.56 132.03 C 679.56 129.69 677.66 127.8 675.32 127.8 C 672.99 127.8 671.09 129.69 671.09 132.03 C 671.09 134.36 672.99 136.26 675.32 136.26 Z M 706 120.39 L 706 144.72 C 706 145.3 705.53 145.78 704.94 145.78 L 672.15 145.78 L 672.15 143.66 L 703.88 143.66 L 703.88 121.45 L 680.61 121.45 L 680.61 119.33 L 704.94 119.33 C 705.53 119.33 706 119.81 706 120.39 Z M 668.66 125.73 C 668.22 125.87 667.92 126.28 667.92 126.74 L 667.92 148.99 L 665.38 151.17 L 662.63 148.03 L 662.63 145.25 C 662.63 144.97 662.52 144.7 662.32 144.5 L 659.9 142.08 L 662.32 139.65 C 662.52 139.45 662.63 139.18 662.63 138.9 L 662.63 136.79 C 662.63 136.51 662.52 136.24 662.32 136.04 L 659.9 133.61 L 662.32 131.19 C 662.52 130.99 662.63 130.72 662.63 130.44 L 662.63 126.75 C 662.63 126.29 662.33 125.88 661.89 125.74 C 656.45 124.02 653.24 118.42 654.42 112.73 C 655.26 108.62 658.42 105.33 662.46 104.34 C 665.89 103.5 669.42 104.24 672.12 106.36 C 674.83 108.48 676.38 111.67 676.38 115.1 C 676.38 119.92 673.21 124.29 668.66 125.73 Z M 678.5 115.1 C 678.5 111.02 676.65 107.22 673.43 104.69 C 670.21 102.17 666.03 101.29 661.95 102.29 C 657.13 103.47 653.36 107.4 652.34 112.3 L 652.34 112.3 C 651 118.8 654.49 125.19 660.52 127.5 L 660.52 130 L 657.65 132.87 C 657.24 133.28 657.24 133.95 657.65 134.36 L 660.52 137.23 L 660.52 138.46 L 657.65 141.33 C 657.24 141.74 657.24 142.41 657.65 142.82 L 660.52 145.69 L 660.52 148.42 C 660.52 148.68 660.61 148.93 660.78 149.12 L 664.48 153.35 C 664.69 153.59 664.98 153.71 665.28 153.71 C 665.52 153.71 665.76 153.63 665.96 153.46 L 669.67 150.28 C 669.9 150.08 670.04 149.79 670.04 149.48 L 670.04 127.49 C 675.06 125.55 678.5 120.57 678.5 115.1 Z M 665.28 117.61 C 663.82 117.61 662.63 116.42 662.63 114.97 C 662.63 113.51 663.82 112.32 665.28 112.32 C 666.73 112.32 667.92 113.51 667.92 114.97 C 667.92 116.42 666.73 117.61 665.28 117.61 Z M 665.28 110.21 C 662.65 110.21 660.52 112.34 660.52 114.97 C 660.52 117.59 662.65 119.73 665.28 119.73 C 667.9 119.73 670.04 117.59 670.04 114.97 C 670.04 112.34 667.9 110.21 665.28 110.21 Z" fill="#dd344c" stroke="none" pointer-events="all" style="fill: light-dark(rgb(221, 52, 76), rgb(255, 127, 147));"/></g><g><rect x="716" y="105" width="490" height="55" fill="none" stroke="none" pointer-events="all"/></g><g><g transform="translate(-0.5 -0.5)"><switch><foreignObject style="overflow: visible; text-align: left;" pointer-events="none" width="100%" height="100%" requiredFeatures="http://www.w3.org/TR/SVG11/feature#Extensibility"><div xmlns="http://www.w3.org/1999/xhtml" style="display: flex; align-items: unsafe center; justify-content: unsafe flex-start; width: 488px; height: 1px; padding-top: 133px; margin-left: 718px;"><div style="box-sizing: border-box; font-size: 0; text-align: left; color: #A1162F; "><div style="display: inline-block; font-size: 11px; font-family: &quot;Helvetica&quot;; color: light-dark(#A1162F, #ffa4b9); line-height: 1.2; pointer-events: all; white-space: normal; word-wrap: normal; "><font style="font-size: 14px;"><b style="">CMK + alias/.../datalake</b><br />enable_key_rotation = true · deletion_window = 7d</font></div></div></div></foreignObject><text x="718" y="136" fill="#A1162F" font-family="&quot;Helvetica&quot;" font-size="11px">CMK + alias/.../datalake...</text></switch></g></g><g><rect x="646" y="202.5" width="65" height="65" fill="none" stroke="none" pointer-events="all"/><path d="M 673.17 246.44 L 662.96 246.44 C 662.14 246.44 661.47 247.11 661.47 247.92 L 661.47 258.26 C 661.47 259.08 662.14 259.75 662.96 259.75 L 673.17 259.75 C 673.99 259.75 674.66 259.08 674.66 258.26 L 674.66 247.92 C 674.66 247.11 673.99 246.44 673.17 246.44 Z M 664.44 256.78 L 664.44 249.41 L 671.69 249.41 L 671.69 256.78 Z M 686.73 254.65 C 690.75 254.65 694.02 251.36 694.02 247.31 C 694.02 243.27 690.75 239.98 686.73 239.98 C 682.7 239.98 679.43 243.27 679.43 247.31 C 679.43 251.36 682.7 254.65 686.73 254.65 Z M 686.73 242.94 C 689.12 242.94 691.06 244.9 691.06 247.31 C 691.06 249.72 689.12 251.68 686.73 251.68 C 684.34 251.68 682.39 249.72 682.39 247.31 C 682.39 244.9 684.34 242.94 686.73 242.94 Z M 673.15 240.9 C 673.42 240.43 673.41 239.86 673.14 239.41 L 666.67 228.64 C 666.14 227.75 664.67 227.75 664.13 228.64 L 657.67 239.41 C 657.39 239.87 657.39 240.43 657.65 240.9 C 657.91 241.37 658.41 241.65 658.94 241.65 L 671.87 241.65 C 672.4 241.65 672.89 241.37 673.15 240.9 Z M 661.56 238.69 L 665.4 232.28 L 669.25 238.69 Z M 709.6 238.29 C 709.28 236.59 707.33 234.79 703.35 232.52 L 705.88 213.71 L 705.88 213.7 L 705.88 213.7 L 705.95 213.13 C 705.96 213.06 705.97 213 705.97 212.94 C 705.97 206.79 690.5 202.5 676.61 202.5 C 662.73 202.5 647.26 206.79 647.26 212.94 C 647.26 213 647.26 213.06 647.27 213.13 L 647.35 213.7 L 647.35 213.7 L 647.35 213.71 L 653.59 260.05 C 653.78 265.47 667.77 267.5 676.61 267.5 C 681.5 267.5 686.4 266.99 690.41 266.06 C 692.03 265.69 693.48 265.25 694.73 264.76 C 697.92 263.49 699.58 261.91 699.64 260.05 L 702.21 240.98 C 703.61 241.28 704.88 241.46 705.94 241.46 C 707.37 241.46 708.44 241.16 709.02 240.47 C 709.54 239.85 709.74 239.08 709.6 238.29 Z M 676.61 205.46 C 691.97 205.46 702.8 210.22 703 212.86 L 702.96 213.17 C 702.93 213.26 702.88 213.35 702.83 213.45 C 702.79 213.52 702.76 213.6 702.71 213.67 C 702.64 213.77 702.54 213.86 702.46 213.96 C 702.38 214.04 702.32 214.11 702.24 214.19 C 702.13 214.29 702 214.39 701.87 214.48 C 701.76 214.56 701.67 214.64 701.55 214.72 C 701.41 214.82 701.24 214.92 701.08 215.01 C 700.94 215.09 700.82 215.18 700.66 215.26 C 700.49 215.35 700.29 215.45 700.1 215.54 C 699.92 215.62 699.77 215.71 699.58 215.79 C 699.37 215.88 699.14 215.97 698.92 216.06 C 698.72 216.14 698.52 216.23 698.31 216.31 C 698.07 216.4 697.8 216.49 697.55 216.57 C 697.31 216.65 697.09 216.73 696.85 216.81 C 696.58 216.9 696.29 216.98 696.01 217.06 C 695.74 217.14 695.49 217.22 695.21 217.29 C 694.92 217.37 694.6 217.44 694.3 217.52 C 694 217.59 693.72 217.67 693.41 217.74 C 693.09 217.81 692.75 217.88 692.41 217.95 C 692.09 218.01 691.78 218.08 691.44 218.15 C 691.09 218.22 690.71 218.28 690.33 218.34 C 690 218.4 689.67 218.46 689.32 218.51 C 688.93 218.57 688.51 218.63 688.11 218.68 C 687.75 218.73 687.41 218.78 687.05 218.83 C 686.63 218.88 686.18 218.92 685.74 218.97 C 685.37 219.01 685.02 219.05 684.64 219.08 C 684.16 219.13 683.65 219.16 683.16 219.2 C 682.8 219.22 682.45 219.25 682.09 219.28 C 681.53 219.31 680.94 219.33 680.36 219.35 C 680.04 219.37 679.73 219.39 679.41 219.4 C 678.5 219.42 677.56 219.44 676.61 219.44 C 675.66 219.44 674.72 219.42 673.81 219.4 C 673.5 219.39 673.2 219.37 672.89 219.35 C 672.3 219.33 671.7 219.31 671.13 219.28 C 670.78 219.26 670.46 219.22 670.12 219.2 C 669.6 219.16 669.08 219.13 668.58 219.08 C 668.23 219.05 667.89 219.01 667.54 218.97 C 667.08 218.92 666.61 218.88 666.17 218.83 C 665.83 218.79 665.51 218.74 665.18 218.69 C 664.75 218.63 664.31 218.58 663.9 218.51 C 663.57 218.46 663.27 218.4 662.95 218.35 C 662.56 218.28 662.15 218.22 661.78 218.15 C 661.46 218.09 661.16 218.02 660.86 217.96 C 660.51 217.88 660.15 217.81 659.81 217.74 C 659.52 217.67 659.25 217.6 658.97 217.53 C 658.65 217.45 658.31 217.37 658.01 217.29 C 657.74 217.22 657.5 217.14 657.25 217.07 C 656.96 216.98 656.65 216.9 656.37 216.81 C 656.14 216.74 655.92 216.66 655.7 216.58 C 655.44 216.49 655.16 216.4 654.92 216.31 C 654.71 216.23 654.52 216.15 654.33 216.07 C 654.1 215.98 653.85 215.88 653.64 215.79 C 653.46 215.71 653.31 215.63 653.14 215.54 C 652.94 215.45 652.74 215.35 652.56 215.26 C 652.41 215.18 652.29 215.1 652.15 215.02 C 651.99 214.92 651.81 214.82 651.67 214.72 C 651.55 214.64 651.46 214.56 651.36 214.48 C 651.23 214.39 651.09 214.29 650.99 214.19 C 650.9 214.11 650.84 214.04 650.77 213.96 C 650.68 213.86 650.59 213.77 650.52 213.67 C 650.46 213.6 650.44 213.52 650.4 213.45 C 650.35 213.35 650.29 213.26 650.26 213.17 L 650.22 212.86 C 650.43 210.22 661.25 205.46 676.61 205.46 Z M 696.69 259.73 C 696.68 259.8 696.68 259.87 696.68 259.93 C 696.68 260.16 696.12 261.02 693.64 262 C 692.53 262.44 691.22 262.84 689.75 263.17 C 685.95 264.05 681.28 264.54 676.61 264.54 C 664.13 264.54 656.55 261.34 656.55 259.93 C 656.55 259.87 656.54 259.8 656.53 259.73 L 650.87 217.69 C 651.23 217.9 651.63 218.1 652.04 218.3 C 652.14 218.35 652.25 218.4 652.36 218.45 C 652.73 218.62 653.11 218.78 653.51 218.94 C 653.67 219 653.83 219.06 653.99 219.13 C 654.41 219.28 654.84 219.43 655.28 219.58 C 655.4 219.62 655.51 219.66 655.63 219.7 C 656.2 219.87 656.78 220.04 657.39 220.2 C 657.54 220.24 657.7 220.28 657.86 220.32 C 658.33 220.44 658.82 220.56 659.31 220.67 C 659.51 220.71 659.71 220.76 659.91 220.8 C 660.46 220.91 661.02 221.02 661.59 221.13 C 661.7 221.15 661.81 221.17 661.92 221.19 C 662.6 221.31 663.3 221.42 664 221.52 C 664.19 221.55 664.39 221.57 664.58 221.6 C 665.12 221.68 665.67 221.75 666.22 221.81 C 666.44 221.83 666.65 221.86 666.87 221.88 C 667.53 221.95 668.19 222.02 668.86 222.07 C 668.94 222.08 669.02 222.09 669.1 222.1 C 669.84 222.16 670.59 222.21 671.34 222.25 C 671.55 222.26 671.76 222.27 671.97 222.28 C 672.54 222.31 673.11 222.33 673.68 222.35 C 673.9 222.36 674.12 222.36 674.35 222.37 C 675.1 222.39 675.86 222.4 676.61 222.4 C 677.36 222.4 678.12 222.39 678.87 222.37 C 679.1 222.36 679.32 222.36 679.54 222.35 C 680.11 222.33 680.68 222.31 681.25 222.28 C 681.46 222.27 681.67 222.26 681.88 222.25 C 682.63 222.21 683.38 222.16 684.13 222.1 C 684.2 222.09 684.28 222.08 684.35 222.08 C 685.02 222.02 685.69 221.95 686.35 221.88 C 686.57 221.86 686.79 221.83 687 221.81 C 687.56 221.75 688.11 221.68 688.65 221.6 C 688.84 221.57 689.03 221.55 689.22 221.52 C 689.92 221.42 690.62 221.31 691.31 221.19 C 691.41 221.17 691.51 221.15 691.62 221.13 C 692.2 221.03 692.77 220.91 693.32 220.8 C 693.52 220.76 693.71 220.71 693.9 220.67 C 694.41 220.56 694.9 220.44 695.38 220.32 C 695.53 220.28 695.68 220.24 695.83 220.2 C 696.44 220.04 697.03 219.87 697.59 219.7 C 697.71 219.66 697.82 219.62 697.93 219.58 C 698.38 219.43 698.82 219.28 699.24 219.12 C 699.4 219.06 699.56 219 699.71 218.94 C 700.12 218.78 700.5 218.61 700.87 218.44 C 700.98 218.39 701.09 218.35 701.19 218.3 C 701.6 218.1 701.99 217.9 702.35 217.69 L 699.71 237.3 C 694.35 235.57 686.82 232.45 679.69 229.06 C 679.61 227.43 678.27 226.12 676.61 226.12 C 674.91 226.12 673.52 227.51 673.52 229.22 C 673.52 230.93 674.91 232.32 676.61 232.32 C 677.28 232.32 677.9 232.1 678.41 231.74 C 684.79 234.8 692.95 238.42 699.31 240.25 Z M 676.48 229.22 C 676.48 229.15 676.54 229.09 676.61 229.09 C 676.63 229.09 676.65 229.1 676.67 229.11 L 676.56 229.32 C 676.52 229.3 676.48 229.28 676.48 229.22 Z M 702.59 238.14 L 702.92 235.7 C 705.53 237.29 706.34 238.21 706.58 238.6 C 705.89 238.81 704.48 238.62 702.59 238.14 Z" fill="#7aa116" stroke="none" pointer-events="all" style="fill: light-dark(rgb(122, 161, 22), rgb(97, 130, 11));"/></g><g><rect x="726" y="200" width="490" height="55" fill="none" stroke="none" pointer-events="all"/></g><g><g transform="translate(-0.5 -0.5)"><switch><foreignObject style="overflow: visible; text-align: left;" pointer-events="none" width="100%" height="100%" requiredFeatures="http://www.w3.org/TR/SVG11/feature#Extensibility"><div xmlns="http://www.w3.org/1999/xhtml" style="display: flex; align-items: unsafe center; justify-content: unsafe flex-start; width: 488px; height: 1px; padding-top: 228px; margin-left: 728px;"><div style="box-sizing: border-box; font-size: 0; text-align: left; color: #558B2F; "><div style="display: inline-block; font-size: 11px; font-family: &quot;Helvetica&quot;; color: light-dark(#558B2F, #679546); line-height: 1.2; pointer-events: all; white-space: normal; word-wrap: normal; "><font style="font-size: 14px;"><b style="">aws_s3_bucket</b><br />&lt;project&gt;-datalake-&lt;account_id&gt;</font></div></div></div></foreignObject><text x="728" y="231" fill="#558B2F" font-family="&quot;Helvetica&quot;" font-size="11px">aws_s3_bucket...</text></switch></g></g><g><rect x="651" y="285" width="590" height="35" fill="#ffcdd2" stroke="#c62828" pointer-events="all" style="fill: light-dark(rgb(255, 205, 210), rgb(85, 42, 46)); stroke: light-dark(rgb(198, 40, 40), rgb(255, 145, 145));"/></g><g><g transform="translate(-0.5 -0.5)"><switch><foreignObject style="overflow: visible; text-align: left;" pointer-events="none" width="100%" height="100%" requiredFeatures="http://www.w3.org/TR/SVG11/feature#Extensibility"><div xmlns="http://www.w3.org/1999/xhtml" style="display: flex; align-items: unsafe center; justify-content: unsafe center; width: 588px; height: 1px; padding-top: 303px; margin-left: 652px;"><div style="box-sizing: border-box; font-size: 0; text-align: center; color: #B71C1C; "><div style="display: inline-block; font-size: 11px; font-family: &quot;Helvetica&quot;; color: light-dark(#B71C1C, #ff9c9c); line-height: 1.2; pointer-events: all; white-space: normal; word-wrap: normal; "><font style="font-size: 14px;">🔒 SSE-KMS · <b style="">bucket_key_enabled = true</b>  →  hasta -99% llamadas a KMS</font></div></div></div></foreignObject><text x="946" y="306" fill="#B71C1C" font-family="&quot;Helvetica&quot;" font-size="11px" text-anchor="middle">🔒 SSE-KMS · bucket_key_enabled = true  →  hasta -99% llamadas a KMS</text></switch></g></g><g><rect x="651" y="330" width="590" height="35" fill="#ffebee" stroke="#c62828" pointer-events="all" style="fill: light-dark(rgb(255, 235, 238), rgb(44, 27, 30)); stroke: light-dark(rgb(198, 40, 40), rgb(255, 145, 145));"/></g><g><g transform="translate(-0.5 -0.5)"><switch><foreignObject style="overflow: visible; text-align: left;" pointer-events="none" width="100%" height="100%" requiredFeatures="http://www.w3.org/TR/SVG11/feature#Extensibility"><div xmlns="http://www.w3.org/1999/xhtml" style="display: flex; align-items: unsafe center; justify-content: unsafe center; width: 588px; height: 1px; padding-top: 348px; margin-left: 652px;"><div style="box-sizing: border-box; font-size: 0; text-align: center; color: #B71C1C; "><div style="display: inline-block; font-size: 11px; font-family: &quot;Helvetica&quot;; color: light-dark(#B71C1C, #ff9c9c); line-height: 1.2; pointer-events: all; white-space: normal; word-wrap: normal; "><font style="font-size: 14px;">🚫 public_access_block · 4 controles (acl + policy + ignore + restrict)</font></div></div></div></foreignObject><text x="946" y="351" fill="#B71C1C" font-family="&quot;Helvetica&quot;" font-size="11px" text-anchor="middle">🚫 public_access_block · 4 controles (acl + policy + ignore + restrict)</text></switch></g></g><g><rect x="651" y="375" width="590" height="35" fill="#e3f2fd" stroke="#1565c0" pointer-events="all" style="fill: light-dark(rgb(227, 242, 253), rgb(20, 33, 42)); stroke: light-dark(rgb(21, 101, 192), rgb(99, 168, 246));"/></g><g><g transform="translate(-0.5 -0.5)"><switch><foreignObject style="overflow: visible; text-align: left;" pointer-events="none" width="100%" height="100%" requiredFeatures="http://www.w3.org/TR/SVG11/feature#Extensibility"><div xmlns="http://www.w3.org/1999/xhtml" style="display: flex; align-items: unsafe center; justify-content: unsafe center; width: 588px; height: 1px; padding-top: 393px; margin-left: 652px;"><div style="box-sizing: border-box; font-size: 0; text-align: center; color: #0D47A1; "><div style="display: inline-block; font-size: 11px; font-family: &quot;Helvetica&quot;; color: light-dark(#0D47A1, #88baff); line-height: 1.2; pointer-events: all; white-space: normal; word-wrap: normal; "><font style="font-size: 14px;">🕒 versioning Enabled  ·  protege contra ransomware y borrados accidentales</font></div></div></div></foreignObject><text x="946" y="396" fill="#0D47A1" font-family="&quot;Helvetica&quot;" font-size="11px" text-anchor="middle">🕒 versioning Enabled  ·  protege contra ransomware y borrados accidentales</text></switch></g></g><g><rect x="651" y="420" width="590" height="50" fill="#e8f5e9" stroke="#2e7d32" pointer-events="all" style="fill: light-dark(rgb(232, 245, 233), rgb(21, 33, 22)); stroke: light-dark(rgb(46, 125, 50), rgb(100, 168, 104));"/></g><g><g transform="translate(-0.5 -0.5)"><switch><foreignObject style="overflow: visible; text-align: left;" pointer-events="none" width="100%" height="100%" requiredFeatures="http://www.w3.org/TR/SVG11/feature#Extensibility"><div xmlns="http://www.w3.org/1999/xhtml" style="display: flex; align-items: unsafe center; justify-content: unsafe center; width: 588px; height: 1px; padding-top: 445px; margin-left: 652px;"><div style="box-sizing: border-box; font-size: 0; text-align: center; color: #1B5E20; "><div style="display: inline-block; font-size: 11px; font-family: &quot;Helvetica&quot;; color: light-dark(#1B5E20, #82bc86); line-height: 1.2; pointer-events: all; white-space: normal; word-wrap: normal; "><font style="font-size: 14px;">📦 lifecycle rule · transition → GLACIER tras N días · expiration tras M días<br />aplica a versiones actuales y noncurrent</font></div></div></div></foreignObject><text x="946" y="448" fill="#1B5E20" font-family="&quot;Helvetica&quot;" font-size="11px" text-anchor="middle">📦 lifecycle rule · transition → GLACIER tras N días · expiration tras M días...</text></switch></g></g><g><rect x="651" y="480" width="590" height="55" fill="#fff3e0" stroke="#ef6c00" pointer-events="all" style="fill: light-dark(rgb(255, 243, 224), rgb(36, 26, 9)); stroke: light-dark(rgb(239, 108, 0), rgb(222, 110, 17));"/></g><g><g transform="translate(-0.5 -0.5)"><switch><foreignObject style="overflow: visible; text-align: left;" pointer-events="none" width="100%" height="100%" requiredFeatures="http://www.w3.org/TR/SVG11/feature#Extensibility"><div xmlns="http://www.w3.org/1999/xhtml" style="display: flex; align-items: unsafe center; justify-content: unsafe center; width: 588px; height: 1px; padding-top: 508px; margin-left: 652px;"><div style="box-sizing: border-box; font-size: 0; text-align: center; color: #E65100; "><div style="display: inline-block; font-size: 11px; font-family: &quot;Helvetica&quot;; color: light-dark(#E65100, #fb7b35); line-height: 1.2; pointer-events: all; white-space: normal; word-wrap: normal; "><font style="font-size: 14px;">📜 bucket_policy · <b style="">Deny</b> cuando aws:sourceVpce ≠ endpoint <b style="">Y</b> aws:PrincipalAccount ≠ cuenta<br />permite a la propia cuenta (admin/CI), bloquea acceso externo sin endpoint</font></div></div></div></foreignObject><text x="946" y="511" fill="#E65100" font-family="&quot;Helvetica&quot;" font-size="11px" text-anchor="middle">📜 bucket_policy · Deny cuando aws:sourceVpce ≠ endpoint Y aws:PrincipalAccount ≠ cuenta...</text></switch></g></g><g><path d="M 268 265 L 268 341.76" fill="none" stroke="#5c2ea0" stroke-width="2" stroke-miterlimit="10" pointer-events="stroke" style="stroke: light-dark(rgb(92, 46, 160), rgb(207, 167, 255));"/><path d="M 268 347.76 L 264 339.76 L 268 341.76 L 272 339.76 Z" fill="#5c2ea0" stroke="#5c2ea0" stroke-width="2" stroke-miterlimit="10" pointer-events="all" style="fill: light-dark(rgb(92, 46, 160), rgb(207, 167, 255)); stroke: light-dark(rgb(92, 46, 160), rgb(207, 167, 255));"/></g><g><path d="M 303.62 371.89 L 643.38 233.11" fill="none" stroke="#147eba" stroke-width="2" stroke-miterlimit="10" pointer-events="stroke" style="stroke: light-dark(rgb(20, 126, 186), rgb(69, 160, 212));"/><path d="M 298.07 374.15 L 303.96 367.43 L 303.62 371.89 L 306.99 374.83 Z" fill="#147eba" stroke="#147eba" stroke-width="2" stroke-miterlimit="10" pointer-events="all" style="fill: light-dark(rgb(20, 126, 186), rgb(69, 160, 212)); stroke: light-dark(rgb(20, 126, 186), rgb(69, 160, 212));"/><path d="M 648.93 230.85 L 643.04 237.57 L 643.38 233.11 L 640.01 230.17 Z" fill="#147eba" stroke="#147eba" stroke-width="2" stroke-miterlimit="10" pointer-events="all" style="fill: light-dark(rgb(20, 126, 186), rgb(69, 160, 212)); stroke: light-dark(rgb(20, 126, 186), rgb(69, 160, 212));"/></g><g><g transform="translate(-0.5 -0.5)"><switch><foreignObject style="overflow: visible; text-align: left;" pointer-events="none" width="100%" height="100%" requiredFeatures="http://www.w3.org/TR/SVG11/feature#Extensibility"><div xmlns="http://www.w3.org/1999/xhtml" style="display: flex; align-items: unsafe center; justify-content: unsafe center; width: 1px; height: 1px; padding-top: 302px; margin-left: 474px;"><div style="box-sizing: border-box; font-size: 0; text-align: center; color: #147EBA; background-color: #ffffff; "><div style="display: inline-block; font-size: 10px; font-family: &quot;Helvetica&quot;; color: light-dark(#147EBA, #45a0d4); line-height: 1.2; pointer-events: all; background-color: light-dark(#ffffff, var(--ge-dark-color, #121212)); white-space: nowrap; "><font style="font-size: 12px;">ruta privada</font></div></div></div></foreignObject><text x="474" y="305" fill="#147EBA" font-family="&quot;Helvetica&quot;" font-size="10px" text-anchor="middle">ruta privada</text></switch></g></g><g><path d="M 678.5 153.71 L 678.5 194.26" fill="none" stroke="#dd344c" stroke-width="2" stroke-miterlimit="10" stroke-dasharray="6 6" pointer-events="stroke" style="stroke: light-dark(rgb(221, 52, 76), rgb(255, 127, 147));"/><path d="M 678.5 200.26 L 674.5 192.26 L 678.5 194.26 L 682.5 192.26 Z" fill="#dd344c" stroke="#dd344c" stroke-width="2" stroke-miterlimit="10" pointer-events="all" style="fill: light-dark(rgb(221, 52, 76), rgb(255, 127, 147)); stroke: light-dark(rgb(221, 52, 76), rgb(255, 127, 147));"/></g><g><g transform="translate(-0.5 -0.5)"><switch><foreignObject style="overflow: visible; text-align: left;" pointer-events="none" width="100%" height="100%" requiredFeatures="http://www.w3.org/TR/SVG11/feature#Extensibility"><div xmlns="http://www.w3.org/1999/xhtml" style="display: flex; align-items: unsafe center; justify-content: unsafe center; width: 1px; height: 1px; padding-top: 178px; margin-left: 679px;"><div style="box-sizing: border-box; font-size: 0; text-align: center; color: #A1162F; background-color: #ffffff; "><div style="display: inline-block; font-size: 10px; font-family: &quot;Helvetica&quot;; color: light-dark(#A1162F, #ffa4b9); line-height: 1.2; pointer-events: all; background-color: light-dark(#ffffff, var(--ge-dark-color, #121212)); white-space: nowrap; "><font style="font-size: 12px;">cifra/descifra</font></div></div></div></foreignObject><text x="679" y="181" fill="#A1162F" font-family="&quot;Helvetica&quot;" font-size="10px" text-anchor="middle">cifra/descifra</text></switch></g></g><g><rect x="1" y="580" width="1220" height="100" fill="none" stroke="none" pointer-events="all"/></g><g><g transform="translate(-0.5 -0.5)"><switch><foreignObject style="overflow: visible; text-align: left;" pointer-events="none" width="100%" height="100%" requiredFeatures="http://www.w3.org/TR/SVG11/feature#Extensibility"><div xmlns="http://www.w3.org/1999/xhtml" style="display: flex; align-items: unsafe center; justify-content: unsafe center; width: 1218px; height: 1px; padding-top: 630px; margin-left: 2px;"><div style="box-sizing: border-box; font-size: 0; text-align: center; color: #555555; "><div style="display: inline-block; font-size: 11px; font-family: &quot;Helvetica&quot;; color: light-dark(#555555, #a4a4a4); line-height: 1.2; pointer-events: all; font-style: italic; white-space: normal; word-wrap: normal; "><font style="font-size: 14px;">El módulo <b style="">secure-bucket</b> encapsula 6 capas de defensa: cifrado SSE-KMS con Bucket Key (coste KMS mínimo), bloqueo público total, versionado anti-ransomware, lifecycle a Glacier para ahorro y una bucket policy que sólo permite acceso desde el VPC Endpoint (o desde la propia cuenta). Cualquier acceso desde Internet o de otra cuenta sin el endpoint recibe AccessDenied.</font></div></div></div></foreignObject><text x="611" y="633" fill="#555555" font-family="&quot;Helvetica&quot;" font-size="11px" text-anchor="middle" font-style="italic">El módulo secure-bucket encapsula 6 capas de defensa: cifrado SSE-KMS con Bucket Key (coste KMS mínimo), bloqueo público total, versionado anti-ransomware, lifecycle a Glacier para ahorro y una bucket policy que sólo permi...</text></switch></g></g></g><switch><g requiredFeatures="http://www.w3.org/TR/SVG11/feature#Extensibility"/><a transform="translate(0,-5)" xlink:href="https://www.drawio.com/doc/faq/svg-export-text-problems" target="_blank"><text text-anchor="middle" font-size="10px" x="50%" y="100%">Text is not SVG - cannot display</text></a></switch></svg>