<svg xmlns="http://www.w3.org/2000/svg" style="background: transparent; background-color: transparent;" xmlns:xlink="http://www.w3.org/1999/xlink" version="1.1" width="1338px" height="630px" viewBox="-0.5 -0.5 1338 630" content="&lt;mxfile&gt;&lt;diagram name=&quot;Arquitectura Lab-42&quot; id=&quot;lab42-arch&quot;&gt;7VvZcts6Ev0aVSWpsoqLKNmPWjOuODcuxzNzZ15cEAlJLJMELwjKdr7+dgPgDtmyFk8extnIJtEAgXN6A9Jzp/HzV07SzXcW0KjnWMFzz531HGdwNYC/UfCiBJ6jBWseBkpkV4Kf4S+qhZaW5mFAs8aLgrFIhGlT6LMkob5oyAjn7Kn52opFzV5TsqYdwU+fRF3pv8NAbLTUtazqwT9ouN7orkfFg5gUL2tBtiEBe6qJ3HnPnXLGhLqKn6c0wrkr5kW1W+x4Wg6M00Ts00CEAj5KNtqSKNff13OGETSfrBhogUGKF/3lw79yVjy4yOS6jOEF+zKFpZ1Uz+Fqjf/ekOXFAJX35k7v0urhwlt3dB1mgjMcKA+3MAEIBYrT05u6vYkb5BHL4Paeck5WjMdwTRP4awpAGnMRrggsqh4jfJsapupRT2s5YkfQZ5RvRByBwIZLEoXrBK59mCPKQbCloBNWd6wfxGEQYPPJ0yYU9GdKfNT1BFDWn64RaXvFve7O1vdTFjEuu3fh1wKnftJdGb1Y2Dt9ron0Sn2lLKaCv8Ar+unQUy00a1yNoacaBEtgbWrwc3U7omG/LjVXyIALDQ4zUNJ8GYXZBuarA5YFrOuid2X3xri6t9WLaoGWvFobJclSkrwJK9sCTHUAJYfhEzVtWcgSMAMVEJTiHUDgLE8CGuhlMi1tDSOrMIpqq7harRzfx6EDbh9p7UkwXA69YfmkMAdOCym2ASn74/AE2PGsBnZsE3hGBuwMreOxA2Y4y+O3oTMt3zsDcjJYM2gagT/IOQKoN3V6kxG6jpqZCZNQ/B9QBwBq4H0goAIWkzCZsOfjPddgh+ciT9mDD+6GaHfzoPpE3NSgI39rsBq76yoGPQAyVgPZskKY9Qm4ImhCA4CDdoqcpugNp/I+yFMqvaHgrWdLAFiYrD/v6xePQe/cXTiLmQm9tjf0ptab6HUOQa9gqTIBPnznPd7MLivBDV2JuuraoKzZYDS2TwN712kZUquL+5FrcsKXJwP+LQMf+HI+7B8AaRjVQ0p5HGbolLOHVA0R+zHhvG3fx0EsufVJRr4yLkz8MCXR5yJ2HPauVERfURK0f+mqKuOPTJJzUvMrWUvZVyrGudgwHv4iAoZ9D4hNFJtmNPN5uKQzzXqU3UDUeoeECwU0odl1Ujxtj0FmO0Jps7CL/yJnsfstRrhjOwpl0ItuKAm3KjlCPpfGAUFKpJJAhsIqINZ0PzbwjSRVDg97DWHuKSk2aMcqBtfiXRkodgqG4RR/rGPhBaRe6p4F4xEi2AEOZg3ug4f+LgfzWo4Vp+SvnAqiMOezGPsXhPfXvz7ErywWi9l8ZPIri8nUciqPU/crAQG2F/3tGyLtoMDBLsabDSx3dCIX08K/Y8D/8NKA/zL5OyrRe1xn50N/QmKaSTjAWFFBPfpum1F475GssdCDOrepfxEzwC2t84T6jkHa7/e76moZI8T5cS7IMiqU232rbykzj5d2cWmj1KwuT8o0VFEKjb3OTwNp2aUdz6mO4pRHCXlGe816SJanaYTr729UhEkzObT3M846hHHw8w7GmUi2f95xTtaMWqy5MrDGPqPX+N2issqvvCsyIzEiJllmaa3PDgSVOAi3bdHRn9mM32rRmn5wq4zCvxSZyxjvjpLgSzc72xX66WqAbvVqDPnHD7RSIXjVRAaGERW0OYi2cm1cQojySCC5D/btlzIKn3TPMuYjOuwtjMSSgS3ku11tKW5M/O9kDqzf1Ry4l17XHAxN9YkTFEsfY5MLba1T9kiFv9HLxHIB2TtMeLFhYXWnpywlrzkJAI/lswScWnctZzN3MJh21lK/XEZNVm2BbsiSRrdoNZBa7mzJhGDxzjips9B1YL0SiEmQZKn60FX4jOOYpCxELfMtKMu0kmxDUmwQP69xH6kPsfOg/0hfHmKSAP1iePUho3wb+icqatnlFtMrddKR10XN6DSouVlGv48DmX7/tiOJgIWHD3UWMi5aNHLyji2dhiuZyd7/mP34WWayJMuowAtpVKWrYt22d0xA4F1FVyTJSfQ/8EnTiGzRPl//8f2f9+PJzbxK0FXu3qzp1SLYytk2Shd9EpNfLAE89yHLarmP2jopLV8xoyOCzogg3+iLeVGmppYz6vOXVNQeNRtN5LiSQBEeJhh3Rsc/Wc59OvZ98CS799n2ckYH7L4p2/JWDcJgH8e2PUSuncQQ2Pao39xuK01DzRQ4Jg9yioCSJoE0iGctRRTbL4PeFYZLc90nAlrCuowgAdpSUxkeRlXZr5RJlRfNV0iJodo7/aDf4EKzCadricVGixZdjPU2P0KfiDTNM1JDPPa1p8VD+LdqjI61puKC1MuEF7qyVxJA9VCVWO7vb3Danc1niR6czswnfE3qhs+XhPNzDmNfqI6nN9cfUr2/XHjzK1OQ58xHM9fpBHkHV1neHQHaE2+OhYFzVOo9A39HgzPtUBHOIYko6sPHEth5PVdqp0T7QQhMzBjPwuA6RQDL0G+ipplHvAcrb9jpcpHpcyj+1L3h9X+wr76n72bPumt581LcJLASf9ZvVCvHK+6rdvKuaLgTUTRoHfYRQFUqqsS+tMGZ9IvqQeM8xE4MXlh9+9IZNnB44ep+OI3AnmybnZtAp9XfauOsdZfnP9r+qVChhqtbVdDtKGrXG+2rVjCrJuQVRcWLbLUC69bhSTkv+1IHs/ZzcwdT/wVn8V2t/P4hxNlzi9RAnHKTpSSB3STBWxwoCGe9g3CH8aZ55KNOnBqjdtLG6rvD0aDJGnt4Gta06gKDwaGsaRcYvJaiD2eNYsw3Y+3hRKTxVTK3wIBG53VFQHMEdzKYKnEMpcrI/x1xy2sJROmY+pY1aHDFHg1fd09wc0t5CCuHgc8RDCprSHXyNA6+vOZ1rNGw5XWck9DHtlpRlWMdyB+7PDmxS9PHEiiiawDnGZOtd1ZfbongReVjV7G+VX2wyJrnKWlmbrVcAxkrzx3kSYg7bpgWfZJVnmo/7LNSrLewUE9PV79x3DkCmbM0xIcpi+RphhmG9pDFWTdE5jormsgETJZ24O0VcFdXwiF7W4ZJPTvbdzoaneE3XY+/75iUT7JjOTWNcyS+3i44smO9nQeZW7bzFJccQXli7EXPZHmYRW/8ySHmWU64XL2E+hQWTU6t3LBhxSSSeCm79klKMpzp68YOgwReY88iKVet2rP4osaWKVC9tQnRq52w7e9r3c951rqdZ5o24eXPabLHQdM4DQ3HvMyHrU+RPToGM/Ta7oEs28j+vAn8xo1s9cebYWEQJJgfdYUm2agrtLuvwT+2qYe20CQbdYV29zW8K0bdFJpkI6874nZr29DabrX2cIvrXZsxreLK9Mrx1N5FO0hZyZ/ex269tA9aGrdejNssnCpPfo1mE8tymbpqvtU8jzfZwTIDF3eXbYatbNRw+mV02eVdIXsH7+C2+p82KmSo/ruSO/8b&lt;/diagram&gt;&lt;/mxfile&gt;"><defs/><g><g><rect x="25" y="0" width="1220" height="35" fill="none" stroke="none" pointer-events="all"/></g><g><g transform="translate(-0.5 -0.5)"><switch><foreignObject style="overflow: visible; text-align: left;" pointer-events="none" width="100%" height="100%" requiredFeatures="http://www.w3.org/TR/SVG11/feature#Extensibility"><div xmlns="http://www.w3.org/1999/xhtml" style="display: flex; align-items: unsafe center; justify-content: unsafe center; width: 1218px; height: 1px; padding-top: 18px; margin-left: 26px;"><div style="box-sizing: border-box; font-size: 0; text-align: center; color: #232F3E; "><div style="display: inline-block; font-size: 15px; font-family: &quot;Helvetica&quot;; color: light-dark(#232F3E, #bdc7d4); line-height: 1.2; pointer-events: all; font-weight: bold; white-space: normal; word-wrap: normal; "><font style="font-size: 18px;">Lab-42 — Registro privado de módulos Terraform en CodeArtifact</font></div></div></div></foreignObject><text x="635" y="22" fill="#232F3E" font-family="&quot;Helvetica&quot;" font-size="15px" text-anchor="middle" font-weight="bold">Lab-42 — Registro privado de módulos Terraform en CodeArtifact</text></switch></g></g><g><rect x="10" y="100" width="170" height="60" rx="9" ry="9" fill="#fff2cc" stroke="#d6b656" stroke-width="2" pointer-events="all" style="fill: light-dark(rgb(255, 242, 204), rgb(40, 29, 0)); stroke: light-dark(rgb(214, 182, 86), rgb(109, 81, 0));"/></g><g><g transform="translate(-0.5 -0.5)"><switch><foreignObject style="overflow: visible; text-align: left;" pointer-events="none" width="100%" height="100%" requiredFeatures="http://www.w3.org/TR/SVG11/feature#Extensibility"><div xmlns="http://www.w3.org/1999/xhtml" style="display: flex; align-items: unsafe center; justify-content: unsafe center; width: 168px; height: 1px; padding-top: 130px; margin-left: 11px;"><div style="box-sizing: border-box; font-size: 0; text-align: center; color: #000000; "><div style="display: inline-block; font-size: 11px; font-family: &quot;Helvetica&quot;; color: light-dark(#000000, #ffffff); line-height: 1.2; pointer-events: all; font-weight: bold; white-space: normal; word-wrap: normal; ">👤 Publisher<br /><span style="font-size:10px">publica versiones</span></div></div></div></foreignObject><text x="95" y="133" fill="light-dark(#000000, #ffffff)" font-family="&quot;Helvetica&quot;" font-size="11px" text-anchor="middle" font-weight="bold">👤 Publisher...</text></switch></g></g><g><rect x="10" y="420" width="170" height="60" rx="9" ry="9" fill="#fff2cc" stroke="#d6b656" stroke-width="2" pointer-events="all" style="fill: light-dark(rgb(255, 242, 204), rgb(40, 29, 0)); stroke: light-dark(rgb(214, 182, 86), rgb(109, 81, 0));"/></g><g><g transform="translate(-0.5 -0.5)"><switch><foreignObject style="overflow: visible; text-align: left;" pointer-events="none" width="100%" height="100%" requiredFeatures="http://www.w3.org/TR/SVG11/feature#Extensibility"><div xmlns="http://www.w3.org/1999/xhtml" style="display: flex; align-items: unsafe center; justify-content: unsafe center; width: 168px; height: 1px; padding-top: 450px; margin-left: 11px;"><div style="box-sizing: border-box; font-size: 0; text-align: center; color: #000000; "><div style="display: inline-block; font-size: 11px; font-family: &quot;Helvetica&quot;; color: light-dark(#000000, #ffffff); line-height: 1.2; pointer-events: all; font-weight: bold; white-space: normal; word-wrap: normal; ">👤 Consumer<br /><span style="font-size:10px">solo lectura · terraform init</span></div></div></div></foreignObject><text x="95" y="453" fill="light-dark(#000000, #ffffff)" font-family="&quot;Helvetica&quot;" font-size="11px" text-anchor="middle" font-weight="bold">👤 Consumer...</text></switch></g></g><g><rect x="280" y="70" width="730" height="380" rx="57" ry="57" fill="#e3f2fd" stroke="#1565c0" stroke-width="2" pointer-events="all" style="fill: light-dark(rgb(227, 242, 253), rgb(20, 33, 42)); stroke: light-dark(rgb(21, 101, 192), rgb(99, 168, 246));"/></g><g><g transform="translate(-0.5 -0.5)"><switch><foreignObject style="overflow: visible; text-align: left;" pointer-events="none" width="100%" height="100%" requiredFeatures="http://www.w3.org/TR/SVG11/feature#Extensibility"><div xmlns="http://www.w3.org/1999/xhtml" style="display: flex; align-items: unsafe flex-start; justify-content: unsafe center; width: 716px; height: 1px; padding-top: 85px; margin-left: 293px;"><div style="box-sizing: border-box; font-size: 0; text-align: center; color: #0D47A1; "><div style="display: inline-block; font-size: 12px; font-family: &quot;Helvetica&quot;; color: light-dark(#0D47A1, #88baff); line-height: 1.2; pointer-events: all; font-weight: bold; white-space: normal; word-wrap: normal; "><font style="font-size: 14px;">aws_codeartifact_domain  ·  <b style="">dominio</b> (contenedor de repos, dedupe entre repos, billing)</font></div></div></div></foreignObject><text x="651" y="97" fill="#0D47A1" font-family="&quot;Helvetica&quot;" font-size="12px" text-anchor="middle" font-weight="bold">aws_codeartifact_domain  ·  dominio (contenedor de repos, dedupe entre repos, billing)</text></switch></g></g><g><rect x="410" y="120" width="590" height="80" fill="none" stroke="none" pointer-events="all"/></g><g><g transform="translate(-0.5 -0.5)"><switch><foreignObject style="overflow: visible; text-align: left;" pointer-events="none" width="100%" height="100%" requiredFeatures="http://www.w3.org/TR/SVG11/feature#Extensibility"><div xmlns="http://www.w3.org/1999/xhtml" style="display: flex; align-items: unsafe center; justify-content: unsafe flex-start; width: 588px; height: 1px; padding-top: 160px; margin-left: 412px;"><div style="box-sizing: border-box; font-size: 0; text-align: left; color: #0D47A1; "><div style="display: inline-block; font-size: 11px; font-family: &quot;Helvetica&quot;; color: light-dark(#0D47A1, #88baff); line-height: 1.2; pointer-events: all; white-space: normal; word-wrap: normal; "><font style="font-size: 14px;"><b style="">domain_permissions_policy:</b><br />Admin (root principal) → codeartifact:*<br />Publishers + Consumers → GetAuthorizationToken, DescribeDomain, ListRepositoriesInDomain<br />el token AuthZ es válido a nivel de dominio para todos los repos</font></div></div></div></foreignObject><text x="412" y="163" fill="#0D47A1" font-family="&quot;Helvetica&quot;" font-size="11px">domain_permissions_policy:...</text></switch></g></g><g><rect x="310" y="220" width="680" height="220" rx="33" ry="33" fill="#fffde7" stroke="#fbc02d" stroke-width="2" stroke-dasharray="6 6" pointer-events="all" style="fill: light-dark(rgb(255, 253, 231), rgb(24, 22, 4)); stroke: light-dark(rgb(251, 192, 45), rgb(120, 69, 0));"/></g><g><g transform="translate(-0.5 -0.5)"><switch><foreignObject style="overflow: visible; text-align: left;" pointer-events="none" width="100%" height="100%" requiredFeatures="http://www.w3.org/TR/SVG11/feature#Extensibility"><div xmlns="http://www.w3.org/1999/xhtml" style="display: flex; align-items: unsafe flex-start; justify-content: unsafe flex-start; width: 666px; height: 1px; padding-top: 235px; margin-left: 324px;"><div style="box-sizing: border-box; font-size: 0; text-align: left; color: #5D4037; "><div style="display: inline-block; font-size: 11px; font-family: &quot;Helvetica&quot;; color: light-dark(#5D4037, #c6ada5); line-height: 1.2; pointer-events: all; font-weight: bold; white-space: normal; word-wrap: normal; "><font style="font-size: 14px;">aws_codeartifact_repository · formato <b style="">generic</b> (módulos Terraform empaquetados como tar.gz)</font></div></div></div></foreignObject><text x="324" y="246" fill="#5D4037" font-family="&quot;Helvetica&quot;" font-size="11px" font-weight="bold">aws_codeartifact_repository · formato generic (módulos Terraform empaquetados como tar.gz)</text></switch></g></g><g><rect x="330" y="260" width="610" height="80" fill="#ffffff" stroke="#fbc02d" pointer-events="all" style="fill: light-dark(rgb(255, 255, 255), rgb(18, 18, 18)); stroke: light-dark(rgb(251, 192, 45), rgb(120, 69, 0));"/></g><g><g transform="translate(-0.5 -0.5)"><switch><foreignObject style="overflow: visible; text-align: left;" pointer-events="none" width="100%" height="100%" requiredFeatures="http://www.w3.org/TR/SVG11/feature#Extensibility"><div xmlns="http://www.w3.org/1999/xhtml" style="display: flex; align-items: unsafe center; justify-content: unsafe center; width: 608px; height: 1px; padding-top: 300px; margin-left: 331px;"><div style="box-sizing: border-box; font-size: 0; text-align: center; color: #5D4037; "><div style="display: inline-block; font-size: 11px; font-family: &quot;Helvetica&quot;; color: light-dark(#5D4037, #c6ada5); line-height: 1.2; pointer-events: all; white-space: normal; word-wrap: normal; "><font style="font-size: 14px;">namespace = terraform<br />packages: vpc-module · ec2-module · ...<br />versiones inmutables: 1.0.0, 1.0.1, 1.1.0 ...<br />una versión publicada no puede reescribirse — supply chain estable</font></div></div></div></foreignObject><text x="635" y="303" fill="#5D4037" font-family="&quot;Helvetica&quot;" font-size="11px" text-anchor="middle">namespace = terraform...</text></switch></g></g><g><rect x="330" y="355" width="660" height="65" fill="#ffffff" stroke="#fbc02d" pointer-events="all" style="fill: light-dark(rgb(255, 255, 255), rgb(18, 18, 18)); stroke: light-dark(rgb(251, 192, 45), rgb(120, 69, 0));"/></g><g><g transform="translate(-0.5 -0.5)"><switch><foreignObject style="overflow: visible; text-align: left;" pointer-events="none" width="100%" height="100%" requiredFeatures="http://www.w3.org/TR/SVG11/feature#Extensibility"><div xmlns="http://www.w3.org/1999/xhtml" style="display: flex; align-items: unsafe center; justify-content: unsafe center; width: 658px; height: 1px; padding-top: 388px; margin-left: 331px;"><div style="box-sizing: border-box; font-size: 0; text-align: center; color: #5D4037; "><div style="display: inline-block; font-size: 10px; font-family: &quot;Helvetica&quot;; color: light-dark(#5D4037, #c6ada5); line-height: 1.2; pointer-events: all; white-space: normal; word-wrap: normal; "><font style="font-size: 14px;"><b style="">repository_permissions_policy:</b> </font><div><font style="font-size: 14px;">Publishers → PublishPackageVersion + Read*  ·  Consumers → solo Read*<br />Publishers NO tienen DeletePackageVersions → inmutabilidad reforzada (solo el admin puede borrar)</font></div></div></div></div></foreignObject><text x="660" y="391" fill="#5D4037" font-family="&quot;Helvetica&quot;" font-size="10px" text-anchor="middle">repository_permissions_policy:...</text></switch></g></g><g><rect x="1170" y="100" width="75" height="75" fill="none" stroke="none" pointer-events="all"/><path d="M 1224.81 155.21 L 1234.9 155.21 L 1234.9 152.33 L 1224.81 152.33 Z M 1211.82 155.21 L 1221.92 155.21 L 1221.92 152.33 L 1211.82 152.33 Z M 1198.84 155.21 L 1208.94 155.21 L 1208.94 152.33 L 1198.84 152.33 Z M 1214.71 143.67 C 1214.71 142.08 1216 140.79 1217.59 140.79 C 1219.19 140.79 1220.48 142.08 1220.48 143.67 C 1220.48 145.26 1219.19 146.56 1217.59 146.56 C 1216 146.56 1214.71 145.26 1214.71 143.67 Z M 1223.36 143.67 C 1223.36 140.49 1220.78 137.9 1217.59 137.9 C 1214.41 137.9 1211.82 140.49 1211.82 143.67 C 1211.82 146.86 1214.41 149.44 1217.59 149.44 C 1220.78 149.44 1223.36 146.86 1223.36 143.67 Z M 1203.17 140.79 C 1204.76 140.79 1206.05 142.08 1206.05 143.67 C 1206.05 145.26 1204.76 146.56 1203.17 146.56 C 1201.58 146.56 1200.29 145.26 1200.29 143.67 C 1200.29 142.08 1201.58 140.79 1203.17 140.79 Z M 1203.17 149.44 C 1206.35 149.44 1208.94 146.86 1208.94 143.67 C 1208.94 140.49 1206.35 137.9 1203.17 137.9 C 1199.99 137.9 1197.4 140.49 1197.4 143.67 C 1197.4 146.86 1199.99 149.44 1203.17 149.44 Z M 1245 127.81 L 1245 160.98 C 1245 161.78 1244.36 162.42 1243.56 162.42 L 1198.84 162.42 L 1198.84 159.54 L 1242.12 159.54 L 1242.12 129.25 L 1210.38 129.25 L 1210.38 126.36 L 1243.56 126.36 C 1244.36 126.36 1245 127.01 1245 127.81 Z M 1194.08 135.09 C 1193.48 135.28 1193.07 135.83 1193.07 136.46 L 1193.07 166.81 L 1189.61 169.78 L 1185.86 165.49 L 1185.86 161.7 C 1185.86 161.32 1185.71 160.95 1185.44 160.68 L 1182.13 157.38 L 1185.44 154.07 C 1185.71 153.8 1185.86 153.43 1185.86 153.05 L 1185.86 150.16 C 1185.86 149.78 1185.71 149.41 1185.44 149.14 L 1182.13 145.84 L 1185.44 142.53 C 1185.71 142.26 1185.86 141.89 1185.86 141.51 L 1185.86 136.48 C 1185.86 135.85 1185.45 135.29 1184.85 135.1 C 1177.44 132.75 1173.05 125.12 1174.66 117.35 C 1175.81 111.76 1180.12 107.27 1185.62 105.92 C 1190.31 104.77 1195.11 105.78 1198.81 108.67 C 1202.5 111.57 1204.61 115.91 1204.61 120.59 C 1204.61 127.16 1200.28 133.12 1194.08 135.09 Z M 1207.5 120.59 C 1207.5 115.02 1204.98 109.85 1200.59 106.4 C 1196.19 102.96 1190.49 101.76 1184.93 103.12 C 1178.36 104.73 1173.21 110.09 1171.83 116.77 L 1171.83 116.77 C 1170 125.63 1174.76 134.35 1182.98 137.5 L 1182.98 140.91 L 1179.07 144.82 C 1178.51 145.38 1178.51 146.29 1179.07 146.86 L 1182.98 150.76 L 1182.98 152.45 L 1179.07 156.36 C 1178.51 156.92 1178.51 157.83 1179.07 158.4 L 1182.98 162.3 L 1182.98 166.03 C 1182.98 166.38 1183.1 166.72 1183.33 166.98 L 1188.38 172.75 C 1188.67 173.08 1189.07 173.24 1189.47 173.24 C 1189.8 173.24 1190.13 173.13 1190.41 172.9 L 1195.45 168.57 C 1195.77 168.29 1195.96 167.89 1195.96 167.47 L 1195.96 137.48 C 1202.8 134.84 1207.5 128.05 1207.5 120.59 Z M 1189.47 124.01 C 1187.48 124.01 1185.86 122.4 1185.86 120.41 C 1185.86 118.42 1187.48 116.8 1189.47 116.8 C 1191.46 116.8 1193.07 118.42 1193.07 120.41 C 1193.07 122.4 1191.46 124.01 1189.47 124.01 Z M 1189.47 113.92 C 1185.89 113.92 1182.98 116.83 1182.98 120.41 C 1182.98 123.99 1185.89 126.9 1189.47 126.9 C 1193.05 126.9 1195.96 123.99 1195.96 120.41 C 1195.96 116.83 1193.05 113.92 1189.47 113.92 Z" fill="#dd344c" stroke="none" pointer-events="all" style="fill: light-dark(rgb(221, 52, 76), rgb(255, 127, 147));"/></g><g><rect x="1077.5" y="180" width="260" height="80" fill="none" stroke="none" pointer-events="all"/></g><g><g transform="translate(-0.5 -0.5)"><switch><foreignObject style="overflow: visible; text-align: left;" pointer-events="none" width="100%" height="100%" requiredFeatures="http://www.w3.org/TR/SVG11/feature#Extensibility"><div xmlns="http://www.w3.org/1999/xhtml" style="display: flex; align-items: unsafe flex-start; justify-content: unsafe center; width: 258px; height: 1px; padding-top: 187px; margin-left: 1079px;"><div style="box-sizing: border-box; font-size: 0; text-align: center; color: #A1162F; "><div style="display: inline-block; font-size: 10px; font-family: &quot;Helvetica&quot;; color: light-dark(#A1162F, #ffa4b9); line-height: 1.2; pointer-events: all; white-space: normal; word-wrap: normal; "><font style="font-size: 14px;"><b style="">CMK</b> alias/.../codeartifact<br />Cifra TODOS los assets en reposo<br />Rotación anual</font><div><font style="font-size: 14px;">Clave INMUTABLE para el dominio<br />policy: codeartifact.amazonaws.com → <b>GenerateDataKey</b>, <b>Decrypt </b>+ condition aws:SourceAccount</font></div></div></div></div></foreignObject><text x="1208" y="197" fill="#A1162F" font-family="&quot;Helvetica&quot;" font-size="10px" text-anchor="middle">CMK alias/.../codeartifact...</text></switch></g></g><g><rect x="280" y="480" width="740" height="60" rx="9" ry="9" fill="#e8f5e9" stroke="#2e7d32" stroke-width="2" stroke-dasharray="6 6" pointer-events="all" style="fill: light-dark(rgb(232, 245, 233), rgb(21, 33, 22)); stroke: light-dark(rgb(46, 125, 50), rgb(100, 168, 104));"/></g><g><g transform="translate(-0.5 -0.5)"><switch><foreignObject style="overflow: visible; text-align: left;" pointer-events="none" width="100%" height="100%" requiredFeatures="http://www.w3.org/TR/SVG11/feature#Extensibility"><div xmlns="http://www.w3.org/1999/xhtml" style="display: flex; align-items: unsafe center; justify-content: unsafe center; width: 738px; height: 1px; padding-top: 510px; margin-left: 281px;"><div style="box-sizing: border-box; font-size: 0; text-align: center; color: #1B5E20; "><div style="display: inline-block; font-size: 11px; font-family: &quot;Helvetica&quot;; color: light-dark(#1B5E20, #82bc86); line-height: 1.2; pointer-events: all; font-weight: bold; white-space: normal; word-wrap: normal; "><font style="font-size: 14px;">🔗 Endpoint del repositorio: &lt;domain&gt;-&lt;account&gt;.d.codeartifact.&lt;region&gt;.amazonaws.com<br />el cliente usa <code style="">aws codeartifact get-authorization-token</code> (TTL 12h) y descarga assets con curl/aws CLI</font></div></div></div></foreignObject><text x="650" y="513" fill="#1B5E20" font-family="&quot;Helvetica&quot;" font-size="11px" text-anchor="middle" font-weight="bold">🔗 Endpoint del repositorio: &lt;domain&gt;-&lt;account&gt;.d.codeartifact.&lt;region&gt;.amazonaws.com...</text></switch></g></g><g><path d="M 180 130 L 304.5 268.87" fill="none" stroke="#2e7d32" stroke-width="2" stroke-miterlimit="10" pointer-events="stroke" style="stroke: light-dark(rgb(46, 125, 50), rgb(100, 168, 104));"/><path d="M 308.51 273.34 L 300.19 270.05 L 304.5 268.87 L 306.15 264.71 Z" fill="#2e7d32" stroke="#2e7d32" stroke-width="2" stroke-miterlimit="10" pointer-events="all" style="fill: light-dark(rgb(46, 125, 50), rgb(100, 168, 104)); stroke: light-dark(rgb(46, 125, 50), rgb(100, 168, 104));"/></g><g><g transform="translate(-0.5 -0.5)"><switch><foreignObject style="overflow: visible; text-align: left;" pointer-events="none" width="100%" height="100%" requiredFeatures="http://www.w3.org/TR/SVG11/feature#Extensibility"><div xmlns="http://www.w3.org/1999/xhtml" style="display: flex; align-items: unsafe center; justify-content: unsafe center; width: 1px; height: 1px; padding-top: 210px; margin-left: 210px;"><div style="box-sizing: border-box; font-size: 0; text-align: center; color: #1B5E20; background-color: #ffffff; "><div style="display: inline-block; font-size: 10px; font-family: &quot;Helvetica&quot;; color: light-dark(#1B5E20, #82bc86); line-height: 1.2; pointer-events: all; background-color: light-dark(#ffffff, var(--ge-dark-color, #121212)); white-space: nowrap; "><font style="font-size: 12px;">PublishPackageVersion</font></div></div></div></foreignObject><text x="210" y="213" fill="#1B5E20" font-family="&quot;Helvetica&quot;" font-size="10px" text-anchor="middle">PublishPackageVersion</text></switch></g></g><g><path d="M 310 330 L 186.05 444.41" fill="none" stroke="#1565c0" stroke-width="2" stroke-miterlimit="10" pointer-events="stroke" style="stroke: light-dark(rgb(21, 101, 192), rgb(99, 168, 246));"/><path d="M 181.64 448.48 L 184.81 440.12 L 186.05 444.41 L 190.23 446 Z" fill="#1565c0" stroke="#1565c0" stroke-width="2" stroke-miterlimit="10" pointer-events="all" style="fill: light-dark(rgb(21, 101, 192), rgb(99, 168, 246)); stroke: light-dark(rgb(21, 101, 192), rgb(99, 168, 246));"/></g><g><g transform="translate(-0.5 -0.5)"><switch><foreignObject style="overflow: visible; text-align: left;" pointer-events="none" width="100%" height="100%" requiredFeatures="http://www.w3.org/TR/SVG11/feature#Extensibility"><div xmlns="http://www.w3.org/1999/xhtml" style="display: flex; align-items: unsafe center; justify-content: unsafe center; width: 1px; height: 1px; padding-top: 400px; margin-left: 210px;"><div style="box-sizing: border-box; font-size: 0; text-align: center; color: #0D47A1; background-color: #ffffff; "><div style="display: inline-block; font-size: 10px; font-family: &quot;Helvetica&quot;; color: light-dark(#0D47A1, #88baff); line-height: 1.2; pointer-events: all; background-color: light-dark(#ffffff, var(--ge-dark-color, #121212)); white-space: nowrap; "><font style="font-size: 12px;">ReadFromRepository</font></div></div></div></foreignObject><text x="210" y="403" fill="#0D47A1" font-family="&quot;Helvetica&quot;" font-size="10px" text-anchor="middle">ReadFromRepository</text></switch></g></g><g><path d="M 1021.16 136.91 L 1161.76 137.35" fill="none" stroke="#a1162f" stroke-width="2" stroke-miterlimit="10" stroke-dasharray="6 6" pointer-events="stroke" style="stroke: light-dark(rgb(161, 22, 47), rgb(255, 164, 185));"/><path d="M 1015.16 136.89 L 1023.17 132.91 L 1021.16 136.91 L 1023.14 140.91 Z" fill="#a1162f" stroke="#a1162f" stroke-width="2" stroke-miterlimit="10" pointer-events="all" style="fill: light-dark(rgb(161, 22, 47), rgb(255, 164, 185)); stroke: light-dark(rgb(161, 22, 47), rgb(255, 164, 185));"/><path d="M 1167.76 137.37 L 1159.75 141.35 L 1161.76 137.35 L 1159.78 133.35 Z" fill="#a1162f" stroke="#a1162f" stroke-width="2" stroke-miterlimit="10" pointer-events="all" style="fill: light-dark(rgb(161, 22, 47), rgb(255, 164, 185)); stroke: light-dark(rgb(161, 22, 47), rgb(255, 164, 185));"/></g><g><g transform="translate(-0.5 -0.5)"><switch><foreignObject style="overflow: visible; text-align: left;" pointer-events="none" width="100%" height="100%" requiredFeatures="http://www.w3.org/TR/SVG11/feature#Extensibility"><div xmlns="http://www.w3.org/1999/xhtml" style="display: flex; align-items: unsafe center; justify-content: unsafe center; width: 1px; height: 1px; padding-top: 139px; margin-left: 1086px;"><div style="box-sizing: border-box; font-size: 0; text-align: center; color: #A1162F; background-color: #ffffff; "><div style="display: inline-block; font-size: 10px; font-family: &quot;Helvetica&quot;; color: light-dark(#A1162F, #ffa4b9); line-height: 1.2; pointer-events: all; background-color: light-dark(#ffffff, var(--ge-dark-color, #121212)); white-space: nowrap; "><font style="font-size: 12px;">cifra/descifra assets</font></div></div></div></foreignObject><text x="1086" y="142" fill="#A1162F" font-family="&quot;Helvetica&quot;" font-size="10px" text-anchor="middle">cifra/descifra assets</text></switch></g></g><g><rect x="0" y="570" width="1220" height="60" fill="none" stroke="none" pointer-events="all"/></g><g><g transform="translate(-0.5 -0.5)"><switch><foreignObject style="overflow: visible; text-align: left;" pointer-events="none" width="100%" height="100%" requiredFeatures="http://www.w3.org/TR/SVG11/feature#Extensibility"><div xmlns="http://www.w3.org/1999/xhtml" style="display: flex; align-items: unsafe center; justify-content: unsafe center; width: 1218px; height: 1px; padding-top: 600px; margin-left: 1px;"><div style="box-sizing: border-box; font-size: 0; text-align: center; color: #555555; "><div style="display: inline-block; font-size: 11px; font-family: &quot;Helvetica&quot;; color: light-dark(#555555, #a4a4a4); line-height: 1.2; pointer-events: all; font-style: italic; white-space: normal; word-wrap: normal; "><font style="font-size: 14px;"><b style="">Patrón:</b> el dominio agrupa repositorios con cifrado uniforme (CMK inmutable); cada repo tiene su propia política. La defensa en profundidad combina <b style="">políticas IAM</b> (en el principal) con <b style="">políticas de recurso</b> (en domain y repo) — el usuario necesita permiso en ambas capas. Inmutabilidad: Publishers no tienen Delete*; sólo el admin puede borrar versiones.</font></div></div></div></foreignObject><text x="610" y="603" fill="#555555" font-family="&quot;Helvetica&quot;" font-size="11px" text-anchor="middle" font-style="italic">Patrón: el dominio agrupa repositorios con cifrado uniforme (CMK inmutable); cada repo tiene su propia política. La defensa en profundidad combina políticas IAM (en el principal) con políticas de recurso (en domain y repo)...</text></switch></g></g><g><path d="M 320 120 L 398 120 L 398 198 L 320 198 Z" fill="#c925d1" stroke="none" pointer-events="all" style="fill: light-dark(rgb(201, 37, 209), rgb(255, 124, 255));"/><path d="M 354.91 166.05 L 361.55 151.22 L 363.59 152.13 L 356.95 166.96 Z M 364.2 161.53 L 368.19 158.62 L 364.68 155.06 L 366.27 153.48 L 370.7 157.97 C 370.93 158.2 371.05 158.53 371.02 158.85 C 370.99 159.18 370.83 159.47 370.56 159.66 L 365.53 163.34 Z M 354.3 155.15 L 350.25 158.11 L 353.78 161.67 L 352.18 163.25 L 347.74 158.76 C 347.51 158.53 347.39 158.2 347.42 157.88 C 347.45 157.55 347.61 157.26 347.88 157.06 L 352.97 153.34 Z M 353.01 129.73 L 330.42 143.08 L 330.42 169.12 L 328.18 169.12 L 328.18 142.44 C 328.18 142.05 328.39 141.68 328.73 141.48 L 351.87 127.8 Z M 389.82 148.95 L 389.82 175.92 C 389.82 176.32 389.61 176.69 389.26 176.89 L 366.14 190.2 L 365.02 188.26 L 387.58 175.27 L 387.58 148.95 Z M 376.37 168.89 L 359.47 178.5 L 342.75 168.7 L 342.75 149.29 L 359.46 139.68 L 376.37 149.48 Z M 378.61 169.54 L 378.61 148.84 C 378.61 148.44 378.4 148.07 378.05 147.87 L 360.02 137.41 C 359.68 137.21 359.25 137.21 358.9 137.41 L 341.07 147.67 C 340.72 147.87 340.51 148.24 340.51 148.64 L 340.51 169.34 C 340.51 169.74 340.72 170.11 341.06 170.31 L 358.9 180.76 C 359.07 180.86 359.27 180.92 359.46 180.92 C 359.65 180.92 359.84 180.87 360.02 180.77 L 378.05 170.52 C 378.4 170.32 378.61 169.95 378.61 169.54 Z" fill="#ffffff" stroke="none" pointer-events="all" style="fill: light-dark(rgb(255, 255, 255), rgb(18, 18, 18));"/></g></g><switch><g requiredFeatures="http://www.w3.org/TR/SVG11/feature#Extensibility"/><a transform="translate(0,-5)" xlink:href="https://www.drawio.com/doc/faq/svg-export-text-problems" target="_blank"><text text-anchor="middle" font-size="10px" x="50%" y="100%">Text is not SVG - cannot display</text></a></switch></svg>