<svg xmlns="http://www.w3.org/2000/svg" style="background: transparent; background-color: transparent;" xmlns:xlink="http://www.w3.org/1999/xlink" version="1.1" width="1438px" height="700px" viewBox="-0.5 -0.5 1438 700" content="&lt;mxfile&gt;&lt;diagram name=&quot;Arquitectura Lab-41&quot; id=&quot;lab41-arch&quot;&gt;7Zxpb9s4GoB/jYB2AQc6LMv56LMtts0ETRaz86mgJdrmVFcpKcf8+nlfirooOXFs2fXuNG1ii6Ioinzei4c0axY8feAk3n6JPOprpu49adZcM01jfD2ED0x5zlNsUyZsOPNkpirhjv1FZaIuUzPm0aSRMY0iP2VxM9GNwpC6aSONcB49NrOtI79515hsaCvhziV+O/V35qVbmTrU9erER8o2W3nrcXEiIEVmmZBsiRc91pKshWbNeBSl+bfgaUZ9bLyiXfLrljvOlhXjNEz3uSBlKTyUuOiB+Jl8Ps0c+XD5dB1BKVDJ9Fk++ehHFhUnBonolwlkMMYx9O20Og/fNvj5mawGQ6iUri1Mbaxr2PH6h2hFeUjCvwgcPOfdlPJIIEKxIpQnLAqhg8Up+DsDgmZRELC0qBk8UV65/D6yMct6mil9wvRtGviQYMBX4rNNCN9daBnKIQFukzLo04k8ETDPw8unj1uW0ruYuFjWIxAsH1hyaNjFsbydIY9nkR9xcXsL/i2xwaft/pBdhHenT7Uk2T8faBTQlGOzyLNDiYqUlZE8fKyBZxU4bWvQWbYEXsK+KUuueIAvEoluPDz6cDwcwx1waEsAYqldG9oEsZjTBGXT90Ei+L79zKMs9Kgne6Gr52oIrJnv1zppvV6brgvpCdD3ndbOeKPVyB6VZwoZNxUQzA4Q9sdMQUYXP/0gUyrKZ+W4Ds2ogxlbP56ZlLpbnxLvbODcww3h47O4p/6OxDxaIUPv/wEQ9QCL9RNZYSQ4PSZTbYImaEZiNDiqNfo0+YLUxJw+QBuyB1Jis+JFSbdgnGaWNpljJ6AZz49CFkTY+pw9MJ9uGB7QUHgtWRwJc/ZA/SgGe9Yuc05D7AT6FMuyXZbiNVh+nCVItMc4eC9lqQFh4TmQXi4X08WiC+nZyByb41eRNo5CWtGLU8eYGbOToG7obdStYQfq4x5Qd93PK/+EsBeAdZbSzl93qXROEdeSrFWr0JJaTgJshEmJI0pOlAL8HgrOrII+P1hTkmYcvLrlv9qFrcDNBZIAR2imkLmMYIM9MBQBgISTdcSDbx5JMUEzp9gDj7lX6FG3qHycpQMgGO/hcrgdHaw4CdEkHOsq+nSdHuModjiGxsS0nJ4cQ/O6ibM1NFo42104j3rAmcTQ7w/klER3qm9TUd+Tsh761wwhAHcgiH3AoEvlJikLSQrBxVe6ptD0rggyRPV0zZ5yuobj5RY8CfwUhNvzdkE3WQAhzG/r4ubJDaWobYuibvDbzNSmDlxBAuQiXCVxTaJaUObJHntQk45ux6KStxAhf6FY8eqZCQegJyhU1iRJhWCL/yRJsoB6A3DHUa6urq4G6NYN0K8b5F0PSrwm1DueB5Ibj9SrlVrOF06XlVpOZ7o5P6+VsudD3XJ6CvhMxSOz22bK7or4+jBTYZSy9TR6OrdcW4pc32A9oOXdYiTgHck88JB47iwRYbWI23DYTukULcZLe3HdhZu5cOaWeZSfv8PQpBHWKYEqsnBzjwfzcZXwWVxUFVy3MlN7YfYUSyrDD0Ora/zB6aCxHOM6ymsCS5+khF+W43QnalQyigYlKQ3QPm6UR1PC/G/pc0xLXbz8z+fPNbuh46+ISUS2b8zrCCJuv6I3JLwesD7LLPbkt4DyjfiCbhKUgeasMtlLVN+cefTtkqMfoqjh5w2Sg2V4JNmWkloXI/0YLd2nXIwUuXDsdiwxPpGSpqsctUuRiQViOgWgNvRNYpBEGXcrCQA/5Krh2peywAt37YYEVf56QFwVykKICL5BWBEmGD+gn5JblpF2LcbgaZiQP7EUjNlX/i8h6E0I7NGeQuD0IARJmFxURH13c4fRRxQzF5uVD8KmedhHIFy25sSLtHLi48u/hevjM5Lkfjj8HcCTdwxSxZHPXOwb4oH0UBkm58ZTRs/CnCTlYfQY0r1H2g+YUcn9l9eiZL2N6GRuDO2+vGmV0XGbUbPgtu/xzW2axsnpXWnwiMeQ7+P9/S0ymGSrxOUsRvDanNz5xP0OFb+nJEAWHulqG0Xf6+rWEiqXQbeGaZScQz8urKW5rGK2uroCpTLTz6gf9fnQmRj9wOeMFS9h2PaezS4F2Qd8FOzjGcZnAD5kZpHf7RX4OP2RMcpz7RSuGQ8glsGQbmrlQ9xhhg7qL+B6As7uGOI+GXAuOF0nJe6toZofZd7vJM2nB6MN/P0AzMT72WKMmHC0eeliMfLRlj5Z4TDrTx/VQ58AA7vcW4hxxlwXz3uPFe1wD7A3hWcCgiD4nAg/oGzRPNdvMjC8zXz/K8gq+A/F+CG69Untmkbr1fzrEFz0RIghNHreWssPGHCGJHR3O9tvHDDs0wUv3Y1zSXyf/o1hKCM05dBgXeTtDpE3jB5WiBCf8FPO4R4j8pO8bvsIex3yQgZmAFuaA59Lu7wWVWojohSef8uVB0MmbB062uVwiy5EiIS5yQuIH+0UiF7Rf+OMbq+09zmD27JvTgfs1x2wj/pgnfM5fZi5x+Nu7sBdTvyXs6YtqMRQH+TAgb/9uKGhN8Elj9hzPkkS5jZRaXLVAsSemYtJ2xtSR7c7grjySuht/vxfvMGVYxfHf8gbioP5U+PouX50SzkYOkHc/MVRCzmYJJLKdWsQ/W6ozGflSdRrLO5so8apDzH7A22U3sWNvPQ2YqLbi2lZdfrGVNDLKyqvquhrFWQprJtDpaD84VoFCYzL59mX7Ht3ggunTse2nDa8EHhfNOw7SX5iaQ6yLY/+kCXg94piPGhAnF9knon+5gq8CxABS+9LBFQ13qsIzNzZ7ummfsl8YdKwhKyGWAXcDsjgQEWlAq9B3ZX9Cnd7IWa12WpO1Z0asVfJ2Bex0jVWJ3JeQQx6nzzXssWYIXlBJhSRcPSXq6X4OdJXr/jO738o7cPT6fl7zjab/ceVERQIE6mvHbhcn1OoFFmJ8pBf2RFQuD3F1TtdRHcJu+qDlttHZNlafYdGl2860K8sp2hZ2W8DqTkOpb3IEq3XCe1FxS26TPxPVm7m5Wu3+pTr2XXb+EDdNlR0m6VOPvek2wbKfgPLdl6sl5p/pDeU4dHazT6ddhNT3Zev20opP1qr6VfGtXnZOk3q8buwh6m2Xf1+m618luy9qPhIDbpjRHKPqLu8stC0RXSylxu5Q6mar2nVw2OVptdY17jmeZTtUB0+VUdF91W2tm03C1I34PUaqyxWv3B/HXerPHe8Z+GcTgjqzsUFiEBhjo8XAfuUIgAC8HHH+op+8dwxI9waRurdJ62zUFtKcmoeRobSjYeOYDrKhitbBatvHhY7ljz8H/JQW91xdh5UsT6YB3UnUq88iOm/bivZLw8vbIts8nDAyN5e9qM2CXtqFgzd6slYtKg63dju6HSOUrVPpVzFdNmxoSIVfYx66cZ4rF1OSOjTDQj08V3e15qEOV3jknMUTlzjFvNoDeqEeeJ1BdA7eGZTvRMFb961ZEF/Z7zXiv3qb61Dtb19R+H1vVc+1mhy+0mTL2Rp7BUOGd6SiaUNmI+4NBYbdMU7fnAC+wrramJd25szRXlvr3zk0mTHDuVGzVd+9COjZW1WUEy5tvALbomBzy1JRH0hY1nrSLx9hsQ8oys89658qiQvANdplPXGmHXPqrc3Uiq7JvOyiofBLdMh3irPr0++3iTvRXta2J6tTXFvbcliy9yO5eiNtmSh62fY6tDb2Dj+Bro81Iql6dVbD7AiCfHTnGQfC9c9kRpjLMRFgkti8fmuWAsjd4uL9s+Xzssd3qifiEDlT7ERnBPxoiCx/Y94pRhVi92u9lW5p3wpkLqbtGNXni1+XrLph78UqBjYffWtQH1sPzJf96iS7xTXYHVZpinUYJb/4t7qGabgCFM7sSvNaSca7WzwYXTdQU3sSnPaiUY7Gx4VtW4mdqU5drvG6tVGx9WGcrUw61GW+iwEjVy83KxjXKR8AZW67NkxbGfa5cSuxU/dZdVr8iA8ldsoYWJZtzUHzZpGQYfA5Hs+WnJVX5v2wqZYsc4sifPHWrMnrMc02ZIYTwZPG3yd3BV5TIZX4P0IP/MTaiPhDOXfmrkS8HN6kTfbNpRI1mkJ3GjcFrci7Rhxs36J2/+quM2uTVtA/88Qt9rmzV6kTn2PmTU0W1Jnd0id3YPUjS982MDZcyqnHIjqcX68vtGjPiZ1xnEIR3n5zciwDhyGMJVhiD3X/7wemMJh9SLPPHv1OlRr8Tc=&lt;/diagram&gt;&lt;/mxfile&gt;"><defs/><g><g><rect x="67" y="0" width="1320" height="35" fill="none" stroke="none" pointer-events="all"/></g><g><g transform="translate(-0.5 -0.5)"><switch><foreignObject style="overflow: visible; text-align: left;" pointer-events="none" width="100%" height="100%" requiredFeatures="http://www.w3.org/TR/SVG11/feature#Extensibility"><div xmlns="http://www.w3.org/1999/xhtml" style="display: flex; align-items: unsafe center; justify-content: unsafe center; width: 1318px; height: 1px; padding-top: 18px; margin-left: 68px;"><div style="box-sizing: border-box; font-size: 0; text-align: center; color: #232F3E; "><div style="display: inline-block; font-size: 15px; font-family: &quot;Helvetica&quot;; color: light-dark(#232F3E, #bdc7d4); line-height: 1.2; pointer-events: all; font-weight: bold; white-space: normal; word-wrap: normal; "><font style="font-size: 18px;">Lab-41 — Gobernanza y control de versiones con CodeCommit</font></div></div></div></foreignObject><text x="727" y="22" fill="#232F3E" font-family="&quot;Helvetica&quot;" font-size="15px" text-anchor="middle" font-weight="bold">Lab-41 — Gobernanza y control de versiones con CodeCommit</text></switch></g></g><g><rect x="237" y="150" width="160" height="50" rx="7.5" ry="7.5" fill="#fff2cc" stroke="#d6b656" stroke-width="2" pointer-events="all" style="fill: light-dark(rgb(255, 242, 204), rgb(40, 29, 0)); stroke: light-dark(rgb(214, 182, 86), rgb(109, 81, 0));"/></g><g><g transform="translate(-0.5 -0.5)"><switch><foreignObject style="overflow: visible; text-align: left;" pointer-events="none" width="100%" height="100%" requiredFeatures="http://www.w3.org/TR/SVG11/feature#Extensibility"><div xmlns="http://www.w3.org/1999/xhtml" style="display: flex; align-items: unsafe center; justify-content: unsafe center; width: 158px; height: 1px; padding-top: 175px; margin-left: 238px;"><div style="box-sizing: border-box; font-size: 0; text-align: center; color: #000000; "><div style="display: inline-block; font-size: 12px; font-family: &quot;Helvetica&quot;; color: light-dark(#000000, #ededed); line-height: 1.2; pointer-events: all; font-weight: bold; white-space: normal; word-wrap: normal; "><font style="font-size: 14px;">👤 Desarrollador</font></div></div></div></foreignObject><text x="317" y="179" fill="#000000" font-family="&quot;Helvetica&quot;" font-size="12px" text-anchor="middle" font-weight="bold">👤 Desarrollador</text></switch></g></g><g><rect x="57" y="150" width="160" height="50" rx="7.5" ry="7.5" fill="#fff2cc" stroke="#d6b656" stroke-width="2" pointer-events="all" style="fill: light-dark(rgb(255, 242, 204), rgb(40, 29, 0)); stroke: light-dark(rgb(214, 182, 86), rgb(109, 81, 0));"/></g><g><g transform="translate(-0.5 -0.5)"><switch><foreignObject style="overflow: visible; text-align: left;" pointer-events="none" width="100%" height="100%" requiredFeatures="http://www.w3.org/TR/SVG11/feature#Extensibility"><div xmlns="http://www.w3.org/1999/xhtml" style="display: flex; align-items: unsafe center; justify-content: unsafe center; width: 158px; height: 1px; padding-top: 175px; margin-left: 58px;"><div style="box-sizing: border-box; font-size: 0; text-align: center; color: #000000; "><div style="display: inline-block; font-size: 12px; font-family: &quot;Helvetica&quot;; color: light-dark(#000000, #ffffff); line-height: 1.2; pointer-events: all; font-weight: bold; white-space: normal; word-wrap: normal; "><font style="font-size: 14px;">👤 Tech Lead (aprobador)</font></div></div></div></foreignObject><text x="137" y="179" fill="light-dark(#000000, #ffffff)" font-family="&quot;Helvetica&quot;" font-size="12px" text-anchor="middle" font-weight="bold">👤 Tech Lead (aprobador)</text></switch></g></g><g><rect x="57" y="40" width="340" height="80" rx="12" ry="12" fill="#ffebee" stroke="#c62828" stroke-width="2" pointer-events="all" style="fill: light-dark(rgb(255, 235, 238), rgb(44, 27, 30)); stroke: light-dark(rgb(198, 40, 40), rgb(255, 145, 145));"/></g><g><g transform="translate(-0.5 -0.5)"><switch><foreignObject style="overflow: visible; text-align: left;" pointer-events="none" width="100%" height="100%" requiredFeatures="http://www.w3.org/TR/SVG11/feature#Extensibility"><div xmlns="http://www.w3.org/1999/xhtml" style="display: flex; align-items: unsafe center; justify-content: unsafe center; width: 338px; height: 1px; padding-top: 80px; margin-left: 58px;"><div style="box-sizing: border-box; font-size: 0; text-align: center; color: #B71C1C; "><div style="display: inline-block; font-size: 11px; font-family: &quot;Helvetica&quot;; color: light-dark(#B71C1C, #ff9c9c); line-height: 1.2; pointer-events: all; font-weight: bold; white-space: normal; word-wrap: normal; "><font style="font-size: 14px;">🛡 Capa 1 — IAM (preventiva)<br />Política mínimo privilegio en grupo developers<br />Deny explícito a push directo en main</font></div></div></div></foreignObject><text x="227" y="83" fill="#B71C1C" font-family="&quot;Helvetica&quot;" font-size="11px" text-anchor="middle" font-weight="bold">🛡 Capa 1 — IAM (preventiva)...</text></switch></g></g><g><rect x="317" y="281" width="540" height="60" fill="none" stroke="none" pointer-events="all"/></g><g><g transform="translate(-0.5 -0.5)"><switch><foreignObject style="overflow: visible; text-align: left;" pointer-events="none" width="100%" height="100%" requiredFeatures="http://www.w3.org/TR/SVG11/feature#Extensibility"><div xmlns="http://www.w3.org/1999/xhtml" style="display: flex; align-items: unsafe center; justify-content: unsafe flex-start; width: 538px; height: 1px; padding-top: 311px; margin-left: 319px;"><div style="box-sizing: border-box; font-size: 0; text-align: left; color: #1A237E; "><div style="display: inline-block; font-size: 11px; font-family: &quot;Helvetica&quot;; color: light-dark(#1A237E, #bfc7ff); line-height: 1.2; pointer-events: all; white-space: normal; word-wrap: normal; "><font style="font-size: 14px;"><b style="">CodeCommit repo</b><br />ramas: main (protegida), develop, feature/*<br />bootstrap inicial via terraform_data + aws codecommit put-file/create-branch</font></div></div></div></foreignObject><text x="319" y="314" fill="#1A237E" font-family="&quot;Helvetica&quot;" font-size="11px">CodeCommit repo...</text></switch></g></g><g><rect x="447" y="190" width="520" height="80" rx="12" ry="12" fill="#fffde7" stroke="#fbc02d" stroke-width="2" pointer-events="all" style="fill: light-dark(rgb(255, 253, 231), rgb(24, 22, 4)); stroke: light-dark(rgb(251, 192, 45), rgb(120, 69, 0));"/></g><g><g transform="translate(-0.5 -0.5)"><switch><foreignObject style="overflow: visible; text-align: left;" pointer-events="none" width="100%" height="100%" requiredFeatures="http://www.w3.org/TR/SVG11/feature#Extensibility"><div xmlns="http://www.w3.org/1999/xhtml" style="display: flex; align-items: unsafe center; justify-content: unsafe center; width: 518px; height: 1px; padding-top: 230px; margin-left: 448px;"><div style="box-sizing: border-box; font-size: 0; text-align: center; color: #5D4037; "><div style="display: inline-block; font-size: 11px; font-family: &quot;Helvetica&quot;; color: light-dark(#5D4037, #c6ada5); line-height: 1.2; pointer-events: all; font-weight: bold; white-space: normal; word-wrap: normal; "><font style="font-size: 14px;">🛡 Capa 2 — Approval Rule Template<br />DestinationReferences = [refs/heads/main]<br />NumberOfApprovalsNeeded = N · </font><div><font style="font-size: 14px;">ApprovalPoolMembers = arn:aws:sts:::assumed-role/...-tech-lead-approver/*</font></div></div></div></div></foreignObject><text x="707" y="233" fill="#5D4037" font-family="&quot;Helvetica&quot;" font-size="11px" text-anchor="middle" font-weight="bold">🛡 Capa 2 — Approval Rule Template...</text></switch></g></g><g><rect x="67" y="370" width="1370" height="220" rx="33" ry="33" fill="#e8f5e9" stroke="#2e7d32" stroke-width="2" pointer-events="all" style="fill: light-dark(rgb(232, 245, 233), rgb(21, 33, 22)); stroke: light-dark(rgb(46, 125, 50), rgb(100, 168, 104));"/></g><g><g transform="translate(-0.5 -0.5)"><switch><foreignObject style="overflow: visible; text-align: left;" pointer-events="none" width="100%" height="100%" requiredFeatures="http://www.w3.org/TR/SVG11/feature#Extensibility"><div xmlns="http://www.w3.org/1999/xhtml" style="display: flex; align-items: unsafe flex-start; justify-content: unsafe flex-start; width: 1356px; height: 1px; padding-top: 385px; margin-left: 81px;"><div style="box-sizing: border-box; font-size: 0; text-align: left; color: #1B5E20; "><div style="display: inline-block; font-size: 12px; font-family: &quot;Helvetica&quot;; color: light-dark(#1B5E20, #82bc86); line-height: 1.2; pointer-events: all; font-weight: bold; white-space: normal; word-wrap: normal; "><font style="font-size: 14px;">🛡 Capa 3 — Notificaciones (auditoría reactiva)</font></div></div></div></foreignObject><text x="81" y="397" fill="#1B5E20" font-family="&quot;Helvetica&quot;" font-size="12px" font-weight="bold">🛡 Capa 3 — Notificaciones (auditoría reactiva)</text></switch></g></g><g><rect x="87" y="415" width="380" height="80" fill="#ffffff" stroke="#2e7d32" stroke-dasharray="3 3" pointer-events="all" style="fill: light-dark(rgb(255, 255, 255), rgb(18, 18, 18)); stroke: light-dark(rgb(46, 125, 50), rgb(100, 168, 104));"/></g><g><g transform="translate(-0.5 -0.5)"><switch><foreignObject style="overflow: visible; text-align: left;" pointer-events="none" width="100%" height="100%" requiredFeatures="http://www.w3.org/TR/SVG11/feature#Extensibility"><div xmlns="http://www.w3.org/1999/xhtml" style="display: flex; align-items: unsafe center; justify-content: unsafe center; width: 378px; height: 1px; padding-top: 455px; margin-left: 88px;"><div style="box-sizing: border-box; font-size: 0; text-align: center; color: #1B5E20; "><div style="display: inline-block; font-size: 10px; font-family: &quot;Helvetica&quot;; color: light-dark(#1B5E20, #82bc86); line-height: 1.2; pointer-events: all; white-space: normal; word-wrap: normal; "><font style="font-size: 14px;"><b style="">CodeStar Notifications Rule</b><br />detail_type = FULL · 7 event_type_ids<br />PR created/updated/merged/comments/approval/override</font></div></div></div></foreignObject><text x="277" y="458" fill="#1B5E20" font-family="&quot;Helvetica&quot;" font-size="10px" text-anchor="middle">CodeStar Notifications Rule...</text></switch></g></g><g><rect x="87" y="505" width="380" height="70" fill="#ffffff" stroke="#2e7d32" stroke-dasharray="3 3" pointer-events="all" style="fill: light-dark(rgb(255, 255, 255), rgb(18, 18, 18)); stroke: light-dark(rgb(46, 125, 50), rgb(100, 168, 104));"/></g><g><g transform="translate(-0.5 -0.5)"><switch><foreignObject style="overflow: visible; text-align: left;" pointer-events="none" width="100%" height="100%" requiredFeatures="http://www.w3.org/TR/SVG11/feature#Extensibility"><div xmlns="http://www.w3.org/1999/xhtml" style="display: flex; align-items: unsafe center; justify-content: unsafe center; width: 378px; height: 1px; padding-top: 540px; margin-left: 88px;"><div style="box-sizing: border-box; font-size: 0; text-align: center; color: #1B5E20; "><div style="display: inline-block; font-size: 10px; font-family: &quot;Helvetica&quot;; color: light-dark(#1B5E20, #82bc86); line-height: 1.2; pointer-events: all; white-space: normal; word-wrap: normal; "><font style="font-size: 14px;"><b style="">EventBridge Rule</b><br />source = aws.codecommit · referenceName = main<br />input_transformer → mensaje legible</font></div></div></div></foreignObject><text x="277" y="543" fill="#1B5E20" font-family="&quot;Helvetica&quot;" font-size="10px" text-anchor="middle">EventBridge Rule...</text></switch></g></g><g><rect x="487" y="525" width="265" height="50" fill="none" stroke="none" pointer-events="all"/></g><g><g transform="translate(-0.5 -0.5)"><switch><foreignObject style="overflow: visible; text-align: left;" pointer-events="none" width="100%" height="100%" requiredFeatures="http://www.w3.org/TR/SVG11/feature#Extensibility"><div xmlns="http://www.w3.org/1999/xhtml" style="display: flex; align-items: unsafe flex-start; justify-content: unsafe center; width: 263px; height: 1px; padding-top: 532px; margin-left: 488px;"><div style="box-sizing: border-box; font-size: 0; text-align: center; color: #AD1457; "><div style="display: inline-block; font-size: 10px; font-family: &quot;Helvetica&quot;; color: light-dark(#AD1457, #ff9bd5); line-height: 1.2; pointer-events: all; white-space: normal; word-wrap: normal; "><font style="font-size: 14px;"><b style="">SNS Topic pr-notifications</b><br />cifrado con CMK (alias/.../-sns)<br />policy admite codestar + events + owner</font></div></div></div></foreignObject><text x="620" y="542" fill="#AD1457" font-family="&quot;Helvetica&quot;" font-size="10px" text-anchor="middle">SNS Topic pr-notifications...</text></switch></g></g><g><rect x="807" y="380" width="280" height="50" fill="#e3f2fd" stroke="#1565c0" stroke-dasharray="3 3" pointer-events="all" style="fill: light-dark(rgb(227, 242, 253), rgb(20, 33, 42)); stroke: light-dark(rgb(21, 101, 192), rgb(99, 168, 246));"/></g><g><g transform="translate(-0.5 -0.5)"><switch><foreignObject style="overflow: visible; text-align: left;" pointer-events="none" width="100%" height="100%" requiredFeatures="http://www.w3.org/TR/SVG11/feature#Extensibility"><div xmlns="http://www.w3.org/1999/xhtml" style="display: flex; align-items: unsafe center; justify-content: unsafe center; width: 278px; height: 1px; padding-top: 405px; margin-left: 808px;"><div style="box-sizing: border-box; font-size: 0; text-align: center; color: #0D47A1; "><div style="display: inline-block; font-size: 10px; font-family: &quot;Helvetica&quot;; color: light-dark(#0D47A1, #88baff); line-height: 1.2; pointer-events: all; white-space: normal; word-wrap: normal; "><font style="font-size: 14px;">📨 HTTPS subscription<br />Slack/Teams webhook · 3 reintentos</font></div></div></div></foreignObject><text x="947" y="408" fill="#0D47A1" font-family="&quot;Helvetica&quot;" font-size="10px" text-anchor="middle">📨 HTTPS subscription...</text></switch></g></g><g><rect x="807" y="440" width="280" height="50" fill="#e3f2fd" stroke="#1565c0" stroke-dasharray="3 3" pointer-events="all" style="fill: light-dark(rgb(227, 242, 253), rgb(20, 33, 42)); stroke: light-dark(rgb(21, 101, 192), rgb(99, 168, 246));"/></g><g><g transform="translate(-0.5 -0.5)"><switch><foreignObject style="overflow: visible; text-align: left;" pointer-events="none" width="100%" height="100%" requiredFeatures="http://www.w3.org/TR/SVG11/feature#Extensibility"><div xmlns="http://www.w3.org/1999/xhtml" style="display: flex; align-items: unsafe center; justify-content: unsafe center; width: 278px; height: 1px; padding-top: 465px; margin-left: 808px;"><div style="box-sizing: border-box; font-size: 0; text-align: center; color: #0D47A1; "><div style="display: inline-block; font-size: 10px; font-family: &quot;Helvetica&quot;; color: light-dark(#0D47A1, #88baff); line-height: 1.2; pointer-events: all; white-space: normal; word-wrap: normal; "><font style="font-size: 14px;">📧 Email subscription<br />requiere confirmación manual</font></div></div></div></foreignObject><text x="947" y="468" fill="#0D47A1" font-family="&quot;Helvetica&quot;" font-size="10px" text-anchor="middle">📧 Email subscription...</text></switch></g></g><g><rect x="1167" y="460" width="250" height="115" fill="#ffffff" stroke="#ad1457" stroke-dasharray="3 3" pointer-events="all" style="fill: light-dark(rgb(255, 255, 255), rgb(18, 18, 18)); stroke: light-dark(rgb(173, 20, 87), rgb(255, 155, 213));"/></g><g><g transform="translate(-0.5 -0.5)"><switch><foreignObject style="overflow: visible; text-align: left;" pointer-events="none" width="100%" height="100%" requiredFeatures="http://www.w3.org/TR/SVG11/feature#Extensibility"><div xmlns="http://www.w3.org/1999/xhtml" style="display: flex; align-items: unsafe center; justify-content: unsafe center; width: 248px; height: 1px; padding-top: 518px; margin-left: 1168px;"><div style="box-sizing: border-box; font-size: 0; text-align: center; color: #AD1457; "><div style="display: inline-block; font-size: 10px; font-family: &quot;Helvetica&quot;; color: light-dark(#AD1457, #ff9bd5); line-height: 1.2; pointer-events: all; white-space: normal; word-wrap: normal; "><font style="font-size: 14px;"><b style="">CloudWatch Log Group</b><br />/aws/cloudtrail/lab41 </font><div><font style="font-size: 14px;">(alimentado por CloudTrail)<br />metric filter: <b>OverridePullRequestApprovalRules </b>→ namespace Lab41/Governance</font></div></div></div></div></foreignObject><text x="1292" y="521" fill="#AD1457" font-family="&quot;Helvetica&quot;" font-size="10px" text-anchor="middle">CloudWatch Log Group...</text></switch></g></g><g><rect x="807" y="510" width="290" height="65" fill="#ffebee" stroke="#c62828" pointer-events="all" style="fill: light-dark(rgb(255, 235, 238), rgb(44, 27, 30)); stroke: light-dark(rgb(198, 40, 40), rgb(255, 145, 145));"/></g><g><g transform="translate(-0.5 -0.5)"><switch><foreignObject style="overflow: visible; text-align: left;" pointer-events="none" width="100%" height="100%" requiredFeatures="http://www.w3.org/TR/SVG11/feature#Extensibility"><div xmlns="http://www.w3.org/1999/xhtml" style="display: flex; align-items: unsafe center; justify-content: unsafe center; width: 288px; height: 1px; padding-top: 543px; margin-left: 808px;"><div style="box-sizing: border-box; font-size: 0; text-align: center; color: #B71C1C; "><div style="display: inline-block; font-size: 10px; font-family: &quot;Helvetica&quot;; color: light-dark(#B71C1C, #ff9c9c); line-height: 1.2; pointer-events: all; white-space: normal; word-wrap: normal; "><font style="font-size: 14px;"><b style="">CloudWatch Alarm</b><br />ApprovalRuleOverrideCount &gt; 0 → SNS<br />cualquier override es anómalo</font></div></div></div></foreignObject><text x="952" y="546" fill="#B71C1C" font-family="&quot;Helvetica&quot;" font-size="10px" text-anchor="middle">CloudWatch Alarm...</text></switch></g></g><g><path d="M 308.47 200 L 283.16 274.21" fill="none" stroke="#5c2ea0" stroke-width="2" stroke-miterlimit="10" pointer-events="stroke" style="stroke: light-dark(rgb(92, 46, 160), rgb(207, 167, 255));"/><path d="M 281.22 279.88 L 280.02 271.02 L 283.16 274.21 L 287.59 273.6 Z" fill="#5c2ea0" stroke="#5c2ea0" stroke-width="2" stroke-miterlimit="10" pointer-events="all" style="fill: light-dark(rgb(92, 46, 160), rgb(207, 167, 255)); stroke: light-dark(rgb(92, 46, 160), rgb(207, 167, 255));"/></g><g><g transform="translate(-0.5 -0.5)"><switch><foreignObject style="overflow: visible; text-align: left;" pointer-events="none" width="100%" height="100%" requiredFeatures="http://www.w3.org/TR/SVG11/feature#Extensibility"><div xmlns="http://www.w3.org/1999/xhtml" style="display: flex; align-items: unsafe center; justify-content: unsafe center; width: 1px; height: 1px; padding-top: 241px; margin-left: 295px;"><div style="box-sizing: border-box; font-size: 0; text-align: center; color: #5C2EA0; background-color: #ffffff; "><div style="display: inline-block; font-size: 10px; font-family: &quot;Helvetica&quot;; color: light-dark(#5C2EA0, #cfa7ff); line-height: 1.2; pointer-events: all; background-color: light-dark(#ffffff, var(--ge-dark-color, #121212)); white-space: nowrap; "><font style="font-size: 12px;">push feature<br />create PR</font></div></div></div></foreignObject><text x="295" y="244" fill="#5C2EA0" font-family="&quot;Helvetica&quot;" font-size="10px" text-anchor="middle">push feature...</text></switch></g></g><g><path d="M 137 200 L 244.8 277.2" fill="none" stroke="#5c2ea0" stroke-width="2" stroke-miterlimit="10" stroke-dasharray="6 6" pointer-events="stroke" style="stroke: light-dark(rgb(92, 46, 160), rgb(207, 167, 255));"/><path d="M 249.68 280.7 L 240.85 279.29 L 244.8 277.2 L 245.51 272.79 Z" fill="#5c2ea0" stroke="#5c2ea0" stroke-width="2" stroke-miterlimit="10" pointer-events="all" style="fill: light-dark(rgb(92, 46, 160), rgb(207, 167, 255)); stroke: light-dark(rgb(92, 46, 160), rgb(207, 167, 255));"/></g><g><g transform="translate(-0.5 -0.5)"><switch><foreignObject style="overflow: visible; text-align: left;" pointer-events="none" width="100%" height="100%" requiredFeatures="http://www.w3.org/TR/SVG11/feature#Extensibility"><div xmlns="http://www.w3.org/1999/xhtml" style="display: flex; align-items: unsafe center; justify-content: unsafe center; width: 1px; height: 1px; padding-top: 241px; margin-left: 194px;"><div style="box-sizing: border-box; font-size: 0; text-align: center; color: #5C2EA0; background-color: #ffffff; "><div style="display: inline-block; font-size: 10px; font-family: &quot;Helvetica&quot;; color: light-dark(#5C2EA0, #cfa7ff); line-height: 1.2; pointer-events: all; background-color: light-dark(#ffffff, var(--ge-dark-color, #121212)); white-space: nowrap; "><font style="font-size: 12px;">approve PR</font></div></div></div></foreignObject><text x="194" y="244" fill="#5C2EA0" font-family="&quot;Helvetica&quot;" font-size="10px" text-anchor="middle">approve PR</text></switch></g></g><g><path d="M 237 311 L 47 310 L 47 455 L 78.76 455" fill="none" stroke="#2e7d32" stroke-width="2" stroke-miterlimit="10" pointer-events="stroke" style="stroke: light-dark(rgb(46, 125, 50), rgb(100, 168, 104));"/><path d="M 84.76 455 L 76.76 459 L 78.76 455 L 76.76 451 Z" fill="#2e7d32" stroke="#2e7d32" stroke-width="2" stroke-miterlimit="10" pointer-events="all" style="fill: light-dark(rgb(46, 125, 50), rgb(100, 168, 104)); stroke: light-dark(rgb(46, 125, 50), rgb(100, 168, 104));"/></g><g><g transform="translate(-0.5 -0.5)"><switch><foreignObject style="overflow: visible; text-align: left;" pointer-events="none" width="100%" height="100%" requiredFeatures="http://www.w3.org/TR/SVG11/feature#Extensibility"><div xmlns="http://www.w3.org/1999/xhtml" style="display: flex; align-items: unsafe center; justify-content: unsafe center; width: 1px; height: 1px; padding-top: 309px; margin-left: 120px;"><div style="box-sizing: border-box; font-size: 0; text-align: center; color: #000000; background-color: #ffffff; "><div style="display: inline-block; font-size: 11px; font-family: &quot;Helvetica&quot;; color: light-dark(#000000, #ffffff); line-height: 1.2; pointer-events: all; background-color: light-dark(#ffffff, var(--ge-dark-color, #121212)); white-space: nowrap; "><font style="font-size: 12px;">Trigger</font></div></div></div></foreignObject><text x="120" y="312" fill="light-dark(#000000, #ffffff)" font-family="&quot;Helvetica&quot;" font-size="11px" text-anchor="middle">Trigger</text></switch></g></g><g><path d="M 237 296.5 L 17 297 L 17 540 L 78.76 540" fill="none" stroke="#2e7d32" stroke-width="2" stroke-miterlimit="10" pointer-events="stroke" style="stroke: light-dark(rgb(46, 125, 50), rgb(100, 168, 104));"/><path d="M 84.76 540 L 76.76 544 L 78.76 540 L 76.76 536 Z" fill="#2e7d32" stroke="#2e7d32" stroke-width="2" stroke-miterlimit="10" pointer-events="all" style="fill: light-dark(rgb(46, 125, 50), rgb(100, 168, 104)); stroke: light-dark(rgb(46, 125, 50), rgb(100, 168, 104));"/></g><g><g transform="translate(-0.5 -0.5)"><switch><foreignObject style="overflow: visible; text-align: left;" pointer-events="none" width="100%" height="100%" requiredFeatures="http://www.w3.org/TR/SVG11/feature#Extensibility"><div xmlns="http://www.w3.org/1999/xhtml" style="display: flex; align-items: unsafe center; justify-content: unsafe center; width: 1px; height: 1px; padding-top: 395px; margin-left: 16px;"><div style="box-sizing: border-box; font-size: 0; text-align: center; color: #000000; background-color: #ffffff; "><div style="display: inline-block; font-size: 11px; font-family: &quot;Helvetica&quot;; color: light-dark(#000000, #ffffff); line-height: 1.2; pointer-events: all; background-color: light-dark(#ffffff, var(--ge-dark-color, #121212)); white-space: nowrap; "><font style="font-size: 12px;">Event</font></div></div></div></foreignObject><text x="16" y="399" fill="light-dark(#000000, #ffffff)" font-family="&quot;Helvetica&quot;" font-size="11px" text-anchor="middle">Event</text></switch></g></g><g><path d="M 467 455 L 569.79 463.33" fill="none" stroke="#ad1457" stroke-width="2" stroke-miterlimit="10" pointer-events="stroke" style="stroke: light-dark(rgb(173, 20, 87), rgb(255, 155, 213));"/><path d="M 575.77 463.82 L 567.47 467.16 L 569.79 463.33 L 568.12 459.19 Z" fill="#ad1457" stroke="#ad1457" stroke-width="2" stroke-miterlimit="10" pointer-events="all" style="fill: light-dark(rgb(173, 20, 87), rgb(255, 155, 213)); stroke: light-dark(rgb(173, 20, 87), rgb(255, 155, 213));"/></g><g><g transform="translate(-0.5 -0.5)"><switch><foreignObject style="overflow: visible; text-align: left;" pointer-events="none" width="100%" height="100%" requiredFeatures="http://www.w3.org/TR/SVG11/feature#Extensibility"><div xmlns="http://www.w3.org/1999/xhtml" style="display: flex; align-items: unsafe center; justify-content: unsafe center; width: 1px; height: 1px; padding-top: 460px; margin-left: 523px;"><div style="box-sizing: border-box; font-size: 0; text-align: center; color: #AD1457; background-color: #ffffff; "><div style="display: inline-block; font-size: 10px; font-family: &quot;Helvetica&quot;; color: light-dark(#AD1457, #ff9bd5); line-height: 1.2; pointer-events: all; background-color: light-dark(#ffffff, var(--ge-dark-color, #121212)); white-space: nowrap; "><font style="font-size: 12px;">Publish</font></div></div></div></foreignObject><text x="523" y="463" fill="#AD1457" font-family="&quot;Helvetica&quot;" font-size="10px" text-anchor="middle">Publish</text></switch></g></g><g><path d="M 467 529.99 L 570.09 500.28" fill="none" stroke="#ad1457" stroke-width="2" stroke-miterlimit="10" pointer-events="stroke" style="stroke: light-dark(rgb(173, 20, 87), rgb(255, 155, 213));"/><path d="M 575.85 498.62 L 569.27 504.68 L 570.09 500.28 L 567.06 496.99 Z" fill="#ad1457" stroke="#ad1457" stroke-width="2" stroke-miterlimit="10" pointer-events="all" style="fill: light-dark(rgb(173, 20, 87), rgb(255, 155, 213)); stroke: light-dark(rgb(173, 20, 87), rgb(255, 155, 213));"/></g><g><g transform="translate(-0.5 -0.5)"><switch><foreignObject style="overflow: visible; text-align: left;" pointer-events="none" width="100%" height="100%" requiredFeatures="http://www.w3.org/TR/SVG11/feature#Extensibility"><div xmlns="http://www.w3.org/1999/xhtml" style="display: flex; align-items: unsafe center; justify-content: unsafe center; width: 1px; height: 1px; padding-top: 514px; margin-left: 523px;"><div style="box-sizing: border-box; font-size: 0; text-align: center; color: #AD1457; background-color: #ffffff; "><div style="display: inline-block; font-size: 10px; font-family: &quot;Helvetica&quot;; color: light-dark(#AD1457, #ff9bd5); line-height: 1.2; pointer-events: all; background-color: light-dark(#ffffff, var(--ge-dark-color, #121212)); white-space: nowrap; "><font style="font-size: 12px;">Publish</font></div></div></div></foreignObject><text x="523" y="517" fill="#AD1457" font-family="&quot;Helvetica&quot;" font-size="10px" text-anchor="middle">Publish</text></switch></g></g><g><path d="M 642 465 L 799.26 407.81" fill="none" stroke="#1565c0" stroke-width="2" stroke-miterlimit="10" stroke-dasharray="6 6" pointer-events="stroke" style="stroke: light-dark(rgb(21, 101, 192), rgb(99, 168, 246));"/><path d="M 804.9 405.76 L 798.75 412.26 L 799.26 407.81 L 796.01 404.74 Z" fill="#1565c0" stroke="#1565c0" stroke-width="2" stroke-miterlimit="10" pointer-events="all" style="fill: light-dark(rgb(21, 101, 192), rgb(99, 168, 246)); stroke: light-dark(rgb(21, 101, 192), rgb(99, 168, 246));"/></g><g><path d="M 642 495 L 798.9 466.47" fill="none" stroke="#1565c0" stroke-width="2" stroke-miterlimit="10" stroke-dasharray="6 6" pointer-events="stroke" style="stroke: light-dark(rgb(21, 101, 192), rgb(99, 168, 246));"/><path d="M 804.8 465.4 L 797.64 470.77 L 798.9 466.47 L 796.21 462.9 Z" fill="#1565c0" stroke="#1565c0" stroke-width="2" stroke-miterlimit="10" pointer-events="all" style="fill: light-dark(rgb(21, 101, 192), rgb(99, 168, 246)); stroke: light-dark(rgb(21, 101, 192), rgb(99, 168, 246));"/></g><g><path d="M 807 542.5 L 650.03 506.83" fill="none" stroke="#c62828" stroke-width="2" stroke-miterlimit="10" stroke-dasharray="6 6" pointer-events="stroke" style="stroke: light-dark(rgb(198, 40, 40), rgb(255, 145, 145));"/><path d="M 644.18 505.5 L 652.87 503.37 L 650.03 506.83 L 651.09 511.17 Z" fill="#c62828" stroke="#c62828" stroke-width="2" stroke-miterlimit="10" pointer-events="all" style="fill: light-dark(rgb(198, 40, 40), rgb(255, 145, 145)); stroke: light-dark(rgb(198, 40, 40), rgb(255, 145, 145));"/></g><g><g transform="translate(-0.5 -0.5)"><switch><foreignObject style="overflow: visible; text-align: left;" pointer-events="none" width="100%" height="100%" requiredFeatures="http://www.w3.org/TR/SVG11/feature#Extensibility"><div xmlns="http://www.w3.org/1999/xhtml" style="display: flex; align-items: unsafe center; justify-content: unsafe center; width: 1px; height: 1px; padding-top: 525px; margin-left: 727px;"><div style="box-sizing: border-box; font-size: 0; text-align: center; color: #000000; background-color: #ffffff; "><div style="display: inline-block; font-size: 11px; font-family: &quot;Helvetica&quot;; color: light-dark(#000000, #ffffff); line-height: 1.2; pointer-events: all; background-color: light-dark(#ffffff, var(--ge-dark-color, #121212)); white-space: nowrap; "><font style="font-size: 12px;">Notificación</font></div></div></div></foreignObject><text x="727" y="528" fill="light-dark(#000000, #ffffff)" font-family="&quot;Helvetica&quot;" font-size="11px" text-anchor="middle">Notificación</text></switch></g></g><g><rect x="67" y="620" width="1320" height="80" fill="none" stroke="none" pointer-events="all"/></g><g><g transform="translate(-0.5 -0.5)"><switch><foreignObject style="overflow: visible; text-align: left;" pointer-events="none" width="100%" height="100%" requiredFeatures="http://www.w3.org/TR/SVG11/feature#Extensibility"><div xmlns="http://www.w3.org/1999/xhtml" style="display: flex; align-items: unsafe center; justify-content: unsafe center; width: 1318px; height: 1px; padding-top: 660px; margin-left: 68px;"><div style="box-sizing: border-box; font-size: 0; text-align: center; color: #555555; "><div style="display: inline-block; font-size: 11px; font-family: &quot;Helvetica&quot;; color: light-dark(#555555, #a4a4a4); line-height: 1.2; pointer-events: all; font-style: italic; white-space: normal; word-wrap: normal; "><font style="font-size: 14px;"><b style="">Defensa en profundidad para gobernanza:</b> (1) IAM <b style="">preventiva</b> — la API de CodeCommit ni siquiera acepta el push. (2) Approval Rule de <b style="">proceso</b> — bloquea el botón Merge hasta que el pool aprueba (acepta sólo <code style="">assumed-role/.../*</code>, no role ARNs). (3) Notificaciones <b style="">reactivas</b> — incluso si alguien con privilegios saltara las dos primeras capas (override), el SNS + alarma deja traza auditada en CloudTrail.</font></div></div></div></foreignObject><text x="727" y="663" fill="#555555" font-family="&quot;Helvetica&quot;" font-size="11px" text-anchor="middle" font-style="italic">Defensa en profundidad para gobernanza: (1) IAM preventiva — la API de CodeCommit ni siquiera acepta el push. (2) Approval Rule de proceso — bloquea el botón Merge hasta que el pool aprueba (acepta sólo assumed-role/.../*, no role ARNs). (3)...</text></switch></g></g><g><path d="M 578 447 L 646 447 L 646 515 L 578 515 Z" fill="#e7157b" stroke="none" pointer-events="all" style="fill: light-dark(rgb(231, 21, 123), rgb(255, 129, 217));"/><path d="M 588.76 479.02 C 589.85 479.02 590.73 479.91 590.73 481 C 590.73 482.09 589.85 482.98 588.76 482.98 C 587.67 482.98 586.78 482.09 586.78 481 C 586.78 479.91 587.67 479.02 588.76 479.02 Z M 612.49 504.74 C 600.94 504.74 591.02 496.3 588.95 484.94 C 590.7 484.85 592.15 483.63 592.57 481.99 L 598.65 481.99 L 598.65 480.01 L 592.57 480.01 C 592.15 478.37 590.7 477.15 588.95 477.06 C 591.02 465.88 601.13 457.26 612.49 457.26 C 616.76 457.26 621.23 458.87 625.78 462.03 L 626.91 460.41 C 622.02 457.01 617.17 455.28 612.49 455.28 C 599.9 455.28 588.71 465.04 586.84 477.56 C 585.63 478.24 584.8 479.52 584.8 481 C 584.8 482.48 585.63 483.76 586.84 484.44 C 588.73 497.16 599.69 506.72 612.49 506.72 C 617.84 506.72 623.32 504.89 627.91 501.58 L 626.75 499.98 C 622.49 503.05 617.43 504.74 612.49 504.74 Z M 601.71 477.48 C 603.55 477.93 605.84 478.03 607.55 478.03 C 609.17 478.03 611.33 477.94 613.12 477.54 L 608.64 486.49 C 608.57 486.63 608.54 486.78 608.54 486.93 L 608.54 491.34 C 607.75 491.84 606.39 492.68 605.57 492.86 L 605.57 486.93 C 605.57 486.8 605.55 486.67 605.49 486.55 Z M 607.55 474.08 C 611.53 474.08 613.66 474.67 614.32 475.07 C 613.66 475.46 611.53 476.05 607.55 476.05 C 603.57 476.05 601.44 475.46 600.78 475.07 C 601.44 474.67 603.57 474.08 607.55 474.08 Z M 604.58 494.85 L 605.57 494.85 C 605.61 494.85 605.66 494.84 605.7 494.84 C 606.91 494.68 608.45 493.75 609.8 492.88 L 610.06 492.72 C 610.34 492.53 610.52 492.22 610.52 491.88 L 610.52 487.17 L 616.01 476.17 C 616.29 475.86 616.45 475.49 616.45 475.07 C 616.45 472.48 610.87 472.1 607.55 472.1 C 604.22 472.1 598.65 472.48 598.65 475.07 C 598.65 475.43 598.77 475.74 598.96 476.02 L 603.59 487.13 L 603.59 493.86 C 603.59 494.4 604.03 494.85 604.58 494.85 Z M 633.27 493.86 C 634.36 493.86 635.24 494.75 635.24 495.84 C 635.24 496.93 634.36 497.81 633.27 497.81 C 632.17 497.81 631.29 496.93 631.29 495.84 C 631.29 494.75 632.17 493.86 633.27 493.86 Z M 633.27 464.19 C 634.36 464.19 635.24 465.07 635.24 466.16 C 635.24 467.25 634.36 468.14 633.27 468.14 C 632.17 468.14 631.29 467.25 631.29 466.16 C 631.29 465.07 632.17 464.19 633.27 464.19 Z M 635.24 479.02 C 636.33 479.02 637.22 479.91 637.22 481 C 637.22 482.09 636.33 482.98 635.24 482.98 C 634.15 482.98 633.27 482.09 633.27 481 C 633.27 479.91 634.15 479.02 635.24 479.02 Z M 625.35 481.99 L 631.43 481.99 C 631.87 483.69 633.41 484.96 635.24 484.96 C 637.43 484.96 639.2 483.18 639.2 481 C 639.2 478.82 637.43 477.04 635.24 477.04 C 633.41 477.04 631.87 478.31 631.43 480.01 L 625.35 480.01 L 625.35 467.15 L 629.45 467.15 C 629.89 468.85 631.43 470.12 633.27 470.12 C 635.45 470.12 637.22 468.35 637.22 466.16 C 637.22 463.98 635.45 462.21 633.27 462.21 C 631.43 462.21 629.89 463.47 629.45 465.17 L 624.36 465.17 C 623.82 465.17 623.37 465.62 623.37 466.16 L 623.37 480.01 L 616.45 480.01 L 616.45 481.99 L 623.37 481.99 L 623.37 495.84 C 623.37 496.38 623.82 496.83 624.36 496.83 L 629.45 496.83 C 629.89 498.53 631.43 499.79 633.27 499.79 C 635.45 499.79 637.22 498.02 637.22 495.84 C 637.22 493.65 635.45 491.88 633.27 491.88 C 631.43 491.88 629.89 493.15 629.45 494.85 L 625.35 494.85 Z" fill="#ffffff" stroke="none" pointer-events="all" style="fill: light-dark(rgb(255, 255, 255), rgb(18, 18, 18));"/></g><g><path d="M 237 282 L 295 282 L 295 340 L 237 340 Z" fill="#c925d1" stroke="none" pointer-events="all" style="fill: light-dark(rgb(201, 37, 209), rgb(255, 124, 255));"/><path d="M 254.71 301.32 L 253.07 301.32 L 253.07 295.63 C 253.07 295.18 253.36 294.83 253.82 294.83 L 259.64 294.82 L 259.64 296.45 L 255.78 296.45 L 259.74 300.37 L 258.57 301.54 L 254.65 297.69 Z M 277.56 310.16 L 279.08 310.84 L 273.75 322.6 L 272.23 321.92 Z M 278.62 318.7 L 281.88 316.35 L 279.01 313.47 L 280.2 312.32 L 283.75 315.88 C 283.92 316.05 284.01 316.28 283.99 316.52 C 283.97 316.76 283.84 316.98 283.65 317.12 L 279.61 320.03 Z M 271.26 311.54 L 272.24 312.87 L 268.94 315.26 L 271.82 318.13 L 270.64 319.29 L 267.07 315.73 C 266.9 315.56 266.82 315.33 266.84 315.09 C 266.85 314.85 266.98 314.63 267.18 314.49 Z M 289.2 298.08 L 289.2 332.97 C 289.2 333.42 288.83 333.79 288.37 333.79 L 262.92 333.79 C 262.7 333.79 262.49 333.71 262.33 333.55 C 262.18 333.4 262.1 333.2 262.1 332.98 L 262.1 323.24 L 263.74 323.24 L 263.74 332.17 L 287.56 332.17 L 287.56 298.88 L 263.74 298.88 L 263.74 297.26 L 288.37 297.26 C 288.83 297.26 289.2 297.63 289.2 298.08 Z M 260.04 306.59 C 260.04 305.03 261.33 303.75 262.92 303.75 C 264.51 303.75 265.8 305.03 265.8 306.59 C 265.8 308.16 264.51 309.44 262.92 309.44 C 261.33 309.44 260.04 308.16 260.04 306.59 Z M 247.32 332.17 C 245.73 332.17 244.44 330.9 244.44 329.33 C 244.44 327.76 245.73 326.48 247.32 326.48 C 248.9 326.48 250.19 327.76 250.19 329.33 C 250.19 330.9 248.9 332.17 247.32 332.17 Z M 244.44 313.09 C 244.44 311.52 245.73 310.24 247.32 310.24 C 248.93 310.24 250.19 311.49 250.19 313.09 C 250.19 314.66 248.9 315.93 247.32 315.93 C 245.73 315.93 244.44 314.66 244.44 313.09 Z M 244.44 292.67 C 244.44 291.11 245.73 289.83 247.32 289.83 C 248.9 289.83 250.19 291.11 250.19 292.67 C 250.19 294.24 248.9 295.51 247.32 295.51 C 245.73 295.51 244.44 294.24 244.44 292.67 Z M 263.74 316.9 L 263.74 310.98 C 265.83 310.59 267.43 308.77 267.43 306.59 C 267.43 304.13 265.41 302.13 262.92 302.13 C 260.43 302.13 258.41 304.13 258.41 306.59 C 258.41 308.77 260.01 310.59 262.1 310.98 L 262.1 316.9 C 262.1 317.85 261.46 318.71 260.49 319.09 L 251.98 322.42 C 250.62 322.96 249.62 324.01 249.18 325.27 C 248.83 325.11 248.53 325 248.14 324.93 L 248.14 317.49 C 250.27 317.13 251.83 315.3 251.83 313.09 C 251.83 310.84 250.3 309.04 248.14 308.7 L 248.14 297.07 C 250.28 296.72 251.83 294.88 251.83 292.67 C 251.83 290.21 249.81 288.21 247.32 288.21 C 244.83 288.21 242.8 290.21 242.8 292.67 C 242.8 294.82 244.45 296.62 246.5 297.04 L 246.5 308.72 C 244.45 309.14 242.8 310.94 242.8 313.09 C 242.8 315.24 244.45 317.03 246.5 317.46 L 246.5 324.96 C 244.45 325.38 242.8 327.18 242.8 329.33 C 242.8 331.79 244.83 333.79 247.32 333.79 C 249.8 333.79 251.83 331.79 251.83 329.33 C 251.83 328.17 251.38 327.12 250.64 326.32 C 250.78 325.29 251.51 324.38 252.59 323.96 L 261.1 320.62 C 262.71 319.99 263.74 318.53 263.74 316.9 Z" fill="#ffffff" stroke="none" pointer-events="all" style="fill: light-dark(rgb(255, 255, 255), rgb(18, 18, 18));"/></g><g><path d="M 1167 546.25 L 1105.22 542.94" fill="none" stroke="#c62828" stroke-width="2" stroke-miterlimit="10" stroke-dasharray="6 6" pointer-events="stroke" style="stroke: light-dark(rgb(198, 40, 40), rgb(255, 145, 145));"/><path d="M 1099.23 542.62 L 1107.44 539.05 L 1105.22 542.94 L 1107.01 547.04 Z" fill="#c62828" stroke="#c62828" stroke-width="2" stroke-miterlimit="10" pointer-events="all" style="fill: light-dark(rgb(198, 40, 40), rgb(255, 145, 145)); stroke: light-dark(rgb(198, 40, 40), rgb(255, 145, 145));"/></g></g><switch><g requiredFeatures="http://www.w3.org/TR/SVG11/feature#Extensibility"/><a transform="translate(0,-5)" xlink:href="https://www.drawio.com/doc/faq/svg-export-text-problems" target="_blank"><text text-anchor="middle" font-size="10px" x="50%" y="100%">Text is not SVG - cannot display</text></a></switch></svg>