<svg xmlns="http://www.w3.org/2000/svg" style="background: transparent; background-color: transparent;" xmlns:xlink="http://www.w3.org/1999/xlink" version="1.1" width="1462px" height="855px" viewBox="-0.5 -0.5 1462 855" content="&lt;mxfile&gt;&lt;diagram name=&quot;Arquitectura Lab-10&quot; id=&quot;lab10-arch&quot;&gt;7Vtbc9u2Ev41mkkyYw1vkuxH6pa4cROP5cSnTxqIhCQ0JMGSoCz1ob/97IJ3ErJlm8o5M03TsUjcgf12sTf2zIm//xiRcPs7d6nXMzR33zOnPcMwdEuDHyw5pCUDzUgLNhFz0yK9LFiwv2lWmPXbJMylca2h4NwTLKwXOjwIqCNqZSSK+GO92Zp79VlDsqGtgoVDvHbpA3PFNisdaFpZ8YmyzTab+iqv8EneOCuIt8Tlj5Uic9YzJxHnIn3y9xPq4eHl55L2mx+pLRYW0UCc0kEwAZuSnXbES7L93ZDVhTZaQWFvZvQutd6VBc+fJrfw955GEVnzyJfn63P4WRHnBw1ceFoQssBexhj+0j+pkzisNzF7YzOAgoj6XJCi/uv1dAI/00NAfObA0ySiLqybES+Gty1xGDa2HxbZWYlDTgBB97C98Vb4HhTo8Eg8tgng2YEBaAQFOxoJBiSzswqfuS52Hz9umaCLkDg41iMAFMrWPBAZzPTL/D2bTs/eJ9zjkZzehH9zPM9x+7gzCuDsdF8pyo7/I+U+FdEBmmS1OS8cchClr48VXFk5WrYVTJlZQ5JheVOMXJIbHjKKq6nv0l2L9r05kHveu9J7NhJ9SnfU4yEcqTH08MxX+LTBJ1FBQuiRQBJ2jksKQ+/Qbv8OeNalSMgEGZZGPguI975F3IgngUvd7OhV5KrQfc08r0KZ0dgyxhMoj0XEf9BKzWBizGytqMn51mhQ31BQ/3RsNXAyl/+9EScZMMwcBBVkGJoCGHpe+BZkOB5P3LHHnR9tgGSExb3WCDf8K+F5xUUsz9OGBroV7uUR5PUq/PRG4zZg4Jf4SO9gFYeKd7nI13Z+7p1HGxKwv4lgXCIbd6iVm+j3+7UddTz7I49+xAj6ON+fBlKSKhbikRWI6osw4m51QdBp+oplKTuVhQCblOz5cEdZV3sx6xbM0mLdBlPnrItjuCTeFqKiysdahW89uhZPcS0eNAs2N7JZKQJUwqMDRrYsBSOPVIxsdMDIWycc832Lidt3+Tu8u99LaGm9idEbj9JnEOb9glP7jHcqruEWHcwHKpoPbX18ZbdobjbIbL1GXAsellS/x5cULw0cDNo4sGzdupx0c/Gbl/Wb/7INi6FKvo/0DmAB0k0Fi85k+9dMelbVvwawClBdgAiLLwpRJBdgTyb3RcmmKmP/NyLoCByfFEFPqRJHRJICmZcnCagugWnpDZXUaOukA0upknaAzMf4Vl5l50Jmcb/lBQ/5VQu96pdpjrdVq29xN872YONkKoLP3fKCvkNbh7Y7fCcRIysPrVdc5v18sgQDZ3l79/X79XR2t7S/3X9q98qb3X37srz7ejNb2ndfiqlIBNCxCRq1NiM+Diz/jziadvNUU2muOxZgeKZrAGTEsAN8N9AgS7U+0DcE2/F217sEN7tlseASNakx57L1Gm2+QES0HBPVl5ey7ctvkZk+ns1GL2Tb8ykLnfKi2eDFUfuWGCitgC7sw8d4qrIQfyYrShNVxYnaOx46CFtPcptAR4T5vg1Xn8XSSeGkF5HLNhnMXUAwCwSJ5e5yrjTmIRqmMf+F3G6Rq7JflcgddqP1gpgK0Gvx08CbqtSpdCQbKhGjwm3VpSZdZJlLLG3syEvkmINlXnOtwHu1eS/3sPmo+CqE/tdEhEm664gSH7CAS5W8Bn++XRcOnMkNPmde29wB1H85Q7xKA5uqGWI+nmjG9EUM8WJ/zWBqaeboTPi/UmhRKvwPOhDcnLnOgjqpYnI2Hf9p/21D3Y8ZMobtODTG2s/0gD80FiiXbR3p8wqR+xqEzUDmqhA2GRqXxuX/r44/HukT/Uw6foHE53T8TsSzhKegYXw+cOr9QhhT/JNK55h7zGFS4Mqq3x7AytTWLPKl9quFcNYql4f2jiQuo4FTKvigb/fRS+dx4vaZxL04KPQPAxfi8GDNNklEL6DbhVPjExrsJAtMcVVS5KarwtfF/ULu863uxVigcWDHceLTOzALHpjYPtDVdbbsdIUVc6RuZzRnN/vZ0iTpmEvyM8QC3FImGSrDg023g0PC033328Nn7BpKhcxeAUW4vGdSKimO0FLM53iE+TgXSV3A0giJk1W+hPsoiRFBt0jxQ3GbgU2EC7N/b88yKGeBOy+h3g5XlNLKAVpJV6ygPmAke3l3f38DP//oW8WihzhcLVgGd668op0kkuplGtnKTp7GUhFtTFfVFYIkcIhEJzC+Qwtke3wTKxHSKPmC9708cuwVU5hKKs1Ib3symS0Wy8+zP5bXU1mLE3k+yNSAVFjoZ+kAR7wwT0jo8ynFnYrdhlIwUPiClUqB0YXTD2SPyumXwnCSB1Pq13YSX1ASiwu9U7tnbuM/FYmL0OrTYbqf7PftMuCra8M6CBSOX0tpGFkdYIARv5TFrcu3QeL4BxXONmNingiPBUCrPKdCe+KcNhHB+7KoC3hA2zCYTk3Lakdrs8aF0qVVaHlDVtS75TGTuq05XXEhuH+U2C1MVDFZwZPewJMUIXGYbnTN9riOccgZjjLbwWBxNki8JSF28PcbzHXpA49ZhTqwJFLdXfokAIsQzbIlnP8SHXPxkgSHxy2NaFeoaoQTdLMNq+GZzO0KqG5W3tktDqVe0bzukshLR2trc82mjsckadysg0qzO/XiO56Z8txN9FxeioLdbF0fGm/NL8hr9WETQG2DVRmn7MJgBQTdcUUm0i+R1JFIksGA80ga0GpOkjSW1RlOziplpHWgpXDEoyK9zHxsRWXqNkYqPBrmiMp6q6WWyAaVyCdUNgKfph1G/E9J90bbsNWyPVmRSQK11fCWaUdJsAy3JMaaI+7Ff4moMxQRTiP311UhfNnBZYm2+C8xdyYxB4e7JB40DYjoTN5dNTy5pn6SvBtddgKWs8q61PaTXo+m4HjCW9Rquri2P3z4UAi+BSi9AJJ7QFZQ+kkqbpJ/j2gxLaP/E/WoXehMaejxA7DN2UDz/VamCcjLpO0x0LW+/AdL1YenOKYWySqguKKKR5DkA+lyIMNqd7tGiZB2/AjM/kgUwLwD0Ym3+D0GdxGJ5drkstG9Nuxd4UFdf3w4GZ5vcn0Y88t5Gceq1OjWaDZuh3ybro+XcEPDs2G1wV9Meg5JaQ3aNmiRJFRzb3Xh2iBRNKW7T074duQbR5BfzTjGrNgago4Zms+hiQaujR+l4GXpEZCcjsQAiUS7uIKruov11KTZJpoU8rBIdqV7Jv6TzYbPf+Bc/UH2Nt1nU8uXQ/ZyFEbUbXxTE/MkcrKi7EOENrIi6mEaUr2nCiRZ11tUFEpEGk1pPGrgLF1E1quEWmugZrJmayAg14aKJwbKG/L1Oqaihetiz6dCHXBuP56gSSrRdTqMGopiFUa1oOjpdE9PqqYLd073q0GdXMPmNxGn0l0vvqZ4IeFfQVSPbuRXVOe6tlsZK7dERHl6bmk6NtJVZNhs5fG/Ehn7VKSpNIXiseSUGKxlJpJDGlvqVb8bk3krGIzyOFxj/dzgroWgPLl5VOtl+laZOuPJYBpYs2k0NZ0JwRjxkMk6mY4jA2qIrTS4BYpBIFJFw4EDjIpPzTSfuowEorrd4kCeznl4Nt8nTYLIYm9lCLCaBcGLXcgdF+a7Ip9nwn10T8jIdRpFXJiggMvF8WnqDsiPrJblmbXOcjZ3LE6QHrixu7GNP2kcvHQdlCeu/J5PpooSJNs8otJrkn0OhjDVZECriHueHEI85zd+TaNT9cmH/K8bxagR9RtdtdUi9Ud+r/A3wGv5+WgqhcqPcM3ZfwE=&lt;/diagram&gt;&lt;/mxfile&gt;"><defs/><g><g><rect x="41" y="0" width="1420" height="35" fill="none" stroke="none" pointer-events="all"/></g><g><g transform="translate(-0.5 -0.5)"><switch><foreignObject style="overflow: visible; text-align: left;" pointer-events="none" width="100%" height="100%" requiredFeatures="http://www.w3.org/TR/SVG11/feature#Extensibility"><div xmlns="http://www.w3.org/1999/xhtml" style="display: flex; align-items: unsafe center; justify-content: unsafe center; width: 1418px; height: 1px; padding-top: 18px; margin-left: 42px;"><div style="box-sizing: border-box; font-size: 0; text-align: center; color: #232F3E; "><div style="display: inline-block; font-size: 18px; font-family: &quot;Helvetica&quot;; color: light-dark(#232F3E, #bdc7d4); line-height: 1.2; pointer-events: all; font-weight: bold; white-space: normal; word-wrap: normal; ">Lab-10 — HCP Terraform como backend SaaS + ejecución remota + OIDC Dynamic Credentials hacia AWS</div></div></div></foreignObject><text x="751" y="23" fill="#232F3E" font-family="&quot;Helvetica&quot;" font-size="18px" text-anchor="middle" font-weight="bold">Lab-10 — HCP Terraform como backend SaaS + ejecución remota + OIDC Dynamic Credentials hacia AWS</text></switch></g></g><g><rect x="1" y="305" width="200" height="100" rx="15" ry="15" fill="#7b42bc" stroke="#5c2ea0" stroke-width="2" pointer-events="all" style="fill: light-dark(rgb(123, 66, 188), rgb(193, 144, 249)); stroke: light-dark(rgb(92, 46, 160), rgb(207, 167, 255));"/></g><g><g transform="translate(-0.5 -0.5)"><switch><foreignObject style="overflow: visible; text-align: left;" pointer-events="none" width="100%" height="100%" requiredFeatures="http://www.w3.org/TR/SVG11/feature#Extensibility"><div xmlns="http://www.w3.org/1999/xhtml" style="display: flex; align-items: unsafe center; justify-content: unsafe center; width: 198px; height: 1px; padding-top: 355px; margin-left: 2px;"><div style="box-sizing: border-box; font-size: 0; text-align: center; color: #FFFFFF; "><div style="display: inline-block; font-size: 12px; font-family: &quot;Helvetica&quot;; color: light-dark(#FFFFFF, #121212); line-height: 1.2; pointer-events: all; font-weight: bold; white-space: normal; word-wrap: normal; ">👤 Developer<br />terraform plan / apply<br />(desde su terminal)</div></div></div></foreignObject><text x="101" y="359" fill="#FFFFFF" font-family="&quot;Helvetica&quot;" font-size="12px" text-anchor="middle" font-weight="bold">👤 Developer...</text></switch></g></g><g><rect x="1" y="425" width="270" height="120" fill="#ffffff" stroke="#7b42bc" stroke-dasharray="3 3" pointer-events="all" style="fill: light-dark(rgb(255, 255, 255), rgb(18, 18, 18)); stroke: light-dark(rgb(123, 66, 188), rgb(193, 144, 249));"/></g><g><g transform="translate(-0.5 -0.5)"><switch><foreignObject style="overflow: visible; text-align: left;" pointer-events="none" width="100%" height="100%" requiredFeatures="http://www.w3.org/TR/SVG11/feature#Extensibility"><div xmlns="http://www.w3.org/1999/xhtml" style="display: flex; align-items: unsafe center; justify-content: unsafe flex-start; width: 256px; height: 1px; padding-top: 485px; margin-left: 15px;"><div style="box-sizing: border-box; font-size: 0; text-align: left; color: #5C2EA0; "><div style="display: inline-block; font-size: 10px; font-family: &quot;Helvetica&quot;; color: light-dark(#5C2EA0, #cfa7ff); line-height: 1.2; pointer-events: all; white-space: normal; word-wrap: normal; "><font style="font-size: 14px;">terraform {<br />  cloud {<br />    organization = "..."<br />    workspaces { name = "lab10-prod" }<br />  }<br />}</font></div></div></div></foreignObject><text x="15" y="488" fill="#5C2EA0" font-family="&quot;Helvetica&quot;" font-size="10px">terraform {...</text></switch></g></g><g><rect x="381" y="65" width="600" height="710" rx="90" ry="90" fill="#f3e5f5" stroke="#6a1b9a" stroke-width="3" pointer-events="all" style="fill: light-dark(rgb(243, 229, 245), rgb(45, 33, 47)); stroke: light-dark(rgb(106, 27, 154), rgb(237, 169, 255));"/></g><g><g transform="translate(-0.5 -0.5)"><switch><foreignObject style="overflow: visible; text-align: left;" pointer-events="none" width="100%" height="100%" requiredFeatures="http://www.w3.org/TR/SVG11/feature#Extensibility"><div xmlns="http://www.w3.org/1999/xhtml" style="display: flex; align-items: unsafe flex-start; justify-content: unsafe center; width: 583px; height: 1px; padding-top: 82px; margin-left: 397px;"><div style="box-sizing: border-box; font-size: 0; text-align: center; color: #4A148C; "><div style="display: inline-block; font-size: 14px; font-family: &quot;Helvetica&quot;; color: light-dark(#4A148C, #e8baff); line-height: 1.2; pointer-events: all; font-weight: bold; white-space: normal; word-wrap: normal; ">HCP Terraform (SaaS)  ·  app.terraform.io</div></div></div></foreignObject><text x="689" y="96" fill="#4A148C" font-family="&quot;Helvetica&quot;" font-size="14px" text-anchor="middle" font-weight="bold">HCP Terraform (SaaS)  ·  app.terraform.io</text></switch></g></g><g><rect x="411" y="110" width="540" height="350" fill="#ffffff" stroke="#6a1b9a" stroke-dasharray="3 3" pointer-events="all" style="fill: light-dark(rgb(255, 255, 255), rgb(18, 18, 18)); stroke: light-dark(rgb(106, 27, 154), rgb(237, 169, 255));"/></g><g><g transform="translate(-0.5 -0.5)"><switch><foreignObject style="overflow: visible; text-align: left;" pointer-events="none" width="100%" height="100%" requiredFeatures="http://www.w3.org/TR/SVG11/feature#Extensibility"><div xmlns="http://www.w3.org/1999/xhtml" style="display: flex; align-items: unsafe flex-start; justify-content: unsafe flex-start; width: 526px; height: 1px; padding-top: 125px; margin-left: 425px;"><div style="box-sizing: border-box; font-size: 0; text-align: left; color: #4A148C; "><div style="display: inline-block; font-size: 12px; font-family: &quot;Helvetica&quot;; color: light-dark(#4A148C, #e8baff); line-height: 1.2; pointer-events: all; font-weight: bold; white-space: normal; word-wrap: normal; "><font style="font-size: 14px;">Organización  ·  terraform-labs-&lt;ACCT&gt;</font></div></div></div></foreignObject><text x="425" y="137" fill="#4A148C" font-family="&quot;Helvetica&quot;" font-size="12px" font-weight="bold">Organización  ·  terraform-labs-&lt;ACCT&gt;</text></switch></g></g><g><rect x="431" y="155" width="500" height="135" rx="20.25" ry="20.25" fill="#e1bee7" stroke="#6a1b9a" pointer-events="all" style="fill: light-dark(rgb(225, 190, 231), rgb(86, 56, 92)); stroke: light-dark(rgb(106, 27, 154), rgb(237, 169, 255));"/></g><g><g transform="translate(-0.5 -0.5)"><switch><foreignObject style="overflow: visible; text-align: left;" pointer-events="none" width="100%" height="100%" requiredFeatures="http://www.w3.org/TR/SVG11/feature#Extensibility"><div xmlns="http://www.w3.org/1999/xhtml" style="display: flex; align-items: unsafe center; justify-content: unsafe flex-start; width: 486px; height: 1px; padding-top: 223px; margin-left: 445px;"><div style="box-sizing: border-box; font-size: 0; text-align: left; color: #4A148C; "><div style="display: inline-block; font-size: 10px; font-family: &quot;Helvetica&quot;; color: light-dark(#4A148C, #e8baff); line-height: 1.2; pointer-events: all; white-space: normal; word-wrap: normal; "><font style="font-size: 14px;"><b>Workspace lab10-prod</b><br />Execution mode = Remote<br />Variables: TFC_AWS_PROVIDER_AUTH<br />TFC_AWS_RUN_ROLE_ARN = arn:aws:iam:::role/...<br />Estado: versionado, lock nativo<br />Run history + diff entre versiones</font></div></div></div></foreignObject><text x="445" y="226" fill="#4A148C" font-family="&quot;Helvetica&quot;" font-size="10px">Workspace lab10-prod...</text></switch></g></g><g><rect x="431" y="305" width="500" height="60" rx="9" ry="9" fill="#e1bee7" stroke="#6a1b9a" pointer-events="all" style="fill: light-dark(rgb(225, 190, 231), rgb(86, 56, 92)); stroke: light-dark(rgb(106, 27, 154), rgb(237, 169, 255));"/></g><g><g transform="translate(-0.5 -0.5)"><switch><foreignObject style="overflow: visible; text-align: left;" pointer-events="none" width="100%" height="100%" requiredFeatures="http://www.w3.org/TR/SVG11/feature#Extensibility"><div xmlns="http://www.w3.org/1999/xhtml" style="display: flex; align-items: unsafe center; justify-content: unsafe flex-start; width: 486px; height: 1px; padding-top: 335px; margin-left: 445px;"><div style="box-sizing: border-box; font-size: 0; text-align: left; color: #4A148C; "><div style="display: inline-block; font-size: 10px; font-family: &quot;Helvetica&quot;; color: light-dark(#4A148C, #e8baff); line-height: 1.2; pointer-events: all; white-space: normal; word-wrap: normal; "><font style="font-size: 14px;"><b>Workspace lab10-dev</b> (opcional Reto 3)<br />mismo código, distintas variables/permisos</font></div></div></div></foreignObject><text x="445" y="338" fill="#4A148C" font-family="&quot;Helvetica&quot;" font-size="10px">Workspace lab10-dev (opcional Reto 3)...</text></switch></g></g><g><rect x="431" y="380" width="500" height="55" fill="#fffde7" stroke="#fbc02d" pointer-events="all" style="fill: light-dark(rgb(255, 253, 231), rgb(24, 22, 4)); stroke: light-dark(rgb(251, 192, 45), rgb(120, 69, 0));"/></g><g><g transform="translate(-0.5 -0.5)"><switch><foreignObject style="overflow: visible; text-align: left;" pointer-events="none" width="100%" height="100%" requiredFeatures="http://www.w3.org/TR/SVG11/feature#Extensibility"><div xmlns="http://www.w3.org/1999/xhtml" style="display: flex; align-items: unsafe center; justify-content: unsafe center; width: 498px; height: 1px; padding-top: 408px; margin-left: 432px;"><div style="box-sizing: border-box; font-size: 0; text-align: center; color: #5D4037; "><div style="display: inline-block; font-size: 10px; font-family: &quot;Helvetica&quot;; color: light-dark(#5D4037, #c6ada5); line-height: 1.2; pointer-events: all; white-space: normal; word-wrap: normal; "><font style="font-size: 14px;"><b>HCP Run agent</b> — ejecuta <code>terraform plan/apply</code> remotamente.<br />Output streaming a la UI / CLI del developer.</font></div></div></div></foreignObject><text x="681" y="411" fill="#5D4037" font-family="&quot;Helvetica&quot;" font-size="10px" text-anchor="middle">HCP Run agent — ejecuta terraform plan/apply remotamente....</text></switch></g></g><g><rect x="411" y="485" width="540" height="260" fill="#ffebee" stroke="#c62828" stroke-dasharray="3 3" pointer-events="all" style="fill: light-dark(rgb(255, 235, 238), rgb(44, 27, 30)); stroke: light-dark(rgb(198, 40, 40), rgb(255, 145, 145));"/></g><g><g transform="translate(-0.5 -0.5)"><switch><foreignObject style="overflow: visible; text-align: left;" pointer-events="none" width="100%" height="100%" requiredFeatures="http://www.w3.org/TR/SVG11/feature#Extensibility"><div xmlns="http://www.w3.org/1999/xhtml" style="display: flex; align-items: unsafe flex-start; justify-content: unsafe flex-start; width: 526px; height: 1px; padding-top: 500px; margin-left: 425px;"><div style="box-sizing: border-box; font-size: 0; text-align: left; color: #B71C1C; "><div style="display: inline-block; font-size: 12px; font-family: &quot;Helvetica&quot;; color: light-dark(#B71C1C, #ff9c9c); line-height: 1.2; pointer-events: all; font-weight: bold; white-space: normal; word-wrap: normal; "><font style="font-size: 14px;">OIDC Dynamic Credentials  ·  sin Access Keys estáticas</font></div></div></div></foreignObject><text x="425" y="512" fill="#B71C1C" font-family="&quot;Helvetica&quot;" font-size="12px" font-weight="bold">OIDC Dynamic Credentials  ·  sin Access Keys estáticas</text></switch></g></g><g><rect x="431" y="525" width="500" height="210" fill="#ffffff" stroke="#c62828" pointer-events="all" style="fill: light-dark(rgb(255, 255, 255), rgb(18, 18, 18)); stroke: light-dark(rgb(198, 40, 40), rgb(255, 145, 145));"/></g><g><g transform="translate(-0.5 -0.5)"><switch><foreignObject style="overflow: visible; text-align: left;" pointer-events="none" width="100%" height="100%" requiredFeatures="http://www.w3.org/TR/SVG11/feature#Extensibility"><div xmlns="http://www.w3.org/1999/xhtml" style="display: flex; align-items: unsafe center; justify-content: unsafe flex-start; width: 486px; height: 1px; padding-top: 630px; margin-left: 445px;"><div style="box-sizing: border-box; font-size: 0; text-align: left; color: #B71C1C; "><div style="display: inline-block; font-size: 10px; font-family: &quot;Helvetica&quot;; color: light-dark(#B71C1C, #ff9c9c); line-height: 1.2; pointer-events: all; white-space: normal; word-wrap: normal; "><font style="font-size: 14px;">1. Run en HCP solicita un JWT firmado por app.terraform.io (audience = aws.workload.identity)<br />2. configure-aws-credentials envía el JWT a STS:<br />   sts:AssumeRoleWithWebIdentity con TFC_AWS_RUN_ROLE_ARN<br />3. STS valida firma vs OIDC Identity Provider (JWKS público de HCP)<br />4. STS valida claims aud + sub vs Trust Policy del rol IAM<br />5. STS devuelve credenciales temporales (TTL ~1h)<br />6. Terraform crea recursos AWS con esas credenciales — nunca aparecen en logs<br /><br />Ningún secreto AWS_ACCESS_KEY_ID se almacena en HCP.</font></div></div></div></foreignObject><text x="445" y="633" fill="#B71C1C" font-family="&quot;Helvetica&quot;" font-size="10px">1. Run en HCP solicita un JWT firmado por app.terraform.io (audience = aws.workload.identity)...</text></switch></g></g><g><rect x="1061" y="65" width="400" height="640" rx="60" ry="60" fill="#fafafa" stroke="#232f3e" stroke-width="2" pointer-events="all" style="fill: light-dark(rgb(250, 250, 250), rgb(22, 22, 22)); stroke: light-dark(rgb(35, 47, 62), rgb(189, 199, 212));"/></g><g><g transform="translate(-0.5 -0.5)"><switch><foreignObject style="overflow: visible; text-align: left;" pointer-events="none" width="100%" height="100%" requiredFeatures="http://www.w3.org/TR/SVG11/feature#Extensibility"><div xmlns="http://www.w3.org/1999/xhtml" style="display: flex; align-items: unsafe flex-start; justify-content: unsafe center; width: 383px; height: 1px; padding-top: 82px; margin-left: 1077px;"><div style="box-sizing: border-box; font-size: 0; text-align: center; color: #232F3E; "><div style="display: inline-block; font-size: 14px; font-family: &quot;Helvetica&quot;; color: light-dark(#232F3E, #bdc7d4); line-height: 1.2; pointer-events: all; font-weight: bold; white-space: normal; word-wrap: normal; ">AWS Cloud  ·  us-east-1</div></div></div></foreignObject><text x="1269" y="96" fill="#232F3E" font-family="&quot;Helvetica&quot;" font-size="14px" text-anchor="middle" font-weight="bold">AWS Cloud  ·  us-east-1</text></switch></g></g><g><rect x="1081" y="115" width="60" height="60" fill="none" stroke="none" pointer-events="all"/><path d="M 1138.22 169.17 L 1136.79 169.25 L 1136.43 169.29 C 1134.33 169.49 1132.01 169.64 1130.73 169.27 L 1130.04 169.09 C 1129.43 168.9 1128.82 168.65 1128.12 168.35 C 1126.21 167.54 1123.82 166.54 1121.1 166.6 L 1121.04 163.87 C 1124.36 163.77 1127.15 164.98 1129.19 165.84 L 1130.79 166.47 L 1131.45 166.64 C 1131.66 166.69 1131.88 166.73 1132.1 166.74 L 1132.03 166.45 C 1130.56 160.52 1125.02 156.22 1118.56 156.01 C 1115.93 155.9 1113.32 156.51 1111 157.75 C 1107.62 160.22 1105.61 163.94 1105.47 167.97 L 1105.47 168.41 C 1106.77 169.23 1108.43 169.75 1110.23 169.9 C 1113.84 168.37 1119.16 168.05 1122.12 168.37 C 1124.39 168.63 1126.84 169.79 1128.81 170.72 C 1129.89 171.23 1131 171.76 1131.54 171.86 C 1132.44 172.01 1134.43 171.87 1136.18 171.75 L 1136.36 171.74 L 1138 171.64 C 1138.04 171.64 1138.09 171.64 1138.13 171.63 Z M 1104.89 172.04 C 1105.32 171.97 1105.74 171.87 1106.15 171.77 C 1105.03 171.35 1104.02 170.79 1103.15 170.12 C 1102.49 170.42 1101.81 170.7 1101.14 170.97 C 1100.55 171.2 1099.77 171.51 1099.19 171.79 C 1100.13 172.12 1101.79 172.35 1103.99 172.13 Z M 1121.58 152.1 C 1118.85 152.01 1116.17 152.61 1113.77 153.8 C 1115.35 153.41 1116.99 153.23 1118.65 153.28 C 1126.32 153.54 1132.91 158.69 1134.68 165.8 L 1134.89 166.68 L 1136.17 166.57 L 1136.65 166.53 L 1137.2 166.5 C 1136.28 158.59 1129.66 152.37 1121.58 152.1 Z M 1140.97 168.51 L 1140.84 172.35 C 1140.8 173.43 1139.93 174.29 1138.86 174.33 L 1138.16 174.36 L 1136.55 174.46 L 1136.36 174.47 C 1134.27 174.62 1132.3 174.75 1131.07 174.54 C 1130.16 174.38 1129.05 173.85 1127.64 173.19 C 1125.86 172.34 1123.64 171.29 1121.82 171.09 C 1118.64 170.73 1112.63 171.31 1110.05 173.05 C 1108.68 173.98 1106.34 174.71 1104.22 174.85 L 1103.91 174.87 L 1103.4 174.91 L 1103.2 174.92 L 1103.19 174.92 C 1102.92 174.93 1102.61 174.94 1102.28 174.94 C 1100.37 174.94 1097.78 174.65 1096.46 173.24 C 1095.78 172.51 1095.81 171.77 1095.9 171.39 C 1096.21 169.99 1097.86 169.34 1100.14 168.43 C 1100.78 168.18 1101.42 167.91 1102.03 167.64 C 1102.25 161.93 1104.98 156.69 1109.52 153.24 C 1112.99 150.6 1117.3 149.22 1121.66 149.37 C 1131.27 149.7 1139.1 157.21 1139.94 166.67 C 1140.09 166.75 1140.22 166.85 1140.34 166.96 C 1140.76 167.37 1140.99 167.93 1140.97 168.51 Z M 1105.56 143.64 L 1109.65 143.64 L 1109.65 139.55 L 1105.56 139.55 Z M 1112.38 138.18 L 1112.38 145 C 1112.38 145.36 1112.23 145.71 1111.98 145.96 C 1111.72 146.22 1111.37 146.36 1111.01 146.36 L 1104.19 146.36 C 1103.44 146.36 1102.83 145.75 1102.83 145 L 1102.83 138.18 C 1102.83 137.43 1103.44 136.82 1104.19 136.82 L 1111.01 136.82 C 1111.37 136.82 1111.72 136.96 1111.98 137.22 C 1112.23 137.47 1112.38 137.82 1112.38 138.18 Z M 1091.92 143.64 L 1096.01 143.64 L 1096.01 139.55 L 1091.92 139.55 Z M 1098.74 138.18 L 1098.74 145 C 1098.74 145.75 1098.13 146.36 1097.38 146.36 L 1090.56 146.36 C 1090.2 146.36 1089.85 146.22 1089.59 145.96 C 1089.34 145.71 1089.19 145.36 1089.19 145 L 1089.19 138.18 C 1089.19 137.82 1089.34 137.47 1089.59 137.22 C 1089.85 136.96 1090.2 136.82 1090.56 136.82 L 1097.38 136.82 C 1098.13 136.82 1098.74 137.43 1098.74 138.18 Z M 1105.56 130 L 1109.65 130 L 1109.65 125.91 L 1105.56 125.91 Z M 1112.38 131.36 C 1112.38 131.73 1112.23 132.07 1111.98 132.33 C 1111.72 132.58 1111.37 132.73 1111.01 132.73 L 1104.19 132.73 C 1103.44 132.73 1102.83 132.12 1102.83 131.36 L 1102.83 124.55 C 1102.83 123.79 1103.44 123.18 1104.19 123.18 L 1111.01 123.18 C 1111.37 123.18 1111.72 123.33 1111.98 123.58 C 1112.23 123.84 1112.38 124.18 1112.38 124.55 Z M 1091.92 130 L 1096.01 130 L 1096.01 125.91 L 1091.92 125.91 Z M 1098.74 131.36 C 1098.74 132.12 1098.13 132.73 1097.38 132.73 L 1090.56 132.73 C 1090.2 132.73 1089.85 132.58 1089.59 132.33 C 1089.34 132.07 1089.19 131.73 1089.19 131.36 L 1089.19 124.55 C 1089.19 124.18 1089.34 123.84 1089.59 123.58 C 1089.85 123.33 1090.2 123.18 1090.56 123.18 L 1097.38 123.18 C 1098.13 123.18 1098.74 123.79 1098.74 124.55 Z M 1105.56 154.55 L 1094.65 154.55 C 1093.9 154.55 1093.29 155.16 1093.29 155.91 L 1093.29 175 L 1091.92 175 L 1090.56 175 L 1084.19 175 C 1082.44 175 1081.01 173.75 1081.01 172.21 L 1081.01 117.79 C 1081.01 116.25 1082.44 115 1084.19 115 L 1117.38 115 C 1119.13 115 1120.56 116.25 1120.56 117.79 L 1120.56 146.36 L 1117.83 146.36 L 1117.83 117.79 C 1117.82 117.84 1117.66 117.73 1117.38 117.73 L 1084.19 117.73 C 1083.91 117.73 1083.75 117.84 1083.72 117.89 L 1083.74 172.21 C 1083.74 172.16 1083.91 172.27 1084.19 172.27 L 1090.56 172.27 L 1090.56 155.91 C 1090.56 153.65 1092.39 151.82 1094.65 151.82 L 1105.56 151.82 Z" fill="#dd344c" stroke="none" pointer-events="all" style="fill: light-dark(rgb(221, 52, 76), rgb(255, 127, 147));"/></g><g><rect x="1161" y="120" width="270" height="55" fill="none" stroke="none" pointer-events="all"/></g><g><g transform="translate(-0.5 -0.5)"><switch><foreignObject style="overflow: visible; text-align: left;" pointer-events="none" width="100%" height="100%" requiredFeatures="http://www.w3.org/TR/SVG11/feature#Extensibility"><div xmlns="http://www.w3.org/1999/xhtml" style="display: flex; align-items: unsafe center; justify-content: unsafe flex-start; width: 268px; height: 1px; padding-top: 148px; margin-left: 1163px;"><div style="box-sizing: border-box; font-size: 0; text-align: left; color: #A1162F; "><div style="display: inline-block; font-size: 10px; font-family: &quot;Helvetica&quot;; color: light-dark(#A1162F, #ffa4b9); line-height: 1.2; pointer-events: all; white-space: normal; word-wrap: normal; "><font style="font-size: 14px;">OIDC Identity Provider<br />url: app.terraform.io<br />client_id: aws.workload.identity</font></div></div></div></foreignObject><text x="1163" y="151" fill="#A1162F" font-family="&quot;Helvetica&quot;" font-size="10px">OIDC Identity Provider...</text></switch></g></g><g><rect x="1081" y="228" width="60" height="44" fill="none" stroke="none" pointer-events="all"/><path d="M 1140.24 255.56 C 1140.05 255.39 1139.81 255.26 1139.57 255.16 C 1138.14 242.5 1127.36 232.73 1114.49 232.73 C 1108.68 232.73 1103.02 234.75 1098.54 238.41 C 1092.62 243.22 1089.22 250.37 1089.22 257.99 C 1089.22 258.05 1089.23 258.11 1089.23 258.16 C 1088.32 258.62 1087.36 259.05 1086.41 259.47 C 1083.5 260.74 1081.41 261.66 1081.09 263.31 C 1081.01 263.73 1081 264.56 1081.8 265.36 C 1083.21 266.77 1085.92 267.27 1088.67 267.27 C 1089.81 267.27 1090.96 267.18 1092.03 267.04 C 1093.85 266.79 1097.25 266.12 1099.56 264.43 C 1103.2 261.79 1111.43 260.81 1115.72 261.14 C 1118.27 261.34 1121.37 262.68 1123.86 263.76 C 1125.76 264.58 1127.26 265.23 1128.43 265.4 C 1130.05 265.62 1132.7 265.35 1135.5 265.06 L 1135.73 265.04 C 1136.47 264.96 1137.19 264.89 1137.9 264.83 C 1138.19 264.81 1138.48 264.79 1138.87 264.76 C 1140.06 264.67 1141 263.67 1141 262.47 L 1141 257.27 C 1141 256.62 1140.73 256 1140.24 255.56 Z M 1114.49 235.45 C 1125.87 235.45 1135.42 244.01 1136.83 255.15 C 1136.44 255.19 1136.03 255.23 1135.59 255.27 L 1135.34 255.29 C 1135.31 254.04 1134.28 253.04 1133.03 253.04 L 1132.06 253.04 C 1129.07 244.23 1120.4 238.16 1110.58 238.16 C 1106.95 238.16 1103.39 238.99 1100.19 240.57 C 1100.21 240.55 1100.23 240.53 1100.25 240.51 C 1104.25 237.25 1109.31 235.45 1114.49 235.45 Z M 1128.47 257.61 L 1128.47 255.76 L 1132.62 255.76 L 1132.62 257.61 Z M 1091.66 264.34 C 1088.06 264.84 1085.21 264.4 1084.04 263.67 C 1084.75 263.16 1086.36 262.46 1087.5 261.96 C 1088.48 261.53 1089.47 261.08 1090.43 260.6 C 1092 261.79 1093.95 262.69 1096.1 263.22 C 1094.85 263.72 1093.31 264.12 1091.66 264.34 Z M 1138.28 262.07 C 1138.07 262.09 1137.85 262.11 1137.65 262.13 C 1136.94 262.18 1136.2 262.25 1135.45 262.33 L 1135.22 262.36 C 1132.82 262.61 1130.1 262.88 1128.81 262.71 C 1128 262.59 1126.52 261.95 1124.94 261.26 C 1122.27 260.1 1118.94 258.66 1115.93 258.43 C 1111.79 258.11 1104.63 258.89 1100.01 261.05 C 1097.35 260.93 1094.87 260.22 1092.95 259.03 C 1092.94 258.66 1092.93 258.29 1092.93 258.15 C 1092.93 252.52 1095.57 247.25 1100.17 243.67 C 1103.29 241.84 1106.89 240.88 1110.58 240.88 C 1118.91 240.88 1126.29 245.79 1129.17 253.04 L 1128.07 253.04 C 1126.96 253.04 1126.03 253.82 1125.81 254.86 C 1125.62 254.79 1125.45 254.72 1125.25 254.65 C 1122.49 253.58 1118.7 252.12 1114.33 252.38 C 1107.93 252.76 1104.78 253.15 1102.3 253.85 L 1103.05 256.47 C 1105.32 255.82 1108.31 255.46 1114.48 255.1 C 1118.27 254.88 1121.74 256.21 1124.27 257.18 C 1124.8 257.39 1125.29 257.57 1125.75 257.74 L 1125.75 258.02 C 1125.75 259.29 1126.79 260.33 1128.07 260.33 L 1133.03 260.33 C 1134.3 260.33 1135.34 259.3 1135.34 258.02 L 1135.82 257.98 C 1136.63 257.91 1137.37 257.84 1137.99 257.77 L 1138.28 257.75 Z" fill="#dd344c" stroke="none" pointer-events="all" style="fill: light-dark(rgb(221, 52, 76), rgb(255, 127, 147));"/></g><g><rect x="1161" y="210" width="295" height="80" fill="none" stroke="none" pointer-events="all"/></g><g><g transform="translate(-0.5 -0.5)"><switch><foreignObject style="overflow: visible; text-align: left;" pointer-events="none" width="100%" height="100%" requiredFeatures="http://www.w3.org/TR/SVG11/feature#Extensibility"><div xmlns="http://www.w3.org/1999/xhtml" style="display: flex; align-items: unsafe center; justify-content: unsafe flex-start; width: 293px; height: 1px; padding-top: 250px; margin-left: 1163px;"><div style="box-sizing: border-box; font-size: 0; text-align: left; color: #A1162F; "><div style="display: inline-block; font-size: 10px; font-family: &quot;Helvetica&quot;; color: light-dark(#A1162F, #ffa4b9); line-height: 1.2; pointer-events: all; white-space: normal; word-wrap: normal; "><font style="font-size: 14px;">IAM Role para HCP<br />Trust Policy: aud + sub:<br />organization:&lt;org&gt;:project:&lt;p&gt;:<br />workspace:lab10-prod:run_phase:plan/apply</font></div></div></div></foreignObject><text x="1163" y="253" fill="#A1162F" font-family="&quot;Helvetica&quot;" font-size="10px">IAM Role para HCP...</text></switch></g></g><g><rect x="1091" y="316" width="60" height="78" fill="none" stroke="none" pointer-events="all"/><path d="M 1122.71 343.3 L 1112.07 343.3 L 1112.07 339.89 L 1119.29 339.89 L 1119.29 329.69 L 1122.71 329.69 Z M 1121 326.92 C 1128.27 326.92 1134.19 332.84 1134.19 340.11 C 1134.19 347.38 1128.27 353.29 1121 353.29 C 1113.73 353.29 1107.82 347.38 1107.82 340.11 C 1107.82 332.84 1113.73 326.92 1121 326.92 Z M 1121 356.7 C 1130.15 356.7 1137.6 349.26 1137.6 340.11 C 1137.6 330.96 1130.15 323.51 1121 323.51 C 1111.85 323.51 1104.4 330.96 1104.4 340.11 C 1104.4 349.26 1111.85 356.7 1121 356.7 Z M 1138.51 376.99 C 1139 377.58 1139.25 378.34 1139.25 379.27 C 1139.25 380.6 1138.77 381.67 1137.82 382.46 C 1136.87 383.25 1135.59 383.65 1133.97 383.65 C 1132.37 383.65 1130.99 383.36 1129.8 382.79 L 1129.8 381.13 C 1131.26 381.61 1132.64 381.86 1133.93 381.86 C 1134.92 381.86 1135.69 381.64 1136.25 381.21 C 1136.82 380.78 1137.1 380.19 1137.1 379.46 C 1137.1 378.94 1136.94 378.52 1136.61 378.17 C 1136.28 377.83 1135.73 377.51 1134.95 377.21 L 1132.93 376.43 C 1131.79 376 1130.96 375.48 1130.45 374.87 C 1129.93 374.26 1129.68 373.49 1129.68 372.56 C 1129.68 371.78 1129.87 371.09 1130.26 370.48 C 1130.65 369.88 1131.21 369.4 1131.94 369.05 C 1132.67 368.71 1133.53 368.53 1134.52 368.53 C 1135.76 368.53 1137.05 368.78 1138.37 369.28 L 1138.37 370.97 C 1136.97 370.54 1135.73 370.32 1134.66 370.32 C 1133.76 370.32 1133.06 370.51 1132.57 370.88 C 1132.07 371.25 1131.83 371.77 1131.83 372.45 C 1131.83 373.01 1131.99 373.45 1132.33 373.78 C 1132.66 374.1 1133.28 374.43 1134.18 374.77 L 1136.08 375.47 C 1137.2 375.89 1138.01 376.4 1138.51 376.99 Z M 1116.81 368.84 L 1128.16 368.84 L 1128.16 370.6 L 1123.55 370.6 L 1123.55 383.29 L 1121.42 383.29 L 1121.42 370.6 L 1116.81 370.6 Z M 1114.66 376.99 C 1115.15 377.58 1115.4 378.34 1115.4 379.27 C 1115.4 380.6 1114.92 381.67 1113.97 382.46 C 1113.02 383.25 1111.73 383.65 1110.12 383.65 C 1108.52 383.65 1107.13 383.36 1105.95 382.79 L 1105.95 381.13 C 1107.41 381.61 1108.79 381.86 1110.08 381.86 C 1111.07 381.86 1111.84 381.64 1112.41 381.21 C 1112.97 380.78 1113.25 380.19 1113.25 379.46 C 1113.25 378.94 1113.09 378.52 1112.76 378.17 C 1112.43 377.83 1111.88 377.51 1111.1 377.21 L 1109.08 376.43 C 1107.94 376 1107.11 375.48 1106.6 374.87 C 1106.09 374.26 1105.83 373.49 1105.83 372.56 C 1105.83 371.78 1106.02 371.09 1106.41 370.48 C 1106.8 369.88 1107.36 369.4 1108.09 369.05 C 1108.82 368.71 1109.68 368.53 1110.66 368.53 C 1111.92 368.53 1113.2 368.78 1114.52 369.28 L 1114.52 370.97 C 1113.12 370.54 1111.88 370.32 1110.81 370.32 C 1109.91 370.32 1109.21 370.51 1108.72 370.88 C 1108.22 371.25 1107.98 371.77 1107.98 372.45 C 1107.98 373.01 1108.14 373.45 1108.48 373.78 C 1108.81 374.1 1109.43 374.43 1110.33 374.77 L 1112.23 375.47 C 1113.36 375.89 1114.16 376.4 1114.66 376.99 Z M 1147.59 387.66 C 1147.59 388.42 1146.97 389.03 1146.21 389.03 L 1095.79 389.03 C 1095.03 389.03 1094.41 388.42 1094.41 387.66 L 1094.41 322.34 C 1094.41 321.58 1095.03 320.97 1095.79 320.97 L 1146.21 320.97 C 1146.97 320.97 1147.59 321.58 1147.59 322.34 Z M 1146.21 317.55 L 1095.79 317.55 C 1093.15 317.55 1091 319.7 1091 322.34 L 1091 387.66 C 1091 390.3 1093.15 392.45 1095.79 392.45 L 1146.21 392.45 C 1148.85 392.45 1151 390.3 1151 387.66 L 1151 322.34 C 1151 319.7 1148.85 317.55 1146.21 317.55 Z" fill="#dd344c" stroke="none" pointer-events="all" style="fill: light-dark(rgb(221, 52, 76), rgb(255, 127, 147));"/></g><g><rect x="1161" y="327.5" width="270" height="55" fill="none" stroke="none" pointer-events="all"/></g><g><g transform="translate(-0.5 -0.5)"><switch><foreignObject style="overflow: visible; text-align: left;" pointer-events="none" width="100%" height="100%" requiredFeatures="http://www.w3.org/TR/SVG11/feature#Extensibility"><div xmlns="http://www.w3.org/1999/xhtml" style="display: flex; align-items: unsafe center; justify-content: unsafe flex-start; width: 268px; height: 1px; padding-top: 355px; margin-left: 1163px;"><div style="box-sizing: border-box; font-size: 0; text-align: left; color: #A1162F; "><div style="display: inline-block; font-size: 10px; font-family: &quot;Helvetica&quot;; color: light-dark(#A1162F, #ffa4b9); line-height: 1.2; pointer-events: all; white-space: normal; word-wrap: normal; "><font style="font-size: 14px;">AWS STS<br />AssumeRoleWithWebIdentity<br />ASIA*** + SessionToken (TTL 1h)</font></div></div></div></foreignObject><text x="1163" y="358" fill="#A1162F" font-family="&quot;Helvetica&quot;" font-size="10px">AWS STS...</text></switch></g></g><g><rect x="1091" y="435" width="350" height="240" rx="36" ry="36" fill="#f2f8fd" stroke="#147eba" stroke-width="2" pointer-events="all" style="fill: light-dark(rgb(242, 248, 253), rgb(21, 26, 30)); stroke: light-dark(rgb(20, 126, 186), rgb(69, 160, 212));"/></g><g><g transform="translate(-0.5 -0.5)"><switch><foreignObject style="overflow: visible; text-align: left;" pointer-events="none" width="100%" height="100%" requiredFeatures="http://www.w3.org/TR/SVG11/feature#Extensibility"><div xmlns="http://www.w3.org/1999/xhtml" style="display: flex; align-items: unsafe center; justify-content: unsafe flex-start; width: 334px; height: 1px; padding-top: 555px; margin-left: 1107px;"><div style="box-sizing: border-box; font-size: 0; text-align: left; color: #147EBA; "><div style="display: inline-block; font-size: 11px; font-family: &quot;Helvetica&quot;; color: light-dark(#147EBA, #45a0d4); line-height: 1.2; pointer-events: all; white-space: normal; word-wrap: normal; "><font style="font-size: 14px;">VPC lab10  ·  10.0.0.0/16<br /><br />Subnet pública 10.0.1.0/24<br />Internet Gateway<br />Route Table (0.0.0.0/0 → IGW)</font></div></div></div></foreignObject><text x="1107" y="558" fill="#147EBA" font-family="&quot;Helvetica&quot;" font-size="11px">VPC lab10  ·  10.0.0.0/16...</text></switch></g></g><g><path d="M 209.24 355 L 372.76 355" fill="none" stroke="#7b42bc" stroke-width="2" stroke-miterlimit="10" pointer-events="stroke" style="stroke: light-dark(rgb(123, 66, 188), rgb(193, 144, 249));"/><path d="M 203.24 355 L 211.24 351 L 209.24 355 L 211.24 359 Z" fill="#7b42bc" stroke="#7b42bc" stroke-width="2" stroke-miterlimit="10" pointer-events="all" style="fill: light-dark(rgb(123, 66, 188), rgb(193, 144, 249)); stroke: light-dark(rgb(123, 66, 188), rgb(193, 144, 249));"/><path d="M 378.76 355 L 370.76 359 L 372.76 355 L 370.76 351 Z" fill="#7b42bc" stroke="#7b42bc" stroke-width="2" stroke-miterlimit="10" pointer-events="all" style="fill: light-dark(rgb(123, 66, 188), rgb(193, 144, 249)); stroke: light-dark(rgb(123, 66, 188), rgb(193, 144, 249));"/></g><g><g transform="translate(-0.5 -0.5)"><switch><foreignObject style="overflow: visible; text-align: left;" pointer-events="none" width="100%" height="100%" requiredFeatures="http://www.w3.org/TR/SVG11/feature#Extensibility"><div xmlns="http://www.w3.org/1999/xhtml" style="display: flex; align-items: unsafe center; justify-content: unsafe center; width: 1px; height: 1px; padding-top: 355px; margin-left: 291px;"><div style="box-sizing: border-box; font-size: 0; text-align: center; color: #5C2EA0; background-color: #ffffff; "><div style="display: inline-block; font-size: 10px; font-family: &quot;Helvetica&quot;; color: light-dark(#5C2EA0, #cfa7ff); line-height: 1.2; pointer-events: all; background-color: light-dark(#ffffff, var(--ge-dark-color, #121212)); white-space: nowrap; "><font style="font-size: 12px;">cloud {} → app.terraform.io</font></div></div></div></foreignObject><text x="291" y="358" fill="#5C2EA0" font-family="&quot;Helvetica&quot;" font-size="10px" text-anchor="middle">cloud {} → app.terraform.io</text></switch></g></g><g><path d="M 951 585 L 1088.43 399.07" fill="none" stroke="#dd344c" stroke-width="2" stroke-miterlimit="10" stroke-dasharray="6 6" pointer-events="stroke" style="stroke: light-dark(rgb(221, 52, 76), rgb(255, 127, 147));"/><path d="M 1091.99 394.24 L 1090.45 403.06 L 1088.43 399.07 L 1084.02 398.3 Z" fill="#dd344c" stroke="#dd344c" stroke-width="2" stroke-miterlimit="10" pointer-events="all" style="fill: light-dark(rgb(221, 52, 76), rgb(255, 127, 147)); stroke: light-dark(rgb(221, 52, 76), rgb(255, 127, 147));"/></g><g><rect x="31" y="775" width="1420" height="80" fill="none" stroke="none" pointer-events="all"/></g><g><g transform="translate(-0.5 -0.5)"><switch><foreignObject style="overflow: visible; text-align: left;" pointer-events="none" width="100%" height="100%" requiredFeatures="http://www.w3.org/TR/SVG11/feature#Extensibility"><div xmlns="http://www.w3.org/1999/xhtml" style="display: flex; align-items: unsafe center; justify-content: unsafe center; width: 1418px; height: 1px; padding-top: 815px; margin-left: 32px;"><div style="box-sizing: border-box; font-size: 0; text-align: center; color: #555555; "><div style="display: inline-block; font-size: 11px; font-family: &quot;Helvetica&quot;; color: light-dark(#555555, #a4a4a4); line-height: 1.2; pointer-events: all; font-style: italic; white-space: normal; word-wrap: normal; "><font style="font-size: 14px;"><b>Patrón:</b> el bloque <code>cloud {}</code> sustituye al backend remoto local. HCP almacena el state, ejecuta los runs en sus propios agentes y se autentica contra AWS mediante <b>OIDC Dynamic Credentials</b> — sin secretos AWS estáticos en el workspace.<br />Comparado con S3+DynamoDB: state versionado con diff visual, RBAC por workspace, ejecución remota nativa. Free plan = 500 recursos.</font></div></div></div></foreignObject><text x="741" y="818" fill="#555555" font-family="&quot;Helvetica&quot;" font-size="11px" text-anchor="middle" font-style="italic">Patrón: el bloque cloud {} sustituye al backend remoto local. HCP almacena el state, ejecuta los runs en sus propios agentes y se autentica contra AWS mediante OIDC Dynamic Credentials — sin secretos AWS estáticos en el workspace....</text></switch></g></g></g><switch><g requiredFeatures="http://www.w3.org/TR/SVG11/feature#Extensibility"/><a transform="translate(0,-5)" xlink:href="https://www.drawio.com/doc/faq/svg-export-text-problems" target="_blank"><text text-anchor="middle" font-size="10px" x="50%" y="100%">Text is not SVG - cannot display</text></a></switch></svg>