<svg xmlns="http://www.w3.org/2000/svg" style="background: transparent; background-color: transparent;" xmlns:xlink="http://www.w3.org/1999/xlink" version="1.1" width="1420px" height="855px" viewBox="-0.5 -0.5 1420 855" content="&lt;mxfile&gt;&lt;diagram name=&quot;Arquitectura Lab-14&quot; id=&quot;lab14-arch&quot;&gt;3VrZbuO4Ev0aAekBYmjx+ui170x3Z4I4FxeYF4OWGJs3kqih6Dier58qitqZxEkr6UYngSJxV9VRnaoiLW8ePX4WJNl/4wENLdcOHi1vYbnusG/DFQtOWcHAdrOCnWBBVuSUBWv2D9WFut/uwAKa1hpKzkPJknqhz+OY+rJWRoTgx3qzOx7WZ03IjrYK1j4J26X/Y4Hc69KBbZcV/6Fst9dTT/KKiOSNdUG6JwE/Voq8peXNBecyu4se5zRE2eVyyfqtnqgtFiZoLM/pIJmEl1KdHkh40O/3lWwvnT6UWUvXGtvWBO//ooJf3vKDv8d1U19QCWKcwoMgccCjTULS9MhFkPcbWhMcd62buvY3EoNgBNa7M7jeLNZ4P3et2QhutsS/pzF299mdALlkGoTr/NsXLS55ynUg6SO84WwvoxAKHLglIdvFcO/Du8Ms3uyBCslAa1NdEbEgwO6z455Juk6Ij2MdAaJQdsdjqZHmjPNnPZ2jn+c85EJN78HvCkU6a0tcKwFnp4+VIq2Bz5RHVIoTNNG1+edwynGUPR4r0OrngNlXYOXphkTDeVeMXGocbrTSnwDA3TRJwlMLAiBBQe64iHD8skVFAYIf4oAGWjwmkVZ0c8fCsCK90azvzuZQnkrB72mlZjB3l1O7qMk/L7ehob5BQ+frv6HLlfrpRpfDYV2ZY7utzLFBlwP7+3WZfYfXx6ClTcsdhvi1bOFmhzetTzarhxmKJkUfkZeENN5J/PrVoLbntpuA4ARPrLlnTRcEv9z19c3VZzT1igHWf7a7GErAekymFsDAta/+ezWfKgyCVgBcrk3RIiQhwX8xg0vId+nzg6xxQeOFsls4VhgBTmOSD9aTd6kkEqsu0KxwPQH/1CnoV6vlbLk0gX4+dMfu+CzQ5yAP6Z18DuIprIrFu6+qWfm9VCadjZy5M+8G9YNxw4SN2rD3+gbYO24HuNdkNOOPBuA3FJjeU+njitDG8IMMWQyayN0E+xlDvwNKYrSsi3lM20peLLx+v23ZdOOApHuFHruiO2BbGl7zlEnGUYdbLiWPDMqVPDGZuSriKmgpnvXL45QkTbIXvWOPuI5ZwhmOsnyAwVI9CPgkCXaIHnfovfXIMe33tIw3kebwboylXYeNN2zDZmhAzbA70Hzdhi9bS4MLc469BMFt9DRabPqx8ICyxw1ILEXdn2EbdQ9AF3zdhSn+fwr4in3wsy+skcmiukMSIXjibZoYng8pFTGJaDHgAxG9YLspy187YtUZVCM2GAdG7wmaHmDYV4+952kmwsqfmgMFDqtmMZjz2Kc9cFx6JAhgHhNBvPQGXJw/S9b4tVME21zoleG16J8Q+2jx6RyYAFdyQNVpc2Qg9iMsdhOQU1pMome8CMm24eZvudC+N4sjGjAin6VB+w00qL2tFg02bGdOg03DdgYNZpZSc+AtPiwc+yxWnDrO0O3KF2xYt37bug0cg3krAoLvcgaDn4MQ4ac/m/x6hAjy7QYl4x9IgvASZxFgw+Qp4zH8+8BVXZKUD+cRI8QRgLKmcTX+KWsVndK/cdnjnt0eLF/Uxg9JmrY7A9HI/q4XMV9wA0eHIffB9w+AUrnAvE/eTw3x2Uymdem8nuvq4lGWmMUn6vsMI5WZh1FJwMCIS2Iw93qlG2B8cUpg7cXEUhwMpHEfpZt7etqw4Hkxo5Z1215EWNwj4iyfZM3ijLcY2YY0VdQB35Bij7RBLyoMrAgs5tkzBmNAopr/frN0bEeEv2cPPO19EAU1rNUPoSBn6nqjjlJLk0ZuyfMMHGQbrEsnHARg+ik46FcNyvCjziKLCJpCcCEeGH4BnTgvkzpyhoM2ct6LlgA3Z9HSl2+YQFbZ4TKNDKpAq7MC19bpX+aJ6jN5CQ2YspWCS6JU/7xpnWOmGmpvb5a4FJ8kyuIFLJWgQ5IlyD8wc23Ki76jhztouLgjtw0Sz5S6HnSQugaU3BKxU9ptImUFdLOyJiNrgrozbUFc1CJpU1BVHyPbrCidBB5fgpbvX+w3K3Y11h5OmycbP2nm1TslGRE38L0nIqBxFuirTOU1SZEvXTOcO2XI+ULlH8/NVTpVQ/oGuvxBictJw/keGpzvgTFxaXdg58B1vuKyvf+WQwhcQawBKkwPESo+oGmA4Duo5DVJQhBh6TOirTHkoKxiuy4q0A9fjTaNl9m8rn2ZFyg3UVlPWH+wNafW8929gD4caPhAc9fuj/WfV1a+byd5wHH6UF19EiXqRkE5e4WUh/gvDElEAtKtl7ccrwbLduSJ7sNytPDct2P41TtMzmywRCJ5h6yCCbF90w5TN4gVQu0X3hA0aS/5dWD3prjdjiLD4Iz5dYXVtdtSU2OXsLot8qQcaVDbum9LUdAQiP2hvpNvEonueo3OWCn90aAufsdrSDXlB+FT3cut7Ly/NNCoMZBU3NYaSGmoeJ9zlYb6KliwobY8NO1WeWfuablvse8NJYOhUbKyqol9HXh0DoDmnoU7eSMAmtv+XnMLuHMA3ARPK3+IVgoV+Vwi4hdBSJka7RwdTX/izegYDz4SHV+i9Cnr0LXWn0jyu03u7eLjR/8CxV3EC+9mFJqkPH6j2p3GQH3nndVusgk/v8o/SK1FOPu9ah17H6bWkO6o0TdrxJbXRIrSxlcO95VRRCNLrQJR7DHFHvsDRBNcea4qXMicfilISlUjB715+7ZyjEy1gcVRQYoIIZ8Kt65fPptUbWW583xMxViSlFSF2bDiqFAWuJ/yRxWlZGaCF/HKXLfAgAX+Xbx4ZlHdb+uhfXbEqRLeq8NGvs4QZe+r1hsxiMQslbhCGRXpc9z2be0lpKpWMJrusggQLhDogKCrHJ2lzrOTUKv573DZM8xVMBL2nj8btcRFV05AoRIZjYuArrIgJb/aAans/Gc2OVWpCdWnmrfIpFI526nkkGXusr2CKAEnBGL+gG1DdQarzHLo3hCMfmrHhh+ZRzM4IQP18y4x3WjSjukczxTUNQ3SGTEdPJbnizMDUx7S9pb/Ag==&lt;/diagram&gt;&lt;/mxfile&gt;"><defs/><g><g><rect x="0" y="0" width="1420" height="35" fill="none" stroke="none" pointer-events="all"/></g><g><g transform="translate(-0.5 -0.5)"><switch><foreignObject style="overflow: visible; text-align: left;" pointer-events="none" width="100%" height="100%" requiredFeatures="http://www.w3.org/TR/SVG11/feature#Extensibility"><div xmlns="http://www.w3.org/1999/xhtml" style="display: flex; align-items: unsafe center; justify-content: unsafe center; width: 1418px; height: 1px; padding-top: 18px; margin-left: 1px;"><div style="box-sizing: border-box; font-size: 0; text-align: center; color: #232F3E; "><div style="display: inline-block; font-size: 18px; font-family: &quot;Helvetica&quot;; color: light-dark(#232F3E, #bdc7d4); line-height: 1.2; pointer-events: all; font-weight: bold; white-space: normal; word-wrap: normal; ">Lab-14 — Zero-Touch secrets: random_password → Secrets Manager + RDS · backend cifrado con CMK</div></div></div></foreignObject><text x="710" y="23" fill="#232F3E" font-family="&quot;Helvetica&quot;" font-size="18px" text-anchor="middle" font-weight="bold">Lab-14 — Zero-Touch secrets: random_password → Secrets Manager + RDS · backend cifrado con CMK</text></switch></g></g><g><rect x="620" y="65" width="180" height="50" rx="7.5" ry="7.5" fill="#7b42bc" stroke="#5c2ea0" stroke-width="2" pointer-events="all" style="fill: light-dark(rgb(123, 66, 188), rgb(193, 144, 249)); stroke: light-dark(rgb(92, 46, 160), rgb(207, 167, 255));"/></g><g><g transform="translate(-0.5 -0.5)"><switch><foreignObject style="overflow: visible; text-align: left;" pointer-events="none" width="100%" height="100%" requiredFeatures="http://www.w3.org/TR/SVG11/feature#Extensibility"><div xmlns="http://www.w3.org/1999/xhtml" style="display: flex; align-items: unsafe center; justify-content: unsafe center; width: 178px; height: 1px; padding-top: 90px; margin-left: 621px;"><div style="box-sizing: border-box; font-size: 0; text-align: center; color: #FFFFFF; "><div style="display: inline-block; font-size: 14px; font-family: &quot;Helvetica&quot;; color: light-dark(#FFFFFF, #121212); line-height: 1.2; pointer-events: all; font-weight: bold; white-space: normal; word-wrap: normal; ">terraform apply</div></div></div></foreignObject><text x="710" y="94" fill="#FFFFFF" font-family="&quot;Helvetica&quot;" font-size="14px" text-anchor="middle" font-weight="bold">terraform apply</text></switch></g></g><g><rect x="540" y="155" width="340" height="120" rx="18" ry="18" fill="#ffebee" stroke="#c62828" stroke-width="2" pointer-events="all" style="fill: light-dark(rgb(255, 235, 238), rgb(44, 27, 30)); stroke: light-dark(rgb(198, 40, 40), rgb(255, 145, 145));"/></g><g><g transform="translate(-0.5 -0.5)"><switch><foreignObject style="overflow: visible; text-align: left;" pointer-events="none" width="100%" height="100%" requiredFeatures="http://www.w3.org/TR/SVG11/feature#Extensibility"><div xmlns="http://www.w3.org/1999/xhtml" style="display: flex; align-items: unsafe center; justify-content: unsafe flex-start; width: 324px; height: 1px; padding-top: 215px; margin-left: 556px;"><div style="box-sizing: border-box; font-size: 0; text-align: left; color: #B71C1C; "><div style="display: inline-block; font-size: 14px; font-family: &quot;Helvetica&quot;; color: light-dark(#B71C1C, #ff9c9c); line-height: 1.2; pointer-events: all; white-space: normal; word-wrap: normal; "><b>random_password</b><br />length = 32<br />entropía CSPRNG del SO<br /><br />⚠ NUNCA aparece en plan ni logs<br />⚠ SÍ se almacena en .tfstate (texto plano)</div></div></div></foreignObject><text x="556" y="219" fill="#B71C1C" font-family="&quot;Helvetica&quot;" font-size="14px">random_password...</text></switch></g></g><g><rect x="560" y="345" width="60" height="60" fill="none" stroke="none" pointer-events="all"/><path d="M 588.67 378.6 C 588.67 379.33 589.27 379.93 590 379.93 C 590.73 379.93 591.33 379.33 591.33 378.6 C 591.33 377.87 590.73 377.27 590 377.27 C 589.27 377.27 588.67 377.87 588.67 378.6 Z M 586.53 378.6 C 586.53 376.69 588.09 375.13 590 375.13 C 591.91 375.13 593.47 376.69 593.47 378.6 C 593.47 380.14 592.46 381.43 591.07 381.88 L 591.07 384.64 L 588.93 384.64 L 588.93 381.88 C 587.54 381.43 586.53 380.14 586.53 378.6 Z M 599.64 372.86 L 580.36 372.86 L 580.36 386.79 L 599.64 386.79 L 599.64 383.57 L 596.43 383.57 L 596.43 381.43 L 599.64 381.43 L 599.64 378.21 L 596.43 378.21 L 596.43 376.07 L 599.64 376.07 Z M 583.57 370.71 L 596.43 370.71 L 596.43 365.36 C 596.43 362.55 593.37 360 590 360 L 590 360 C 588.36 360 586.71 360.62 585.46 361.69 C 584.26 362.72 583.57 364.06 583.57 365.36 Z M 598.57 365.36 L 598.57 370.71 L 600.71 370.71 C 601.31 370.71 601.79 371.19 601.79 371.79 L 601.79 387.86 C 601.79 388.45 601.31 388.93 600.71 388.93 L 579.29 388.93 C 578.69 388.93 578.21 388.45 578.21 387.86 L 578.21 371.79 C 578.21 371.19 578.69 370.71 579.29 370.71 L 581.43 370.71 L 581.43 365.36 C 581.43 363.43 582.39 361.5 584.06 360.06 C 585.69 358.66 587.86 357.86 590 357.86 L 590 357.86 C 594.57 357.86 598.57 361.36 598.57 365.36 Z M 567.72 391.12 L 569.46 389.87 C 566.53 385.82 564.91 381.07 564.71 376.07 L 567.5 376.07 L 567.5 373.93 L 564.71 373.93 C 564.93 368.96 566.54 364.24 569.46 360.21 L 567.72 358.96 C 564.54 363.35 562.78 368.51 562.57 373.93 L 560 373.93 L 560 376.07 L 562.57 376.07 C 562.77 381.52 564.53 386.71 567.72 391.12 Z M 604.83 395.58 C 600.79 398.5 596.05 400.12 591.07 400.33 L 591.07 397.5 L 588.93 397.5 L 588.93 400.33 C 583.95 400.12 579.21 398.5 575.17 395.58 L 573.92 397.32 C 578.32 400.51 583.49 402.26 588.93 402.47 L 588.93 405 L 591.07 405 L 591.07 402.47 C 596.51 402.26 601.68 400.51 606.08 397.32 Z M 575.17 354.5 C 579.21 351.58 583.95 349.96 588.93 349.75 L 588.93 352.5 L 591.07 352.5 L 591.07 349.75 C 596.05 349.96 600.79 351.58 604.83 354.5 L 606.08 352.76 C 601.68 349.58 596.51 347.82 591.07 347.61 L 591.07 345 L 588.93 345 L 588.93 347.61 C 583.49 347.82 578.32 349.57 573.92 352.76 Z M 617.43 373.93 C 617.21 368.51 615.46 363.35 612.28 358.96 L 610.54 360.21 C 613.45 364.24 615.07 368.96 615.28 373.93 L 612.5 373.93 L 612.5 376.07 L 615.29 376.07 C 615.09 381.07 613.47 385.82 610.54 389.87 L 612.28 391.12 C 615.47 386.71 617.23 381.52 617.43 376.07 L 620 376.07 L 620 373.93 Z M 607.56 359 L 615.96 350.6 L 614.44 349.08 L 606.04 357.48 Z M 572.44 391.08 L 564.04 399.48 L 565.56 401 L 573.96 392.6 Z M 577.86 361.34 L 561.96 345.44 L 560.44 346.96 L 576.34 362.86 Z M 605.21 388.69 L 619.56 403.04 L 618.04 404.56 L 603.69 390.21 Z" fill="#dd344c" stroke="none" pointer-events="all" style="fill: light-dark(rgb(221, 52, 76), rgb(255, 127, 147));"/></g><g><rect x="20" y="325" width="510" height="240" fill="#ffffff" stroke="#dd344c" pointer-events="all" style="fill: light-dark(rgb(255, 255, 255), rgb(18, 18, 18)); stroke: light-dark(rgb(221, 52, 76), rgb(255, 127, 147));"/></g><g><g transform="translate(-0.5 -0.5)"><switch><foreignObject style="overflow: visible; text-align: left;" pointer-events="none" width="100%" height="100%" requiredFeatures="http://www.w3.org/TR/SVG11/feature#Extensibility"><div xmlns="http://www.w3.org/1999/xhtml" style="display: flex; align-items: unsafe flex-start; justify-content: unsafe flex-start; width: 494px; height: 1px; padding-top: 342px; margin-left: 36px;"><div style="box-sizing: border-box; font-size: 0; text-align: left; color: #A1162F; "><div style="display: inline-block; font-size: 14px; font-family: &quot;Helvetica&quot;; color: light-dark(#A1162F, #ffa4b9); line-height: 1.2; pointer-events: all; white-space: normal; word-wrap: normal; "><b>Secrets Manager</b><br />aws_secretsmanager_secret + secret_version<br /><br />secret_string = jsonencode({<br />  username = var.db_username<br />  password = random_password.db.result<br />  host     = aws_db_instance.app.address<br />  port     = aws_db_instance.app.port<br />  dbname   = var.db_name<br />})<br /><br />recovery_window_in_days = 0  (lab — borrado inmediato)</div></div></div></foreignObject><text x="36" y="356" fill="#A1162F" font-family="&quot;Helvetica&quot;" font-size="14px">Secrets Manager...</text></switch></g></g><g><rect x="760" y="345" width="60" height="60" fill="none" stroke="none" pointer-events="all"/><path d="M 763.66 347.14 L 773.61 357.1 L 772.1 358.61 L 762.14 348.66 L 762.14 356.79 L 760 356.79 L 760 346.07 C 760 345.48 760.48 345 761.07 345 L 771.79 345 L 771.79 347.14 Z M 820 346.07 L 820 356.79 L 817.86 356.79 L 817.86 348.66 L 807.9 358.61 L 806.39 357.1 L 816.34 347.14 L 808.21 347.14 L 808.21 345 L 818.93 345 C 819.52 345 820 345.48 820 346.07 Z M 817.86 393.21 L 820 393.21 L 820 403.93 C 820 404.52 819.52 405 818.93 405 L 808.21 405 L 808.21 402.86 L 816.34 402.86 L 806.39 392.9 L 807.9 391.39 L 817.86 401.34 Z M 817.32 374.16 C 817.32 370.6 813.22 367.09 806.34 364.76 L 807.03 362.73 C 814.93 365.41 819.46 369.57 819.46 374.16 C 819.46 378.74 814.93 382.91 807.03 385.58 L 806.34 383.55 C 813.22 381.23 817.32 377.72 817.32 374.16 Z M 762.74 374.16 C 762.74 377.56 766.58 380.98 773.02 383.31 L 772.29 385.32 C 764.86 382.64 760.6 378.57 760.6 374.16 C 760.6 369.74 764.86 365.67 772.29 362.99 L 773.02 365.01 C 766.58 367.33 762.74 370.75 762.74 374.16 Z M 773.61 392.9 L 763.66 402.86 L 771.79 402.86 L 771.79 405 L 761.07 405 C 760.48 405 760 404.52 760 403.93 L 760 393.21 L 762.14 393.21 L 762.14 401.34 L 772.1 391.39 Z M 790 365.66 C 782.34 365.66 778.21 363.69 778.21 362.88 C 778.21 362.07 782.34 360.09 790 360.09 C 797.66 360.09 801.79 362.07 801.79 362.88 C 801.79 363.69 797.66 365.66 790 365.66 Z M 790.03 373.96 C 782.7 373.96 778.21 371.96 778.21 370.87 L 778.21 365.66 C 780.85 367.12 785.53 367.81 790 367.81 C 794.47 367.81 799.15 367.12 801.79 365.66 L 801.79 370.87 C 801.79 371.96 797.32 373.96 790.03 373.96 Z M 790.03 382.14 C 782.7 382.14 778.21 380.14 778.21 379.05 L 778.21 373.78 C 780.82 375.31 785.44 376.1 790.03 376.1 C 794.6 376.1 799.19 375.31 801.79 373.79 L 801.79 379.05 C 801.79 380.14 797.32 382.14 790.03 382.14 Z M 790 389.48 C 782.37 389.48 778.21 387.43 778.21 386.38 L 778.21 381.96 C 780.82 383.49 785.44 384.29 790.03 384.29 C 794.6 384.29 799.19 383.5 801.79 381.97 L 801.79 386.38 C 801.79 387.43 797.63 389.48 790 389.48 Z M 790 357.95 C 783.29 357.95 776.07 359.49 776.07 362.88 L 776.07 386.38 C 776.07 389.82 783.08 391.63 790 391.63 C 796.92 391.63 803.93 389.82 803.93 386.38 L 803.93 362.88 C 803.93 359.49 796.71 357.95 790 357.95 Z" fill="#3334b9" stroke="none" pointer-events="all" style="fill: light-dark(rgb(51, 52, 185), rgb(175, 176, 255));"/></g><g><rect x="900" y="315" width="500" height="240" fill="#ffffff" stroke="#3334b9" pointer-events="all" style="fill: light-dark(rgb(255, 255, 255), rgb(18, 18, 18)); stroke: light-dark(rgb(51, 52, 185), rgb(175, 176, 255));"/></g><g><g transform="translate(-0.5 -0.5)"><switch><foreignObject style="overflow: visible; text-align: left;" pointer-events="none" width="100%" height="100%" requiredFeatures="http://www.w3.org/TR/SVG11/feature#Extensibility"><div xmlns="http://www.w3.org/1999/xhtml" style="display: flex; align-items: unsafe flex-start; justify-content: unsafe flex-start; width: 484px; height: 1px; padding-top: 332px; margin-left: 916px;"><div style="box-sizing: border-box; font-size: 0; text-align: left; color: #1A237E; "><div style="display: inline-block; font-size: 14px; font-family: &quot;Helvetica&quot;; color: light-dark(#1A237E, #bfc7ff); line-height: 1.2; pointer-events: all; white-space: normal; word-wrap: normal; "><b>aws_db_instance "app"</b><br />engine            = mysql 8.0<br />instance_class    = db.t4g.micro<br />allocated_storage = 20 GB<br /><b>password = random_password.db.result</b>  (inyección directa)<br />storage_encrypted = true<br />kms_key_id        = aws_kms_key.main.arn<br /><br />Sin variables intermedias — el password no pasa por var.* ni archivos.</div></div></div></foreignObject><text x="916" y="346" fill="#1A237E" font-family="&quot;Helvetica&quot;" font-size="14px">aws_db_instance "app"...</text></switch></g></g><g><rect x="650" y="635" width="60" height="60" fill="none" stroke="none" pointer-events="all"/><path d="M 693.84 679.17 L 701.92 679.17 L 701.92 676.86 L 693.84 676.86 Z M 683.46 679.17 L 691.54 679.17 L 691.54 676.86 L 683.46 676.86 Z M 673.07 679.17 L 681.15 679.17 L 681.15 676.86 L 673.07 676.86 Z M 685.77 669.94 C 685.77 668.67 686.8 667.63 688.08 667.63 C 689.35 667.63 690.38 668.67 690.38 669.94 C 690.38 671.21 689.35 672.25 688.08 672.25 C 686.8 672.25 685.77 671.21 685.77 669.94 Z M 692.69 669.94 C 692.69 667.39 690.62 665.32 688.08 665.32 C 685.53 665.32 683.46 667.39 683.46 669.94 C 683.46 672.48 685.53 674.55 688.08 674.55 C 690.62 674.55 692.69 672.48 692.69 669.94 Z M 676.54 667.63 C 677.81 667.63 678.84 668.67 678.84 669.94 C 678.84 671.21 677.81 672.25 676.54 672.25 C 675.26 672.25 674.23 671.21 674.23 669.94 C 674.23 668.67 675.26 667.63 676.54 667.63 Z M 676.54 674.55 C 679.08 674.55 681.15 672.48 681.15 669.94 C 681.15 667.39 679.08 665.32 676.54 665.32 C 673.99 665.32 671.92 667.39 671.92 669.94 C 671.92 672.48 673.99 674.55 676.54 674.55 Z M 710 657.25 L 710 683.79 C 710 684.42 709.48 684.94 708.85 684.94 L 673.07 684.94 L 673.07 682.63 L 707.69 682.63 L 707.69 658.4 L 682.31 658.4 L 682.31 656.09 L 708.85 656.09 C 709.48 656.09 710 656.61 710 657.25 Z M 669.26 663.07 C 668.78 663.22 668.46 663.67 668.46 664.17 L 668.46 688.45 L 665.69 690.82 L 662.69 687.39 L 662.69 684.36 C 662.69 684.06 662.57 683.76 662.35 683.55 L 659.71 680.9 L 662.35 678.26 C 662.57 678.04 662.69 677.75 662.69 677.44 L 662.69 675.13 C 662.69 674.83 662.57 674.53 662.35 674.32 L 659.71 671.67 L 662.35 669.02 C 662.57 668.81 662.69 668.51 662.69 668.21 L 662.69 664.18 C 662.69 663.68 662.36 663.23 661.88 663.08 C 655.95 661.2 652.44 655.1 653.73 648.88 C 654.65 644.41 658.09 640.82 662.5 639.74 C 666.25 638.82 670.09 639.62 673.05 641.94 C 676 644.25 677.69 647.73 677.69 651.48 C 677.69 656.73 674.23 661.5 669.26 663.07 Z M 680 651.48 C 680 647.02 677.98 642.88 674.47 640.12 C 670.96 637.36 666.4 636.41 661.95 637.5 C 656.68 638.78 652.57 643.07 651.47 648.42 L 651.47 648.42 C 650 655.51 653.81 662.48 660.38 665 L 660.38 667.73 L 657.26 670.85 C 656.81 671.31 656.81 672.03 657.26 672.49 L 660.38 675.61 L 660.38 676.96 L 657.26 680.09 C 656.81 680.54 656.81 681.27 657.26 681.72 L 660.38 684.84 L 660.38 687.82 C 660.38 688.1 660.48 688.37 660.67 688.59 L 664.71 693.2 C 664.93 693.46 665.25 693.59 665.57 693.59 C 665.84 693.59 666.11 693.5 666.32 693.32 L 670.36 689.85 C 670.62 689.64 670.77 689.32 670.77 688.98 L 670.77 664.99 C 676.24 662.87 680 657.44 680 651.48 Z M 665.57 654.21 C 663.98 654.21 662.69 652.92 662.69 651.33 C 662.69 649.74 663.98 648.44 665.57 648.44 C 667.16 648.44 668.46 649.74 668.46 651.33 C 668.46 652.92 667.16 654.21 665.57 654.21 Z M 665.57 646.13 C 662.71 646.13 660.38 648.46 660.38 651.33 C 660.38 654.19 662.71 656.52 665.57 656.52 C 668.44 656.52 670.77 654.19 670.77 651.33 C 670.77 648.46 668.44 646.13 665.57 646.13 Z" fill="#dd344c" stroke="none" pointer-events="all" style="fill: light-dark(rgb(221, 52, 76), rgb(255, 127, 147));"/></g><g><rect x="520" y="705" width="320" height="55" fill="none" stroke="none" pointer-events="all"/></g><g><g transform="translate(-0.5 -0.5)"><switch><foreignObject style="overflow: visible; text-align: left;" pointer-events="none" width="100%" height="100%" requiredFeatures="http://www.w3.org/TR/SVG11/feature#Extensibility"><div xmlns="http://www.w3.org/1999/xhtml" style="display: flex; align-items: unsafe center; justify-content: unsafe center; width: 318px; height: 1px; padding-top: 733px; margin-left: 521px;"><div style="box-sizing: border-box; font-size: 0; text-align: center; color: #A1162F; "><div style="display: inline-block; font-size: 14px; font-family: &quot;Helvetica&quot;; color: light-dark(#A1162F, #ffa4b9); line-height: 1.2; pointer-events: all; font-weight: bold; white-space: normal; word-wrap: normal; "><b>KMS CMK · alias/lab14-secrets</b><br />enable_key_rotation = true<br />Cifra TRES capas distintas:</div></div></div></foreignObject><text x="680" y="737" fill="#A1162F" font-family="&quot;Helvetica&quot;" font-size="14px" text-anchor="middle" font-weight="bold">KMS CMK · alias/lab14-secrets...</text></switch></g></g><g><rect x="860" y="645" width="540" height="100" fill="#ffcdd2" stroke="#c62828" stroke-dasharray="3 3" pointer-events="all" style="fill: light-dark(rgb(255, 205, 210), rgb(85, 42, 46)); stroke: light-dark(rgb(198, 40, 40), rgb(255, 145, 145));"/></g><g><g transform="translate(-0.5 -0.5)"><switch><foreignObject style="overflow: visible; text-align: left;" pointer-events="none" width="100%" height="100%" requiredFeatures="http://www.w3.org/TR/SVG11/feature#Extensibility"><div xmlns="http://www.w3.org/1999/xhtml" style="display: flex; align-items: unsafe center; justify-content: unsafe flex-start; width: 524px; height: 1px; padding-top: 695px; margin-left: 876px;"><div style="box-sizing: border-box; font-size: 0; text-align: left; color: #B71C1C; "><div style="display: inline-block; font-size: 14px; font-family: &quot;Helvetica&quot;; color: light-dark(#B71C1C, #ff9c9c); line-height: 1.2; pointer-events: all; white-space: normal; word-wrap: normal; ">🗝 Secrets Manager (secret_string)<br />🗝 RDS storage on-disk<br />🗝 Backend S3 (.tfstate)  ← <b>hardening en Paso 2</b></div></div></div></foreignObject><text x="876" y="699" fill="#B71C1C" font-family="&quot;Helvetica&quot;" font-size="14px">🗝 Secrets Manager (secret_string)...</text></switch></g></g><g><rect x="20" y="645" width="480" height="100" fill="#e8f5e9" stroke="#2e7d32" stroke-dasharray="3 3" pointer-events="all" style="fill: light-dark(rgb(232, 245, 233), rgb(21, 33, 22)); stroke: light-dark(rgb(46, 125, 50), rgb(100, 168, 104));"/></g><g><g transform="translate(-0.5 -0.5)"><switch><foreignObject style="overflow: visible; text-align: left;" pointer-events="none" width="100%" height="100%" requiredFeatures="http://www.w3.org/TR/SVG11/feature#Extensibility"><div xmlns="http://www.w3.org/1999/xhtml" style="display: flex; align-items: unsafe center; justify-content: unsafe center; width: 478px; height: 1px; padding-top: 695px; margin-left: 21px;"><div style="box-sizing: border-box; font-size: 0; text-align: center; color: #1B5E20; "><div style="display: inline-block; font-size: 14px; font-family: &quot;Helvetica&quot;; color: light-dark(#1B5E20, #82bc86); line-height: 1.2; pointer-events: all; white-space: normal; word-wrap: normal; ">📲 Consumo desde una aplicación:<br />aws secretsmanager get-secret-value --secret-id lab14/db<br />→ devuelve el JSON con todos los campos en una sola llamada.</div></div></div></foreignObject><text x="260" y="699" fill="#1B5E20" font-family="&quot;Helvetica&quot;" font-size="14px" text-anchor="middle">📲 Consumo desde una aplicación:...</text></switch></g></g><g><path d="M 710 115 L 710 146.76" fill="none" stroke="#7b42bc" stroke-width="2" stroke-miterlimit="10" pointer-events="stroke" style="stroke: light-dark(rgb(123, 66, 188), rgb(193, 144, 249));"/><path d="M 710 152.76 L 706 144.76 L 710 146.76 L 714 144.76 Z" fill="#7b42bc" stroke="#7b42bc" stroke-width="2" stroke-miterlimit="10" pointer-events="all" style="fill: light-dark(rgb(123, 66, 188), rgb(193, 144, 249)); stroke: light-dark(rgb(123, 66, 188), rgb(193, 144, 249));"/></g><g><path d="M 560 275 L 578.63 337.11" fill="none" stroke="#c62828" stroke-width="2" stroke-miterlimit="10" pointer-events="stroke" style="stroke: light-dark(rgb(198, 40, 40), rgb(255, 145, 145));"/><path d="M 580.36 342.86 L 574.23 336.35 L 578.63 337.11 L 581.89 334.05 Z" fill="#c62828" stroke="#c62828" stroke-width="2" stroke-miterlimit="10" pointer-events="all" style="fill: light-dark(rgb(198, 40, 40), rgb(255, 145, 145)); stroke: light-dark(rgb(198, 40, 40), rgb(255, 145, 145));"/></g><g><g transform="translate(-0.5 -0.5)"><switch><foreignObject style="overflow: visible; text-align: left;" pointer-events="none" width="100%" height="100%" requiredFeatures="http://www.w3.org/TR/SVG11/feature#Extensibility"><div xmlns="http://www.w3.org/1999/xhtml" style="display: flex; align-items: unsafe center; justify-content: unsafe center; width: 1px; height: 1px; padding-top: 310px; margin-left: 571px;"><div style="box-sizing: border-box; font-size: 0; text-align: center; color: #B71C1C; background-color: #ffffff; "><div style="display: inline-block; font-size: 12px; font-family: &quot;Helvetica&quot;; color: light-dark(#B71C1C, #ff9c9c); line-height: 1.2; pointer-events: all; background-color: light-dark(#ffffff, var(--ge-dark-color, #121212)); white-space: nowrap; ">result</div></div></div></foreignObject><text x="571" y="314" fill="#B71C1C" font-family="&quot;Helvetica&quot;" font-size="12px" text-anchor="middle">result</text></switch></g></g><g><path d="M 860 275 L 815.72 338.25" fill="none" stroke="#c62828" stroke-width="2" stroke-miterlimit="10" pointer-events="stroke" style="stroke: light-dark(rgb(198, 40, 40), rgb(255, 145, 145));"/><path d="M 812.28 343.17 L 813.59 334.32 L 815.72 338.25 L 820.15 338.91 Z" fill="#c62828" stroke="#c62828" stroke-width="2" stroke-miterlimit="10" pointer-events="all" style="fill: light-dark(rgb(198, 40, 40), rgb(255, 145, 145)); stroke: light-dark(rgb(198, 40, 40), rgb(255, 145, 145));"/></g><g><g transform="translate(-0.5 -0.5)"><switch><foreignObject style="overflow: visible; text-align: left;" pointer-events="none" width="100%" height="100%" requiredFeatures="http://www.w3.org/TR/SVG11/feature#Extensibility"><div xmlns="http://www.w3.org/1999/xhtml" style="display: flex; align-items: unsafe center; justify-content: unsafe center; width: 1px; height: 1px; padding-top: 310px; margin-left: 835px;"><div style="box-sizing: border-box; font-size: 0; text-align: center; color: #B71C1C; background-color: #ffffff; "><div style="display: inline-block; font-size: 12px; font-family: &quot;Helvetica&quot;; color: light-dark(#B71C1C, #ff9c9c); line-height: 1.2; pointer-events: all; background-color: light-dark(#ffffff, var(--ge-dark-color, #121212)); white-space: nowrap; ">result<br />(inyección directa)</div></div></div></foreignObject><text x="835" y="314" fill="#B71C1C" font-family="&quot;Helvetica&quot;" font-size="12px" text-anchor="middle">result...</text></switch></g></g><g><path d="M 671.13 636.41 L 601.75 412.87" fill="none" stroke="#dd344c" stroke-width="2" stroke-miterlimit="10" stroke-dasharray="6 6" pointer-events="stroke" style="stroke: light-dark(rgb(221, 52, 76), rgb(255, 127, 147));"/><path d="M 599.97 407.14 L 606.16 413.59 L 601.75 412.87 L 598.52 415.96 Z" fill="#dd344c" stroke="#dd344c" stroke-width="2" stroke-miterlimit="10" pointer-events="all" style="fill: light-dark(rgb(221, 52, 76), rgb(255, 127, 147)); stroke: light-dark(rgb(221, 52, 76), rgb(255, 127, 147));"/></g><g><path d="M 691.65 636.41 L 786.89 402.63" fill="none" stroke="#dd344c" stroke-width="2" stroke-miterlimit="10" stroke-dasharray="6 6" pointer-events="stroke" style="stroke: light-dark(rgb(221, 52, 76), rgb(255, 127, 147));"/><path d="M 789.16 397.07 L 789.84 405.99 L 786.89 402.63 L 782.43 402.97 Z" fill="#dd344c" stroke="#dd344c" stroke-width="2" stroke-miterlimit="10" pointer-events="all" style="fill: light-dark(rgb(221, 52, 76), rgb(255, 127, 147)); stroke: light-dark(rgb(221, 52, 76), rgb(255, 127, 147));"/></g><g><rect x="20" y="775" width="1380" height="80" fill="none" stroke="none" pointer-events="all"/></g><g><g transform="translate(-0.5 -0.5)"><switch><foreignObject style="overflow: visible; text-align: left;" pointer-events="none" width="100%" height="100%" requiredFeatures="http://www.w3.org/TR/SVG11/feature#Extensibility"><div xmlns="http://www.w3.org/1999/xhtml" style="display: flex; align-items: unsafe center; justify-content: unsafe center; width: 1378px; height: 1px; padding-top: 815px; margin-left: 21px;"><div style="box-sizing: border-box; font-size: 0; text-align: center; color: #555555; "><div style="display: inline-block; font-size: 14px; font-family: &quot;Helvetica&quot;; color: light-dark(#555555, #a4a4a4); line-height: 1.2; pointer-events: all; font-style: italic; white-space: normal; word-wrap: normal; "><b>Patrón Zero-Touch:</b> ningún humano ve la contraseña. Terraform la genera con <code>random_password</code>, la inyecta directamente en RDS y en el secreto JSON, y todo (Secrets Manager + RDS + backend S3 del tfstate) se cifra con la misma CMK. Sin var.db_password = sin riesgo de filtración por logs/CI/historial.<br />⚠ El .tfstate contiene el password en texto plano: por eso el hardening del backend con KMS es imprescindible (Paso 2 del lab).</div></div></div></foreignObject><text x="710" y="819" fill="#555555" font-family="&quot;Helvetica&quot;" font-size="14px" text-anchor="middle" font-style="italic">Patrón Zero-Touch: ningún humano ve la contraseña. Terraform la genera con random_password, la inyecta directamente en RDS y en el secreto JSON, y todo (Secrets Manager + RDS + backend S3 del tfsta...</text></switch></g></g></g><switch><g requiredFeatures="http://www.w3.org/TR/SVG11/feature#Extensibility"/><a transform="translate(0,-5)" xlink:href="https://www.drawio.com/doc/faq/svg-export-text-problems" target="_blank"><text text-anchor="middle" font-size="10px" x="50%" y="100%">Text is not SVG - cannot display</text></a></switch></svg>