<svg xmlns="http://www.w3.org/2000/svg" style="background: transparent; background-color: transparent;" xmlns:xlink="http://www.w3.org/1999/xlink" version="1.1" width="1361px" height="720px" viewBox="-0.5 -0.5 1361 720" content="&lt;mxfile&gt;&lt;diagram name=&quot;Arquitectura Lab-44&quot; id=&quot;lab44-arch&quot;&gt;7Vxtc6M4Ev41VGWualy82vgjfttJlTOTSnI3s/fFJYNss4ORF3Di7K+/bgkwCDlxYpxk92ZeMqgRkpCep7vVakazhuvdbwnZrK5YQCPN1IOdZo000+y7LvxEwaMQGLqdS5ZJGOSyveA2/IsWFXPpNgxoWquYMRZl4aYu9FkcUz+ryUiSsId6tQWL6r1uyJI2BLc+iZrS72GQrXKprev7G19ouFzlXbvFjTUpKueCdEUC9lARWWPNGiaMZeJqvRvSCCevmBfx3OTA3XJgCY2zYx7Iwgxeij90T6Jt/n6a2Y3g8cGCQSswyOwxf/Pun1tW3Pic8nXxoILhbmBtB/v7cLXEf6dk/tm2oYY2NjVX1/p4PY6zhC6JWJ8sjLf5Jfz0vt/CzyEAZkQ3EXssBgIvIMYims3nrhyWmdEdylfZOgKBAZckCpcxXPswETQBwT1NshCW0MtvrMMgwMcHD6swo7cb4mNbDwDY/P1y2BlOUc67M/LykEUs4d1b8HuC8ztoTn++Itg73VVE+XL8RtmaZgm8qJ7ftXNk5NwogPJQwZlVCFcVjFlOju8c28uy5f3yw0WOADUa/GA6j05Hg30ADUVDc2UrzfpKHMwbrSWFxNtsoOULn60324zONhHJFixZI/ywI/2WJrAOnyrDONSS6HVNcZXjRbhU9s9f9iqMw/V2/YWSKFs99pxrP3uqud8StsVBXn6dXU+94RjHNjS1QQ8uvl/efZnd3XiTyeVwNvz29e7m2/R0AkR0kZ0Cf70Jd8MzrV5LcDcsCe92E/BWX4H3bgt4Ty0F2KWZTX/SzMeB4ESwbRaFMR2WdkUxO6UyWCYkCOn+XsxinPBFGEWV6j3PM4wuyNMsYT+pVDkg6YoGeUfFGoJWpdE1S8MsZLiWc5ZlbK1Y5IxtVKqwgpLqSpfl/OWxS5JuxIsuwh2OY7BhIbYyvofG0rwRMGIbfGC9W6K975CH1O7Mtz7M3OwhzFYzNv8DWklbQozRq0PG0JuQ6aoQo7eBmA+lIW8BwHpC78MUkJDCtZj149Qlt74UYGbqf4Wb0gb72tDSBlYQLtlB7SPEQXgvi06eAbLZIOQ6jwDRp3sHsWIA5xhT6ifhBuALIGlM4gsH+Z5q23HcAeK8HRJaRp2EhT6uOio9BQt7LehtEs3fX3G7Q3symfzzFDcwMIKx4BBnESPBbE4iEvt8AC0gx3Xr2rvfxE0BpbbNPcDmQ2lvbzpA/8/En3ckWaLi1nMP8RgFHlDYR4UAP7FYsMsmj6Wza+hpxbnskjUiKp6nm+eV1jl06Io7yOXooOdC8jH155l3eX3neR/GdBXq02mDB+lywHbn48F+u7PHs37hbTOGmzBYjTBeVu4IAkzJNvYRIHd0jTs3cEuGGBFYovKrBQU+HQ1nCS3QXxxwpWwcQEBVwda1Pah6d2w0tD3e6Xuu6ZR3ioCQWTUCz2nsI5ArTEIK44XZu8PCyN0LpvyhkWE2YdvzHIw/tQJbR45O9JqwdVXRidIVOAW3cwIG/awafMo41oifbQn2fLFXsQkPYXW1vrli7Gdalsr7n5oKupCEheAKfWvP2IVrpAKgBv/oIjy6iGjNcw8rrby39r7o5UNNSYwjT0MgaYJTFYTphsXhPKKfTlPle3LqryGnyhU7TE6Zj7rK2zpoO85IMEOXDINlHGkYemanDdOA6vatnKTcC2pqeLX7o1O+PSUBxovH4NjwjgKa+uA7oYzTiMBUL4DACNP/Xl7zGmh2LD6nUOkP6m8zrB4x9JAEmwsSHrP9bBe4o3FPCdzBUDdHSuAetConodgZ2brVa8lMdCUQK5z8ngrEVgtWAnYryfqs/o020bX+ROt7mucibiO2Db6jbYLCFQw39NFxwWFo9ZMPdIE+37AomhP/59t4LePBeKzC17ALhtpVei1VSJXlN3BUBj1jaAzbQaDkp9huU4uqj1EMty0IXuFZ34fZa5a4FMM6dJxBk4Qls4S73/lW7XJykdA/tzTN+IaycEYKpawLP/2CPylqTDQMSopHwCvQ/8W3o3lFXeEnVZ7NO+UHgRNvH4oYi71ycVby5e7uGu3FTOybZ86PH7MhECWrVrrdIgG7tY2wPmUkGBQRjbK7qWJ7XX3rowZ1Ix5oZxxnNjsH/KUDauEpS/PcTvttiS9ZHkdxftq1FbxvjfY32zYO1Nui/d0qoemK5zd4h7yqGuVlet+TpLOvMcvK9rCuUzhlfNloErKA+1Q+i1P0ssJ7LB7aFR37DllCSTZbh2kKMJoFhDtvgi8xy4CmxF/xiILy9S74hgW3KSQhfOuCq8zPOLyYN4FI4IGzLBHbs0Xos8O7mV88fAUPu4ptjJKHdgs8TEoP69weoK25Nt87FAGv2RKDWh0Cjt6sGMbM5zkEWxGmVVg/EZIvQ6POYDS+nn77/Wr89W428S6n/74ZC9tZkd/efbueffs686bezZXmjJrNcm0k962XcYuCChGSgtfl7KA1slRrV7dn8MbF0eEjN/ZhnGaEN8V/iCNJcZCIvRLcjIQseRtSDUfcj/3nkapnStZNxSqVV9uGdeMb5fPuq+TQQG03rqsUvNi9c9v23jGyil94i3ugOnsGdMESeslpEkn3vAWwQ33rpbbyPwBcsJAUU51C4MsBm+hvEzGj+SnMp84LJ/DtDt9vUUkVrwWXC5gkWTVx7RP7IcozguecgVRjbxJ01M1rYeiB06zznmHL/xtN1VXl6Kg0ldOGH54kw+BWldv1QkyaBzBZiTkWyTfHWjYaBx5mIEPJjwi4tD5fZZJkTXEFOXWYNfBSpna84AzqqQwRuguzH/kzeP07dtxx8tJol4+DFx7zwkHU0EDKps7EWTcXFSl4Kdsmfl6tGoQ+iDC9AxzJ08YTGoHeva/3okJQ3to15kLsmzJkb9XUpVC6GF3+2B6IzZYs05FakvAs3r3REiw+34IU1Xi2RvrEkMucyCLCZejPjEx6oEi83HNKjEF6vBgQWyxSmmkyC8t1OZ6YXro8HzNZwkMwIryf0fQkWh7PvzIj9ulo6lO5tK+hHBauwbGGJcBYv5DFsBw/qgXRkm07hWDfGC89Vktyc69jdTXDoMrsrprSJ/O3Tjqj/0r6ysfbZYT4Gfa+jgpeND8rFzIfnNCJqzdcyudSb97bZJ2cx9jAZs26iOTBs6PQkl2ZY1HYNyRrJOdOtI5CcVR1LhwKZ7uP5w/krRTyE8dbL3GInneJXwe1fKU/6x1YbrsVJwa5XUPfK3Wg1I4thw5acmBkb8R038Mb4cgfBmfUwUm4XPIDnuSFx74fjACFewKItQqnBB0LgLCumyd4KZ3SLfm98H7exkfpqvi6Tx1o3z7o0qdOjrw3OJailm13YGNh2UByw3FdXTI8XbvT7wMo+45u9V1DUgTtWY+IwkatBfK0ddhV+ahOfMqi/KLu4EGYFOAuEvsQR1G+n9CKPCE5XbvmYREeCNSOyDCqx6jo50qf/pbEASs6F6niPLs7H7zPeF7TaUFB0Ug5A2K8a5L4BKcPk/3Sl0YGzxEDnOKEbFjEHYlRJib3FRPxxMeazclYk/LzqH26o6Xl+WR47FOGHVNeByYX6IABRf22ebLi7HZa43yFnXlBVcHSw6FQlGjPnOCcGC4954faclK1IsTp8F9PmYwXhDilCGe3GeE0rKLZtg9jTIXWlab63N8/jUc9Q2/6Hu/w/ZOcpHba90+ZvZzlzKYlUhqwUIDnMFLksIJhdExFRqQqq7cFrHyAj5x/YeVYrHQt5z2xYv/Cyt8HK27jW4E3xYrzCyt/H6zIHxy+MVa6L8RKHj6CG84A/mDusPiLmU5DlPDRN4QqWa8pNJrV4B9D1YMsVMl6TaHRrIalYtR1oUrWc5ojlp82FE8b0tPO6KXUkzg27JvOSPnl44L/+ohEU5IqoSLAconBAUzvTsVVvRbuoEQ+XzvEs0yZeHan1yRe12oSr5C9gHhQ3P/nYSKks/8v2Kzx/wA=&lt;/diagram&gt;&lt;/mxfile&gt;"><defs/><g><g><rect x="1" y="0" width="1320" height="35" fill="none" stroke="none" pointer-events="all"/></g><g><g transform="translate(-0.5 -0.5)"><switch><foreignObject style="overflow: visible; text-align: left;" pointer-events="none" width="100%" height="100%" requiredFeatures="http://www.w3.org/TR/SVG11/feature#Extensibility"><div xmlns="http://www.w3.org/1999/xhtml" style="display: flex; align-items: unsafe center; justify-content: unsafe center; width: 1318px; height: 1px; padding-top: 18px; margin-left: 2px;"><div style="box-sizing: border-box; font-size: 0; text-align: center; color: #232F3E; "><div style="display: inline-block; font-size: 15px; font-family: &quot;Helvetica&quot;; color: light-dark(#232F3E, #bdc7d4); line-height: 1.2; pointer-events: all; font-weight: bold; white-space: normal; word-wrap: normal; "><font style="font-size: 18px;">Lab-44 — Entrega continua con AWS CodeDeploy</font></div></div></div></foreignObject><text x="661" y="22" fill="#232F3E" font-family="&quot;Helvetica&quot;" font-size="15px" text-anchor="middle" font-weight="bold">Lab-44 — Entrega continua con AWS CodeDeploy</text></switch></g></g><g><rect x="91" y="220" width="390" height="65" fill="none" stroke="none" pointer-events="all"/></g><g><g transform="translate(-0.5 -0.5)"><switch><foreignObject style="overflow: visible; text-align: left;" pointer-events="none" width="100%" height="100%" requiredFeatures="http://www.w3.org/TR/SVG11/feature#Extensibility"><div xmlns="http://www.w3.org/1999/xhtml" style="display: flex; align-items: unsafe center; justify-content: unsafe flex-start; width: 388px; height: 1px; padding-top: 253px; margin-left: 93px;"><div style="box-sizing: border-box; font-size: 0; text-align: left; color: #1A237E; "><div style="display: inline-block; font-size: 10px; font-family: &quot;Helvetica&quot;; color: light-dark(#1A237E, #bfc7ff); line-height: 1.2; pointer-events: all; white-space: normal; word-wrap: normal; "><font style="font-size: 14px;"><b style="">CodeDeploy</b><br />App (compute_platform = Server)<b><br />DeploymentConfig</b>: MinimumHealthy75Pct<br />DeploymentGroup IN_PLACE · WITH_TRAFFIC_CONTROL</font></div></div></div></foreignObject><text x="93" y="256" fill="#1A237E" font-family="&quot;Helvetica&quot;" font-size="10px">CodeDeploy...</text></switch></g></g><g><rect x="1131" y="80" width="60" height="60" fill="none" stroke="none" pointer-events="all"/><path d="M 1156.08 120.56 L 1146.65 120.56 C 1145.9 120.56 1145.28 121.18 1145.28 121.93 L 1145.28 131.47 C 1145.28 132.23 1145.9 132.84 1146.65 132.84 L 1156.08 132.84 C 1156.84 132.84 1157.45 132.23 1157.45 131.47 L 1157.45 121.93 C 1157.45 121.18 1156.84 120.56 1156.08 120.56 Z M 1148.02 130.11 L 1148.02 123.3 L 1154.72 123.3 L 1154.72 130.11 Z M 1168.6 128.13 C 1172.31 128.13 1175.33 125.1 1175.33 121.37 C 1175.33 117.63 1172.31 114.6 1168.6 114.6 C 1164.88 114.6 1161.86 117.63 1161.86 121.37 C 1161.86 125.1 1164.88 128.13 1168.6 128.13 Z M 1168.6 117.33 C 1170.8 117.33 1172.6 119.14 1172.6 121.37 C 1172.6 123.59 1170.8 125.4 1168.6 125.4 C 1166.39 125.4 1164.59 123.59 1164.59 121.37 C 1164.59 119.14 1166.39 117.33 1168.6 117.33 Z M 1156.07 115.44 C 1156.31 115.02 1156.3 114.49 1156.05 114.07 L 1150.08 104.13 C 1149.59 103.3 1148.23 103.3 1147.74 104.13 L 1141.77 114.07 C 1141.52 114.49 1141.51 115.02 1141.76 115.45 C 1142 115.88 1142.45 116.14 1142.94 116.14 L 1154.88 116.14 C 1155.37 116.14 1155.82 115.88 1156.07 115.44 Z M 1145.36 113.4 L 1148.91 107.49 L 1152.46 113.4 Z M 1189.7 113.03 C 1189.41 111.47 1187.61 109.81 1183.94 107.71 L 1186.27 90.35 L 1186.27 90.34 L 1186.27 90.34 L 1186.34 89.81 C 1186.35 89.75 1186.35 89.69 1186.35 89.63 C 1186.35 83.96 1172.07 80 1159.26 80 C 1146.44 80 1132.16 83.96 1132.16 89.63 C 1132.16 89.69 1132.16 89.75 1132.17 89.81 L 1132.24 90.34 L 1132.24 90.34 L 1132.24 90.35 L 1138 133.12 C 1138.18 138.13 1151.1 140 1159.26 140 C 1163.77 140 1168.29 139.53 1172 138.67 C 1173.49 138.33 1174.83 137.92 1175.98 137.47 C 1178.93 136.3 1180.45 134.84 1180.51 133.12 L 1182.88 115.52 C 1184.18 115.8 1185.35 115.96 1186.33 115.96 C 1187.65 115.96 1188.64 115.68 1189.18 115.05 C 1189.65 114.48 1189.84 113.76 1189.7 113.03 Z M 1159.26 82.73 C 1173.44 82.73 1183.43 87.13 1183.62 89.56 L 1183.58 89.85 C 1183.56 89.93 1183.5 90.02 1183.46 90.1 C 1183.42 90.17 1183.39 90.24 1183.34 90.31 C 1183.28 90.4 1183.19 90.49 1183.11 90.58 C 1183.04 90.65 1182.99 90.72 1182.91 90.79 C 1182.81 90.88 1182.69 90.97 1182.57 91.06 C 1182.47 91.14 1182.39 91.21 1182.28 91.28 C 1182.15 91.37 1181.99 91.46 1181.84 91.55 C 1181.72 91.63 1181.6 91.7 1181.46 91.78 C 1181.3 91.86 1181.11 91.95 1180.94 92.04 C 1180.78 92.11 1180.63 92.19 1180.46 92.27 C 1180.27 92.35 1180.05 92.43 1179.85 92.52 C 1179.66 92.59 1179.48 92.67 1179.28 92.75 C 1179.06 92.83 1178.82 92.91 1178.58 92.99 C 1178.37 93.06 1178.16 93.14 1177.94 93.21 C 1177.69 93.29 1177.42 93.36 1177.16 93.44 C 1176.92 93.51 1176.68 93.58 1176.43 93.65 C 1176.16 93.73 1175.87 93.79 1175.58 93.86 C 1175.31 93.93 1175.05 94 1174.76 94.07 C 1174.47 94.13 1174.15 94.19 1173.84 94.26 C 1173.54 94.32 1173.26 94.38 1172.95 94.44 C 1172.62 94.51 1172.27 94.56 1171.92 94.62 C 1171.61 94.67 1171.31 94.73 1170.99 94.78 C 1170.63 94.84 1170.24 94.89 1169.87 94.94 C 1169.54 94.98 1169.23 95.03 1168.89 95.07 C 1168.5 95.12 1168.09 95.16 1167.68 95.2 C 1167.34 95.24 1167.01 95.28 1166.66 95.31 C 1166.22 95.35 1165.76 95.38 1165.3 95.41 C 1164.97 95.43 1164.65 95.46 1164.31 95.49 C 1163.79 95.52 1163.25 95.54 1162.72 95.56 C 1162.42 95.57 1162.14 95.59 1161.84 95.6 C 1161 95.62 1160.13 95.63 1159.26 95.63 C 1158.38 95.63 1157.51 95.62 1156.67 95.6 C 1156.38 95.59 1156.11 95.57 1155.82 95.56 C 1155.28 95.54 1154.73 95.52 1154.2 95.49 C 1153.88 95.47 1153.57 95.44 1153.26 95.42 C 1152.79 95.38 1152.31 95.35 1151.85 95.31 C 1151.52 95.28 1151.2 95.24 1150.88 95.21 C 1150.46 95.16 1150.03 95.12 1149.62 95.07 C 1149.3 95.03 1149.01 94.99 1148.7 94.95 C 1148.31 94.89 1147.9 94.84 1147.52 94.78 C 1147.22 94.73 1146.94 94.68 1146.65 94.63 C 1146.29 94.57 1145.91 94.51 1145.56 94.44 C 1145.27 94.39 1145 94.33 1144.72 94.27 C 1144.39 94.2 1144.06 94.14 1143.75 94.07 C 1143.48 94 1143.23 93.94 1142.97 93.87 C 1142.67 93.8 1142.36 93.73 1142.08 93.65 C 1141.84 93.59 1141.62 93.52 1141.39 93.45 C 1141.11 93.37 1140.83 93.29 1140.57 93.21 C 1140.36 93.14 1140.16 93.07 1139.95 93 C 1139.71 92.91 1139.46 92.83 1139.23 92.75 C 1139.04 92.67 1138.87 92.6 1138.69 92.53 C 1138.47 92.44 1138.25 92.35 1138.05 92.27 C 1137.89 92.19 1137.74 92.12 1137.59 92.04 C 1137.41 91.95 1137.22 91.86 1137.06 91.78 C 1136.92 91.7 1136.8 91.63 1136.68 91.55 C 1136.53 91.46 1136.37 91.37 1136.23 91.28 C 1136.13 91.21 1136.04 91.14 1135.95 91.06 C 1135.83 90.97 1135.7 90.88 1135.61 90.79 C 1135.53 90.72 1135.47 90.65 1135.4 90.58 C 1135.32 90.49 1135.23 90.4 1135.17 90.31 C 1135.12 90.24 1135.09 90.17 1135.06 90.1 C 1135.01 90.02 1134.96 89.93 1134.93 89.85 L 1134.9 89.56 C 1135.09 87.13 1145.08 82.73 1159.26 82.73 Z M 1177.79 132.83 C 1177.79 132.89 1177.78 132.95 1177.78 133.01 C 1177.78 133.22 1177.27 134.02 1174.97 134.93 C 1173.95 135.33 1172.74 135.69 1171.38 136.01 C 1167.87 136.82 1163.57 137.27 1159.26 137.27 C 1147.73 137.27 1140.73 134.31 1140.73 133.01 C 1140.73 132.95 1140.73 132.89 1140.72 132.83 L 1135.5 94.02 C 1135.83 94.22 1136.19 94.4 1136.57 94.58 C 1136.67 94.63 1136.77 94.67 1136.87 94.72 C 1137.21 94.88 1137.56 95.03 1137.93 95.17 C 1138.08 95.23 1138.22 95.29 1138.37 95.35 C 1138.76 95.49 1139.16 95.63 1139.57 95.76 C 1139.68 95.8 1139.78 95.84 1139.89 95.87 C 1140.41 96.04 1140.96 96.19 1141.51 96.34 C 1141.65 96.38 1141.8 96.41 1141.95 96.45 C 1142.38 96.56 1142.83 96.67 1143.29 96.77 C 1143.47 96.81 1143.65 96.85 1143.84 96.89 C 1144.34 97 1144.86 97.1 1145.39 97.2 C 1145.49 97.21 1145.59 97.24 1145.7 97.25 C 1146.33 97.36 1146.97 97.47 1147.62 97.56 C 1147.79 97.59 1147.97 97.61 1148.15 97.63 C 1148.65 97.7 1149.15 97.76 1149.66 97.82 C 1149.86 97.85 1150.06 97.87 1150.26 97.89 C 1150.87 97.96 1151.49 98.02 1152.1 98.07 C 1152.18 98.08 1152.25 98.08 1152.32 98.09 C 1153.01 98.14 1153.7 98.19 1154.39 98.23 C 1154.59 98.24 1154.78 98.25 1154.97 98.26 C 1155.5 98.28 1156.02 98.31 1156.55 98.32 C 1156.76 98.33 1156.96 98.34 1157.17 98.34 C 1157.86 98.36 1158.56 98.37 1159.26 98.37 C 1159.95 98.37 1160.65 98.36 1161.35 98.34 C 1161.55 98.34 1161.76 98.33 1161.96 98.32 C 1162.49 98.31 1163.01 98.28 1163.54 98.26 C 1163.73 98.25 1163.93 98.24 1164.12 98.23 C 1164.81 98.19 1165.51 98.14 1166.2 98.09 C 1166.27 98.08 1166.33 98.08 1166.4 98.07 C 1167.02 98.02 1167.64 97.96 1168.25 97.89 C 1168.45 97.87 1168.65 97.85 1168.85 97.82 C 1169.36 97.76 1169.87 97.7 1170.37 97.63 C 1170.54 97.61 1170.72 97.59 1170.89 97.56 C 1171.54 97.47 1172.19 97.36 1172.82 97.25 C 1172.92 97.24 1173.01 97.22 1173.11 97.2 C 1173.64 97.1 1174.17 97 1174.68 96.89 C 1174.86 96.85 1175.04 96.81 1175.22 96.77 C 1175.68 96.67 1176.14 96.56 1176.58 96.45 C 1176.72 96.41 1176.86 96.38 1177 96.34 C 1177.56 96.19 1178.1 96.04 1178.63 95.87 C 1178.73 95.84 1178.83 95.8 1178.94 95.77 C 1179.35 95.63 1179.76 95.49 1180.15 95.34 C 1180.29 95.29 1180.44 95.23 1180.58 95.18 C 1180.95 95.03 1181.31 94.87 1181.65 94.72 C 1181.75 94.67 1181.85 94.63 1181.94 94.59 C 1182.32 94.4 1182.68 94.22 1183.02 94.02 L 1180.58 112.12 C 1175.63 110.53 1168.68 107.65 1162.1 104.52 C 1162.02 103.01 1160.78 101.81 1159.26 101.81 C 1157.68 101.81 1156.4 103.09 1156.4 104.66 C 1156.4 106.24 1157.68 107.52 1159.26 107.52 C 1159.88 107.52 1160.45 107.32 1160.91 106.99 C 1166.81 109.82 1174.34 113.15 1180.21 114.85 Z M 1159.13 104.66 C 1159.13 104.6 1159.19 104.54 1159.26 104.54 C 1159.28 104.54 1159.29 104.55 1159.31 104.56 L 1159.21 104.75 C 1159.17 104.74 1159.13 104.72 1159.13 104.66 Z M 1183.24 112.9 L 1183.54 110.65 C 1185.95 112.11 1186.7 112.96 1186.92 113.33 C 1186.28 113.52 1184.98 113.34 1183.24 112.9 Z" fill="#7aa116" stroke="none" pointer-events="all" style="fill: light-dark(rgb(122, 161, 22), rgb(97, 130, 11));"/></g><g><rect x="1092" y="145" width="170" height="75" fill="none" stroke="none" pointer-events="all"/></g><g><g transform="translate(-0.5 -0.5)"><switch><foreignObject style="overflow: visible; text-align: left;" pointer-events="none" width="100%" height="100%" requiredFeatures="http://www.w3.org/TR/SVG11/feature#Extensibility"><div xmlns="http://www.w3.org/1999/xhtml" style="display: flex; align-items: unsafe center; justify-content: unsafe flex-start; width: 168px; height: 1px; padding-top: 183px; margin-left: 1094px;"><div style="box-sizing: border-box; font-size: 0; text-align: left; color: #558B2F; "><div style="display: inline-block; font-size: 10px; font-family: &quot;Helvetica&quot;; color: light-dark(#558B2F, #679546); line-height: 1.2; pointer-events: all; white-space: normal; word-wrap: normal; "><font style="font-size: 14px;"><b style="">S3 revisions bucket</b><br />contiene zip con código</font><div><font style="font-size: 14px;">appspec.yml</font></div><div><font style="font-size: 14px;">scripts/<br /></font></div></div></div></div></foreignObject><text x="1094" y="186" fill="#558B2F" font-family="&quot;Helvetica&quot;" font-size="10px">S3 revisions bucket...</text></switch></g></g><g><rect x="841" y="75" width="65" height="65" fill="none" stroke="none" pointer-events="all"/><path d="M 873.5 75 C 855.58 75 841 89.58 841 107.5 C 841 125.42 855.58 140 873.5 140 C 891.42 140 906 125.42 906 107.5 C 906 89.58 891.42 75 873.5 75 Z M 873.5 137.04 C 857.21 137.04 843.95 123.79 843.95 107.5 C 843.95 91.21 857.21 77.96 873.5 77.96 C 889.79 77.96 903.05 91.21 903.05 107.5 C 903.05 123.79 889.79 137.04 873.5 137.04 Z M 892.76 116.36 L 890.49 116.36 L 890.49 111.38 C 890.49 110.56 889.83 109.9 889.01 109.9 L 885.32 109.9 L 885.32 104.91 C 885.32 104.1 884.66 103.44 883.84 103.44 L 874.98 103.44 L 874.98 99.93 L 883.84 99.93 C 884.66 99.93 885.32 99.27 885.32 98.45 L 885.32 86.82 C 885.32 86 884.66 85.34 883.84 85.34 L 863.16 85.34 C 862.34 85.34 861.68 86 861.68 86.82 L 861.68 98.45 C 861.68 99.27 862.34 99.93 863.16 99.93 L 872.02 99.93 L 872.02 103.44 L 863.16 103.44 C 862.34 103.44 861.68 104.1 861.68 104.91 L 861.68 109.9 L 857.99 109.9 C 857.17 109.9 856.51 110.56 856.51 111.38 L 856.51 116.36 L 854.24 116.36 C 853.43 116.36 852.77 117.02 852.77 117.84 L 852.77 124.3 C 852.77 125.12 853.43 125.78 854.24 125.78 L 860.57 125.78 C 861.39 125.78 862.05 125.12 862.05 124.3 L 862.05 117.84 C 862.05 117.02 861.39 116.36 860.57 116.36 L 859.47 116.36 L 859.47 112.85 L 865.56 112.85 L 865.56 116.36 L 864.45 116.36 C 863.64 116.36 862.98 117.02 862.98 117.84 L 862.98 124.3 C 862.98 125.12 863.64 125.78 864.45 125.78 L 870.92 125.78 C 871.73 125.78 872.39 125.12 872.39 124.3 L 872.39 117.84 C 872.39 117.02 871.73 116.36 870.92 116.36 L 868.52 116.36 L 868.52 111.38 C 868.52 110.56 867.85 109.9 867.04 109.9 L 864.64 109.9 L 864.64 106.39 L 882.36 106.39 L 882.36 109.9 L 879.96 109.9 C 879.15 109.9 878.49 110.56 878.49 111.38 L 878.49 116.36 L 876.09 116.36 C 875.27 116.36 874.61 117.02 874.61 117.84 L 874.61 124.3 C 874.61 125.12 875.27 125.78 876.09 125.78 L 882.55 125.78 C 883.36 125.78 884.03 125.12 884.03 124.3 L 884.03 117.84 C 884.03 117.02 883.36 116.36 882.55 116.36 L 881.44 116.36 L 881.44 112.85 L 887.53 112.85 L 887.53 116.36 L 886.34 116.36 C 885.52 116.36 884.86 117.02 884.86 117.84 L 884.86 124.3 C 884.86 125.12 885.52 125.78 886.34 125.78 L 892.76 125.78 C 893.57 125.78 894.23 125.12 894.23 124.3 L 894.23 117.84 C 894.23 117.02 893.57 116.36 892.76 116.36 Z M 864.64 96.97 L 864.64 88.3 L 882.36 88.3 L 882.36 96.97 Z M 855.72 122.83 L 855.72 119.32 L 859.1 119.32 L 859.1 122.83 Z M 865.93 122.83 L 865.93 119.32 L 869.44 119.32 L 869.44 122.83 Z M 877.56 122.83 L 877.56 119.32 L 881.07 119.32 L 881.07 122.83 Z M 887.81 122.83 L 887.81 119.32 L 891.28 119.32 L 891.28 122.83 Z" fill="#8c4fff" stroke="none" pointer-events="all" style="fill: light-dark(rgb(140, 79, 255), rgb(177, 125, 255));"/></g><g><rect x="911" y="80" width="280" height="55" fill="none" stroke="none" pointer-events="all"/></g><g><g transform="translate(-0.5 -0.5)"><switch><foreignObject style="overflow: visible; text-align: left;" pointer-events="none" width="100%" height="100%" requiredFeatures="http://www.w3.org/TR/SVG11/feature#Extensibility"><div xmlns="http://www.w3.org/1999/xhtml" style="display: flex; align-items: unsafe center; justify-content: unsafe flex-start; width: 278px; height: 1px; padding-top: 108px; margin-left: 913px;"><div style="box-sizing: border-box; font-size: 0; text-align: left; color: #232F3E; "><div style="display: inline-block; font-size: 11px; font-family: &quot;Helvetica&quot;; color: light-dark(#232F3E, #bdc7d4); line-height: 1.2; pointer-events: all; white-space: normal; word-wrap: normal; "><font style="font-size: 14px;"><b style="">ALB + Target Group</b><br />deregistration_delay = 10s · </font><div><font style="font-size: 14px;">health = /health</font></div></div></div></div></foreignObject><text x="913" y="111" fill="#232F3E" font-family="&quot;Helvetica&quot;" font-size="11px">ALB + Target Group...</text></switch></g></g><g><rect x="501" y="250" width="820" height="170" rx="25.5" ry="25.5" fill="#fff8e1" stroke="#f9a825" stroke-width="2" stroke-dasharray="6 6" pointer-events="all" style="fill: light-dark(rgb(255, 248, 225), rgb(30, 24, 4)); stroke: light-dark(rgb(249, 168, 37), rgb(149, 79, 0));"/></g><g><g transform="translate(-0.5 -0.5)"><switch><foreignObject style="overflow: visible; text-align: left;" pointer-events="none" width="100%" height="100%" requiredFeatures="http://www.w3.org/TR/SVG11/feature#Extensibility"><div xmlns="http://www.w3.org/1999/xhtml" style="display: flex; align-items: unsafe flex-start; justify-content: unsafe flex-start; width: 806px; height: 1px; padding-top: 265px; margin-left: 515px;"><div style="box-sizing: border-box; font-size: 0; text-align: left; color: #7A5800; "><div style="display: inline-block; font-size: 11px; font-family: &quot;Helvetica&quot;; color: light-dark(#7A5800, #bda054); line-height: 1.2; pointer-events: all; font-weight: bold; white-space: normal; word-wrap: normal; "><font style="font-size: 14px;">Deployment Group (Auto Scaling Group + Launch Template, Agente CodeDeploy) </font></div></div></div></foreignObject><text x="515" y="276" fill="#7A5800" font-family="&quot;Helvetica&quot;" font-size="11px" font-weight="bold">Deployment Group (Auto Scaling Group + Launch Template, Agente CodeDeploy) </text></switch></g></g><g><rect x="1011" y="290" width="280" height="72.5" fill="#ffffff" stroke="#f9a825" pointer-events="all" style="fill: light-dark(rgb(255, 255, 255), rgb(18, 18, 18)); stroke: light-dark(rgb(249, 168, 37), rgb(149, 79, 0));"/></g><g><g transform="translate(-0.5 -0.5)"><switch><foreignObject style="overflow: visible; text-align: left;" pointer-events="none" width="100%" height="100%" requiredFeatures="http://www.w3.org/TR/SVG11/feature#Extensibility"><div xmlns="http://www.w3.org/1999/xhtml" style="display: flex; align-items: unsafe center; justify-content: unsafe center; width: 278px; height: 1px; padding-top: 326px; margin-left: 1012px;"><div style="box-sizing: border-box; font-size: 0; text-align: center; color: #7A5800; "><div style="display: inline-block; font-size: 10px; font-family: &quot;Helvetica&quot;; color: light-dark(#7A5800, #bda054); line-height: 1.2; pointer-events: all; white-space: normal; word-wrap: normal; "><font style="font-size: 14px;">Lote actual (deregistrar→hooks→registrar)<br /><i>Máximo 25% del fleet</i> </font><div><font style="font-size: 14px;">(75% sano siempre disponible)</font></div></div></div></div></foreignObject><text x="1151" y="329" fill="#7A5800" font-family="&quot;Helvetica&quot;" font-size="10px" text-anchor="middle">Lote actual (deregistrar→hooks→registrar)...</text></switch></g></g><g><rect x="521" y="375" width="780" height="30" fill="#fffde7" stroke="#fbc02d" stroke-dasharray="3 3" pointer-events="all" style="fill: light-dark(rgb(255, 253, 231), rgb(24, 22, 4)); stroke: light-dark(rgb(251, 192, 45), rgb(120, 69, 0));"/></g><g><g transform="translate(-0.5 -0.5)"><switch><foreignObject style="overflow: visible; text-align: left;" pointer-events="none" width="100%" height="100%" requiredFeatures="http://www.w3.org/TR/SVG11/feature#Extensibility"><div xmlns="http://www.w3.org/1999/xhtml" style="display: flex; align-items: unsafe center; justify-content: unsafe center; width: 778px; height: 1px; padding-top: 390px; margin-left: 522px;"><div style="box-sizing: border-box; font-size: 0; text-align: center; color: #5D4037; "><div style="display: inline-block; font-size: 10px; font-family: &quot;Helvetica&quot;; color: light-dark(#5D4037, #c6ada5); line-height: 1.2; pointer-events: all; white-space: normal; word-wrap: normal; "><font style="font-size: 14px;"><b>Agente CodeDeploy</b> en cada EC2: descarga el artefacto ZIP de S3 y ejecuta los hooks del appspec.yml</font></div></div></div></foreignObject><text x="911" y="393" fill="#5D4037" font-family="&quot;Helvetica&quot;" font-size="10px" text-anchor="middle">Agente CodeDeploy en cada EC2: descarga el artefacto ZIP de S3 y ejecuta los hooks del appspec.yml</text></switch></g></g><g><rect x="1" y="460" width="1320" height="180" rx="27" ry="27" fill="#ffebee" stroke="#c62828" stroke-width="2" pointer-events="all" style="fill: light-dark(rgb(255, 235, 238), rgb(44, 27, 30)); stroke: light-dark(rgb(198, 40, 40), rgb(255, 145, 145));"/></g><g><g transform="translate(-0.5 -0.5)"><switch><foreignObject style="overflow: visible; text-align: left;" pointer-events="none" width="100%" height="100%" requiredFeatures="http://www.w3.org/TR/SVG11/feature#Extensibility"><div xmlns="http://www.w3.org/1999/xhtml" style="display: flex; align-items: unsafe flex-start; justify-content: unsafe flex-start; width: 1306px; height: 1px; padding-top: 475px; margin-left: 15px;"><div style="box-sizing: border-box; font-size: 0; text-align: left; color: #B71C1C; "><div style="display: inline-block; font-size: 12px; font-family: &quot;Helvetica&quot;; color: light-dark(#B71C1C, #ff9c9c); line-height: 1.2; pointer-events: all; font-weight: bold; white-space: normal; word-wrap: normal; "><font style="font-size: 14px;">🚨 CloudWatch Metric Alarm — Auto-Rollback</font></div></div></div></foreignObject><text x="15" y="487" fill="#B71C1C" font-family="&quot;Helvetica&quot;" font-size="12px" font-weight="bold">🚨 CloudWatch Metric Alarm — Auto-Rollback</text></switch></g></g><g><rect x="21" y="500" width="640" height="80" fill="#ffffff" stroke="#c62828" pointer-events="all" style="fill: light-dark(rgb(255, 255, 255), rgb(18, 18, 18)); stroke: light-dark(rgb(198, 40, 40), rgb(255, 145, 145));"/></g><g><g transform="translate(-0.5 -0.5)"><switch><foreignObject style="overflow: visible; text-align: left;" pointer-events="none" width="100%" height="100%" requiredFeatures="http://www.w3.org/TR/SVG11/feature#Extensibility"><div xmlns="http://www.w3.org/1999/xhtml" style="display: flex; align-items: unsafe center; justify-content: unsafe flex-start; width: 626px; height: 1px; padding-top: 540px; margin-left: 35px;"><div style="box-sizing: border-box; font-size: 0; text-align: left; color: #B71C1C; "><div style="display: inline-block; font-size: 10px; font-family: &quot;Helvetica&quot;; color: light-dark(#B71C1C, #ff9c9c); line-height: 1.2; pointer-events: all; white-space: normal; word-wrap: normal; "><font style="font-size: 14px;"><b style="">Metric Math</b>: error_rate = IF(requests &gt; 0, (errors / requests) * 100, 0)<br />errors  = AWS/ApplicationELB · HTTPCode_Target_5XX_Count · Sum 60s · LoadBalancer = ALB<br />requests = AWS/ApplicationELB · RequestCount · Sum 60s · LoadBalancer = ALB</font></div></div></div></foreignObject><text x="35" y="543" fill="#B71C1C" font-family="&quot;Helvetica&quot;" font-size="10px">Metric Math: error_rate = IF(requests &gt; 0, (errors / requests) * 100, 0)...</text></switch></g></g><g><rect x="21" y="590" width="640" height="40" fill="#ffffff" stroke="#c62828" pointer-events="all" style="fill: light-dark(rgb(255, 255, 255), rgb(18, 18, 18)); stroke: light-dark(rgb(198, 40, 40), rgb(255, 145, 145));"/></g><g><g transform="translate(-0.5 -0.5)"><switch><foreignObject style="overflow: visible; text-align: left;" pointer-events="none" width="100%" height="100%" requiredFeatures="http://www.w3.org/TR/SVG11/feature#Extensibility"><div xmlns="http://www.w3.org/1999/xhtml" style="display: flex; align-items: unsafe center; justify-content: unsafe flex-start; width: 626px; height: 1px; padding-top: 610px; margin-left: 35px;"><div style="box-sizing: border-box; font-size: 0; text-align: left; color: #B71C1C; "><div style="display: inline-block; font-size: 10px; font-family: &quot;Helvetica&quot;; color: light-dark(#B71C1C, #ff9c9c); line-height: 1.2; pointer-events: all; white-space: normal; word-wrap: normal; "><font style="font-size: 14px;"><b style="">Threshold:</b> error_rate &gt; var.error_rate_threshold % en 2 periodos consecutivos<br /><b style="">treat_missing_data = notBreaching</b> (no dispara si aún no hay tráfico)</font></div></div></div></foreignObject><text x="35" y="613" fill="#B71C1C" font-family="&quot;Helvetica&quot;" font-size="10px">Threshold: error_rate &gt; var.error_rate_threshold % en 2 periodos consecutivos...</text></switch></g></g><g><rect x="681" y="490" width="620" height="80" fill="#ffcdd2" stroke="#c62828" pointer-events="all" style="fill: light-dark(rgb(255, 205, 210), rgb(85, 42, 46)); stroke: light-dark(rgb(198, 40, 40), rgb(255, 145, 145));"/></g><g><g transform="translate(-0.5 -0.5)"><switch><foreignObject style="overflow: visible; text-align: left;" pointer-events="none" width="100%" height="100%" requiredFeatures="http://www.w3.org/TR/SVG11/feature#Extensibility"><div xmlns="http://www.w3.org/1999/xhtml" style="display: flex; align-items: unsafe center; justify-content: unsafe flex-start; width: 606px; height: 1px; padding-top: 530px; margin-left: 695px;"><div style="box-sizing: border-box; font-size: 0; text-align: left; color: #B71C1C; "><div style="display: inline-block; font-size: 10px; font-family: &quot;Helvetica&quot;; color: light-dark(#B71C1C, #ff9c9c); line-height: 1.2; pointer-events: all; white-space: normal; word-wrap: normal; "><font style="font-size: 14px;">🔄 deployment_group.auto_rollback_configuration<br />events = [DEPLOYMENT_FAILURE, DEPLOYMENT_STOP_ON_ALARM]<br />alarm_configuration → si la alarma se dispara → CodeDeploy detiene y reinstala la revisión anterior</font></div></div></div></foreignObject><text x="695" y="533" fill="#B71C1C" font-family="&quot;Helvetica&quot;" font-size="10px">🔄 deployment_group.auto_rollback_configuration...</text></switch></g></g><g><rect x="681" y="580" width="620" height="50" fill="#ffcdd2" stroke="#c62828" pointer-events="all" style="fill: light-dark(rgb(255, 205, 210), rgb(85, 42, 46)); stroke: light-dark(rgb(198, 40, 40), rgb(255, 145, 145));"/></g><g><g transform="translate(-0.5 -0.5)"><switch><foreignObject style="overflow: visible; text-align: left;" pointer-events="none" width="100%" height="100%" requiredFeatures="http://www.w3.org/TR/SVG11/feature#Extensibility"><div xmlns="http://www.w3.org/1999/xhtml" style="display: flex; align-items: unsafe center; justify-content: unsafe flex-start; width: 606px; height: 1px; padding-top: 605px; margin-left: 695px;"><div style="box-sizing: border-box; font-size: 0; text-align: left; color: #B71C1C; "><div style="display: inline-block; font-size: 10px; font-family: &quot;Helvetica&quot;; color: light-dark(#B71C1C, #ff9c9c); line-height: 1.2; pointer-events: all; white-space: normal; word-wrap: normal; "><font style="font-size: 14px;"><b>appspec.yml </b>hooks: </font><div><font style="font-size: 14px;">ApplicationStop → BeforeInstall → AfterInstall → <b style="">ValidateService</b> (curl /health). </font></div><div><font style="font-size: 14px;">Si Validate falla → instancia tainted → rollback automático.</font></div></div></div></div></foreignObject><text x="695" y="608" fill="#B71C1C" font-family="&quot;Helvetica&quot;" font-size="10px">appspec.yml hooks:...</text></switch></g></g><g><path d="M 1309.24 390 L 1351 390 L 1351 110 L 1198.08 110" fill="none" stroke="#558b2f" stroke-width="2" stroke-miterlimit="10" stroke-dasharray="6 6" pointer-events="stroke" style="stroke: light-dark(rgb(85, 139, 47), rgb(103, 149, 70));"/><path d="M 1303.24 390 L 1311.24 386 L 1309.24 390 L 1311.24 394 Z" fill="#558b2f" stroke="#558b2f" stroke-width="2" stroke-miterlimit="10" pointer-events="all" style="fill: light-dark(rgb(85, 139, 47), rgb(103, 149, 70)); stroke: light-dark(rgb(85, 139, 47), rgb(103, 149, 70));"/><path d="M 1192.08 110 L 1200.08 106 L 1198.08 110 L 1200.08 114 Z" fill="#558b2f" stroke="#558b2f" stroke-width="2" stroke-miterlimit="10" pointer-events="all" style="fill: light-dark(rgb(85, 139, 47), rgb(103, 149, 70)); stroke: light-dark(rgb(85, 139, 47), rgb(103, 149, 70));"/></g><g><g transform="translate(-0.5 -0.5)"><switch><foreignObject style="overflow: visible; text-align: left;" pointer-events="none" width="100%" height="100%" requiredFeatures="http://www.w3.org/TR/SVG11/feature#Extensibility"><div xmlns="http://www.w3.org/1999/xhtml" style="display: flex; align-items: unsafe center; justify-content: unsafe center; width: 1px; height: 1px; padding-top: 110px; margin-left: 1281px;"><div style="box-sizing: border-box; font-size: 0; text-align: center; color: #558B2F; background-color: #ffffff; "><div style="display: inline-block; font-size: 10px; font-family: &quot;Helvetica&quot;; color: light-dark(#558B2F, #679546); line-height: 1.2; pointer-events: all; background-color: light-dark(#ffffff, var(--ge-dark-color, #121212)); white-space: nowrap; "><font style="font-size: 12px;">descarga revision</font></div></div></div></foreignObject><text x="1281" y="113" fill="#558B2F" font-family="&quot;Helvetica&quot;" font-size="10px" text-anchor="middle">descarga revision</text></switch></g></g><g><path d="M 344 326.25 L 492.76 325.68" fill="none" stroke="#1a237e" stroke-width="2" stroke-miterlimit="10" pointer-events="stroke" style="stroke: light-dark(rgb(26, 35, 126), rgb(191, 199, 255));"/><path d="M 498.76 325.66 L 490.78 329.69 L 492.76 325.68 L 490.75 321.69 Z" fill="#1a237e" stroke="#1a237e" stroke-width="2" stroke-miterlimit="10" pointer-events="all" style="fill: light-dark(rgb(26, 35, 126), rgb(191, 199, 255)); stroke: light-dark(rgb(26, 35, 126), rgb(191, 199, 255));"/></g><g><g transform="translate(-0.5 -0.5)"><switch><foreignObject style="overflow: visible; text-align: left;" pointer-events="none" width="100%" height="100%" requiredFeatures="http://www.w3.org/TR/SVG11/feature#Extensibility"><div xmlns="http://www.w3.org/1999/xhtml" style="display: flex; align-items: unsafe center; justify-content: unsafe center; width: 1px; height: 1px; padding-top: 326px; margin-left: 422px;"><div style="box-sizing: border-box; font-size: 0; text-align: center; color: #1A237E; background-color: #ffffff; "><div style="display: inline-block; font-size: 10px; font-family: &quot;Helvetica&quot;; color: light-dark(#1A237E, #bfc7ff); line-height: 1.2; pointer-events: all; background-color: light-dark(#ffffff, var(--ge-dark-color, #121212)); white-space: nowrap; "><font style="font-size: 12px;">orquesta lotes</font></div></div></div></foreignObject><text x="422" y="329" fill="#1A237E" font-family="&quot;Helvetica&quot;" font-size="10px" text-anchor="middle">orquesta lotes</text></switch></g></g><g><path d="M 872.79 148.23 L 871.14 241.77" fill="none" stroke="#558b2f" stroke-width="2" stroke-miterlimit="10" pointer-events="stroke" style="stroke: light-dark(rgb(85, 139, 47), rgb(103, 149, 70));"/><path d="M 872.89 142.23 L 876.75 150.3 L 872.79 148.23 L 868.75 150.16 Z" fill="#558b2f" stroke="#558b2f" stroke-width="2" stroke-miterlimit="10" pointer-events="all" style="fill: light-dark(rgb(85, 139, 47), rgb(103, 149, 70)); stroke: light-dark(rgb(85, 139, 47), rgb(103, 149, 70));"/><path d="M 871.04 247.76 L 867.18 239.7 L 871.14 241.77 L 875.18 239.84 Z" fill="#558b2f" stroke="#558b2f" stroke-width="2" stroke-miterlimit="10" pointer-events="all" style="fill: light-dark(rgb(85, 139, 47), rgb(103, 149, 70)); stroke: light-dark(rgb(85, 139, 47), rgb(103, 149, 70));"/></g><g><g transform="translate(-0.5 -0.5)"><switch><foreignObject style="overflow: visible; text-align: left;" pointer-events="none" width="100%" height="100%" requiredFeatures="http://www.w3.org/TR/SVG11/feature#Extensibility"><div xmlns="http://www.w3.org/1999/xhtml" style="display: flex; align-items: unsafe center; justify-content: unsafe center; width: 1px; height: 1px; padding-top: 196px; margin-left: 872px;"><div style="box-sizing: border-box; font-size: 0; text-align: center; color: #558B2F; background-color: #ffffff; "><div style="display: inline-block; font-size: 10px; font-family: &quot;Helvetica&quot;; color: light-dark(#558B2F, #679546); line-height: 1.2; pointer-events: all; background-color: light-dark(#ffffff, var(--ge-dark-color, #121212)); white-space: nowrap; "><font style="font-size: 12px;">tcp/80 → /health</font></div></div></div></foreignObject><text x="872" y="199" fill="#558B2F" font-family="&quot;Helvetica&quot;" font-size="10px" text-anchor="middle">tcp/80 → /health</text></switch></g></g><g><path d="M 841 107.52 L 51 108 L 52.95 451.76" fill="none" stroke="#c62828" stroke-width="2" stroke-miterlimit="10" stroke-dasharray="6 6" pointer-events="stroke" style="stroke: light-dark(rgb(198, 40, 40), rgb(255, 145, 145));"/><path d="M 52.99 457.76 L 48.94 449.79 L 52.95 451.76 L 56.94 449.74 Z" fill="#c62828" stroke="#c62828" stroke-width="2" stroke-miterlimit="10" pointer-events="all" style="fill: light-dark(rgb(198, 40, 40), rgb(255, 145, 145)); stroke: light-dark(rgb(198, 40, 40), rgb(255, 145, 145));"/></g><g><g transform="translate(-0.5 -0.5)"><switch><foreignObject style="overflow: visible; text-align: left;" pointer-events="none" width="100%" height="100%" requiredFeatures="http://www.w3.org/TR/SVG11/feature#Extensibility"><div xmlns="http://www.w3.org/1999/xhtml" style="display: flex; align-items: unsafe center; justify-content: unsafe center; width: 1px; height: 1px; padding-top: 108px; margin-left: 401px;"><div style="box-sizing: border-box; font-size: 0; text-align: center; color: #B71C1C; background-color: #ffffff; "><div style="display: inline-block; font-size: 10px; font-family: &quot;Helvetica&quot;; color: light-dark(#B71C1C, #ff9c9c); line-height: 1.2; pointer-events: all; background-color: light-dark(#ffffff, var(--ge-dark-color, #121212)); white-space: nowrap; "><font style="font-size: 12px;">métricas</font></div></div></div></foreignObject><text x="401" y="111" fill="#B71C1C" font-family="&quot;Helvetica&quot;" font-size="10px" text-anchor="middle">métricas</text></switch></g></g><g><path d="M 311.2 459.64 L 312.39 365.99" fill="none" stroke="#c62828" stroke-width="2" stroke-miterlimit="10" stroke-dasharray="6 6" pointer-events="stroke" style="stroke: light-dark(rgb(198, 40, 40), rgb(255, 145, 145));"/><path d="M 312.47 359.99 L 316.37 368.04 L 312.39 365.99 L 308.37 367.93 Z" fill="#c62828" stroke="#c62828" stroke-width="2" stroke-miterlimit="10" pointer-events="all" style="fill: light-dark(rgb(198, 40, 40), rgb(255, 145, 145)); stroke: light-dark(rgb(198, 40, 40), rgb(255, 145, 145));"/></g><g><g transform="translate(-0.5 -0.5)"><switch><foreignObject style="overflow: visible; text-align: left;" pointer-events="none" width="100%" height="100%" requiredFeatures="http://www.w3.org/TR/SVG11/feature#Extensibility"><div xmlns="http://www.w3.org/1999/xhtml" style="display: flex; align-items: unsafe center; justify-content: unsafe center; width: 1px; height: 1px; padding-top: 410px; margin-left: 312px;"><div style="box-sizing: border-box; font-size: 0; text-align: center; color: #B71C1C; background-color: #ffffff; "><div style="display: inline-block; font-size: 10px; font-family: &quot;Helvetica&quot;; color: light-dark(#B71C1C, #ff9c9c); line-height: 1.2; pointer-events: all; background-color: light-dark(#ffffff, var(--ge-dark-color, #121212)); white-space: nowrap; "><font style="font-size: 12px;">trigger rollback</font></div></div></div></foreignObject><text x="312" y="413" fill="#B71C1C" font-family="&quot;Helvetica&quot;" font-size="10px" text-anchor="middle">trigger rollback</text></switch></g></g><g><rect x="31" y="640" width="1321" height="80" fill="none" stroke="none" pointer-events="all"/></g><g><g transform="translate(-0.5 -0.5)"><switch><foreignObject style="overflow: visible; text-align: left;" pointer-events="none" width="100%" height="100%" requiredFeatures="http://www.w3.org/TR/SVG11/feature#Extensibility"><div xmlns="http://www.w3.org/1999/xhtml" style="display: flex; align-items: unsafe center; justify-content: unsafe center; width: 1319px; height: 1px; padding-top: 680px; margin-left: 32px;"><div style="box-sizing: border-box; font-size: 0; text-align: center; color: #555555; "><div style="display: inline-block; font-size: 11px; font-family: &quot;Helvetica&quot;; color: light-dark(#555555, #a4a4a4); line-height: 1.2; pointer-events: all; font-style: italic; white-space: normal; word-wrap: normal; "><font style="font-size: 14px;"><b style="">IN_PLACE con WITH_TRAFFIC_CONTROL:</b> CodeDeploy deregistra el lote del Target Group → aplica los hooks del appspec.yml → re-registra cuando el ALB y <code style="">ValidateService</code> los marcan sanos. </font><div><font style="font-size: 14px;">La política <code style="">MinimumHealthy75Pct</code> mantiene siempre 3 de 4 instancias sirviendo. Si la alarma 5xx se dispara o <code style="">ValidateService</code> falla → rollback automático a la revisión anterior.</font></div></div></div></div></foreignObject><text x="692" y="683" fill="#555555" font-family="&quot;Helvetica&quot;" font-size="11px" text-anchor="middle" font-style="italic">IN_PLACE con WITH_TRAFFIC_CONTROL: CodeDeploy deregistra el lote del Target Group → aplica los hooks del appspec.yml → re-registra cuando el ALB y ValidateService los marcan sanos....</text></switch></g></g><g><rect x="701" y="291.25" width="70" height="70" fill="none" stroke="none" pointer-events="all"/><path d="M 771 308.75 L 771 305.57 L 763.05 305.57 L 763.05 300.8 C 763.05 299.92 762.33 299.2 761.45 299.2 L 756.68 299.2 L 756.68 291.25 L 753.5 291.25 L 753.5 299.2 L 747.14 299.2 L 747.14 291.25 L 743.95 291.25 L 743.95 299.2 L 737.59 299.2 L 737.59 291.25 L 734.41 291.25 L 734.41 299.2 L 728.05 299.2 L 728.05 291.25 L 724.86 291.25 L 724.86 299.2 L 718.5 299.2 L 718.5 291.25 L 715.32 291.25 L 715.32 299.2 L 710.55 299.2 C 709.67 299.2 708.95 299.92 708.95 300.8 L 708.95 305.57 L 701 305.57 L 701 308.75 L 708.95 308.75 L 708.95 315.11 L 701 315.11 L 701 318.3 L 708.95 318.3 L 708.95 324.66 L 701 324.66 L 701 327.84 L 708.95 327.84 L 708.95 334.2 L 701 334.2 L 701 337.39 L 708.95 337.39 L 708.95 343.75 L 701 343.75 L 701 346.93 L 708.95 346.93 L 708.95 351.7 C 708.95 352.58 709.67 353.3 710.55 353.3 L 715.32 353.3 L 715.32 361.25 L 718.5 361.25 L 718.5 353.3 L 724.86 353.3 L 724.86 361.25 L 728.05 361.25 L 728.05 353.3 L 734.41 353.3 L 734.41 361.25 L 737.59 361.25 L 737.59 353.3 L 743.95 353.3 L 743.95 361.25 L 747.14 361.25 L 747.14 353.3 L 753.5 353.3 L 753.5 361.25 L 756.68 361.25 L 756.68 353.3 L 761.45 353.3 C 762.33 353.3 763.05 352.58 763.05 351.7 L 763.05 346.93 L 771 346.93 L 771 343.75 L 763.05 343.75 L 763.05 337.39 L 771 337.39 L 771 334.2 L 763.05 334.2 L 763.05 327.84 L 771 327.84 L 771 324.66 L 763.05 324.66 L 763.05 318.3 L 771 318.3 L 771 315.11 L 763.05 315.11 L 763.05 308.75 Z M 712.14 350.11 L 712.14 302.39 L 759.86 302.39 L 759.86 350.11 Z M 729.34 330.75 L 736.65 330.75 L 736.65 333.96 L 739.3 333.96 L 739.3 330.75 L 741.37 330.75 L 741.37 328.66 L 739.3 328.66 L 739.3 318.52 L 736.54 318.52 L 729.34 328.77 Z M 736.65 321.87 L 736.65 328.66 L 731.99 328.66 Z M 722.47 320.75 L 717.64 320.75 L 717.64 318.52 L 730.02 318.52 L 730.02 320.75 L 725.19 320.75 L 725.19 333.96 L 722.47 333.96 Z M 747.36 333.74 C 748.58 333.74 749.67 333.32 750.63 332.49 L 750.63 333.45 C 750.63 334.61 750.38 335.44 749.88 335.95 C 749.37 336.46 748.57 336.72 747.45 336.72 C 746.35 336.72 745.11 336.49 743.73 336.03 L 743.73 337.9 C 744.96 338.51 746.25 338.81 747.62 338.81 C 749.43 338.81 750.82 338.32 751.8 337.34 C 752.78 336.36 753.26 334.98 753.26 333.18 L 753.26 322.62 L 751.04 322.62 L 750.81 323.65 C 749.86 322.74 748.74 322.29 747.45 322.29 C 746.5 322.29 745.68 322.53 744.98 323.02 C 744.28 323.51 743.75 324.19 743.38 325.06 C 743 325.93 742.82 326.93 742.82 328.06 C 742.82 329.78 743.23 331.16 744.05 332.19 C 744.88 333.22 745.98 333.74 747.36 333.74 Z M 746.15 325.23 C 746.58 324.63 747.26 324.34 748.16 324.34 C 749.04 324.34 749.86 324.6 750.63 325.14 L 750.63 330.84 C 749.85 331.42 749.02 331.71 748.14 331.71 C 746.37 331.71 745.49 330.46 745.49 327.97 C 745.49 326.73 745.71 325.82 746.15 325.23 Z" fill="#ed7100" stroke="none" pointer-events="all" style="fill: light-dark(rgb(237, 113, 0), rgb(216, 109, 12));"/></g><g><rect x="596" y="291.25" width="70" height="70" fill="none" stroke="none" pointer-events="all"/><path d="M 666 308.75 L 666 305.57 L 658.05 305.57 L 658.05 300.8 C 658.05 299.92 657.33 299.2 656.45 299.2 L 651.68 299.2 L 651.68 291.25 L 648.5 291.25 L 648.5 299.2 L 642.14 299.2 L 642.14 291.25 L 638.95 291.25 L 638.95 299.2 L 632.59 299.2 L 632.59 291.25 L 629.41 291.25 L 629.41 299.2 L 623.05 299.2 L 623.05 291.25 L 619.86 291.25 L 619.86 299.2 L 613.5 299.2 L 613.5 291.25 L 610.32 291.25 L 610.32 299.2 L 605.55 299.2 C 604.67 299.2 603.95 299.92 603.95 300.8 L 603.95 305.57 L 596 305.57 L 596 308.75 L 603.95 308.75 L 603.95 315.11 L 596 315.11 L 596 318.3 L 603.95 318.3 L 603.95 324.66 L 596 324.66 L 596 327.84 L 603.95 327.84 L 603.95 334.2 L 596 334.2 L 596 337.39 L 603.95 337.39 L 603.95 343.75 L 596 343.75 L 596 346.93 L 603.95 346.93 L 603.95 351.7 C 603.95 352.58 604.67 353.3 605.55 353.3 L 610.32 353.3 L 610.32 361.25 L 613.5 361.25 L 613.5 353.3 L 619.86 353.3 L 619.86 361.25 L 623.05 361.25 L 623.05 353.3 L 629.41 353.3 L 629.41 361.25 L 632.59 361.25 L 632.59 353.3 L 638.95 353.3 L 638.95 361.25 L 642.14 361.25 L 642.14 353.3 L 648.5 353.3 L 648.5 361.25 L 651.68 361.25 L 651.68 353.3 L 656.45 353.3 C 657.33 353.3 658.05 352.58 658.05 351.7 L 658.05 346.93 L 666 346.93 L 666 343.75 L 658.05 343.75 L 658.05 337.39 L 666 337.39 L 666 334.2 L 658.05 334.2 L 658.05 327.84 L 666 327.84 L 666 324.66 L 658.05 324.66 L 658.05 318.3 L 666 318.3 L 666 315.11 L 658.05 315.11 L 658.05 308.75 Z M 607.14 350.11 L 607.14 302.39 L 654.86 302.39 L 654.86 350.11 Z M 624.34 330.75 L 631.65 330.75 L 631.65 333.96 L 634.3 333.96 L 634.3 330.75 L 636.37 330.75 L 636.37 328.66 L 634.3 328.66 L 634.3 318.52 L 631.54 318.52 L 624.34 328.77 Z M 631.65 321.87 L 631.65 328.66 L 626.99 328.66 Z M 617.47 320.75 L 612.64 320.75 L 612.64 318.52 L 625.02 318.52 L 625.02 320.75 L 620.19 320.75 L 620.19 333.96 L 617.47 333.96 Z M 642.36 333.74 C 643.58 333.74 644.67 333.32 645.63 332.49 L 645.63 333.45 C 645.63 334.61 645.38 335.44 644.88 335.95 C 644.37 336.46 643.57 336.72 642.45 336.72 C 641.35 336.72 640.11 336.49 638.73 336.03 L 638.73 337.9 C 639.96 338.51 641.25 338.81 642.62 338.81 C 644.43 338.81 645.82 338.32 646.8 337.34 C 647.78 336.36 648.26 334.98 648.26 333.18 L 648.26 322.62 L 646.04 322.62 L 645.81 323.65 C 644.86 322.74 643.74 322.29 642.45 322.29 C 641.5 322.29 640.68 322.53 639.98 323.02 C 639.28 323.51 638.75 324.19 638.38 325.06 C 638 325.93 637.82 326.93 637.82 328.06 C 637.82 329.78 638.23 331.16 639.05 332.19 C 639.88 333.22 640.98 333.74 642.36 333.74 Z M 641.15 325.23 C 641.58 324.63 642.26 324.34 643.16 324.34 C 644.04 324.34 644.86 324.6 645.63 325.14 L 645.63 330.84 C 644.85 331.42 644.02 331.71 643.14 331.71 C 641.37 331.71 640.49 330.46 640.49 327.97 C 640.49 326.73 640.71 325.82 641.15 325.23 Z" fill="#ed7100" stroke="none" pointer-events="all" style="fill: light-dark(rgb(237, 113, 0), rgb(216, 109, 12));"/></g><g><rect x="811" y="291.25" width="70" height="70" fill="none" stroke="none" pointer-events="all"/><path d="M 881 308.75 L 881 305.57 L 873.05 305.57 L 873.05 300.8 C 873.05 299.92 872.33 299.2 871.45 299.2 L 866.68 299.2 L 866.68 291.25 L 863.5 291.25 L 863.5 299.2 L 857.14 299.2 L 857.14 291.25 L 853.95 291.25 L 853.95 299.2 L 847.59 299.2 L 847.59 291.25 L 844.41 291.25 L 844.41 299.2 L 838.05 299.2 L 838.05 291.25 L 834.86 291.25 L 834.86 299.2 L 828.5 299.2 L 828.5 291.25 L 825.32 291.25 L 825.32 299.2 L 820.55 299.2 C 819.67 299.2 818.95 299.92 818.95 300.8 L 818.95 305.57 L 811 305.57 L 811 308.75 L 818.95 308.75 L 818.95 315.11 L 811 315.11 L 811 318.3 L 818.95 318.3 L 818.95 324.66 L 811 324.66 L 811 327.84 L 818.95 327.84 L 818.95 334.2 L 811 334.2 L 811 337.39 L 818.95 337.39 L 818.95 343.75 L 811 343.75 L 811 346.93 L 818.95 346.93 L 818.95 351.7 C 818.95 352.58 819.67 353.3 820.55 353.3 L 825.32 353.3 L 825.32 361.25 L 828.5 361.25 L 828.5 353.3 L 834.86 353.3 L 834.86 361.25 L 838.05 361.25 L 838.05 353.3 L 844.41 353.3 L 844.41 361.25 L 847.59 361.25 L 847.59 353.3 L 853.95 353.3 L 853.95 361.25 L 857.14 361.25 L 857.14 353.3 L 863.5 353.3 L 863.5 361.25 L 866.68 361.25 L 866.68 353.3 L 871.45 353.3 C 872.33 353.3 873.05 352.58 873.05 351.7 L 873.05 346.93 L 881 346.93 L 881 343.75 L 873.05 343.75 L 873.05 337.39 L 881 337.39 L 881 334.2 L 873.05 334.2 L 873.05 327.84 L 881 327.84 L 881 324.66 L 873.05 324.66 L 873.05 318.3 L 881 318.3 L 881 315.11 L 873.05 315.11 L 873.05 308.75 Z M 822.14 350.11 L 822.14 302.39 L 869.86 302.39 L 869.86 350.11 Z M 839.34 330.75 L 846.65 330.75 L 846.65 333.96 L 849.3 333.96 L 849.3 330.75 L 851.37 330.75 L 851.37 328.66 L 849.3 328.66 L 849.3 318.52 L 846.54 318.52 L 839.34 328.77 Z M 846.65 321.87 L 846.65 328.66 L 841.99 328.66 Z M 832.47 320.75 L 827.64 320.75 L 827.64 318.52 L 840.02 318.52 L 840.02 320.75 L 835.19 320.75 L 835.19 333.96 L 832.47 333.96 Z M 857.36 333.74 C 858.58 333.74 859.67 333.32 860.63 332.49 L 860.63 333.45 C 860.63 334.61 860.38 335.44 859.88 335.95 C 859.37 336.46 858.57 336.72 857.45 336.72 C 856.35 336.72 855.11 336.49 853.73 336.03 L 853.73 337.9 C 854.96 338.51 856.25 338.81 857.62 338.81 C 859.43 338.81 860.82 338.32 861.8 337.34 C 862.78 336.36 863.26 334.98 863.26 333.18 L 863.26 322.62 L 861.04 322.62 L 860.81 323.65 C 859.86 322.74 858.74 322.29 857.45 322.29 C 856.5 322.29 855.68 322.53 854.98 323.02 C 854.28 323.51 853.75 324.19 853.38 325.06 C 853 325.93 852.82 326.93 852.82 328.06 C 852.82 329.78 853.23 331.16 854.05 332.19 C 854.88 333.22 855.98 333.74 857.36 333.74 Z M 856.15 325.23 C 856.58 324.63 857.26 324.34 858.16 324.34 C 859.04 324.34 859.86 324.6 860.63 325.14 L 860.63 330.84 C 859.85 331.42 859.02 331.71 858.14 331.71 C 856.37 331.71 855.49 330.46 855.49 327.97 C 855.49 326.73 855.71 325.82 856.15 325.23 Z" fill="#ed7100" stroke="none" pointer-events="all" style="fill: light-dark(rgb(237, 113, 0), rgb(216, 109, 12));"/></g><g><rect x="911" y="291.25" width="70" height="70" fill="none" stroke="none" pointer-events="all"/><path d="M 981 308.75 L 981 305.57 L 973.05 305.57 L 973.05 300.8 C 973.05 299.92 972.33 299.2 971.45 299.2 L 966.68 299.2 L 966.68 291.25 L 963.5 291.25 L 963.5 299.2 L 957.14 299.2 L 957.14 291.25 L 953.95 291.25 L 953.95 299.2 L 947.59 299.2 L 947.59 291.25 L 944.41 291.25 L 944.41 299.2 L 938.05 299.2 L 938.05 291.25 L 934.86 291.25 L 934.86 299.2 L 928.5 299.2 L 928.5 291.25 L 925.32 291.25 L 925.32 299.2 L 920.55 299.2 C 919.67 299.2 918.95 299.92 918.95 300.8 L 918.95 305.57 L 911 305.57 L 911 308.75 L 918.95 308.75 L 918.95 315.11 L 911 315.11 L 911 318.3 L 918.95 318.3 L 918.95 324.66 L 911 324.66 L 911 327.84 L 918.95 327.84 L 918.95 334.2 L 911 334.2 L 911 337.39 L 918.95 337.39 L 918.95 343.75 L 911 343.75 L 911 346.93 L 918.95 346.93 L 918.95 351.7 C 918.95 352.58 919.67 353.3 920.55 353.3 L 925.32 353.3 L 925.32 361.25 L 928.5 361.25 L 928.5 353.3 L 934.86 353.3 L 934.86 361.25 L 938.05 361.25 L 938.05 353.3 L 944.41 353.3 L 944.41 361.25 L 947.59 361.25 L 947.59 353.3 L 953.95 353.3 L 953.95 361.25 L 957.14 361.25 L 957.14 353.3 L 963.5 353.3 L 963.5 361.25 L 966.68 361.25 L 966.68 353.3 L 971.45 353.3 C 972.33 353.3 973.05 352.58 973.05 351.7 L 973.05 346.93 L 981 346.93 L 981 343.75 L 973.05 343.75 L 973.05 337.39 L 981 337.39 L 981 334.2 L 973.05 334.2 L 973.05 327.84 L 981 327.84 L 981 324.66 L 973.05 324.66 L 973.05 318.3 L 981 318.3 L 981 315.11 L 973.05 315.11 L 973.05 308.75 Z M 922.14 350.11 L 922.14 302.39 L 969.86 302.39 L 969.86 350.11 Z M 939.34 330.75 L 946.65 330.75 L 946.65 333.96 L 949.3 333.96 L 949.3 330.75 L 951.37 330.75 L 951.37 328.66 L 949.3 328.66 L 949.3 318.52 L 946.54 318.52 L 939.34 328.77 Z M 946.65 321.87 L 946.65 328.66 L 941.99 328.66 Z M 932.47 320.75 L 927.64 320.75 L 927.64 318.52 L 940.02 318.52 L 940.02 320.75 L 935.19 320.75 L 935.19 333.96 L 932.47 333.96 Z M 957.36 333.74 C 958.58 333.74 959.67 333.32 960.63 332.49 L 960.63 333.45 C 960.63 334.61 960.38 335.44 959.88 335.95 C 959.37 336.46 958.57 336.72 957.45 336.72 C 956.35 336.72 955.11 336.49 953.73 336.03 L 953.73 337.9 C 954.96 338.51 956.25 338.81 957.62 338.81 C 959.43 338.81 960.82 338.32 961.8 337.34 C 962.78 336.36 963.26 334.98 963.26 333.18 L 963.26 322.62 L 961.04 322.62 L 960.81 323.65 C 959.86 322.74 958.74 322.29 957.45 322.29 C 956.5 322.29 955.68 322.53 954.98 323.02 C 954.28 323.51 953.75 324.19 953.38 325.06 C 953 325.93 952.82 326.93 952.82 328.06 C 952.82 329.78 953.23 331.16 954.05 332.19 C 954.88 333.22 955.98 333.74 957.36 333.74 Z M 956.15 325.23 C 956.58 324.63 957.26 324.34 958.16 324.34 C 959.04 324.34 959.86 324.6 960.63 325.14 L 960.63 330.84 C 959.85 331.42 959.02 331.71 958.14 331.71 C 956.37 331.71 955.49 330.46 955.49 327.97 C 955.49 326.73 955.71 325.82 956.15 325.23 Z" fill="#ed7100" stroke="none" pointer-events="all" style="fill: light-dark(rgb(237, 113, 0), rgb(216, 109, 12));"/></g><g><path d="M 281 294.75 L 344 294.75 L 344 357.75 L 281 357.75 Z" fill="#c925d1" stroke="none" pointer-events="all" style="fill: light-dark(rgb(201, 37, 209), rgb(255, 124, 255));"/><path d="M 312.53 301.06 C 298.68 301.06 287.84 311.61 287.31 325.61 C 287.3 325.95 287.49 326.25 287.76 326.42 L 296.81 332.37 L 297.78 330.88 L 289.22 325.25 C 289.67 323.35 291.06 321.91 293.06 321.18 C 294.01 320.83 295.1 320.65 296.29 320.65 C 298.24 320.65 300.07 321.38 301.43 322.71 L 301.59 322.87 C 302.81 324.06 303.53 326.23 303.53 326.24 C 303.54 326.29 304.74 330.79 304.74 330.79 L 306.45 330.33 L 305.3 326.05 L 305.31 325.94 C 305.73 322.04 309.31 320.65 312.51 320.65 C 314.46 320.65 316.28 321.38 317.65 322.71 C 317.65 322.71 319.57 324.2 319.72 325.94 L 319.72 326.06 L 318.57 330.32 L 320.27 330.8 L 321.48 326.35 C 321.48 326.32 321.49 326.28 321.49 326.24 C 321.73 322.83 324.57 320.65 328.73 320.65 C 330.67 320.65 332.49 321.38 333.86 322.71 C 334.92 323.75 335.67 324.53 335.87 325.3 L 328.24 330.67 L 329.25 332.13 L 337.32 326.46 C 337.54 326.28 337.7 325.66 337.7 325.62 C 337.45 311.62 326.65 301.07 312.53 301.06 Z M 303.57 322.33 C 303.33 322.09 303.08 321.84 302.82 321.59 L 302.66 321.43 C 300.96 319.78 298.7 318.87 296.29 318.87 C 293.56 318.87 291.25 319.69 289.66 321.14 C 291.76 311.67 299.19 304.63 308.72 303.14 C 305.88 306.48 303.9 313.56 303.57 322.33 Z M 319.19 321.74 L 318.88 321.43 C 317.18 319.78 314.92 318.87 312.51 318.87 C 309.45 318.87 306.96 319.9 305.37 321.65 C 305.95 310.42 309.4 302.85 312.52 302.84 C 312.52 302.84 312.53 302.84 312.53 302.84 C 315.71 302.86 319.21 310.69 319.7 322.24 C 319.54 322.08 319.37 321.91 319.19 321.74 Z M 335.09 321.43 C 333.39 319.78 331.13 318.87 328.73 318.87 C 325.6 318.87 323.04 319.98 321.46 321.84 C 321.07 313.29 319.11 306.41 316.32 303.14 C 326.32 304.65 333.91 312.04 335.59 321.93 C 335.42 321.76 335.25 321.6 335.09 321.43 Z M 304.45 341.86 C 304.27 341.68 304.17 341.42 304.19 341.16 C 304.2 340.9 304.33 340.66 304.54 340.51 L 308.74 337.34 L 309.79 338.77 L 306.43 341.31 L 309.44 344.27 L 308.21 345.55 Z M 319.61 342.17 L 316.6 339.22 L 317.83 337.94 L 321.59 341.62 C 321.77 341.8 321.87 342.06 321.85 342.32 C 321.83 342.58 321.71 342.82 321.5 342.98 L 317.3 346.14 L 316.24 344.71 Z M 309.5 348.08 L 314.85 335.82 L 316.47 336.54 L 311.11 348.8 Z M 325.32 332.72 L 300.57 332.72 C 300.08 332.72 299.69 333.12 299.69 333.61 L 299.69 350.55 C 299.69 351.04 300.08 351.44 300.57 351.44 L 325.32 351.44 C 325.81 351.44 326.21 351.04 326.21 350.55 L 326.21 333.61 C 326.21 333.12 325.81 332.72 325.32 332.72 Z M 301.46 349.66 L 301.46 334.5 L 324.44 334.5 L 324.44 349.66 Z" fill="#ffffff" stroke="none" pointer-events="all" style="fill: light-dark(rgb(255, 255, 255), rgb(18, 18, 18));"/></g></g><switch><g requiredFeatures="http://www.w3.org/TR/SVG11/feature#Extensibility"/><a transform="translate(0,-5)" xlink:href="https://www.drawio.com/doc/faq/svg-export-text-problems" target="_blank"><text text-anchor="middle" font-size="10px" x="50%" y="100%">Text is not SVG - cannot display</text></a></switch></svg>