<svg xmlns="http://www.w3.org/2000/svg" style="background: transparent; background-color: transparent;" xmlns:xlink="http://www.w3.org/1999/xlink" version="1.1" width="1422px" height="715px" viewBox="-0.5 -0.5 1422 715" content="&lt;mxfile&gt;&lt;diagram name=&quot;Arquitectura Lab-12&quot; id=&quot;lab12-arch&quot;&gt;7VtZc9s4Ev41rHIepOKhy486qExq7B1X5K3ZfXJBJCxhQxIMAMp2Hva3bzdAUuIhWU4ozW7VJimbbIKNoz98fYCxvHn8+lmQdHvPQxpZrh2+Wt7Cct3RwIafKHgzgqHtGsFGsNCInL1gxX7QXJi/t8lYSGWloeI8UiytCgOeJDRQFRkRgr9Umz3zqNprSja0IVgFJGpK/2Sh2ubSoW3vH/xG2Wabd31bPIhJ0TgXyC0J+cuByPMtby44V+Yqfp3TCNeuWBfz3vLI03JggibqnBcUUzAp/dKORFk+vzuy7jkos3zXmtjW7QCuv4Sgk4UkhGt/rgfPElzkiOzAGK5NpbLmnjV1FAsIrPAUX5rew8+vHDuBkcxQlEhFkgAFD4I/s8NH94vVzi1vV4+rfJXUW7H0ir7CxGZbFUcgcOCSRGyTwHUAw6MCBDsqcATRNH8QszDE12cvW6boKiUB6noBZILsmScqB5gzKe7z7pz8fs4jLnT3Hvxd4krOmgudrz32Tl8PRPnCf6Y8pkq8QZP8abEL3gr4mNuXA0QNCpxsD9Dk5Q1JjuJNqXlvaLjIbd1ud0biGX9tGN5yR5HKZ11Z99H3jBcPelKvF5rXGaSvejGK53C1wd/a7kYXDMWoM08aFhU8S0Ia5uvdZqMDYwNcogNzLJf+zEdzSCX4N3rwZLHwBoN5+aTYpm7N5F6Lyd8FlOI4KgmDZMnmEW8WwEyl5I4+o6XAng34zMbO3JlfBD4TuwGfkd2CnuHI/nX4ZJKKWcSDb5dDEHmRT4DSJ+xKM0LRIKS7nu1UXtA9rkXx6k1KheQJqRFYIChQWMCAxpt09ek6cMU/H4CrU4Prx/juguAb1bjLbZJXCbQK+jrgrg2YIL0S+nRfdfjRiCPCTkHwgUcaXAu0jOnL+Mzc0Wm3KCgJezyJ3prvxzReQxdblpqXS9D/H6M/i1HXbjJkK0bHHRCkgIjnShAVRXBVNKCB2zPC4/h8FJnE7gGnLHgriHJk3bo6LGNAkymJzAhAX5/E5Acw6ovsBzxuqpsGivHENJcKY7+plFlMTeB3DdDOF9q3N0A7H7kTd/JuHPDfClrvXNBOOgKtBgRDB3kN3D6lGn9PRCkSbGOq4VHDFiIT/PftPL+Y2PsL155qYK5W9/ckgawrLLKLORdmV9g3JAio5JhPrO4/Hdc/OKEfuPsrkPUfwNVT1CaN6tZ/N5B1yixSRNM2Lq8ZEvupIMO+DoGHRG7LvXe4MeyDjRHpwPb4tqjFv4Pr7pTbM0OQLnZKahLXKzF8DiDYLQf58iHbl/LjhA+gVIwmtKT0wkXUd0NDYuKWv/2B9sqoRnQmCcbkGab/ufsJmaCBIriFab9FSbTfCNh8PxMTi+NjGCKo4GIfK+U+aZCXEPrXcSUf3D7/K65kcO4GcewOgnRA2EULDBohV0GD59ttaPCXo7ltv4uGKxcY/NHQ0aPqAD9juwqglgrDuDXHG3TAsICfu3V0YW7d89G+AUnTUzyqBpt+zAKB8YQFGJyNyyABLu5YkgHobfjrNd89xuU4frvK47U3TaU11ayrGbgsuq5Wv1nVMocENJhgB39CrML00Ex8JM7dNMfrrO9FAe9VWVuqql2idlJDbVtpojyAOITtqIuyahzKy9ZViwr5zVap9EkB8ySyxJCg3zPww2FLlOsnYcoZrqrWP7rtwz7t57+vxKQLf9zGpMvZ3HYXZ/nVDzPpMT87XAxsb9wRT3q1QoPbQpROG1F2hLhlxF8uB7lllP2LF7zD1wpLqFjbmnlJyUbVyqqiccqFvkHV74eYDkR29sPfHzURLyOisDbrLknK4KfGOCL+8fEOfo22n6xquQICT7bGYRQt9Zgklfth1jt0scPPfr1DWH3SCwmmbksga/gpaZAJpt56ZooKpijRNibN0/YkoS5Q/6MHLqWHLI5aUElPj6ct43RHJMbdkqxles79wWRDustotMMZJjxe6yTXnK7qQPyd6N77xXmfzBu6mJM1xvKoybF/p29fQsudazcG41Cl2Agfjbnx0n9NmSDKeDprvPhr8+wjhHbFPPui9HZ7Jr05XRxUSiW/6J3WoLeaKeU3qoJtbkmeqYglYJPi/N9urlF5lLsRJITUuHyW8IQ2zV3L/mqNS7vaB4a7I2saPXDJTHF0seZK8fhovN9wZofYO+EINXRkaib6zF5xHDPt7Knwd6BM5krklqT4Qvy6wc8y+kBYgz4s8BOJoGkCbHAZxAyGbWeTTcCMJ53g5aJ5w/TPlZV/mVCJumkM3KGn7NrPTMRY/YuIPOUc28okuu5h3gMDZHSHekiGsCnPKnWNBcXwSxbursKAN/8GL9mi/q5tQEmWBEQ7TLQ7FZJJpd2o8aVMBvzswstVs4ap44wQFpfIGloh25Y1dFFNlDIuqsqXgq21BJwudZ3bLhwsL0MHPM4kIa4rKgFawL5krHskAjoos8heDwQbioNhPZusg36/BWcrna7q1BS988F3QoeCNAPz4CDMAq4Z3mKA8ijID7iN8o+NNA7nEc9CeMBwvKkuEh5EeD9RGfy4w/cny6F/2+bwXX+88PbHTx92+B9OX5zZ0He7KvOMq9AfDlsSZq8tfekA+kSILyT2A7cB/fZiSc2cNAmn+D0friGwpmRB1YJVc59b0fWOcM+J78Ler9vSsPJN4VFz2P3xxL6tWKRXRFeCQsjOdrSiuG35c+0POuPfF4RrnwwNB7UATfJMBDR/a2/EhqK6g3fqmawhiROKiob8+VlS1UBMuSxngSiiGwDCBcmzILhWLc32D0SJIvXcJ8Awi/Veo00jFrNEV/ROfphUEKAm6i2XChnyDh12ea5o6bxcn+6cysXzwCTUOg2FmjgGFShBdrrX2zKk2NeaTKp7PL2G7oGwiOKCcYN+VAkREQh1N6uvS4xHbH0M1PoBaOsxEOwhneBG9em+FY3335e2uKEZrMgzC/SYtIuDvcONrROUbQnqgYjuaTqf+6vV0+/+P5++YCHte0b1ckWwLML4rNZgLiBhFpA8CS0HlR+JmYAqPzKLechgLHo5jPsTlCUwOC2pTrCDcOvXP4atk57bJL2h/tONF6pR06gl/mr/GraLAKzpfa6eXvqLsWM3ndRfkF66VpfppRps9ucsBVIasGgBz4nsclR1Pp7bgMpg0gTK4OPZJdzuP8U3jmn//xk8/z8=&lt;/diagram&gt;&lt;/mxfile&gt;"><defs/><g><g><rect x="1" y="0" width="1420" height="35" fill="none" stroke="none" pointer-events="all"/></g><g><g transform="translate(-0.5 -0.5)"><switch><foreignObject style="overflow: visible; text-align: left;" pointer-events="none" width="100%" height="100%" requiredFeatures="http://www.w3.org/TR/SVG11/feature#Extensibility"><div xmlns="http://www.w3.org/1999/xhtml" style="display: flex; align-items: unsafe center; justify-content: unsafe center; width: 1418px; height: 1px; padding-top: 18px; margin-left: 2px;"><div style="box-sizing: border-box; font-size: 0; text-align: center; color: #232F3E; "><div style="display: inline-block; font-size: 18px; font-family: &quot;Helvetica&quot;; color: light-dark(#232F3E, #bdc7d4); line-height: 1.2; pointer-events: all; font-weight: bold; white-space: normal; word-wrap: normal; ">Lab-12 — Identidad EC2 sin claves estáticas: IAM Role + Instance Profile + IMDSv2 + STS</div></div></div></foreignObject><text x="711" y="23" fill="#232F3E" font-family="&quot;Helvetica&quot;" font-size="18px" text-anchor="middle" font-weight="bold">Lab-12 — Identidad EC2 sin claves estáticas: IAM Role + Instance Profile + IMDSv2 + STS</text></switch></g></g><g><rect x="1" y="65" width="600" height="560" rx="84" ry="84" fill="#ffebee" stroke="#dd344c" stroke-width="2" pointer-events="all" style="fill: light-dark(rgb(255, 235, 238), rgb(44, 27, 30)); stroke: light-dark(rgb(221, 52, 76), rgb(255, 127, 147));"/></g><g><g transform="translate(-0.5 -0.5)"><switch><foreignObject style="overflow: visible; text-align: left;" pointer-events="none" width="100%" height="100%" requiredFeatures="http://www.w3.org/TR/SVG11/feature#Extensibility"><div xmlns="http://www.w3.org/1999/xhtml" style="display: flex; align-items: unsafe flex-start; justify-content: unsafe center; width: 583px; height: 1px; padding-top: 82px; margin-left: 17px;"><div style="box-sizing: border-box; font-size: 0; text-align: center; color: #B71C1C; "><div style="display: inline-block; font-size: 13px; font-family: &quot;Helvetica&quot;; color: light-dark(#B71C1C, #ff9c9c); line-height: 1.2; pointer-events: all; font-weight: bold; white-space: normal; word-wrap: normal; "><font style="font-size: 14px;">IAM</font></div></div></div></foreignObject><text x="309" y="95" fill="#B71C1C" font-family="&quot;Helvetica&quot;" font-size="13px" text-anchor="middle" font-weight="bold">IAM</text></switch></g></g><g><rect x="21" y="110" width="560" height="55" rx="8.25" ry="8.25" fill="#ffffff" stroke="#dd344c" pointer-events="all" style="fill: light-dark(rgb(255, 255, 255), rgb(18, 18, 18)); stroke: light-dark(rgb(221, 52, 76), rgb(255, 127, 147));"/></g><g><g transform="translate(-0.5 -0.5)"><switch><foreignObject style="overflow: visible; text-align: left;" pointer-events="none" width="100%" height="100%" requiredFeatures="http://www.w3.org/TR/SVG11/feature#Extensibility"><div xmlns="http://www.w3.org/1999/xhtml" style="display: flex; align-items: unsafe center; justify-content: unsafe center; width: 558px; height: 1px; padding-top: 138px; margin-left: 22px;"><div style="box-sizing: border-box; font-size: 0; text-align: center; color: #B71C1C; "><div style="display: inline-block; font-size: 11px; font-family: &quot;Helvetica&quot;; color: light-dark(#B71C1C, #ff9c9c); line-height: 1.2; pointer-events: all; white-space: normal; word-wrap: normal; "><font style="font-size: 14px;">aws_iam_user "dev-01"<br />(persona — credenciales estáticas)</font></div></div></div></foreignObject><text x="301" y="141" fill="#B71C1C" font-family="&quot;Helvetica&quot;" font-size="11px" text-anchor="middle">aws_iam_user "dev-01"...</text></switch></g></g><g><rect x="21" y="185" width="560" height="70" rx="10.5" ry="10.5" fill="#ffffff" stroke="#dd344c" pointer-events="all" style="fill: light-dark(rgb(255, 255, 255), rgb(18, 18, 18)); stroke: light-dark(rgb(221, 52, 76), rgb(255, 127, 147));"/></g><g><g transform="translate(-0.5 -0.5)"><switch><foreignObject style="overflow: visible; text-align: left;" pointer-events="none" width="100%" height="100%" requiredFeatures="http://www.w3.org/TR/SVG11/feature#Extensibility"><div xmlns="http://www.w3.org/1999/xhtml" style="display: flex; align-items: unsafe center; justify-content: unsafe center; width: 558px; height: 1px; padding-top: 220px; margin-left: 22px;"><div style="box-sizing: border-box; font-size: 0; text-align: center; color: #B71C1C; "><div style="display: inline-block; font-size: 11px; font-family: &quot;Helvetica&quot;; color: light-dark(#B71C1C, #ff9c9c); line-height: 1.2; pointer-events: all; white-space: normal; word-wrap: normal; "><font style="font-size: 14px;">aws_iam_group "developers"<br />Política: EC2 + IAM read-only<br />membership: dev-01</font></div></div></div></foreignObject><text x="301" y="223" fill="#B71C1C" font-family="&quot;Helvetica&quot;" font-size="11px" text-anchor="middle">aws_iam_group "developers"...</text></switch></g></g><g><rect x="21" y="285" width="560" height="80" rx="12" ry="12" fill="#ffcdd2" stroke="#c62828" stroke-width="2" pointer-events="all" style="fill: light-dark(rgb(255, 205, 210), rgb(85, 42, 46)); stroke: light-dark(rgb(198, 40, 40), rgb(255, 145, 145));"/></g><g><g transform="translate(-0.5 -0.5)"><switch><foreignObject style="overflow: visible; text-align: left;" pointer-events="none" width="100%" height="100%" requiredFeatures="http://www.w3.org/TR/SVG11/feature#Extensibility"><div xmlns="http://www.w3.org/1999/xhtml" style="display: flex; align-items: unsafe center; justify-content: unsafe center; width: 558px; height: 1px; padding-top: 325px; margin-left: 22px;"><div style="box-sizing: border-box; font-size: 0; text-align: center; color: #B71C1C; "><div style="display: inline-block; font-size: 11px; font-family: &quot;Helvetica&quot;; color: light-dark(#B71C1C, #ff9c9c); line-height: 1.2; pointer-events: all; white-space: normal; word-wrap: normal; "><font style="font-size: 14px;">aws_iam_role "ec2-role"<br />Trust Policy → Principal: ec2.amazonaws.com<br />Action: sts:AssumeRole</font></div></div></div></foreignObject><text x="301" y="328" fill="#B71C1C" font-family="&quot;Helvetica&quot;" font-size="11px" text-anchor="middle">aws_iam_role "ec2-role"...</text></switch></g></g><g><rect x="21" y="380" width="560" height="80" fill="#ffffff" stroke="#dd344c" stroke-dasharray="3 3" pointer-events="all" style="fill: light-dark(rgb(255, 255, 255), rgb(18, 18, 18)); stroke: light-dark(rgb(221, 52, 76), rgb(255, 127, 147));"/></g><g><g transform="translate(-0.5 -0.5)"><switch><foreignObject style="overflow: visible; text-align: left;" pointer-events="none" width="100%" height="100%" requiredFeatures="http://www.w3.org/TR/SVG11/feature#Extensibility"><div xmlns="http://www.w3.org/1999/xhtml" style="display: flex; align-items: unsafe center; justify-content: unsafe flex-start; width: 544px; height: 1px; padding-top: 420px; margin-left: 37px;"><div style="box-sizing: border-box; font-size: 0; text-align: left; color: #B71C1C; "><div style="display: inline-block; font-size: 10px; font-family: &quot;Helvetica&quot;; color: light-dark(#B71C1C, #ff9c9c); line-height: 1.2; pointer-events: all; white-space: normal; word-wrap: normal; "><font style="font-size: 14px;">aws_iam_role_policy_attachment<br />├── AmazonSSMManagedInstanceCore  (acceso SSM)<br />└── AmazonEC2ReadOnlyAccess         (consulta de instancias)</font></div></div></div></foreignObject><text x="37" y="423" fill="#B71C1C" font-family="&quot;Helvetica&quot;" font-size="10px">aws_iam_role_policy_attachment...</text></switch></g></g><g><rect x="21" y="480" width="560" height="105" rx="15.75" ry="15.75" fill="#ffffff" stroke="#dd344c" stroke-width="2" pointer-events="all" style="fill: light-dark(rgb(255, 255, 255), rgb(18, 18, 18)); stroke: light-dark(rgb(221, 52, 76), rgb(255, 127, 147));"/></g><g><g transform="translate(-0.5 -0.5)"><switch><foreignObject style="overflow: visible; text-align: left;" pointer-events="none" width="100%" height="100%" requiredFeatures="http://www.w3.org/TR/SVG11/feature#Extensibility"><div xmlns="http://www.w3.org/1999/xhtml" style="display: flex; align-items: unsafe center; justify-content: unsafe center; width: 558px; height: 1px; padding-top: 533px; margin-left: 22px;"><div style="box-sizing: border-box; font-size: 0; text-align: center; color: #B71C1C; "><div style="display: inline-block; font-size: 11px; font-family: &quot;Helvetica&quot;; color: light-dark(#B71C1C, #ff9c9c); line-height: 1.2; pointer-events: all; white-space: normal; word-wrap: normal; "><font style="font-size: 14px;">aws_iam_instance_profile "ec2-profile"<br />contiene: ec2-role<br /><br />EC2 NO puede usar un role directamente.<br />El instance profile es el conector EC2 ↔ Role.</font></div></div></div></foreignObject><text x="301" y="536" fill="#B71C1C" font-family="&quot;Helvetica&quot;" font-size="11px" text-anchor="middle">aws_iam_instance_profile "ec2-profile"...</text></switch></g></g><g><rect x="661" y="65" width="760" height="540" rx="81" ry="81" fill="#fff3e0" stroke="#ef6c00" stroke-width="2" pointer-events="all" style="fill: light-dark(rgb(255, 243, 224), rgb(36, 26, 9)); stroke: light-dark(rgb(239, 108, 0), rgb(222, 110, 17));"/></g><g><g transform="translate(-0.5 -0.5)"><switch><foreignObject style="overflow: visible; text-align: left;" pointer-events="none" width="100%" height="100%" requiredFeatures="http://www.w3.org/TR/SVG11/feature#Extensibility"><div xmlns="http://www.w3.org/1999/xhtml" style="display: flex; align-items: unsafe flex-start; justify-content: unsafe center; width: 743px; height: 1px; padding-top: 82px; margin-left: 677px;"><div style="box-sizing: border-box; font-size: 0; text-align: center; color: #E65100; "><div style="display: inline-block; font-size: 13px; font-family: &quot;Helvetica&quot;; color: light-dark(#E65100, #fb7b35); line-height: 1.2; pointer-events: all; font-weight: bold; white-space: normal; word-wrap: normal; "><font style="font-size: 14px;">EC2</font></div></div></div></foreignObject><text x="1049" y="95" fill="#E65100" font-family="&quot;Helvetica&quot;" font-size="13px" text-anchor="middle" font-weight="bold">EC2</text></switch></g></g><g><rect x="761" y="110" width="640" height="65" fill="none" stroke="none" pointer-events="all"/></g><g><g transform="translate(-0.5 -0.5)"><switch><foreignObject style="overflow: visible; text-align: left;" pointer-events="none" width="100%" height="100%" requiredFeatures="http://www.w3.org/TR/SVG11/feature#Extensibility"><div xmlns="http://www.w3.org/1999/xhtml" style="display: flex; align-items: unsafe center; justify-content: unsafe flex-start; width: 638px; height: 1px; padding-top: 143px; margin-left: 763px;"><div style="box-sizing: border-box; font-size: 0; text-align: left; color: #E65100; "><div style="display: inline-block; font-size: 11px; font-family: &quot;Helvetica&quot;; color: light-dark(#E65100, #fb7b35); line-height: 1.2; pointer-events: all; white-space: normal; word-wrap: normal; "><font style="font-size: 14px;">aws_instance "app"<br />t4g.micro · Amazon Linux 2023<br />iam_instance_profile = ec2-profile<br />sin par de claves SSH — solo SSM Session Manager</font></div></div></div></foreignObject><text x="763" y="146" fill="#E65100" font-family="&quot;Helvetica&quot;" font-size="11px">aws_instance "app"...</text></switch></g></g><g><rect x="691" y="205" width="710" height="55" rx="8.25" ry="8.25" fill="#fffde7" stroke="#fbc02d" stroke-width="2" pointer-events="all" style="fill: light-dark(rgb(255, 253, 231), rgb(24, 22, 4)); stroke: light-dark(rgb(251, 192, 45), rgb(120, 69, 0));"/></g><g><g transform="translate(-0.5 -0.5)"><switch><foreignObject style="overflow: visible; text-align: left;" pointer-events="none" width="100%" height="100%" requiredFeatures="http://www.w3.org/TR/SVG11/feature#Extensibility"><div xmlns="http://www.w3.org/1999/xhtml" style="display: flex; align-items: unsafe center; justify-content: unsafe center; width: 708px; height: 1px; padding-top: 233px; margin-left: 692px;"><div style="box-sizing: border-box; font-size: 0; text-align: center; color: #5D4037; "><div style="display: inline-block; font-size: 11px; font-family: &quot;Helvetica&quot;; color: light-dark(#5D4037, #c6ada5); line-height: 1.2; pointer-events: all; font-weight: bold; white-space: normal; word-wrap: normal; "><font style="font-size: 14px;">IMDSv2 (http_tokens = required)<br />Endpoint: 169.254.169.254</font></div></div></div></foreignObject><text x="1046" y="236" fill="#5D4037" font-family="&quot;Helvetica&quot;" font-size="11px" text-anchor="middle" font-weight="bold">IMDSv2 (http_tokens = required)...</text></switch></g></g><g><rect x="691" y="275" width="710" height="135" fill="#ffffff" stroke="#fbc02d" stroke-dasharray="3 3" pointer-events="all" style="fill: light-dark(rgb(255, 255, 255), rgb(18, 18, 18)); stroke: light-dark(rgb(251, 192, 45), rgb(120, 69, 0));"/></g><g><g transform="translate(-0.5 -0.5)"><switch><foreignObject style="overflow: visible; text-align: left;" pointer-events="none" width="100%" height="100%" requiredFeatures="http://www.w3.org/TR/SVG11/feature#Extensibility"><div xmlns="http://www.w3.org/1999/xhtml" style="display: flex; align-items: unsafe center; justify-content: unsafe flex-start; width: 694px; height: 1px; padding-top: 343px; margin-left: 707px;"><div style="box-sizing: border-box; font-size: 0; text-align: left; color: #5D4037; "><div style="display: inline-block; font-size: 10px; font-family: &quot;Helvetica&quot;; color: light-dark(#5D4037, #c6ada5); line-height: 1.2; pointer-events: all; white-space: normal; word-wrap: normal; "><font style="font-size: 14px;">Flujo de obtención de credenciales temporales:<br /><br />1. PUT /latest/api/token (TTL 6h) → recibe token de sesión<br />2. GET /latest/meta-data/iam/security-credentials/ (con header X-aws-ec2-metadata-token)<br />   → devuelve nombre del role: ec2-role<br />3. GET /latest/meta-data/iam/security-credentials/ec2-role<br />   → devuelve { AccessKeyId, SecretAccessKey, Token, Expiration }</font></div></div></div></foreignObject><text x="707" y="346" fill="#5D4037" font-family="&quot;Helvetica&quot;" font-size="10px">Flujo de obtención de credenciales temporales:...</text></switch></g></g><g><rect x="691" y="435" width="60" height="78" fill="none" stroke="none" pointer-events="all"/><path d="M 722.71 462.3 L 712.07 462.3 L 712.07 458.89 L 719.29 458.89 L 719.29 448.69 L 722.71 448.69 Z M 721 445.92 C 728.27 445.92 734.19 451.84 734.19 459.11 C 734.19 466.38 728.27 472.29 721 472.29 C 713.73 472.29 707.82 466.38 707.82 459.11 C 707.82 451.84 713.73 445.92 721 445.92 Z M 721 475.7 C 730.15 475.7 737.6 468.26 737.6 459.11 C 737.6 449.96 730.15 442.51 721 442.51 C 711.85 442.51 704.4 449.96 704.4 459.11 C 704.4 468.26 711.85 475.7 721 475.7 Z M 738.51 495.99 C 739 496.58 739.25 497.34 739.25 498.27 C 739.25 499.6 738.77 500.67 737.82 501.46 C 736.87 502.25 735.59 502.65 733.97 502.65 C 732.37 502.65 730.99 502.36 729.8 501.79 L 729.8 500.13 C 731.26 500.61 732.64 500.86 733.93 500.86 C 734.92 500.86 735.69 500.64 736.25 500.21 C 736.82 499.78 737.1 499.19 737.1 498.46 C 737.1 497.94 736.94 497.52 736.61 497.17 C 736.28 496.83 735.73 496.51 734.95 496.21 L 732.93 495.43 C 731.79 495 730.96 494.48 730.45 493.87 C 729.93 493.26 729.68 492.49 729.68 491.56 C 729.68 490.78 729.87 490.09 730.26 489.48 C 730.65 488.88 731.21 488.4 731.94 488.05 C 732.67 487.71 733.53 487.53 734.52 487.53 C 735.76 487.53 737.05 487.78 738.37 488.28 L 738.37 489.97 C 736.97 489.54 735.73 489.32 734.66 489.32 C 733.76 489.32 733.06 489.51 732.57 489.88 C 732.07 490.25 731.83 490.77 731.83 491.45 C 731.83 492.01 731.99 492.45 732.33 492.78 C 732.66 493.1 733.28 493.43 734.18 493.77 L 736.08 494.47 C 737.2 494.89 738.01 495.4 738.51 495.99 Z M 716.81 487.84 L 728.16 487.84 L 728.16 489.6 L 723.55 489.6 L 723.55 502.29 L 721.42 502.29 L 721.42 489.6 L 716.81 489.6 Z M 714.66 495.99 C 715.15 496.58 715.4 497.34 715.4 498.27 C 715.4 499.6 714.92 500.67 713.97 501.46 C 713.02 502.25 711.73 502.65 710.12 502.65 C 708.52 502.65 707.13 502.36 705.95 501.79 L 705.95 500.13 C 707.41 500.61 708.79 500.86 710.08 500.86 C 711.07 500.86 711.84 500.64 712.41 500.21 C 712.97 499.78 713.25 499.19 713.25 498.46 C 713.25 497.94 713.09 497.52 712.76 497.17 C 712.43 496.83 711.88 496.51 711.1 496.21 L 709.08 495.43 C 707.94 495 707.11 494.48 706.6 493.87 C 706.09 493.26 705.83 492.49 705.83 491.56 C 705.83 490.78 706.02 490.09 706.41 489.48 C 706.8 488.88 707.36 488.4 708.09 488.05 C 708.82 487.71 709.68 487.53 710.66 487.53 C 711.92 487.53 713.2 487.78 714.52 488.28 L 714.52 489.97 C 713.12 489.54 711.88 489.32 710.81 489.32 C 709.91 489.32 709.21 489.51 708.72 489.88 C 708.22 490.25 707.98 490.77 707.98 491.45 C 707.98 492.01 708.14 492.45 708.48 492.78 C 708.81 493.1 709.43 493.43 710.33 493.77 L 712.23 494.47 C 713.36 494.89 714.16 495.4 714.66 495.99 Z M 747.59 506.66 C 747.59 507.42 746.97 508.03 746.21 508.03 L 695.79 508.03 C 695.03 508.03 694.41 507.42 694.41 506.66 L 694.41 441.34 C 694.41 440.58 695.03 439.97 695.79 439.97 L 746.21 439.97 C 746.97 439.97 747.59 440.58 747.59 441.34 Z M 746.21 436.55 L 695.79 436.55 C 693.15 436.55 691 438.7 691 441.34 L 691 506.66 C 691 509.3 693.15 511.45 695.79 511.45 L 746.21 511.45 C 748.85 511.45 751 509.3 751 506.66 L 751 441.34 C 751 438.7 748.85 436.55 746.21 436.55 Z" fill="#dd344c" stroke="none" pointer-events="all" style="fill: light-dark(rgb(221, 52, 76), rgb(255, 127, 147));"/></g><g><rect x="761" y="435" width="640" height="80" fill="none" stroke="none" pointer-events="all"/></g><g><g transform="translate(-0.5 -0.5)"><switch><foreignObject style="overflow: visible; text-align: left;" pointer-events="none" width="100%" height="100%" requiredFeatures="http://www.w3.org/TR/SVG11/feature#Extensibility"><div xmlns="http://www.w3.org/1999/xhtml" style="display: flex; align-items: unsafe center; justify-content: unsafe flex-start; width: 638px; height: 1px; padding-top: 475px; margin-left: 763px;"><div style="box-sizing: border-box; font-size: 0; text-align: left; color: #A1162F; "><div style="display: inline-block; font-size: 11px; font-family: &quot;Helvetica&quot;; color: light-dark(#A1162F, #ffa4b9); line-height: 1.2; pointer-events: all; white-space: normal; word-wrap: normal; "><font style="font-size: 14px;">AWS STS — emite y firma las credenciales temporales.<br />EC2 las renueva automáticamente antes de Expiration (~6h).<br />Las credenciales nunca se persisten en disco.</font></div></div></div></foreignObject><text x="763" y="478" fill="#A1162F" font-family="&quot;Helvetica&quot;" font-size="11px">AWS STS — emite y firma las credenciales temporales....</text></switch></g></g><g><rect x="731" y="540" width="630" height="50" fill="#e8f5e9" stroke="#2e7d32" stroke-dasharray="3 3" pointer-events="all" style="fill: light-dark(rgb(232, 245, 233), rgb(21, 33, 22)); stroke: light-dark(rgb(46, 125, 50), rgb(100, 168, 104));"/></g><g><g transform="translate(-0.5 -0.5)"><switch><foreignObject style="overflow: visible; text-align: left;" pointer-events="none" width="100%" height="100%" requiredFeatures="http://www.w3.org/TR/SVG11/feature#Extensibility"><div xmlns="http://www.w3.org/1999/xhtml" style="display: flex; align-items: unsafe center; justify-content: unsafe center; width: 628px; height: 1px; padding-top: 565px; margin-left: 732px;"><div style="box-sizing: border-box; font-size: 0; text-align: center; color: #1B5E20; "><div style="display: inline-block; font-size: 10px; font-family: &quot;Helvetica&quot;; color: light-dark(#1B5E20, #82bc86); line-height: 1.2; pointer-events: all; white-space: normal; word-wrap: normal; "><font style="font-size: 14px;">🔐 Acceso del operador: aws ssm start-session --target i-0abc...<br />Sin SSH, sin clave, sin puerto 22 abierto. Trazabilidad en CloudTrail por sesión.</font></div></div></div></foreignObject><text x="1046" y="568" fill="#1B5E20" font-family="&quot;Helvetica&quot;" font-size="10px" text-anchor="middle">🔐 Acceso del operador: aws ssm start-session --target i-0abc......</text></switch></g></g><g><path d="M 601 530 L 688.73 149.85" fill="none" stroke="#dd344c" stroke-width="3" stroke-miterlimit="10" pointer-events="stroke" style="stroke: light-dark(rgb(221, 52, 76), rgb(255, 127, 147));"/><path d="M 690.25 143.27 L 692.61 153.05 L 688.73 149.85 L 683.84 151.03 Z" fill="#dd344c" stroke="#dd344c" stroke-width="3" stroke-miterlimit="10" pointer-events="all" style="fill: light-dark(rgb(221, 52, 76), rgb(255, 127, 147)); stroke: light-dark(rgb(221, 52, 76), rgb(255, 127, 147));"/></g><g><g transform="translate(-0.5 -0.5)"><switch><foreignObject style="overflow: visible; text-align: left;" pointer-events="none" width="100%" height="100%" requiredFeatures="http://www.w3.org/TR/SVG11/feature#Extensibility"><div xmlns="http://www.w3.org/1999/xhtml" style="display: flex; align-items: unsafe center; justify-content: unsafe center; width: 1px; height: 1px; padding-top: 185px; margin-left: 691px;"><div style="box-sizing: border-box; font-size: 0; text-align: center; color: #B71C1C; background-color: #ffffff; "><div style="display: inline-block; font-size: 11px; font-family: &quot;Helvetica&quot;; color: light-dark(#B71C1C, #ff9c9c); line-height: 1.2; pointer-events: all; font-weight: bold; background-color: light-dark(#ffffff, var(--ge-dark-color, #121212)); white-space: nowrap; ">iam_instance_profile</div></div></div></foreignObject><text x="691" y="189" fill="#B71C1C" font-family="&quot;Helvetica&quot;" font-size="11px" text-anchor="middle" font-weight="bold">iam_instance_profile</text></switch></g></g><g><rect x="1" y="635" width="1420" height="80" fill="none" stroke="none" pointer-events="all"/></g><g><g transform="translate(-0.5 -0.5)"><switch><foreignObject style="overflow: visible; text-align: left;" pointer-events="none" width="100%" height="100%" requiredFeatures="http://www.w3.org/TR/SVG11/feature#Extensibility"><div xmlns="http://www.w3.org/1999/xhtml" style="display: flex; align-items: unsafe center; justify-content: unsafe center; width: 1418px; height: 1px; padding-top: 675px; margin-left: 2px;"><div style="box-sizing: border-box; font-size: 0; text-align: center; color: #555555; "><div style="display: inline-block; font-size: 11px; font-family: &quot;Helvetica&quot;; color: light-dark(#555555, #a4a4a4); line-height: 1.2; pointer-events: all; font-style: italic; white-space: normal; word-wrap: normal; "><font style="font-size: 14px;"><b style="">Patrón:</b> eliminar credenciales estáticas en el host. La instancia obtiene credenciales temporales firmadas por STS a través de IMDSv2 (con token de sesión obligatorio para mitigar SSRF). El Instance Profile es el conector entre la instancia y el IAM Role.<br />Beneficio operativo: no hay AWS_ACCESS_KEY_ID que filtrar, las credenciales caducan, y el role se puede modificar sin reiniciar la instancia.</font></div></div></div></foreignObject><text x="711" y="678" fill="#555555" font-family="&quot;Helvetica&quot;" font-size="11px" text-anchor="middle" font-style="italic">Patrón: eliminar credenciales estáticas en el host. La instancia obtiene credenciales temporales firmadas por STS a través de IMDSv2 (con token de sesión obligatorio para mitigar SSRF). El Instance Profile es el conector entre la instancia y el IAM Role....</text></switch></g></g><g><rect x="697" y="117" width="48" height="48" fill="none" stroke="none" pointer-events="all"/><path d="M 745 129 L 745 126.82 L 739.55 126.82 L 739.55 123.55 C 739.55 122.94 739.06 122.45 738.45 122.45 L 735.18 122.45 L 735.18 117 L 733 117 L 733 122.45 L 728.64 122.45 L 728.64 117 L 726.45 117 L 726.45 122.45 L 722.09 122.45 L 722.09 117 L 719.91 117 L 719.91 122.45 L 715.55 122.45 L 715.55 117 L 713.36 117 L 713.36 122.45 L 709 122.45 L 709 117 L 706.82 117 L 706.82 122.45 L 703.55 122.45 C 702.94 122.45 702.45 122.94 702.45 123.55 L 702.45 126.82 L 697 126.82 L 697 129 L 702.45 129 L 702.45 133.36 L 697 133.36 L 697 135.55 L 702.45 135.55 L 702.45 139.91 L 697 139.91 L 697 142.09 L 702.45 142.09 L 702.45 146.45 L 697 146.45 L 697 148.64 L 702.45 148.64 L 702.45 153 L 697 153 L 697 155.18 L 702.45 155.18 L 702.45 158.45 C 702.45 159.06 702.94 159.55 703.55 159.55 L 706.82 159.55 L 706.82 165 L 709 165 L 709 159.55 L 713.36 159.55 L 713.36 165 L 715.55 165 L 715.55 159.55 L 719.91 159.55 L 719.91 165 L 722.09 165 L 722.09 159.55 L 726.45 159.55 L 726.45 165 L 728.64 165 L 728.64 159.55 L 733 159.55 L 733 165 L 735.18 165 L 735.18 159.55 L 738.45 159.55 C 739.06 159.55 739.55 159.06 739.55 158.45 L 739.55 155.18 L 745 155.18 L 745 153 L 739.55 153 L 739.55 148.64 L 745 148.64 L 745 146.45 L 739.55 146.45 L 739.55 142.09 L 745 142.09 L 745 139.91 L 739.55 139.91 L 739.55 135.55 L 745 135.55 L 745 133.36 L 739.55 133.36 L 739.55 129 Z M 704.64 157.36 L 704.64 124.64 L 737.36 124.64 L 737.36 157.36 Z M 716.44 144.09 L 721.44 144.09 L 721.44 146.29 L 723.26 146.29 L 723.26 144.09 L 724.68 144.09 L 724.68 142.65 L 723.26 142.65 L 723.26 135.7 L 721.37 135.7 L 716.44 142.73 Z M 721.44 137.99 L 721.44 142.65 L 718.25 142.65 Z M 711.72 137.23 L 708.41 137.23 L 708.41 135.7 L 716.9 135.7 L 716.9 137.23 L 713.59 137.23 L 713.59 146.29 L 711.72 146.29 Z M 728.79 146.13 C 729.63 146.13 730.37 145.85 731.04 145.28 L 731.04 145.93 C 731.04 146.73 730.86 147.3 730.52 147.65 C 730.17 148 729.62 148.18 728.85 148.18 C 728.1 148.18 727.25 148.02 726.3 147.71 L 726.3 148.99 C 727.14 149.41 728.03 149.61 728.97 149.61 C 730.21 149.61 731.16 149.28 731.83 148.61 C 732.5 147.93 732.84 146.98 732.84 145.75 L 732.84 138.51 L 731.31 138.51 L 731.16 139.21 C 730.51 138.59 729.74 138.28 728.85 138.28 C 728.2 138.28 727.63 138.45 727.16 138.79 C 726.68 139.12 726.31 139.59 726.06 140.19 C 725.8 140.78 725.67 141.46 725.67 142.24 C 725.67 143.42 725.96 144.36 726.52 145.07 C 727.09 145.78 727.84 146.13 728.79 146.13 Z M 727.96 140.3 C 728.26 139.89 728.72 139.69 729.34 139.69 C 729.94 139.69 730.51 139.87 731.04 140.24 L 731.04 144.15 C 730.5 144.55 729.93 144.74 729.33 144.74 C 728.11 144.74 727.51 143.89 727.51 142.18 C 727.51 141.33 727.66 140.71 727.96 140.3 Z" fill="#ed7100" stroke="none" pointer-events="all" style="fill: light-dark(rgb(237, 113, 0), rgb(216, 109, 12));"/></g></g><switch><g requiredFeatures="http://www.w3.org/TR/SVG11/feature#Extensibility"/><a transform="translate(0,-5)" xlink:href="https://www.drawio.com/doc/faq/svg-export-text-problems" target="_blank"><text text-anchor="middle" font-size="10px" x="50%" y="100%">Text is not SVG - cannot display</text></a></switch></svg>