<svg xmlns="http://www.w3.org/2000/svg" style="background: transparent; background-color: transparent;" xmlns:xlink="http://www.w3.org/1999/xlink" version="1.1" width="1332px" height="690px" viewBox="-0.5 -0.5 1332 690" content="&lt;mxfile&gt;&lt;diagram name=&quot;Arquitectura Lab-48&quot; id=&quot;lab48-arch&quot;&gt;7Vxtc+I4Ev41VM18COUXDOQjr3tTldlJTXK3e/eFErYCurElr2xI2F9/3ZJs/AYBxrCzV5PdCagtybL0PK3udisddxK9/SJJvP4sAhp2HCt467jTjuP07nvwGwU7LfAcI1hJFmiRvRc8sT+pEVpGumEBTUoVUyHClMVloS84p35akhEpxWu52osIy3eNyYrWBE8+CevS31iQro20Z1n7C/+gbLU2tx4MzYWIZJWNIFmTQLwWRO6s406kEKn+Fr1NaIhzl82Lbjc/cDUfmKQ8PaVBylJ4KNVoS8KNeb4HsrzrDUHWmTkdGDuulzXf8IBE0K9IcOkoihj/glM+gu/PZAXyCXwbb4IVTbHSDv49xfAsjvWJJynhPqyafu50l01mSt9gqON1GoUgsOErCdmKw3cfbkYlCLZUpgymf2QuRCwIsPn4dc1S+hQTH/t6BayB7EXw1EDG9rKyuZ1tyhMRCqlu78J/c5ybcX3qzGzi3elbQWSm8hcqIppKfMgM2GZVDayzRX4tYMTNhOsCPlzPYNPgcpX3vF86+GJW78BKktWK8dVYvNWWs+P0w9Q8eWnu+39sRHbhLlFzhktp9+I3NSHZdfi2Up9zwMK8M5x3xgOoN0tSSVK6YiQDhBlEBTkBfSGbMF2kCiKWVgaxFFtgscS6zhi50Zm4nbEbbEIBJU4i1ZEeOTy8HrwZRxVDUgA4aWBWuAkVBXi9sDAsAGA+nw9nKIenEd9o8cr9aOh4+ZWM6k4FZE4DyN6FcCpwVAkMEh7zGQvT4V7wQF/SYteFQQ1G3hD0zDXwOqzjtW81wDUH9vfg1YBCq41rAbYEsuwiAfVfqGl1BuM6SNXtzKUZ3zIpOOo+reEepfgv7iuq8JlwUPfBeKeLE5GkE73q2H6a/dZPtJTZ0FIRKEUaqt+S+huZiEZ6rKmkAeHwjYIOTTTN8INsUqFYM7IRWzg+ej5jrEsYAz+NjBlPLGdaY4xdYYxVYEiooH5Yxb/PCG/as9xBO4zolxlhO16NEl6/gRJeCxo8U3nXIkMkQLfiBjzP7mTlsGzsuN4F41vhg8WibStlOskFJf66ALvlHnOlXWDDcZvQPfhMK3vsIhZyT4A6T1aUU4ktuYiWku4ZAmRgaqvI2vhC7UGnPAd8kghBrhqSOM4F6vJd+Trl26PXfRHFgivtcKQWjF1spE/LlQoTp8efz50vkPhAaXxkypWNq2Y+0w87UEHiJ99b5fv9DfmOWvwrTWDTuR7npeofGavqnct3ksDqlNi64QxmNyFhweRLDrA/Ydgi2MQhrLTUeyzjzGdAlqSiHZYkwd5YFMOQAQABW6JjgqtLzK4KH6MwBO2RMqV7vlJQHbmfkXsdN+HDdDY4kw8BSda5hXqIHO97PLfjQl5+jwtuC9bgNvav6rn863GSOxoKCRvYSwKFwliBe7REkGL5QwSMYXej/3y8iffhzIfzaROW7N5gNh79YN5HPqg28DZ83/0YNuneNgBHkuu6yqOnX3Ij6Vyt+5m9AZpKMRPrUQA+dyeYWV/43ZRGhAc53nUE5iaO9Hlq0TmmFu2b4rpNPTqw3nci+r0mRdqGXy24Xv6HZXg9dBdBxgxKEW8TR0eGzkW82f210/3rQXOConUA31ZgFPCU/UkCUncYoApYGNpB0M4xD5T1kY/u1y9q2AAhuYlibWicRo/Dscr3zNr3IpVWHZOzvme3FekZVjE5qCtbd9CkbFuAZAIK6KpwNDFmVtCXF0NxTaATqHt3D029A1DUHqgPRmkJ9irEr41elJMtQ49WFwze4oIxXUUuztOC5CbuwoRXdzkzfIKKLN3diThlEcxLkCn/fucebz767Uk5iGxFc0dRiDDfiUy0KMn7Cgh2EbKl/DE5MBjb85HTEgcGFQO3V9fLPe9KHAgYrCZbXo8DBZxnsRrDhoW590b7TQ2ALvmGLBMDAgOl5BeonhcZ+HSYc38xphL3Y7KiC7IUW7rQyhwrHQZ0PghWHf/fJpDxl/pqA6eMZdduMJ6bYvdtvGqCRZZSvYG9HZqze0KjdBdrx01ptpPhnLrdJCL4IAjN1CXlYjeiAdtE+6tZuQmqVkXvopJXcRGjUNU4cXz7VwkR5SrQmZIkf13WsCdcaK3/5EKBC94NuRCmU5oSFt6SCw9kwzHkbj2DQRyS0kufCgtGD2CVuDhXw/6ij/7hh4Ao+4a8JgsSsY9F++XT5+nT1ilKVjE29tmLVFH/A7DUYmBAVfTdz/5p71w8SgEQNg1GEflT8Kenz+btW1ZvIo4YMrm4NNKfnDqFU/c35NRShXJvkckAynts5XbzxSHk82Mls+Hcm903IcWZDaauU0PKOWG/A3b45UG/sTdzWnJEq8GRnndicMS2W0PW9WCFSlXfI/ssKlP0FxcABJ0bEBtz4JL3sHkCgjEutkR2SRwvOImaN4OarxnBE63DXdV7TdeSJmsRBioSPtQusDWaPP9z9FCsi4EJdWn+5etsMnp6nk0/1m/CRcpemDH+0Wwr9oXeMW5E/ga8CHSTd1haoftdcav398Bpk2CXqQ1hV+iE6Pekf6XZdIC4rar4VpmYESpLwrQaVLzdwMR+GyEhnhyLCKkNuoEJGHu4M7OHRDSa7qjN1NCNr2cUe5Cr5Ye+q63+/edHbeUfor21JP63lYLRXaEv8G55kq1JU5jqV9xlQA0zv8D5Jp5CL/xHGrl+kQD+PsNFTDbLxJcsrsQT9KCPG1sHLcXWVvxHm7oZTyVd6QQWrQ3z99/KB6wbHafPY2uuxY8z+5dNcnlnJX7KtnmmDIplHoY1+23Bd0+EyiIiIWhOosoqGJpHd3XktLrjNuy2p6/bZZ7JBYnS2uS7IO46mto9ryVfwh443fJW4/brRp+beQ5tR15xHZOv8RWtvsyZcDvDSpKNvn48eUWldo3ByijnOx+x3UaIb/VKS7UFgAKG86BS3pUVZsmi8Psb3SmTrpS6WktsLSavYrnb7R7Ogrie1w/uGN+fIpD0jw2jipN/bNR7DfNi755nZCeBelRjBep5ULzHWfoLowH/j2lCbtmB806NtrVhNhIpn3XWnEqlbCHo5hyAYDUdXBlA+7zZwv5xKJH7NF+E8mCEJ5JwVYGvCZiGJUyVAdhKZkWDun8fHyZ3VW9ElaMmNCgdlzqIHKtrD52BbiNpCKpwS0s3aYKG6e1RMLWipiuvgkK3ii49XtNqD7BaR/3BfbmjXqWjlEjQQ7WOYNHIrlAtxgrJ4QG7lbMWWfnQuDzraH34okdQaZ0NR7y8JDTtVKmVr8mpbNNa+IlfkWkkJDJaoBoX/Fa0yf3o40G2BqbkLekbS383/eP3f+P3rmdK07fCpekuK4AvsPt9XxGL/zYjVoV9M1UqtXukksHiod6fHg0BFKlaCaVqMBuEnUje72RqNeDnVQl2KlPznOsscmhfh6m2MywP2D7CvAtYFdIVxcSpG7wuOimW+KwPVcTAQ64zYM2xTrQsozikaB4SyYg+6NmYD/PB/tg5P4r5nJ0WbOwTzVoGLhgveGFZ1TOOepQ38kOHLWqHrhAx5ROJF9y7doixcteGBHiT7y6Ve6Bs/MwP1fHi/bmPOZrFseji9DuXTP/ZaaZ6DcxAiymApXy8UtbpJbPWlOV0aAYzZ10v1QiPgId5ckD1jIGkwcYvuvZZrpdJ9TIHFhLiSxWokcqLIEsW4mt9NdHuJRN96O1SfW5L4fd91F1NaCkKrp0bbXiWXiQUHjePaJTcIsbBQJWs4D0m+irjNImp6rR76jZ8zbPb1QTgpqxd9dOOW1Oxz/oNCTXNh7dtqwXHxmnYDypznXyjqb82m7/YpODkg0mT/YGDBlMlP9m+gkVldH+NC07r7upsOtDppmVryVTOvQmrsKYPZEnDR5EwFdRwp0uR4onUQ3GoGjaKvvORd5vK9QVsqgd9UVrLHattnMrZluJurjtJ1iTGBtHbCv/uRJe8Jr1u6i7yFOV2XpxUfA+7369BxRvWgZLJvgcn7k+c/G1xAhbrzXDS+4mTvw1Oqrn5t8SJdyZOjPMEF7wx/A8Dn+h/3hQjxiDpYp81YZNsUBfa9WrwYTfdoSpskg3qQrteDUvZqMvCJtnAq4+42tpuaG1XWnvTc2lX5dfA9gbjpujGi/r5EUnWSKjsYPwntIHVkWX9rVwr4Uk7dLuvBNb6vRrbBv062zLZGWyD4v4vOelIwf7PYbmz/wE=&lt;/diagram&gt;&lt;/mxfile&gt;"><defs/><g><g><rect x="10" y="0" width="1320" height="35" fill="none" stroke="none" pointer-events="all"/></g><g><g transform="translate(-0.5 -0.5)"><switch><foreignObject style="overflow: visible; text-align: left;" pointer-events="none" width="100%" height="100%" requiredFeatures="http://www.w3.org/TR/SVG11/feature#Extensibility"><div xmlns="http://www.w3.org/1999/xhtml" style="display: flex; align-items: unsafe center; justify-content: unsafe center; width: 1318px; height: 1px; padding-top: 18px; margin-left: 11px;"><div style="box-sizing: border-box; font-size: 0; text-align: center; color: #232F3E; "><div style="display: inline-block; font-size: 15px; font-family: &quot;Helvetica&quot;; color: light-dark(#232F3E, #bdc7d4); line-height: 1.2; pointer-events: all; font-weight: bold; white-space: normal; word-wrap: normal; ">Lab-48 — Fundamentos de FinOps: Tags, Budgets y Spot Instances</div></div></div></foreignObject><text x="670" y="22" fill="#232F3E" font-family="&quot;Helvetica&quot;" font-size="15px" text-anchor="middle" font-weight="bold">Lab-48 — Fundamentos de FinOps: Tags, Budgets y Spot Instances</text></switch></g></g><g><rect x="10" y="60" width="600" height="220" rx="33" ry="33" fill="#fff8e1" stroke="#f9a825" stroke-width="2" pointer-events="all" style="fill: light-dark(rgb(255, 248, 225), rgb(30, 24, 4)); stroke: light-dark(rgb(249, 168, 37), rgb(149, 79, 0));"/></g><g><g transform="translate(-0.5 -0.5)"><switch><foreignObject style="overflow: visible; text-align: left;" pointer-events="none" width="100%" height="100%" requiredFeatures="http://www.w3.org/TR/SVG11/feature#Extensibility"><div xmlns="http://www.w3.org/1999/xhtml" style="display: flex; align-items: unsafe flex-start; justify-content: unsafe center; width: 586px; height: 1px; padding-top: 75px; margin-left: 23px;"><div style="box-sizing: border-box; font-size: 0; text-align: center; color: #7A5800; "><div style="display: inline-block; font-size: 12px; font-family: &quot;Helvetica&quot;; color: light-dark(#7A5800, #bda054); line-height: 1.2; pointer-events: all; font-weight: bold; white-space: normal; word-wrap: normal; "><font style="font-size: 14px;">🏷 Estrategia de tagging — default_tags del provider + módulo naming</font></div></div></div></foreignObject><text x="316" y="87" fill="#7A5800" font-family="&quot;Helvetica&quot;" font-size="12px" text-anchor="middle" font-weight="bold">🏷 Estrategia de tagging — default_tags del provider + módulo naming</text></switch></g></g><g><rect x="30" y="105" width="560" height="55" fill="#ffffff" stroke="#fbc02d" pointer-events="all" style="fill: light-dark(rgb(255, 255, 255), rgb(18, 18, 18)); stroke: light-dark(rgb(251, 192, 45), rgb(120, 69, 0));"/></g><g><g transform="translate(-0.5 -0.5)"><switch><foreignObject style="overflow: visible; text-align: left;" pointer-events="none" width="100%" height="100%" requiredFeatures="http://www.w3.org/TR/SVG11/feature#Extensibility"><div xmlns="http://www.w3.org/1999/xhtml" style="display: flex; align-items: unsafe center; justify-content: unsafe flex-start; width: 546px; height: 1px; padding-top: 133px; margin-left: 44px;"><div style="box-sizing: border-box; font-size: 0; text-align: left; color: #5D4037; "><div style="display: inline-block; font-size: 10px; font-family: &quot;Helvetica&quot;; color: light-dark(#5D4037, #c6ada5); line-height: 1.2; pointer-events: all; white-space: normal; word-wrap: normal; "><font style="font-size: 14px;">provider "aws" { default_tags = { Environment, Project, ManagedBy, CostCenter } }<br />todos los recursos del provider heredan estas tags automáticamente</font></div></div></div></foreignObject><text x="44" y="136" fill="#5D4037" font-family="&quot;Helvetica&quot;" font-size="10px">provider "aws" { default_tags = { Environment, Project, ManagedBy, CostCenter } }...</text></switch></g></g><g><rect x="30" y="175" width="560" height="55" fill="#ffffff" stroke="#fbc02d" pointer-events="all" style="fill: light-dark(rgb(255, 255, 255), rgb(18, 18, 18)); stroke: light-dark(rgb(251, 192, 45), rgb(120, 69, 0));"/></g><g><g transform="translate(-0.5 -0.5)"><switch><foreignObject style="overflow: visible; text-align: left;" pointer-events="none" width="100%" height="100%" requiredFeatures="http://www.w3.org/TR/SVG11/feature#Extensibility"><div xmlns="http://www.w3.org/1999/xhtml" style="display: flex; align-items: unsafe center; justify-content: unsafe flex-start; width: 546px; height: 1px; padding-top: 203px; margin-left: 44px;"><div style="box-sizing: border-box; font-size: 0; text-align: left; color: #5D4037; "><div style="display: inline-block; font-size: 10px; font-family: &quot;Helvetica&quot;; color: light-dark(#5D4037, #c6ada5); line-height: 1.2; pointer-events: all; white-space: normal; word-wrap: normal; "><font style="font-size: 14px;">modules/naming <b style="">invocado con for_each</b> — una invocación por recurso<br />genera nombres del estilo <code style="">&lt;app&gt;-&lt;env&gt;-&lt;component&gt;-&lt;resource&gt;</code> coherentes en todo el proyecto</font></div></div></div></foreignObject><text x="44" y="206" fill="#5D4037" font-family="&quot;Helvetica&quot;" font-size="10px">modules/naming invocado con for_each — una invocación por recurso...</text></switch></g></g><g><rect x="30" y="240" width="560" height="30" fill="#fffde7" stroke="#fbc02d" stroke-dasharray="3 3" pointer-events="all" style="fill: light-dark(rgb(255, 253, 231), rgb(24, 22, 4)); stroke: light-dark(rgb(251, 192, 45), rgb(120, 69, 0));"/></g><g><g transform="translate(-0.5 -0.5)"><switch><foreignObject style="overflow: visible; text-align: left;" pointer-events="none" width="100%" height="100%" requiredFeatures="http://www.w3.org/TR/SVG11/feature#Extensibility"><div xmlns="http://www.w3.org/1999/xhtml" style="display: flex; align-items: unsafe center; justify-content: unsafe center; width: 558px; height: 1px; padding-top: 255px; margin-left: 31px;"><div style="box-sizing: border-box; font-size: 0; text-align: center; color: #5D4037; "><div style="display: inline-block; font-size: 10px; font-family: &quot;Helvetica&quot;; color: light-dark(#5D4037, #c6ada5); line-height: 1.2; pointer-events: all; white-space: normal; word-wrap: normal; "><font style="font-size: 14px;">resultado: <b style="">asignación universal de tags</b> sin duplicar definiciones — base imprescindible para Cost Allocation Reports y Budgets</font></div></div></div></foreignObject><text x="310" y="258" fill="#5D4037" font-family="&quot;Helvetica&quot;" font-size="10px" text-anchor="middle">resultado: asignación universal de tags sin duplicar definiciones — base imprescindible para Cost Allocation Repo...</text></switch></g></g><g><rect x="650" y="60" width="680" height="530" rx="79.5" ry="79.5" fill="#f2f8fd" stroke="#147eba" stroke-width="2" pointer-events="all" style="fill: light-dark(rgb(242, 248, 253), rgb(21, 26, 30)); stroke: light-dark(rgb(20, 126, 186), rgb(69, 160, 212));"/></g><g><g transform="translate(-0.5 -0.5)"><switch><foreignObject style="overflow: visible; text-align: left;" pointer-events="none" width="100%" height="100%" requiredFeatures="http://www.w3.org/TR/SVG11/feature#Extensibility"><div xmlns="http://www.w3.org/1999/xhtml" style="display: flex; align-items: unsafe flex-start; justify-content: unsafe center; width: 666px; height: 1px; padding-top: 75px; margin-left: 663px;"><div style="box-sizing: border-box; font-size: 0; text-align: center; color: #147EBA; "><div style="display: inline-block; font-size: 12px; font-family: &quot;Helvetica&quot;; color: light-dark(#147EBA, #45a0d4); line-height: 1.2; pointer-events: all; font-weight: bold; white-space: normal; word-wrap: normal; "><font style="font-size: 14px;">VPC + 2 subredes públicas (multi-AZ)</font></div></div></div></foreignObject><text x="996" y="87" fill="#147EBA" font-family="&quot;Helvetica&quot;" font-size="12px" text-anchor="middle" font-weight="bold">VPC + 2 subredes públicas (multi-AZ)</text></switch></g></g><g><rect x="670" y="105" width="640" height="320" rx="48" ry="48" fill="#fffde7" stroke="#fbc02d" stroke-width="2" stroke-dasharray="6 6" pointer-events="all" style="fill: light-dark(rgb(255, 253, 231), rgb(24, 22, 4)); stroke: light-dark(rgb(251, 192, 45), rgb(120, 69, 0));"/></g><g><g transform="translate(-0.5 -0.5)"><switch><foreignObject style="overflow: visible; text-align: left;" pointer-events="none" width="100%" height="100%" requiredFeatures="http://www.w3.org/TR/SVG11/feature#Extensibility"><div xmlns="http://www.w3.org/1999/xhtml" style="display: flex; align-items: unsafe flex-start; justify-content: unsafe center; width: 626px; height: 1px; padding-top: 120px; margin-left: 683px;"><div style="box-sizing: border-box; font-size: 0; text-align: center; color: #5D4037; "><div style="display: inline-block; font-size: 11px; font-family: &quot;Helvetica&quot;; color: light-dark(#5D4037, #c6ada5); line-height: 1.2; pointer-events: all; font-weight: bold; white-space: normal; word-wrap: normal; "><font style="font-size: 14px;">ASG con <b style="">Mixed Instances Policy</b> — On-Demand + Spot</font></div></div></div></foreignObject><text x="996" y="131" fill="#5D4037" font-family="&quot;Helvetica&quot;" font-size="11px" text-anchor="middle" font-weight="bold">ASG con Mixed Instances Policy — On-Demand + Spot</text></switch></g></g><g><rect x="770" y="150" width="370" height="50" fill="none" stroke="none" pointer-events="all"/></g><g><g transform="translate(-0.5 -0.5)"><switch><foreignObject style="overflow: visible; text-align: left;" pointer-events="none" width="100%" height="100%" requiredFeatures="http://www.w3.org/TR/SVG11/feature#Extensibility"><div xmlns="http://www.w3.org/1999/xhtml" style="display: flex; align-items: unsafe center; justify-content: unsafe flex-start; width: 368px; height: 1px; padding-top: 175px; margin-left: 772px;"><div style="box-sizing: border-box; font-size: 0; text-align: left; color: #E65100; "><div style="display: inline-block; font-size: 10px; font-family: &quot;Helvetica&quot;; color: light-dark(#E65100, #fb7b35); line-height: 1.2; pointer-events: all; white-space: normal; word-wrap: normal; "><font style="font-size: 14px;">On-Demand instance · <b style="">base = N</b> siempre garantizada<br />precio estándar · NO interrumpible</font></div></div></div></foreignObject><text x="772" y="178" fill="#E65100" font-family="&quot;Helvetica&quot;" font-size="10px">On-Demand instance · base = N siempre garantizada...</text></switch></g></g><g><rect x="840" y="225" width="450" height="50" fill="none" stroke="none" pointer-events="all"/></g><g><g transform="translate(-0.5 -0.5)"><switch><foreignObject style="overflow: visible; text-align: left;" pointer-events="none" width="100%" height="100%" requiredFeatures="http://www.w3.org/TR/SVG11/feature#Extensibility"><div xmlns="http://www.w3.org/1999/xhtml" style="display: flex; align-items: unsafe center; justify-content: unsafe flex-start; width: 448px; height: 1px; padding-top: 250px; margin-left: 842px;"><div style="box-sizing: border-box; font-size: 0; text-align: left; color: #7B1FA2; "><div style="display: inline-block; font-size: 10px; font-family: &quot;Helvetica&quot;; color: light-dark(#7B1FA2, #efa0ff); line-height: 1.2; pointer-events: all; white-space: normal; word-wrap: normal; "><font style="font-size: 14px;">Spot instances · <b style="">hasta -90%</b> del coste · 2 min de aviso de interrupción<br />spot_allocation_strategy = capacity-optimized → AWS elige el pool con más capacidad libre</font></div></div></div></foreignObject><text x="842" y="253" fill="#7B1FA2" font-family="&quot;Helvetica&quot;" font-size="10px">Spot instances · hasta -90% del coste · 2 min de aviso de interrupción...</text></switch></g></g><g><rect x="690" y="290" width="600" height="35" fill="#ffffff" stroke="#fbc02d" pointer-events="all" style="fill: light-dark(rgb(255, 255, 255), rgb(18, 18, 18)); stroke: light-dark(rgb(251, 192, 45), rgb(120, 69, 0));"/></g><g><g transform="translate(-0.5 -0.5)"><switch><foreignObject style="overflow: visible; text-align: left;" pointer-events="none" width="100%" height="100%" requiredFeatures="http://www.w3.org/TR/SVG11/feature#Extensibility"><div xmlns="http://www.w3.org/1999/xhtml" style="display: flex; align-items: unsafe center; justify-content: unsafe center; width: 598px; height: 1px; padding-top: 308px; margin-left: 691px;"><div style="box-sizing: border-box; font-size: 0; text-align: center; color: #5D4037; "><div style="display: inline-block; font-size: 10px; font-family: &quot;Helvetica&quot;; color: light-dark(#5D4037, #c6ada5); line-height: 1.2; pointer-events: all; white-space: normal; word-wrap: normal; "><font style="font-size: 14px;"><b>instances_distribution</b>: <i>on_demand_base_capacity, on_demand_percentage_above_base, spot_allocation_strategy</i></font></div></div></div></foreignObject><text x="990" y="311" fill="#5D4037" font-family="&quot;Helvetica&quot;" font-size="10px" text-anchor="middle">instances_distribution: on_demand_base_capacity, on_demand_percentage_above_base, spot_allocation_strategy</text></switch></g></g><g><rect x="690" y="330" width="600" height="35" fill="#ffffff" stroke="#fbc02d" pointer-events="all" style="fill: light-dark(rgb(255, 255, 255), rgb(18, 18, 18)); stroke: light-dark(rgb(251, 192, 45), rgb(120, 69, 0));"/></g><g><g transform="translate(-0.5 -0.5)"><switch><foreignObject style="overflow: visible; text-align: left;" pointer-events="none" width="100%" height="100%" requiredFeatures="http://www.w3.org/TR/SVG11/feature#Extensibility"><div xmlns="http://www.w3.org/1999/xhtml" style="display: flex; align-items: unsafe center; justify-content: unsafe center; width: 598px; height: 1px; padding-top: 348px; margin-left: 691px;"><div style="box-sizing: border-box; font-size: 0; text-align: center; color: #5D4037; "><div style="display: inline-block; font-size: 10px; font-family: &quot;Helvetica&quot;; color: light-dark(#5D4037, #c6ada5); line-height: 1.2; pointer-events: all; white-space: normal; word-wrap: normal; "><font style="font-size: 14px;"><b>override types pool</b>: <i>t3.small, t3a.small, t3.medium, t3a.medium</i>  →  diversidad de pools = menor tasa de interrupción Spot</font></div></div></div></foreignObject><text x="990" y="351" fill="#5D4037" font-family="&quot;Helvetica&quot;" font-size="10px" text-anchor="middle">override types pool: t3.small, t3a.small, t3.medium, t3a.medium  →  diversidad de pools = menor tasa de interrupción Spot</text></switch></g></g><g><rect x="690" y="370" width="600" height="35" fill="#ffffff" stroke="#fbc02d" pointer-events="all" style="fill: light-dark(rgb(255, 255, 255), rgb(18, 18, 18)); stroke: light-dark(rgb(251, 192, 45), rgb(120, 69, 0));"/></g><g><g transform="translate(-0.5 -0.5)"><switch><foreignObject style="overflow: visible; text-align: left;" pointer-events="none" width="100%" height="100%" requiredFeatures="http://www.w3.org/TR/SVG11/feature#Extensibility"><div xmlns="http://www.w3.org/1999/xhtml" style="display: flex; align-items: unsafe center; justify-content: unsafe center; width: 598px; height: 1px; padding-top: 388px; margin-left: 691px;"><div style="box-sizing: border-box; font-size: 0; text-align: center; color: #5D4037; "><div style="display: inline-block; font-size: 10px; font-family: &quot;Helvetica&quot;; color: light-dark(#5D4037, #c6ada5); line-height: 1.2; pointer-events: all; white-space: normal; word-wrap: normal; "><font style="font-size: 14px;"><b>Launch Template</b>: AL2023 x86_64 (data aws_ami) · IMDSv2 · gp3 cifrado</font><div><font style="font-size: 14px;">Instance Profile: AmazonSSMManagedInstanceCore</font></div></div></div></div></foreignObject><text x="990" y="391" fill="#5D4037" font-family="&quot;Helvetica&quot;" font-size="10px" text-anchor="middle">Launch Template: AL2023 x86_64 (data aws_ami) · IMDSv2 · gp3 cifrado...</text></switch></g></g><g><rect x="670" y="435" width="640" height="115" rx="17.25" ry="17.25" fill="#e8f5e9" stroke="#2e7d32" stroke-width="2" pointer-events="all" style="fill: light-dark(rgb(232, 245, 233), rgb(21, 33, 22)); stroke: light-dark(rgb(46, 125, 50), rgb(100, 168, 104));"/></g><g><g transform="translate(-0.5 -0.5)"><switch><foreignObject style="overflow: visible; text-align: left;" pointer-events="none" width="100%" height="100%" requiredFeatures="http://www.w3.org/TR/SVG11/feature#Extensibility"><div xmlns="http://www.w3.org/1999/xhtml" style="display: flex; align-items: unsafe flex-start; justify-content: unsafe flex-start; width: 626px; height: 1px; padding-top: 450px; margin-left: 684px;"><div style="box-sizing: border-box; font-size: 0; text-align: left; color: #1B5E20; "><div style="display: inline-block; font-size: 12px; font-family: &quot;Helvetica&quot;; color: light-dark(#1B5E20, #82bc86); line-height: 1.2; pointer-events: all; font-weight: bold; white-space: normal; word-wrap: normal; "><font style="font-size: 14px;">💰 AWS Budgets</font></div></div></div></foreignObject><text x="684" y="462" fill="#1B5E20" font-family="&quot;Helvetica&quot;" font-size="12px" font-weight="bold">💰 AWS Budgets</text></switch></g></g><g><rect x="685" y="480" width="610" height="60" fill="#ffffff" stroke="#2e7d32" pointer-events="all" style="fill: light-dark(rgb(255, 255, 255), rgb(18, 18, 18)); stroke: light-dark(rgb(46, 125, 50), rgb(100, 168, 104));"/></g><g><g transform="translate(-0.5 -0.5)"><switch><foreignObject style="overflow: visible; text-align: left;" pointer-events="none" width="100%" height="100%" requiredFeatures="http://www.w3.org/TR/SVG11/feature#Extensibility"><div xmlns="http://www.w3.org/1999/xhtml" style="display: flex; align-items: unsafe center; justify-content: unsafe center; width: 608px; height: 1px; padding-top: 510px; margin-left: 686px;"><div style="box-sizing: border-box; font-size: 0; text-align: center; color: #1B5E20; "><div style="display: inline-block; font-size: 10px; font-family: &quot;Helvetica&quot;; color: light-dark(#1B5E20, #82bc86); line-height: 1.2; pointer-events: all; white-space: normal; word-wrap: normal; "><font style="font-size: 14px;">aws_budgets_budget · cost_filter por tag <b style="">Project = var.app_name</b><br />monthly · 2 thresholds (80% ACTUAL · 100% FORECASTED)<br />notification_type ACTUAL avisa cuando ya gastaste · FORECASTED predice y avisa antes</font></div></div></div></foreignObject><text x="990" y="513" fill="#1B5E20" font-family="&quot;Helvetica&quot;" font-size="10px" text-anchor="middle">aws_budgets_budget · cost_filter por tag Project = var.app_name...</text></switch></g></g><g><rect x="142.5" y="345" width="335" height="50" fill="none" stroke="none" pointer-events="all"/></g><g><g transform="translate(-0.5 -0.5)"><switch><foreignObject style="overflow: visible; text-align: left;" pointer-events="none" width="100%" height="100%" requiredFeatures="http://www.w3.org/TR/SVG11/feature#Extensibility"><div xmlns="http://www.w3.org/1999/xhtml" style="display: flex; align-items: unsafe flex-start; justify-content: unsafe center; width: 333px; height: 1px; padding-top: 352px; margin-left: 144px;"><div style="box-sizing: border-box; font-size: 0; text-align: center; color: #AD1457; "><div style="display: inline-block; font-size: 10px; font-family: &quot;Helvetica&quot;; color: light-dark(#AD1457, #ff9bd5); line-height: 1.2; pointer-events: all; white-space: normal; word-wrap: normal; "><div style="text-align: left;"><b style="color: light-dark(rgb(63, 63, 63), rgb(183, 183, 183)); font-size: 14px; background-color: transparent;">SNS topic </b><span style="color: light-dark(rgb(63, 63, 63), rgb(183, 183, 183)); font-size: 14px; background-color: transparent;">+ email subscription</span></div><div><div style="text-align: left;"><span style="color: light-dark(rgb(63, 63, 63), rgb(183, 183, 183)); font-size: 14px; background-color: transparent;">Entrega notificaciones de Budgets</span></div><font style="font-size: 14px;"><div style="text-align: left;"><span style="color: light-dark(rgb(63, 63, 63), rgb(183, 183, 183)); background-color: transparent;">cost_filter activo el filtro de tag → solo alerta sobre coste con Project = app_name</span></div></font></div></div></div></div></foreignObject><text x="310" y="362" fill="#AD1457" font-family="&quot;Helvetica&quot;" font-size="10px" text-anchor="middle">SNS topic + email subscription...</text></switch></g></g><g><rect x="0" y="530" width="600" height="60" fill="#fffde7" stroke="#fbc02d" stroke-dasharray="3 3" pointer-events="all" style="fill: light-dark(rgb(255, 253, 231), rgb(24, 22, 4)); stroke: light-dark(rgb(251, 192, 45), rgb(120, 69, 0));"/></g><g><g transform="translate(-0.5 -0.5)"><switch><foreignObject style="overflow: visible; text-align: left;" pointer-events="none" width="100%" height="100%" requiredFeatures="http://www.w3.org/TR/SVG11/feature#Extensibility"><div xmlns="http://www.w3.org/1999/xhtml" style="display: flex; align-items: unsafe center; justify-content: unsafe center; width: 598px; height: 1px; padding-top: 560px; margin-left: 1px;"><div style="box-sizing: border-box; font-size: 0; text-align: center; color: #5D4037; "><div style="display: inline-block; font-size: 10px; font-family: &quot;Helvetica&quot;; color: light-dark(#5D4037, #c6ada5); line-height: 1.2; pointer-events: all; white-space: normal; word-wrap: normal; "><font style="font-size: 14px;">📊 <b>Cost Allocation Reports en Billing</b><br />Activar en consola de Billing las tag keys (Project, Environment, CostCenter, ...)</font><div><font style="font-size: 14px;">AWSnBudgets requiere que estén activadas antes de filtrar</font></div></div></div></div></foreignObject><text x="300" y="563" fill="#5D4037" font-family="&quot;Helvetica&quot;" font-size="10px" text-anchor="middle">📊 Cost Allocation Reports en Billing...</text></switch></g></g><g><path d="M 310 280 L 310 320 L 470 320 L 640.76 320" fill="none" stroke="#fbc02d" stroke-width="2" stroke-miterlimit="10" stroke-dasharray="6 6" pointer-events="stroke" style="stroke: light-dark(rgb(251, 192, 45), rgb(120, 69, 0));"/><path d="M 646.76 320 L 638.76 324 L 640.76 320 L 638.76 316 Z" fill="#fbc02d" stroke="#fbc02d" stroke-width="2" stroke-miterlimit="10" pointer-events="all" style="fill: light-dark(rgb(251, 192, 45), rgb(120, 69, 0)); stroke: light-dark(rgb(251, 192, 45), rgb(120, 69, 0));"/></g><g><g transform="translate(-0.5 -0.5)"><switch><foreignObject style="overflow: visible; text-align: left;" pointer-events="none" width="100%" height="100%" requiredFeatures="http://www.w3.org/TR/SVG11/feature#Extensibility"><div xmlns="http://www.w3.org/1999/xhtml" style="display: flex; align-items: unsafe center; justify-content: unsafe center; width: 1px; height: 1px; padding-top: 320px; margin-left: 494px;"><div style="box-sizing: border-box; font-size: 0; text-align: center; color: #5D4037; background-color: #ffffff; "><div style="display: inline-block; font-size: 10px; font-family: &quot;Helvetica&quot;; color: light-dark(#5D4037, #c6ada5); line-height: 1.2; pointer-events: all; background-color: light-dark(#ffffff, var(--ge-dark-color, #121212)); white-space: nowrap; "><font style="font-size: 12px;">default_tags + naming → todos los recursos</font></div></div></div></foreignObject><text x="494" y="323" fill="#5D4037" font-family="&quot;Helvetica&quot;" font-size="10px" text-anchor="middle">default_tags + naming → todos los recursos</text></switch></g></g><g><path d="M 670 492.5 L 98 490 L 98 428.24" fill="none" stroke="#1b5e20" stroke-width="2" stroke-miterlimit="10" pointer-events="stroke" style="stroke: light-dark(rgb(27, 94, 32), rgb(130, 188, 134));"/><path d="M 98 422.24 L 102 430.24 L 98 428.24 L 94 430.24 Z" fill="#1b5e20" stroke="#1b5e20" stroke-width="2" stroke-miterlimit="10" pointer-events="all" style="fill: light-dark(rgb(27, 94, 32), rgb(130, 188, 134)); stroke: light-dark(rgb(27, 94, 32), rgb(130, 188, 134));"/></g><g><g transform="translate(-0.5 -0.5)"><switch><foreignObject style="overflow: visible; text-align: left;" pointer-events="none" width="100%" height="100%" requiredFeatures="http://www.w3.org/TR/SVG11/feature#Extensibility"><div xmlns="http://www.w3.org/1999/xhtml" style="display: flex; align-items: unsafe center; justify-content: unsafe center; width: 1px; height: 1px; padding-top: 491px; margin-left: 349px;"><div style="box-sizing: border-box; font-size: 0; text-align: center; color: #1B5E20; background-color: #ffffff; "><div style="display: inline-block; font-size: 10px; font-family: &quot;Helvetica&quot;; color: light-dark(#1B5E20, #82bc86); line-height: 1.2; pointer-events: all; background-color: light-dark(#ffffff, var(--ge-dark-color, #121212)); white-space: nowrap; "><font style="font-size: 12px;">alarm_actions</font></div></div></div></foreignObject><text x="349" y="494" fill="#1B5E20" font-family="&quot;Helvetica&quot;" font-size="10px" text-anchor="middle">alarm_actions</text></switch></g></g><g><rect x="10" y="590" width="1320" height="100" fill="none" stroke="none" pointer-events="all"/></g><g><g transform="translate(-0.5 -0.5)"><switch><foreignObject style="overflow: visible; text-align: left;" pointer-events="none" width="100%" height="100%" requiredFeatures="http://www.w3.org/TR/SVG11/feature#Extensibility"><div xmlns="http://www.w3.org/1999/xhtml" style="display: flex; align-items: unsafe center; justify-content: unsafe center; width: 1318px; height: 1px; padding-top: 640px; margin-left: 11px;"><div style="box-sizing: border-box; font-size: 0; text-align: center; color: #555555; "><div style="display: inline-block; font-size: 11px; font-family: &quot;Helvetica&quot;; color: light-dark(#555555, #a4a4a4); line-height: 1.2; pointer-events: all; font-style: italic; white-space: normal; word-wrap: normal; "><font style="font-size: 14px;"><b style="">Tres palancas FinOps complementarias:</b> (1) <b style="">Tagging</b> consistente con <code style="">default_tags</code> del provider y módulo <code style="">naming</code> — base para reportar coste por proyecto/equipo. (2) <b style="">Mixed Instances Policy</b> con base On-Demand garantizada + Spot <code style="">capacity-optimized</code> sobre múltiples pools — reduce coste hasta 90% sin sacrificar fiabilidad. (3) <b style="">AWS Budgets</b> con thresholds ACTUAL + FORECASTED filtrados por tag — alerta antes de incurrir en costes inesperados.</font></div></div></div></foreignObject><text x="670" y="643" fill="#555555" font-family="&quot;Helvetica&quot;" font-size="11px" text-anchor="middle" font-style="italic">Tres palancas FinOps complementarias: (1) Tagging consistente con default_tags del provider y módulo naming — base para reportar coste por proyecto/equipo. (2) Mixed Instances Policy con base On-Demand garantizada + Spot capacity-optimized s...</text></switch></g></g><g><rect x="700" y="146" width="58" height="58" fill="none" stroke="none" pointer-events="all"/><path d="M 758 160.5 L 758 157.86 L 751.41 157.86 L 751.41 153.91 C 751.41 153.18 750.82 152.59 750.09 152.59 L 746.14 152.59 L 746.14 146 L 743.5 146 L 743.5 152.59 L 738.23 152.59 L 738.23 146 L 735.59 146 L 735.59 152.59 L 730.32 152.59 L 730.32 146 L 727.68 146 L 727.68 152.59 L 722.41 152.59 L 722.41 146 L 719.77 146 L 719.77 152.59 L 714.5 152.59 L 714.5 146 L 711.86 146 L 711.86 152.59 L 707.91 152.59 C 707.18 152.59 706.59 153.18 706.59 153.91 L 706.59 157.86 L 700 157.86 L 700 160.5 L 706.59 160.5 L 706.59 165.77 L 700 165.77 L 700 168.41 L 706.59 168.41 L 706.59 173.68 L 700 173.68 L 700 176.32 L 706.59 176.32 L 706.59 181.59 L 700 181.59 L 700 184.23 L 706.59 184.23 L 706.59 189.5 L 700 189.5 L 700 192.14 L 706.59 192.14 L 706.59 196.09 C 706.59 196.82 707.18 197.41 707.91 197.41 L 711.86 197.41 L 711.86 204 L 714.5 204 L 714.5 197.41 L 719.77 197.41 L 719.77 204 L 722.41 204 L 722.41 197.41 L 727.68 197.41 L 727.68 204 L 730.32 204 L 730.32 197.41 L 735.59 197.41 L 735.59 204 L 738.23 204 L 738.23 197.41 L 743.5 197.41 L 743.5 204 L 746.14 204 L 746.14 197.41 L 750.09 197.41 C 750.82 197.41 751.41 196.82 751.41 196.09 L 751.41 192.14 L 758 192.14 L 758 189.5 L 751.41 189.5 L 751.41 184.23 L 758 184.23 L 758 181.59 L 751.41 181.59 L 751.41 176.32 L 758 176.32 L 758 173.68 L 751.41 173.68 L 751.41 168.41 L 758 168.41 L 758 165.77 L 751.41 165.77 L 751.41 160.5 Z M 709.23 194.77 L 709.23 155.23 L 748.77 155.23 L 748.77 194.77 Z M 723 170.4 L 719 170.4 L 719 168.56 L 729.26 168.56 L 729.26 170.4 L 725.26 170.4 L 725.26 181.35 L 723 181.35 Z M 734.13 181.62 C 732.95 181.62 731.79 181.38 730.66 180.88 L 730.66 179.15 C 732.01 179.6 733.14 179.83 734.05 179.83 C 734.92 179.83 735.59 179.64 736.06 179.25 C 736.53 178.86 736.77 178.31 736.77 177.6 C 736.77 176.25 735.92 175.57 734.21 175.57 C 733.66 175.57 733.07 175.61 732.43 175.68 L 732.43 174.26 L 736.07 170.31 L 730.85 170.31 L 730.85 168.56 L 738.47 168.56 L 738.47 170.23 L 734.63 174 C 734.8 173.99 734.97 173.98 735.14 173.98 C 735.86 173.98 736.51 174.13 737.09 174.43 C 737.67 174.74 738.14 175.16 738.48 175.72 C 738.83 176.27 739 176.9 739 177.62 C 739 178.39 738.81 179.08 738.41 179.68 C 738.02 180.29 737.45 180.76 736.71 181.1 C 735.98 181.45 735.12 181.62 734.13 181.62 Z" fill="#ed7100" stroke="none" pointer-events="all" style="fill: light-dark(rgb(237, 113, 0), rgb(216, 109, 12));"/></g><g><rect x="700" y="221" width="58" height="58" fill="none" stroke="none" pointer-events="all"/><path d="M 758 235.5 L 758 232.86 L 751.41 232.86 L 751.41 228.91 C 751.41 228.18 750.82 227.59 750.09 227.59 L 746.14 227.59 L 746.14 221 L 743.5 221 L 743.5 227.59 L 738.23 227.59 L 738.23 221 L 735.59 221 L 735.59 227.59 L 730.32 227.59 L 730.32 221 L 727.68 221 L 727.68 227.59 L 722.41 227.59 L 722.41 221 L 719.77 221 L 719.77 227.59 L 714.5 227.59 L 714.5 221 L 711.86 221 L 711.86 227.59 L 707.91 227.59 C 707.18 227.59 706.59 228.18 706.59 228.91 L 706.59 232.86 L 700 232.86 L 700 235.5 L 706.59 235.5 L 706.59 240.77 L 700 240.77 L 700 243.41 L 706.59 243.41 L 706.59 248.68 L 700 248.68 L 700 251.32 L 706.59 251.32 L 706.59 256.59 L 700 256.59 L 700 259.23 L 706.59 259.23 L 706.59 264.5 L 700 264.5 L 700 267.14 L 706.59 267.14 L 706.59 271.09 C 706.59 271.82 707.18 272.41 707.91 272.41 L 711.86 272.41 L 711.86 279 L 714.5 279 L 714.5 272.41 L 719.77 272.41 L 719.77 279 L 722.41 279 L 722.41 272.41 L 727.68 272.41 L 727.68 279 L 730.32 279 L 730.32 272.41 L 735.59 272.41 L 735.59 279 L 738.23 279 L 738.23 272.41 L 743.5 272.41 L 743.5 279 L 746.14 279 L 746.14 272.41 L 750.09 272.41 C 750.82 272.41 751.41 271.82 751.41 271.09 L 751.41 267.14 L 758 267.14 L 758 264.5 L 751.41 264.5 L 751.41 259.23 L 758 259.23 L 758 256.59 L 751.41 256.59 L 751.41 251.32 L 758 251.32 L 758 248.68 L 751.41 248.68 L 751.41 243.41 L 758 243.41 L 758 240.77 L 751.41 240.77 L 751.41 235.5 Z M 709.23 269.77 L 709.23 230.23 L 748.77 230.23 L 748.77 269.77 Z M 723 245.4 L 719 245.4 L 719 243.56 L 729.26 243.56 L 729.26 245.4 L 725.26 245.4 L 725.26 256.35 L 723 256.35 Z M 734.13 256.62 C 732.95 256.62 731.79 256.38 730.66 255.88 L 730.66 254.15 C 732.01 254.6 733.14 254.83 734.05 254.83 C 734.92 254.83 735.59 254.64 736.06 254.25 C 736.53 253.86 736.77 253.31 736.77 252.6 C 736.77 251.25 735.92 250.57 734.21 250.57 C 733.66 250.57 733.07 250.61 732.43 250.68 L 732.43 249.26 L 736.07 245.31 L 730.85 245.31 L 730.85 243.56 L 738.47 243.56 L 738.47 245.23 L 734.63 249 C 734.8 248.99 734.97 248.98 735.14 248.98 C 735.86 248.98 736.51 249.13 737.09 249.43 C 737.67 249.74 738.14 250.16 738.48 250.72 C 738.83 251.27 739 251.9 739 252.62 C 739 253.39 738.81 254.08 738.41 254.68 C 738.02 255.29 737.45 255.76 736.71 256.1 C 735.98 256.45 735.12 256.62 734.13 256.62 Z" fill="#ed7100" stroke="none" pointer-events="all" style="fill: light-dark(rgb(237, 113, 0), rgb(216, 109, 12));"/></g><g><rect x="770" y="221" width="58" height="58" fill="none" stroke="none" pointer-events="all"/><path d="M 828 235.5 L 828 232.86 L 821.41 232.86 L 821.41 228.91 C 821.41 228.18 820.82 227.59 820.09 227.59 L 816.14 227.59 L 816.14 221 L 813.5 221 L 813.5 227.59 L 808.23 227.59 L 808.23 221 L 805.59 221 L 805.59 227.59 L 800.32 227.59 L 800.32 221 L 797.68 221 L 797.68 227.59 L 792.41 227.59 L 792.41 221 L 789.77 221 L 789.77 227.59 L 784.5 227.59 L 784.5 221 L 781.86 221 L 781.86 227.59 L 777.91 227.59 C 777.18 227.59 776.59 228.18 776.59 228.91 L 776.59 232.86 L 770 232.86 L 770 235.5 L 776.59 235.5 L 776.59 240.77 L 770 240.77 L 770 243.41 L 776.59 243.41 L 776.59 248.68 L 770 248.68 L 770 251.32 L 776.59 251.32 L 776.59 256.59 L 770 256.59 L 770 259.23 L 776.59 259.23 L 776.59 264.5 L 770 264.5 L 770 267.14 L 776.59 267.14 L 776.59 271.09 C 776.59 271.82 777.18 272.41 777.91 272.41 L 781.86 272.41 L 781.86 279 L 784.5 279 L 784.5 272.41 L 789.77 272.41 L 789.77 279 L 792.41 279 L 792.41 272.41 L 797.68 272.41 L 797.68 279 L 800.32 279 L 800.32 272.41 L 805.59 272.41 L 805.59 279 L 808.23 279 L 808.23 272.41 L 813.5 272.41 L 813.5 279 L 816.14 279 L 816.14 272.41 L 820.09 272.41 C 820.82 272.41 821.41 271.82 821.41 271.09 L 821.41 267.14 L 828 267.14 L 828 264.5 L 821.41 264.5 L 821.41 259.23 L 828 259.23 L 828 256.59 L 821.41 256.59 L 821.41 251.32 L 828 251.32 L 828 248.68 L 821.41 248.68 L 821.41 243.41 L 828 243.41 L 828 240.77 L 821.41 240.77 L 821.41 235.5 Z M 779.23 269.77 L 779.23 230.23 L 818.77 230.23 L 818.77 269.77 Z M 793 245.4 L 789 245.4 L 789 243.56 L 799.26 243.56 L 799.26 245.4 L 795.26 245.4 L 795.26 256.35 L 793 256.35 Z M 804.13 256.62 C 802.95 256.62 801.79 256.38 800.66 255.88 L 800.66 254.15 C 802.01 254.6 803.14 254.83 804.05 254.83 C 804.92 254.83 805.59 254.64 806.06 254.25 C 806.53 253.86 806.77 253.31 806.77 252.6 C 806.77 251.25 805.92 250.57 804.21 250.57 C 803.66 250.57 803.07 250.61 802.43 250.68 L 802.43 249.26 L 806.07 245.31 L 800.85 245.31 L 800.85 243.56 L 808.47 243.56 L 808.47 245.23 L 804.63 249 C 804.8 248.99 804.97 248.98 805.14 248.98 C 805.86 248.98 806.51 249.13 807.09 249.43 C 807.67 249.74 808.14 250.16 808.48 250.72 C 808.83 251.27 809 251.9 809 252.62 C 809 253.39 808.81 254.08 808.41 254.68 C 808.02 255.29 807.45 255.76 806.71 256.1 C 805.98 256.45 805.12 256.62 804.13 256.62 Z" fill="#ed7100" stroke="none" pointer-events="all" style="fill: light-dark(rgb(237, 113, 0), rgb(216, 109, 12));"/></g><g><path d="M 60 344 L 136 344 L 136 420 L 60 420 Z" fill="#e7157b" stroke="none" pointer-events="all" style="fill: light-dark(rgb(231, 21, 123), rgb(255, 129, 217));"/><path d="M 72.02 379.79 C 73.24 379.79 74.23 380.78 74.23 382 C 74.23 383.22 73.24 384.21 72.02 384.21 C 70.8 384.21 69.81 383.22 69.81 382 C 69.81 380.78 70.8 379.79 72.02 379.79 Z M 98.55 408.53 C 85.63 408.53 74.55 399.1 72.24 386.4 C 74.19 386.3 75.81 384.94 76.29 383.11 L 83.08 383.11 L 83.08 380.89 L 76.29 380.89 C 75.81 379.06 74.2 377.7 72.24 377.6 C 74.55 365.1 85.85 355.47 98.55 355.47 C 103.32 355.47 108.32 357.26 113.4 360.8 L 114.66 358.98 C 109.2 355.18 103.78 353.26 98.55 353.26 C 84.48 353.26 71.97 364.16 69.88 378.15 C 68.53 378.91 67.6 380.34 67.6 382 C 67.6 383.66 68.53 385.09 69.88 385.84 C 71.99 400.06 84.24 410.74 98.55 410.74 C 104.53 410.74 110.65 408.7 115.78 405.01 L 114.49 403.21 C 109.73 406.64 104.07 408.53 98.55 408.53 Z M 86.5 378.07 C 88.55 378.57 91.12 378.68 93.03 378.68 C 94.84 378.68 97.25 378.58 99.25 378.14 L 94.25 388.14 C 94.17 388.29 94.13 388.46 94.13 388.63 L 94.13 393.56 C 93.25 394.12 91.74 395.06 90.81 395.25 L 90.81 388.63 C 90.81 388.49 90.79 388.34 90.73 388.21 Z M 93.03 374.26 C 97.47 374.26 99.85 374.93 100.59 375.37 C 99.85 375.81 97.47 376.47 93.03 376.47 C 88.58 376.47 86.2 375.81 85.46 375.37 C 86.2 374.93 88.58 374.26 93.03 374.26 Z M 89.71 397.48 L 90.81 397.48 C 90.86 397.48 90.91 397.47 90.96 397.47 C 92.31 397.29 94.03 396.25 95.54 395.28 L 95.83 395.09 C 96.15 394.89 96.34 394.54 96.34 394.16 L 96.34 388.89 L 102.49 376.61 C 102.79 376.25 102.97 375.85 102.97 375.37 C 102.97 372.48 96.74 372.05 93.03 372.05 C 89.31 372.05 83.08 372.48 83.08 375.37 C 83.08 375.77 83.21 376.12 83.43 376.44 L 88.6 388.85 L 88.6 396.37 C 88.6 396.98 89.1 397.48 89.71 397.48 Z M 121.77 396.37 C 122.99 396.37 123.98 397.36 123.98 398.58 C 123.98 399.8 122.99 400.79 121.77 400.79 C 120.55 400.79 119.56 399.8 119.56 398.58 C 119.56 397.36 120.55 396.37 121.77 396.37 Z M 121.77 363.21 C 122.99 363.21 123.98 364.2 123.98 365.42 C 123.98 366.64 122.99 367.63 121.77 367.63 C 120.55 367.63 119.56 366.64 119.56 365.42 C 119.56 364.2 120.55 363.21 121.77 363.21 Z M 123.98 379.79 C 125.2 379.79 126.19 380.78 126.19 382 C 126.19 383.22 125.2 384.21 123.98 384.21 C 122.76 384.21 121.77 383.22 121.77 382 C 121.77 380.78 122.76 379.79 123.98 379.79 Z M 112.92 383.11 L 119.71 383.11 C 120.21 385.01 121.92 386.42 123.98 386.42 C 126.42 386.42 128.4 384.44 128.4 382 C 128.4 379.56 126.42 377.58 123.98 377.58 C 121.92 377.58 120.21 378.99 119.71 380.89 L 112.92 380.89 L 112.92 366.52 L 117.5 366.52 C 118 368.43 119.71 369.84 121.77 369.84 C 124.21 369.84 126.19 367.86 126.19 365.42 C 126.19 362.98 124.21 361 121.77 361 C 119.71 361 118 362.41 117.5 364.31 L 111.82 364.31 C 111.21 364.31 110.71 364.81 110.71 365.42 L 110.71 380.89 L 102.97 380.89 L 102.97 383.11 L 110.71 383.11 L 110.71 398.58 C 110.71 399.19 111.21 399.69 111.82 399.69 L 117.5 399.69 C 118 401.59 119.71 403 121.77 403 C 124.21 403 126.19 401.02 126.19 398.58 C 126.19 396.14 124.21 394.16 121.77 394.16 C 119.71 394.16 118 395.57 117.5 397.48 L 112.92 397.48 Z" fill="#ffffff" stroke="none" pointer-events="all" style="fill: light-dark(rgb(255, 255, 255), rgb(18, 18, 18));"/></g></g><switch><g requiredFeatures="http://www.w3.org/TR/SVG11/feature#Extensibility"/><a transform="translate(0,-5)" xlink:href="https://www.drawio.com/doc/faq/svg-export-text-problems" target="_blank"><text text-anchor="middle" font-size="10px" x="50%" y="100%">Text is not SVG - cannot display</text></a></switch></svg>