<svg xmlns="http://www.w3.org/2000/svg" style="background: transparent; background-color: transparent;" xmlns:xlink="http://www.w3.org/1999/xlink" version="1.1" width="1601px" height="855px" viewBox="-0.5 -0.5 1601 855" content="&lt;mxfile&gt;&lt;diagram name=&quot;Arquitectura Lab-19&quot; id=&quot;lab19-arch&quot;&gt;7Vxbb9u4Ev41AtKHBNTV9qMt29kCbU+wKU73PAW0xNjEypJWohJnH85vPxySknWhT5RUctNuEiCRhhdRnI/fDIdjG7a/P1xnON19TkISGRYKD4a9NCzLsi2X/wPJk5S4yJKCbUZDKTKPglv6N1FCpKQFDUneqMiSJGI0bQqDJI5JwBoynGXJY7PafRI1n5riLekIbgMcdaXfaMh2SuoidCz4jdDtTj16VhbscVlZCfIdDpPHmsheGbafJQmTV/uDTyKYvHJeZLv1idJqYBmJWZ8GjDL+UqLRA44K9X6f8ObSnHGZsbKMKTJmDr/+943P/94QktF4Cw8pYpbAhNauDWsBaiX7JGcZDqjh28bCjoWM//nyL9BUhuOcMvpAQxyqWWBP5dQycuADX+zYPuICk1/iiG5jfh3wVyIZFzyQjFGujLkq2NMwhOaLxx1l5DbFAfT1yKHHZfdJzBSAzGl5rx5nqns/iZJMPN7mv2uYqUV3ItXcwtPJoSZSE3tNkj1h2ROvokodpeOnEh7y9rGGGKfEwa6GFltVxAql26rnoyL5hdKlXq8U5iomrKNaw/Iipt67MfPeX0VSFlzmYsbmvILppAcxHWU5v9rC/4/VE2SHfESyT1ncUSwfH1+ep9RU0/c9jaKaRlbm2l2DRjiikj9JrQRZk8liWZWUK9Fqad16XuvIdCezxTBavzRberc81FW8Tu9lu+/R+0MazNN0PK1LEsDwCNTiB2iGrkz3Cl3x67Xp9UVGlhRxSEKlmheiw15b66UOHabruT56Fh22Bh3PMg5LYFQ5HySnwq9wszSRBlZLZzI3h4GV1yITuwsqx9GAyvMGQBXdPupR1dJk/idhAYwGJiMpWERjrpLSBmtmqKLbbYZDSo5lcRKTrranvrNerzvaVpVDnO8EjFBNZdyUkegmAYOTgOo2CWPJ/qROO6qvQ68GG7MFG3gkzlP5ovf0AONYpImg4dUD7yxXnXCDn0KD/WELvtEVfsydq5Kt77aYkUf8NAxkTNTCzKSLGXcs+yMQ82kTjWiArr/1ZZgxnYqR173pui0ldt0I3bq3Blj2nOZvis14GkyLTUQD6KLYcPTn/OrC+nAWszFdu6uZzmxYq8nStjpmQ7f+X2MmvC5azIW7stA4S77aMdXQYnsauMwGgktGHzp4SbmQ81pXzwMqlJsFe4V0Cl2tPR91/YARFbryXBONpFDb6qnQQbxJElhvwu6vlhMTdbX709t9Pr93NM4ZjgHlg+Cl5SfaPW2+OxhaRrX5jOTsUuw+ZIebrCyRWw/4i7qFt7efYUAUQhVf5l+/322IyD0b2GkYkjUs+3kUWLot6BAw4Or5fcS4A7cSwpYwvIHIldiLQou2ztEVUjvRaqPqGTOriYAmfrza1rXRIpVBL0DeZbjRN570aRy83LlBr7GFul0SL5mJH60trEi0zXjoBbBXlvGTqKZFuSt+BuI6s4lyx9XYRluD8ukwgZbliK6xjLMA1k6EWbyzhlnW69VipQ3C+Z41taYdSJ0zzLKYmL7pD4Mptx207RtnsYfYcIUbrQM93Iar5YmfBzq/pmfuTltI0dhYrWduDoEU7mtp6efdMX+jjrnXPhXQ7MxHdMyXm/H98lOekXfSLb+W3XIjLZwmcXj40f98A6aP5OLI8HVHCj+t5z7pEcAZDSd5vn8LpPKrRvlJHIq64xCKfUZCEUAZlVBs4APfNmYTo8w8EAfO97AwLbRSU5l3SYWPTbS1jAW05bd7kud4S/K6mFPiUdzu4kLGC3Ial4/lvlLvuPRZucdd2e5ioKOGSWs/ZaPuUYM2ajDEEWO4OWfQgJsqXcygbWxeFAS4UHiBYym/gs+X+ddXnGi8b/pP0l47ID7VuN26DZo7wKkmQGCepn2MJCf7OWSagZWJcJ7TQGgAZ6wrrmm1CYG+p1P2/5tbEjaS2bozm5EIM/pAGq1006Sa3ggjdtwItV2W9llSnhRZQFSr42R3O2q7yO2O+OxtCet0JLRWvc/LFKkzYu2FLlhg5hszu7voccGSOxwEJIUXEe0Ry3hP3ZpRlDzeZWSfMHL3kAZ3YZzz2zyJCuG09Dcjw51ZN1Ki+vJJhcERzzHt9uba1STPTUfybhQ4/De4yMmBsj9UL3D9H+jjamJN1P3yoDoVN0+1mxuOaT4TgBspi/ms/CGaI+HnCoHsz3GcUnDsUNw91e/aXZ7UuyQAo4ybVkeKcj1Xcv/H8FVlUV7OV26ro5aJGY6v4gTybsfzj0qGA9e4maSbdJksaDlGgiPvOb9hjVMUQ1pwDj5XWhCxow8ygjNQY8FE6nCS/QV8iebfbkH7B7rVsKesItPISc6o6JZfwB5hDpnKJC7L/Y/L3w2VcAxDUtsHWNW9PbHXJqu+OE5u172wKj/5xPZTk7k6ZOzbRD18K0d3oGK1l9Crzg2z7OPprOWzMG+VB9w9zKj4ssWV7nNMqRib0yxyG6xtCTi8jLW/i2KbOeFj0+yl1TLh5itpttNR+/huOJqNyJYDa0Safa6j0002Peurj24cd7f8nTfHzpAtCbERDKntbkVuFhypK353gNzLlO9SFnyot0bH1tIYVNWugI1xiBsVYhIQblmwei5YgVzwfhoJMl8GVEouiljZBznkDxL5IKtZA5aJVuY9DcAk3EfFEy7tkzoxFfWOA5Ad5vJhYulE0FJalBjGA+P+hEtZ6/Mq0piFZF8Q+IwLTI2AEF9cMROGrZz5IBE2qI/WUjk0TbScq0/2U2mwjIyLmHsgESdtZ0aCHf4bi9EEUZEnNWsrLKEyuYII9iSk4k1v+Q6k+0mdSwUSYVf3wriLJ32RUbmLL5cmV8i6BZ36tNP4gZY5GsJY851KpRrlOnyVc8uvrlXmM9d7xCFsoQ9XXS/glPkG72VuzHnXa2MxNabrmhYq8PtJzsjpheEZzwQa0cV/DcsBd5m33MHU8v+FWAri4MI0VGoJggiQrG0DHe1JDi+DlgCYgmYSU3mplFQhOIC93FVfD2XM7WHb79Bs9oYN6TT4fTLreh2mgzRux0B5HLqN3qBpHMJh1mZxTM6bxWGv3LWrc3y8ubngK+hHZnE4c9OZjpTF4WjO5sfL4gjekzh+1iQOt2++/FBJHD2CTO85HG81h8PVJByOmMPhj5/CEXR9Lmmmnsng+IcnbZjP42K0dOs8378BEnnP2XgNgXhnJBDAya+WsvGmGGXMVAxPc/41GqME58zECL4vEUNjsN7zMH5EHsZE98HEkfMwtHzWQkf98P6MIZQ3f8LudBhGE3XRnbDbAzBMjNmb+Fzpr+q18Pkd9qskLKt51G31dFyG+CoJCZZRXZdj2PbHB19H/j4Ja9LSpObbibSfJ3/5sue3xy8yk6dxx6+Ds1f/Aw==&lt;/diagram&gt;&lt;/mxfile&gt;"><defs/><g><g><rect x="181" y="0" width="1420" height="35" fill="none" stroke="none" pointer-events="all"/></g><g><g transform="translate(-0.5 -0.5)"><switch><foreignObject style="overflow: visible; text-align: left;" pointer-events="none" width="100%" height="100%" requiredFeatures="http://www.w3.org/TR/SVG11/feature#Extensibility"><div xmlns="http://www.w3.org/1999/xhtml" style="display: flex; align-items: unsafe center; justify-content: unsafe center; width: 1418px; height: 1px; padding-top: 18px; margin-left: 182px;"><div style="box-sizing: border-box; font-size: 0; text-align: center; color: #232F3E; "><div style="display: inline-block; font-size: 18px; font-family: &quot;Helvetica&quot;; color: light-dark(#232F3E, #bdc7d4); line-height: 1.2; pointer-events: all; font-weight: bold; white-space: normal; word-wrap: normal; ">Lab-19 — VPC Peering punto a punto + demostración de NO transitividad</div></div></div></foreignObject><text x="891" y="23" fill="#232F3E" font-family="&quot;Helvetica&quot;" font-size="18px" text-anchor="middle" font-weight="bold">Lab-19 — VPC Peering punto a punto + demostración de NO transitividad</text></switch></g></g><g><ellipse cx="61" cy="265" rx="60" ry="20" fill="#e1f5fe" stroke="#0277bd" stroke-width="2" pointer-events="all" style="fill: light-dark(rgb(225, 245, 254), rgb(15, 33, 40)); stroke: light-dark(rgb(2, 119, 189), rgb(69, 169, 229));"/></g><g><g transform="translate(-0.5 -0.5)"><switch><foreignObject style="overflow: visible; text-align: left;" pointer-events="none" width="100%" height="100%" requiredFeatures="http://www.w3.org/TR/SVG11/feature#Extensibility"><div xmlns="http://www.w3.org/1999/xhtml" style="display: flex; align-items: unsafe center; justify-content: unsafe center; width: 118px; height: 1px; padding-top: 265px; margin-left: 2px;"><div style="box-sizing: border-box; font-size: 0; text-align: center; color: #01579B; "><div style="display: inline-block; font-size: 12px; font-family: &quot;Helvetica&quot;; color: light-dark(#01579B, #6fb9f3); line-height: 1.2; pointer-events: all; font-weight: bold; white-space: normal; word-wrap: normal; "><font style="font-size: 14px;">Internet</font></div></div></div></foreignObject><text x="61" y="269" fill="#01579B" font-family="&quot;Helvetica&quot;" font-size="12px" text-anchor="middle" font-weight="bold">Internet</text></switch></g></g><g><rect x="201" y="115" width="440" height="660" rx="66" ry="66" fill="#e3f2fd" stroke="#1565c0" stroke-width="2" pointer-events="all" style="fill: light-dark(rgb(227, 242, 253), rgb(20, 33, 42)); stroke: light-dark(rgb(21, 101, 192), rgb(99, 168, 246));"/></g><g><g transform="translate(-0.5 -0.5)"><switch><foreignObject style="overflow: visible; text-align: left;" pointer-events="none" width="100%" height="100%" requiredFeatures="http://www.w3.org/TR/SVG11/feature#Extensibility"><div xmlns="http://www.w3.org/1999/xhtml" style="display: flex; align-items: unsafe flex-start; justify-content: unsafe center; width: 438px; height: 1px; padding-top: 132px; margin-left: 202px;"><div style="box-sizing: border-box; font-size: 0; text-align: center; color: #0D47A1; "><div style="display: inline-block; font-size: 13px; font-family: &quot;Helvetica&quot;; color: light-dark(#0D47A1, #88baff); line-height: 1.2; pointer-events: all; font-weight: bold; white-space: normal; word-wrap: normal; "><font style="font-size: 14px;">VPC app  —  10.15.0.0/16</font></div></div></div></foreignObject><text x="421" y="145" fill="#0D47A1" font-family="&quot;Helvetica&quot;" font-size="13px" text-anchor="middle" font-weight="bold">VPC app  —  10.15.0.0/16</text></switch></g></g><g><rect x="241" y="155" width="50" height="35" fill="none" stroke="none" pointer-events="all"/><path d="M 273.55 181.45 L 272.36 181.45 L 272.36 167.36 C 272.36 167.04 272.18 166.76 271.89 166.63 L 271.82 166.6 C 270.22 165.87 268.56 165.13 266.18 165.13 C 263.69 165.13 261.86 165.93 260.05 166.83 C 259.78 166.96 259.61 167.24 259.61 167.54 L 259.61 181.45 L 258.45 181.45 L 258.45 166.41 C 260.39 164.83 263.18 163.93 266.18 163.93 C 268.98 163.93 271.64 164.73 273.55 166.12 Z M 266.18 162.34 C 262.66 162.34 259.35 163.47 257.12 165.44 C 256.95 165.59 256.85 165.81 256.85 166.04 L 256.85 182.24 C 256.85 182.68 257.21 183.04 257.65 183.04 L 260.41 183.04 C 260.85 183.04 261.21 182.68 261.21 182.24 L 261.21 168.04 C 262.74 167.3 264.22 166.72 266.18 166.72 C 268.04 166.72 269.39 167.26 270.77 167.87 L 270.77 182.24 C 270.77 182.68 271.12 183.04 271.56 183.04 L 274.35 183.04 C 274.79 183.04 275.15 182.68 275.15 182.24 L 275.15 165.73 C 275.15 165.49 275.04 165.26 274.85 165.1 C 272.64 163.35 269.48 162.34 266.18 162.34 Z M 266 188.41 C 257.23 188.41 250.09 181.27 250.09 172.5 C 250.09 163.73 257.23 156.59 266 156.59 C 274.77 156.59 281.91 163.73 281.91 172.5 C 281.91 181.27 274.77 188.41 266 188.41 Z M 266 155 C 256.35 155 248.5 162.85 248.5 172.5 C 248.5 182.15 256.35 190 266 190 C 275.65 190 283.5 182.15 283.5 172.5 C 283.5 162.85 275.65 155 266 155 Z" fill="#8c4fff" stroke="none" pointer-events="all" style="fill: light-dark(rgb(140, 79, 255), rgb(177, 125, 255));"/></g><g><rect x="296" y="160" width="40" height="20" fill="none" stroke="none" pointer-events="all"/></g><g><g transform="translate(-0.5 -0.5)"><switch><foreignObject style="overflow: visible; text-align: left;" pointer-events="none" width="100%" height="100%" requiredFeatures="http://www.w3.org/TR/SVG11/feature#Extensibility"><div xmlns="http://www.w3.org/1999/xhtml" style="display: flex; align-items: unsafe center; justify-content: unsafe center; width: 38px; height: 1px; padding-top: 170px; margin-left: 297px;"><div style="box-sizing: border-box; font-size: 0; text-align: center; color: #0D47A1; "><div style="display: inline-block; font-size: 10px; font-family: &quot;Helvetica&quot;; color: light-dark(#0D47A1, #88baff); line-height: 1.2; pointer-events: all; white-space: normal; word-wrap: normal; "><font style="font-size: 14px;">IGW</font></div></div></div></foreignObject><text x="316" y="173" fill="#0D47A1" font-family="&quot;Helvetica&quot;" font-size="10px" text-anchor="middle">IGW</text></switch></g></g><g><rect x="241" y="195" width="360" height="90" rx="13.5" ry="13.5" fill="#e8f5e9" stroke="#2e7d32" pointer-events="all" style="fill: light-dark(rgb(232, 245, 233), rgb(21, 33, 22)); stroke: light-dark(rgb(46, 125, 50), rgb(100, 168, 104));"/></g><g><g transform="translate(-0.5 -0.5)"><switch><foreignObject style="overflow: visible; text-align: left;" pointer-events="none" width="100%" height="100%" requiredFeatures="http://www.w3.org/TR/SVG11/feature#Extensibility"><div xmlns="http://www.w3.org/1999/xhtml" style="display: flex; align-items: unsafe flex-start; justify-content: unsafe center; width: 358px; height: 1px; padding-top: 208px; margin-left: 242px;"><div style="box-sizing: border-box; font-size: 0; text-align: center; color: #1B5E20; "><div style="display: inline-block; font-size: 11px; font-family: &quot;Helvetica&quot;; color: light-dark(#1B5E20, #82bc86); line-height: 1.2; pointer-events: all; white-space: normal; word-wrap: normal; "><font style="font-size: 14px;">public subnets (2)</font></div></div></div></foreignObject><text x="421" y="219" fill="#1B5E20" font-family="&quot;Helvetica&quot;" font-size="11px" text-anchor="middle">public subnets (2)</text></switch></g></g><g><rect x="241" y="305" width="360" height="240" rx="36" ry="36" fill="#fff3e0" stroke="#ef6c00" pointer-events="all" style="fill: light-dark(rgb(255, 243, 224), rgb(36, 26, 9)); stroke: light-dark(rgb(239, 108, 0), rgb(222, 110, 17));"/></g><g><g transform="translate(-0.5 -0.5)"><switch><foreignObject style="overflow: visible; text-align: left;" pointer-events="none" width="100%" height="100%" requiredFeatures="http://www.w3.org/TR/SVG11/feature#Extensibility"><div xmlns="http://www.w3.org/1999/xhtml" style="display: flex; align-items: unsafe flex-start; justify-content: unsafe center; width: 358px; height: 1px; padding-top: 318px; margin-left: 242px;"><div style="box-sizing: border-box; font-size: 0; text-align: center; color: #E65100; "><div style="display: inline-block; font-size: 11px; font-family: &quot;Helvetica&quot;; color: light-dark(#E65100, #fb7b35); line-height: 1.2; pointer-events: all; white-space: normal; word-wrap: normal; ">private subnets (2)</div></div></div></foreignObject><text x="421" y="329" fill="#E65100" font-family="&quot;Helvetica&quot;" font-size="11px" text-anchor="middle">private subnets (2)</text></switch></g></g><g><rect x="301" y="355" width="50" height="50" fill="#ed7100" stroke="none" pointer-events="all" style="fill: light-dark(rgb(237, 113, 0), rgb(216, 109, 12));"/></g><g><rect x="371" y="355" width="220" height="50" fill="none" stroke="none" pointer-events="all"/></g><g><g transform="translate(-0.5 -0.5)"><switch><foreignObject style="overflow: visible; text-align: left;" pointer-events="none" width="100%" height="100%" requiredFeatures="http://www.w3.org/TR/SVG11/feature#Extensibility"><div xmlns="http://www.w3.org/1999/xhtml" style="display: flex; align-items: unsafe center; justify-content: unsafe flex-start; width: 218px; height: 1px; padding-top: 380px; margin-left: 373px;"><div style="box-sizing: border-box; font-size: 0; text-align: left; color: #E65100; "><div style="display: inline-block; font-size: 10px; font-family: &quot;Helvetica&quot;; color: light-dark(#E65100, #fb7b35); line-height: 1.2; pointer-events: all; white-space: normal; word-wrap: normal; "><font style="font-size: 14px;">test-app<br />10.15.10.10<br />SSM via NAT</font></div></div></div></foreignObject><text x="373" y="383" fill="#E65100" font-family="&quot;Helvetica&quot;" font-size="10px">test-app...</text></switch></g></g><g><rect x="251" y="435" width="330" height="80" fill="#ffffff" stroke="#999999" stroke-dasharray="3 3" pointer-events="all" style="fill: light-dark(rgb(255, 255, 255), rgb(18, 18, 18)); stroke: light-dark(rgb(153, 153, 153), rgb(106, 106, 106));"/></g><g><g transform="translate(-0.5 -0.5)"><switch><foreignObject style="overflow: visible; text-align: left;" pointer-events="none" width="100%" height="100%" requiredFeatures="http://www.w3.org/TR/SVG11/feature#Extensibility"><div xmlns="http://www.w3.org/1999/xhtml" style="display: flex; align-items: unsafe center; justify-content: unsafe flex-start; width: 318px; height: 1px; padding-top: 475px; margin-left: 263px;"><div style="box-sizing: border-box; font-size: 0; text-align: left; color: #555555; "><div style="display: inline-block; font-size: 10px; font-family: &quot;Helvetica&quot;; color: light-dark(#555555, #a4a4a4); line-height: 1.2; pointer-events: all; white-space: normal; word-wrap: normal; "><font style="font-size: 14px;">route table app:<br />0.0.0.0/0 → NAT<br />10.16.0.0/16 → peering-app-db<br />10.17.0.0/16 → peering-app-c</font></div></div></div></foreignObject><text x="263" y="478" fill="#555555" font-family="&quot;Helvetica&quot;" font-size="10px">route table app:...</text></switch></g></g><g><rect x="681" y="115" width="440" height="320" rx="48" ry="48" fill="#ffebee" stroke="#c62828" stroke-width="2" pointer-events="all" style="fill: light-dark(rgb(255, 235, 238), rgb(44, 27, 30)); stroke: light-dark(rgb(198, 40, 40), rgb(255, 145, 145));"/></g><g><g transform="translate(-0.5 -0.5)"><switch><foreignObject style="overflow: visible; text-align: left;" pointer-events="none" width="100%" height="100%" requiredFeatures="http://www.w3.org/TR/SVG11/feature#Extensibility"><div xmlns="http://www.w3.org/1999/xhtml" style="display: flex; align-items: unsafe flex-start; justify-content: unsafe center; width: 438px; height: 1px; padding-top: 132px; margin-left: 682px;"><div style="box-sizing: border-box; font-size: 0; text-align: center; color: #B71C1C; "><div style="display: inline-block; font-size: 13px; font-family: &quot;Helvetica&quot;; color: light-dark(#B71C1C, #ff9c9c); line-height: 1.2; pointer-events: all; font-weight: bold; white-space: normal; word-wrap: normal; "><font style="font-size: 14px;">VPC db  —  10.16.0.0/16</font></div></div></div></foreignObject><text x="901" y="145" fill="#B71C1C" font-family="&quot;Helvetica&quot;" font-size="13px" text-anchor="middle" font-weight="bold">VPC db  —  10.16.0.0/16</text></switch></g></g><g><rect x="721" y="155" width="360" height="120" rx="18" ry="18" fill="#fff3e0" stroke="#ef6c00" pointer-events="all" style="fill: light-dark(rgb(255, 243, 224), rgb(36, 26, 9)); stroke: light-dark(rgb(239, 108, 0), rgb(222, 110, 17));"/></g><g><g transform="translate(-0.5 -0.5)"><switch><foreignObject style="overflow: visible; text-align: left;" pointer-events="none" width="100%" height="100%" requiredFeatures="http://www.w3.org/TR/SVG11/feature#Extensibility"><div xmlns="http://www.w3.org/1999/xhtml" style="display: flex; align-items: unsafe flex-start; justify-content: unsafe center; width: 358px; height: 1px; padding-top: 168px; margin-left: 722px;"><div style="box-sizing: border-box; font-size: 0; text-align: center; color: #E65100; "><div style="display: inline-block; font-size: 11px; font-family: &quot;Helvetica&quot;; color: light-dark(#E65100, #fb7b35); line-height: 1.2; pointer-events: all; white-space: normal; word-wrap: normal; "><font style="font-size: 14px;">private subnet</font></div></div></div></foreignObject><text x="901" y="179" fill="#E65100" font-family="&quot;Helvetica&quot;" font-size="11px" text-anchor="middle">private subnet</text></switch></g></g><g><rect x="781" y="195" width="50" height="50" fill="#ed7100" stroke="none" pointer-events="all" style="fill: light-dark(rgb(237, 113, 0), rgb(216, 109, 12));"/></g><g><rect x="841" y="195" width="250" height="50" fill="none" stroke="none" pointer-events="all"/></g><g><g transform="translate(-0.5 -0.5)"><switch><foreignObject style="overflow: visible; text-align: left;" pointer-events="none" width="100%" height="100%" requiredFeatures="http://www.w3.org/TR/SVG11/feature#Extensibility"><div xmlns="http://www.w3.org/1999/xhtml" style="display: flex; align-items: unsafe center; justify-content: unsafe flex-start; width: 248px; height: 1px; padding-top: 220px; margin-left: 843px;"><div style="box-sizing: border-box; font-size: 0; text-align: left; color: #E65100; "><div style="display: inline-block; font-size: 10px; font-family: &quot;Helvetica&quot;; color: light-dark(#E65100, #fb7b35); line-height: 1.2; pointer-events: all; white-space: normal; word-wrap: normal; "><font style="font-size: 14px;">test-db<br />10.16.10.10<br />SG: 3306 + ICMP desde 10.15.0.0/16</font></div></div></div></foreignObject><text x="843" y="223" fill="#E65100" font-family="&quot;Helvetica&quot;" font-size="10px">test-db...</text></switch></g></g><g><rect x="781" y="295" width="50" height="50" fill="none" stroke="none" pointer-events="all"/><path d="M 808.17 321.09 L 810.34 321.09 L 810.34 318.92 L 808.17 318.92 Z M 804.91 321.09 L 807.08 321.09 L 807.08 318.92 L 804.91 318.92 Z M 801.66 321.09 L 803.83 321.09 L 803.83 318.92 L 801.66 318.92 Z M 821.13 327.96 L 813.65 334.55 L 813.65 305.6 L 821.13 312.19 Z M 813.89 302.87 C 813.66 302.77 812.65 302.48 811.96 302.86 L 811.37 303.19 L 811.37 336.96 L 811.96 337.29 C 812.22 337.43 812.52 337.48 812.81 337.48 C 813.3 337.48 813.75 337.34 813.89 337.28 L 814.06 337.21 L 822.55 329.74 C 823.08 329.43 823.41 328.88 823.41 328.28 L 823.41 311.87 C 823.41 311.27 823.08 310.72 822.55 310.41 L 814.06 302.94 Z M 798.36 334.55 L 790.87 327.96 L 790.87 312.19 L 798.36 305.6 Z M 798.11 302.87 L 797.94 302.94 L 789.45 310.41 C 788.92 310.72 788.59 311.27 788.59 311.87 L 788.59 328.28 C 788.59 328.88 788.92 329.43 789.45 329.74 L 797.94 337.21 L 798.11 337.28 C 798.25 337.34 798.7 337.48 799.19 337.48 C 799.48 337.48 799.78 337.43 800.04 337.29 L 800.63 336.97 L 800.63 303.19 L 800.04 302.86 C 799.35 302.48 798.34 302.77 798.11 302.87 Z M 828.73 329.41 L 815.41 342.73 L 796.59 342.73 L 783.27 329.41 L 783.27 310.59 L 796.59 297.27 L 815.41 297.27 L 828.73 310.59 Z M 816.35 295 L 795.64 295 L 781 309.65 L 781 330.35 L 795.64 345 L 816.35 345 L 831 330.35 L 831 309.65 Z" fill="#8c4fff" stroke="none" pointer-events="all" style="fill: light-dark(rgb(140, 79, 255), rgb(177, 125, 255));"/></g><g><rect x="851" y="290" width="220" height="60" fill="none" stroke="none" pointer-events="all"/></g><g><g transform="translate(-0.5 -0.5)"><switch><foreignObject style="overflow: visible; text-align: left;" pointer-events="none" width="100%" height="100%" requiredFeatures="http://www.w3.org/TR/SVG11/feature#Extensibility"><div xmlns="http://www.w3.org/1999/xhtml" style="display: flex; align-items: unsafe center; justify-content: unsafe flex-start; width: 218px; height: 1px; padding-top: 320px; margin-left: 853px;"><div style="box-sizing: border-box; font-size: 0; text-align: left; color: #5E35B1; "><div style="display: inline-block; font-size: 10px; font-family: &quot;Helvetica&quot;; color: light-dark(#5E35B1, #c5a1ff); line-height: 1.2; pointer-events: all; white-space: normal; word-wrap: normal; "><font style="font-size: 14px;">3 × VPC Interface Endpoints<br />ssm · ssmmessages · ec2messages<br />(SSM sin Internet)</font></div></div></div></foreignObject><text x="853" y="323" fill="#5E35B1" font-family="&quot;Helvetica&quot;" font-size="10px">3 × VPC Interface Endpoints...</text></switch></g></g><g><rect x="741" y="365" width="340" height="55" fill="#ffffff" stroke="#999999" stroke-dasharray="3 3" pointer-events="all" style="fill: light-dark(rgb(255, 255, 255), rgb(18, 18, 18)); stroke: light-dark(rgb(153, 153, 153), rgb(106, 106, 106));"/></g><g><g transform="translate(-0.5 -0.5)"><switch><foreignObject style="overflow: visible; text-align: left;" pointer-events="none" width="100%" height="100%" requiredFeatures="http://www.w3.org/TR/SVG11/feature#Extensibility"><div xmlns="http://www.w3.org/1999/xhtml" style="display: flex; align-items: unsafe center; justify-content: unsafe flex-start; width: 328px; height: 1px; padding-top: 393px; margin-left: 753px;"><div style="box-sizing: border-box; font-size: 0; text-align: left; color: #555555; "><div style="display: inline-block; font-size: 10px; font-family: &quot;Helvetica&quot;; color: light-dark(#555555, #a4a4a4); line-height: 1.2; pointer-events: all; white-space: normal; word-wrap: normal; "><font style="font-size: 14px;">route table db:<br />10.15.0.0/16 → peering-app-db<br />(sin IGW, sin NAT)</font></div></div></div></foreignObject><text x="753" y="396" fill="#555555" font-family="&quot;Helvetica&quot;" font-size="10px">route table db:...</text></switch></g></g><g><path d="M 651.1 275 L 670.9 275" fill="none" stroke="#2e7d32" stroke-width="3" stroke-miterlimit="10" pointer-events="stroke" style="stroke: light-dark(rgb(46, 125, 50), rgb(100, 168, 104));"/><path d="M 644.35 275 L 653.35 270.5 L 651.1 275 L 653.35 279.5 Z" fill="#2e7d32" stroke="#2e7d32" stroke-width="3" stroke-miterlimit="10" pointer-events="all" style="fill: light-dark(rgb(46, 125, 50), rgb(100, 168, 104)); stroke: light-dark(rgb(46, 125, 50), rgb(100, 168, 104));"/><path d="M 677.65 275 L 668.65 279.5 L 670.9 275 L 668.65 270.5 Z" fill="#2e7d32" stroke="#2e7d32" stroke-width="3" stroke-miterlimit="10" pointer-events="all" style="fill: light-dark(rgb(46, 125, 50), rgb(100, 168, 104)); stroke: light-dark(rgb(46, 125, 50), rgb(100, 168, 104));"/></g><g><rect x="521" y="140" width="180" height="50" fill="#ffffff" stroke="#2e7d32" pointer-events="all" style="fill: light-dark(rgb(255, 255, 255), rgb(18, 18, 18)); stroke: light-dark(rgb(46, 125, 50), rgb(100, 168, 104));"/></g><g><g transform="translate(-0.5 -0.5)"><switch><foreignObject style="overflow: visible; text-align: left;" pointer-events="none" width="100%" height="100%" requiredFeatures="http://www.w3.org/TR/SVG11/feature#Extensibility"><div xmlns="http://www.w3.org/1999/xhtml" style="display: flex; align-items: unsafe center; justify-content: unsafe center; width: 178px; height: 1px; padding-top: 165px; margin-left: 522px;"><div style="box-sizing: border-box; font-size: 0; text-align: center; color: #1B5E20; "><div style="display: inline-block; font-size: 10px; font-family: &quot;Helvetica&quot;; color: light-dark(#1B5E20, #82bc86); line-height: 1.2; pointer-events: all; font-weight: bold; white-space: normal; word-wrap: normal; ">peering-app-db ✓<br />auto_accept = true<br />allow_remote_vpc_dns_resolution</div></div></div></foreignObject><text x="611" y="168" fill="#1B5E20" font-family="&quot;Helvetica&quot;" font-size="10px" text-anchor="middle" font-weight="bold">peering-app-db ✓...</text></switch></g></g><g><path d="M 651.09 595.33 L 675.75 596.57" fill="none" stroke="#2e7d32" stroke-width="3" stroke-miterlimit="10" pointer-events="stroke" style="stroke: light-dark(rgb(46, 125, 50), rgb(100, 168, 104));"/><path d="M 644.35 594.99 L 653.56 590.95 L 651.09 595.33 L 653.11 599.94 Z" fill="#2e7d32" stroke="#2e7d32" stroke-width="3" stroke-miterlimit="10" pointer-events="all" style="fill: light-dark(rgb(46, 125, 50), rgb(100, 168, 104)); stroke: light-dark(rgb(46, 125, 50), rgb(100, 168, 104));"/><path d="M 682.49 596.91 L 673.28 600.95 L 675.75 596.57 L 673.73 591.96 Z" fill="#2e7d32" stroke="#2e7d32" stroke-width="3" stroke-miterlimit="10" pointer-events="all" style="fill: light-dark(rgb(46, 125, 50), rgb(100, 168, 104)); stroke: light-dark(rgb(46, 125, 50), rgb(100, 168, 104));"/></g><g><ellipse cx="1356" cy="465" rx="215" ry="100" fill="#ffebee" stroke="#c62828" stroke-width="3" pointer-events="all" style="fill: light-dark(rgb(255, 235, 238), rgb(44, 27, 30)); stroke: light-dark(rgb(198, 40, 40), rgb(255, 145, 145));"/></g><g><g transform="translate(-0.5 -0.5)"><switch><foreignObject style="overflow: visible; text-align: left;" pointer-events="none" width="100%" height="100%" requiredFeatures="http://www.w3.org/TR/SVG11/feature#Extensibility"><div xmlns="http://www.w3.org/1999/xhtml" style="display: flex; align-items: unsafe center; justify-content: unsafe center; width: 428px; height: 1px; padding-top: 465px; margin-left: 1142px;"><div style="box-sizing: border-box; font-size: 0; text-align: center; color: #B71C1C; "><div style="display: inline-block; font-size: 11px; font-family: &quot;Helvetica&quot;; color: light-dark(#B71C1C, #ff9c9c); line-height: 1.2; pointer-events: all; font-weight: bold; white-space: normal; word-wrap: normal; "><font style="font-size: 14px;">✗ NO transitivo<br />c → db falla<br />(no se puede crear ruta porque AWS exige<br />que el destino esté en el CIDR de la VPC peer)</font></div></div></div></foreignObject><text x="1356" y="468" fill="#B71C1C" font-family="&quot;Helvetica&quot;" font-size="11px" text-anchor="middle" font-weight="bold">✗ NO transitivo...</text></switch></g></g><g><path d="M 194.96 265.43 L 129.24 265.05" fill="none" stroke="#01579b" stroke-width="2" stroke-miterlimit="10" pointer-events="stroke" style="stroke: light-dark(rgb(1, 87, 155), rgb(111, 185, 243));"/><path d="M 200.96 265.47 L 192.94 269.42 L 194.96 265.43 L 192.99 261.42 Z" fill="#01579b" stroke="#01579b" stroke-width="2" stroke-miterlimit="10" pointer-events="all" style="fill: light-dark(rgb(1, 87, 155), rgb(111, 185, 243)); stroke: light-dark(rgb(1, 87, 155), rgb(111, 185, 243));"/><path d="M 123.24 265.01 L 131.26 261.06 L 129.24 265.05 L 131.21 269.06 Z" fill="#01579b" stroke="#01579b" stroke-width="2" stroke-miterlimit="10" pointer-events="all" style="fill: light-dark(rgb(1, 87, 155), rgb(111, 185, 243)); stroke: light-dark(rgb(1, 87, 155), rgb(111, 185, 243));"/></g><g><rect x="201" y="775" width="1400" height="80" fill="none" stroke="none" pointer-events="all"/></g><g><g transform="translate(-0.5 -0.5)"><switch><foreignObject style="overflow: visible; text-align: left;" pointer-events="none" width="100%" height="100%" requiredFeatures="http://www.w3.org/TR/SVG11/feature#Extensibility"><div xmlns="http://www.w3.org/1999/xhtml" style="display: flex; align-items: unsafe center; justify-content: unsafe center; width: 1398px; height: 1px; padding-top: 815px; margin-left: 202px;"><div style="box-sizing: border-box; font-size: 0; text-align: center; color: #555555; "><div style="display: inline-block; font-size: 11px; font-family: &quot;Helvetica&quot;; color: light-dark(#555555, #a4a4a4); line-height: 1.2; pointer-events: all; font-style: italic; white-space: normal; word-wrap: normal; "><font style="font-size: 14px;"><font style=""><b style="">Lab-19:</b> 3 VPCs · 2 peerings (app↔db, app↔c) · 0 peering db↔c. Cada peering necesita 2 rutas explícitas (una por VPC) para que el tráfico fluya — el peering por sí solo no enruta. La no transitividad se demuestra al intentar <code style="">ping 10.16.10.10</code> desde test-c: AWS rechaza incluso crear la ruta intermedia. Solución de N-VPCs en malla: N×(N-1)/2 peerings — inviable a escala → Transit Gateway (lab-20).<br /></font>⚠️ <b>Coste:</b> 6 VPC Interface Endpoints (~$0.01/h c/u) + 1 NAT GW (~$32/mes). Destruir tras la práctica.</font></div></div></div></foreignObject><text x="901" y="818" fill="#555555" font-family="&quot;Helvetica&quot;" font-size="11px" text-anchor="middle" font-style="italic">Lab-19: 3 VPCs · 2 peerings (app↔db, app↔c) · 0 peering db↔c. Cada peering necesita 2 rutas explícitas (una por VPC) para que el tráfico fluya — el peering por sí solo no enruta. La no transitividad se demuestra al intentar ping 10.16.10.10 desde test-c: AWS...</text></switch></g></g><g><rect x="681" y="455" width="440" height="320" rx="48" ry="48" fill="#f3e5f5" stroke="#6a1b9a" stroke-width="2" pointer-events="all" style="fill: light-dark(rgb(243, 229, 245), rgb(45, 33, 47)); stroke: light-dark(rgb(106, 27, 154), rgb(237, 169, 255));"/></g><g><g transform="translate(-0.5 -0.5)"><switch><foreignObject style="overflow: visible; text-align: left;" pointer-events="none" width="100%" height="100%" requiredFeatures="http://www.w3.org/TR/SVG11/feature#Extensibility"><div xmlns="http://www.w3.org/1999/xhtml" style="display: flex; align-items: unsafe flex-start; justify-content: unsafe center; width: 438px; height: 1px; padding-top: 472px; margin-left: 682px;"><div style="box-sizing: border-box; font-size: 0; text-align: center; color: #4A148C; "><div style="display: inline-block; font-size: 13px; font-family: &quot;Helvetica&quot;; color: light-dark(#4A148C, #e8baff); line-height: 1.2; pointer-events: all; font-weight: bold; white-space: normal; word-wrap: normal; "><font style="font-size: 14px;">VPC c  —  10.17.0.0/16</font></div></div></div></foreignObject><text x="901" y="485" fill="#4A148C" font-family="&quot;Helvetica&quot;" font-size="13px" text-anchor="middle" font-weight="bold">VPC c  —  10.17.0.0/16</text></switch></g></g><g><rect x="721" y="495" width="360" height="120" rx="18" ry="18" fill="#fff3e0" stroke="#ef6c00" pointer-events="all" style="fill: light-dark(rgb(255, 243, 224), rgb(36, 26, 9)); stroke: light-dark(rgb(239, 108, 0), rgb(222, 110, 17));"/></g><g><g transform="translate(-0.5 -0.5)"><switch><foreignObject style="overflow: visible; text-align: left;" pointer-events="none" width="100%" height="100%" requiredFeatures="http://www.w3.org/TR/SVG11/feature#Extensibility"><div xmlns="http://www.w3.org/1999/xhtml" style="display: flex; align-items: unsafe flex-start; justify-content: unsafe center; width: 358px; height: 1px; padding-top: 508px; margin-left: 722px;"><div style="box-sizing: border-box; font-size: 0; text-align: center; color: #E65100; "><div style="display: inline-block; font-size: 11px; font-family: &quot;Helvetica&quot;; color: light-dark(#E65100, #fb7b35); line-height: 1.2; pointer-events: all; white-space: normal; word-wrap: normal; "><font style="font-size: 14px;">private subnet</font></div></div></div></foreignObject><text x="901" y="519" fill="#E65100" font-family="&quot;Helvetica&quot;" font-size="11px" text-anchor="middle">private subnet</text></switch></g></g><g><rect x="781" y="535" width="50" height="50" fill="#ed7100" stroke="none" pointer-events="all" style="fill: light-dark(rgb(237, 113, 0), rgb(216, 109, 12));"/></g><g><rect x="851" y="535" width="220" height="50" fill="none" stroke="none" pointer-events="all"/></g><g><g transform="translate(-0.5 -0.5)"><switch><foreignObject style="overflow: visible; text-align: left;" pointer-events="none" width="100%" height="100%" requiredFeatures="http://www.w3.org/TR/SVG11/feature#Extensibility"><div xmlns="http://www.w3.org/1999/xhtml" style="display: flex; align-items: unsafe center; justify-content: unsafe flex-start; width: 218px; height: 1px; padding-top: 560px; margin-left: 853px;"><div style="box-sizing: border-box; font-size: 0; text-align: left; color: #E65100; "><div style="display: inline-block; font-size: 10px; font-family: &quot;Helvetica&quot;; color: light-dark(#E65100, #fb7b35); line-height: 1.2; pointer-events: all; white-space: normal; word-wrap: normal; "><font style="font-size: 14px;">test-c<br />10.17.10.10<br />SG: ICMP desde 10.15.0.0/16</font></div></div></div></foreignObject><text x="853" y="563" fill="#E65100" font-family="&quot;Helvetica&quot;" font-size="10px">test-c...</text></switch></g></g><g><rect x="781" y="635" width="50" height="50" fill="none" stroke="none" pointer-events="all"/><path d="M 808.17 661.09 L 810.34 661.09 L 810.34 658.92 L 808.17 658.92 Z M 804.91 661.09 L 807.08 661.09 L 807.08 658.92 L 804.91 658.92 Z M 801.66 661.09 L 803.83 661.09 L 803.83 658.92 L 801.66 658.92 Z M 821.13 667.96 L 813.65 674.55 L 813.65 645.6 L 821.13 652.19 Z M 813.89 642.87 C 813.66 642.77 812.65 642.48 811.96 642.86 L 811.37 643.19 L 811.37 676.96 L 811.96 677.29 C 812.22 677.43 812.52 677.48 812.81 677.48 C 813.3 677.48 813.75 677.34 813.89 677.28 L 814.06 677.21 L 822.55 669.74 C 823.08 669.43 823.41 668.88 823.41 668.28 L 823.41 651.87 C 823.41 651.27 823.08 650.72 822.55 650.41 L 814.06 642.94 Z M 798.36 674.55 L 790.87 667.96 L 790.87 652.19 L 798.36 645.6 Z M 798.11 642.87 L 797.94 642.94 L 789.45 650.41 C 788.92 650.72 788.59 651.27 788.59 651.87 L 788.59 668.28 C 788.59 668.88 788.92 669.43 789.45 669.74 L 797.94 677.21 L 798.11 677.28 C 798.25 677.34 798.7 677.48 799.19 677.48 C 799.48 677.48 799.78 677.43 800.04 677.29 L 800.63 676.97 L 800.63 643.19 L 800.04 642.86 C 799.35 642.48 798.34 642.77 798.11 642.87 Z M 828.73 669.41 L 815.41 682.73 L 796.59 682.73 L 783.27 669.41 L 783.27 650.59 L 796.59 637.27 L 815.41 637.27 L 828.73 650.59 Z M 816.35 635 L 795.64 635 L 781 649.65 L 781 670.35 L 795.64 685 L 816.35 685 L 831 670.35 L 831 649.65 Z" fill="#8c4fff" stroke="none" pointer-events="all" style="fill: light-dark(rgb(140, 79, 255), rgb(177, 125, 255));"/></g><g><rect x="851" y="640" width="220" height="50" fill="none" stroke="none" pointer-events="all"/></g><g><g transform="translate(-0.5 -0.5)"><switch><foreignObject style="overflow: visible; text-align: left;" pointer-events="none" width="100%" height="100%" requiredFeatures="http://www.w3.org/TR/SVG11/feature#Extensibility"><div xmlns="http://www.w3.org/1999/xhtml" style="display: flex; align-items: unsafe center; justify-content: unsafe flex-start; width: 218px; height: 1px; padding-top: 665px; margin-left: 853px;"><div style="box-sizing: border-box; font-size: 0; text-align: left; color: #5E35B1; "><div style="display: inline-block; font-size: 10px; font-family: &quot;Helvetica&quot;; color: light-dark(#5E35B1, #c5a1ff); line-height: 1.2; pointer-events: all; white-space: normal; word-wrap: normal; "><font style="font-size: 14px;">3 × VPC Interface Endpoints<br />ssm · ssmmessages · ec2messages</font></div></div></div></foreignObject><text x="853" y="668" fill="#5E35B1" font-family="&quot;Helvetica&quot;" font-size="10px">3 × VPC Interface Endpoints...</text></switch></g></g><g><rect x="741" y="705" width="340" height="55" fill="#ffffff" stroke="#999999" stroke-dasharray="3 3" pointer-events="all" style="fill: light-dark(rgb(255, 255, 255), rgb(18, 18, 18)); stroke: light-dark(rgb(153, 153, 153), rgb(106, 106, 106));"/></g><g><g transform="translate(-0.5 -0.5)"><switch><foreignObject style="overflow: visible; text-align: left;" pointer-events="none" width="100%" height="100%" requiredFeatures="http://www.w3.org/TR/SVG11/feature#Extensibility"><div xmlns="http://www.w3.org/1999/xhtml" style="display: flex; align-items: unsafe center; justify-content: unsafe flex-start; width: 328px; height: 1px; padding-top: 733px; margin-left: 753px;"><div style="box-sizing: border-box; font-size: 0; text-align: left; color: #555555; "><div style="display: inline-block; font-size: 10px; font-family: &quot;Helvetica&quot;; color: light-dark(#555555, #a4a4a4); line-height: 1.2; pointer-events: all; white-space: normal; word-wrap: normal; "><font style="font-size: 14px;">route table c:<br />10.15.0.0/16 → peering-app-c<br />(sin IGW, sin NAT)</font></div></div></div></foreignObject><text x="753" y="736" fill="#555555" font-family="&quot;Helvetica&quot;" font-size="10px">route table c:...</text></switch></g></g><g><rect x="551" y="635" width="180" height="30" fill="#ffffff" stroke="#2e7d32" pointer-events="all" style="fill: light-dark(rgb(255, 255, 255), rgb(18, 18, 18)); stroke: light-dark(rgb(46, 125, 50), rgb(100, 168, 104));"/></g><g><g transform="translate(-0.5 -0.5)"><switch><foreignObject style="overflow: visible; text-align: left;" pointer-events="none" width="100%" height="100%" requiredFeatures="http://www.w3.org/TR/SVG11/feature#Extensibility"><div xmlns="http://www.w3.org/1999/xhtml" style="display: flex; align-items: unsafe center; justify-content: unsafe center; width: 178px; height: 1px; padding-top: 650px; margin-left: 552px;"><div style="box-sizing: border-box; font-size: 0; text-align: center; color: #1B5E20; "><div style="display: inline-block; font-size: 10px; font-family: &quot;Helvetica&quot;; color: light-dark(#1B5E20, #82bc86); line-height: 1.2; pointer-events: all; font-weight: bold; white-space: normal; word-wrap: normal; ">peering-app-c ✓</div></div></div></foreignObject><text x="641" y="653" fill="#1B5E20" font-family="&quot;Helvetica&quot;" font-size="10px" text-anchor="middle" font-weight="bold">peering-app-c ✓</text></switch></g></g><g><rect x="366" y="235" width="50" height="35" fill="none" stroke="none" pointer-events="all"/><path d="M 382.75 261.98 L 382.75 259.72 L 384.16 260.85 Z M 382.45 257.45 C 382.21 257.26 381.88 257.22 381.61 257.35 C 381.33 257.48 381.16 257.76 381.16 258.07 L 381.16 263.64 C 381.16 263.94 381.33 264.22 381.61 264.35 C 381.72 264.41 381.83 264.43 381.95 264.43 C 382.13 264.43 382.31 264.37 382.45 264.26 L 385.93 261.47 C 386.12 261.32 386.23 261.09 386.23 260.85 C 386.23 260.61 386.12 260.38 385.93 260.23 Z M 401.54 254.76 L 401.54 251.64 L 403.1 253.2 Z M 404.79 252.63 L 401.31 249.15 C 401.08 248.93 400.74 248.86 400.44 248.98 C 400.14 249.1 399.95 249.39 399.95 249.72 L 399.95 252.4 L 393.88 252.4 L 393.88 244.84 C 393.88 244.4 393.53 244.05 393.09 244.05 L 386.97 244.05 L 386.97 245.64 L 392.29 245.64 L 392.29 252.4 L 386.82 252.4 L 386.82 253.99 L 392.29 253.99 L 392.29 260.75 L 386.97 260.75 L 386.97 262.34 L 393.09 262.34 C 393.53 262.34 393.88 261.99 393.88 261.55 L 393.88 253.99 L 399.95 253.99 L 399.95 256.68 C 399.95 257 400.14 257.29 400.44 257.41 C 400.54 257.45 400.64 257.47 400.74 257.47 C 400.95 257.47 401.15 257.39 401.31 257.24 L 404.79 253.76 C 405.1 253.45 405.1 252.94 404.79 252.63 Z M 382.75 254.33 L 382.75 252.07 L 384.16 253.2 Z M 382.45 249.79 C 382.21 249.6 381.88 249.56 381.61 249.7 C 381.33 249.83 381.16 250.11 381.16 250.41 L 381.16 255.98 C 381.16 256.29 381.33 256.56 381.61 256.7 C 381.72 256.75 381.83 256.78 381.95 256.78 C 382.13 256.78 382.31 256.72 382.45 256.6 L 385.93 253.82 C 386.12 253.67 386.23 253.44 386.23 253.2 C 386.23 252.95 386.12 252.73 385.93 252.57 Z M 382.75 245.97 L 382.75 243.72 L 384.16 244.84 Z M 382.45 241.44 C 382.21 241.25 381.88 241.21 381.61 241.34 C 381.33 241.48 381.16 241.75 381.16 242.06 L 381.16 247.63 C 381.16 247.93 381.33 248.21 381.61 248.34 C 381.72 248.4 381.83 248.42 381.95 248.42 C 382.13 248.42 382.31 248.36 382.45 248.25 L 385.93 245.47 C 386.12 245.31 386.23 245.09 386.23 244.84 C 386.23 244.6 386.12 244.37 385.93 244.22 Z M 391 268.41 C 382.23 268.41 375.09 261.27 375.09 252.5 C 375.09 243.73 382.23 236.59 391 236.59 C 399.77 236.59 406.91 243.73 406.91 252.5 C 406.91 261.27 399.77 268.41 391 268.41 Z M 391 235 C 381.35 235 373.5 242.85 373.5 252.5 C 373.5 262.15 381.35 270 391 270 C 400.65 270 408.5 262.15 408.5 252.5 C 408.5 242.85 400.65 235 391 235 Z" fill="#8c4fff" stroke="none" pointer-events="all" style="fill: light-dark(rgb(140, 79, 255), rgb(177, 125, 255));"/></g><g><rect x="416" y="245" width="60" height="20" fill="none" stroke="none" pointer-events="all"/></g><g><g transform="translate(-0.5 -0.5)"><switch><foreignObject style="overflow: visible; text-align: left;" pointer-events="none" width="100%" height="100%" requiredFeatures="http://www.w3.org/TR/SVG11/feature#Extensibility"><div xmlns="http://www.w3.org/1999/xhtml" style="display: flex; align-items: unsafe center; justify-content: unsafe center; width: 58px; height: 1px; padding-top: 255px; margin-left: 417px;"><div style="box-sizing: border-box; font-size: 0; text-align: center; color: #0D47A1; "><div style="display: inline-block; font-size: 10px; font-family: &quot;Helvetica&quot;; color: light-dark(#0D47A1, #88baff); line-height: 1.2; pointer-events: all; white-space: normal; word-wrap: normal; "><font style="font-size: 14px;">NAT GW</font></div></div></div></foreignObject><text x="446" y="258" fill="#0D47A1" font-family="&quot;Helvetica&quot;" font-size="10px" text-anchor="middle">NAT GW</text></switch></g></g></g><switch><g requiredFeatures="http://www.w3.org/TR/SVG11/feature#Extensibility"/><a transform="translate(0,-5)" xlink:href="https://www.drawio.com/doc/faq/svg-export-text-problems" target="_blank"><text text-anchor="middle" font-size="10px" x="50%" y="100%">Text is not SVG - cannot display</text></a></switch></svg>